G04 DipTrace 2.4.0.2*
%INBottomMask.gbr*%
%MOMM*%
%ADD45R,2.0X0.6*%
%ADD59C,3.0*%
%ADD60C,0.9*%
%ADD61C,1.5*%
%ADD65R,2.4X1.6*%
%ADD67R,0.722X0.8*%
%ADD69C,0.45*%
%ADD71R,0.6X2.0*%
%ADD73R,1.6X0.5*%
%ADD75R,2.3X3.4*%
%ADD77R,0.5X0.95*%
%ADD79R,0.85X0.5*%
%ADD82R,2.2X0.8*%
%ADD83C,1.724*%
%ADD86R,1.3X1.2*%
%ADD87R,1.7X1.5*%
%ADD89R,0.85X1.25*%
%ADD91R,1.25X0.85*%
%ADD93R,4.26X2.11*%
%ADD95R,2.35X1.7*%
%ADD97R,2.2X2.7*%
%ADD99R,0.7X2.5*%
%ADD101R,2.2X2.8*%
%ADD103R,0.8X1.8*%
%ADD105C,1.9*%
%ADD108R,1.9X1.9*%
%ADD110R,2.6X2.6*%
%ADD112R,3.5X1.85*%
%ADD114R,1.8X2.0*%
%ADD116R,1.85X3.5*%
%ADD118R,2.0X1.8*%
%ADD120R,1.2X1.3*%
%ADD123R,1.5X1.75*%
%FSLAX53Y53*%
G04*
G71*
G90*
G75*
G01*
%LNBotMask*%
%LPD*%
D86*
X45760Y54160D3*
X47460D3*
X84080Y58080D3*
X82380D3*
D120*
X66240Y48600D3*
Y46900D3*
D118*
X67386Y38880D3*
Y36080D3*
D120*
X63795Y38333D3*
Y36633D3*
D116*
X66960Y20470D3*
Y15270D3*
D118*
X73060Y38880D3*
Y36080D3*
D120*
X76982Y38334D3*
Y36634D3*
D116*
X77120Y19350D3*
Y14150D3*
D86*
X61410Y23320D3*
X59710D3*
D114*
X81520Y18480D3*
X84320D3*
D86*
X82070Y22000D3*
X83770D3*
X55280Y23360D3*
X53580D3*
X80880Y68680D3*
X79180D3*
X76880Y58080D3*
X75180D3*
X80480D3*
X78780D3*
X25920Y52000D3*
X27620D3*
X21860Y50090D3*
X20160D3*
X35200Y37120D3*
X36900D3*
D118*
X28000Y39750D3*
Y36950D3*
D112*
X21350Y64960D3*
X26550D3*
D86*
X27680Y45760D3*
X25980D3*
X37920Y21840D3*
X36220D3*
D120*
X45150Y42190D3*
Y43890D3*
D116*
X21280Y42850D3*
Y37650D3*
D86*
X32030Y18560D3*
X30330D3*
X20400Y21840D3*
X18700D3*
X20400Y18560D3*
X18700D3*
D110*
X42240Y23360D3*
X46640D3*
D86*
X20160Y57200D3*
X21860D3*
D110*
X31430Y37360D3*
Y32960D3*
D108*
X15129Y67653D3*
D105*
X12589D3*
X15129Y65113D3*
X12589D3*
X15129Y62573D3*
X12589D3*
X15129Y60033D3*
X12589D3*
X15129Y57493D3*
X12589D3*
X15129Y54953D3*
X12589D3*
X15129Y52413D3*
X12589D3*
X15129Y49873D3*
X12589D3*
X15129Y47333D3*
X12589D3*
X15129Y44793D3*
X12589D3*
X15129Y42253D3*
X12589D3*
X15129Y39713D3*
X12589D3*
X15129Y37173D3*
X12589D3*
X15129Y34633D3*
X12589D3*
X15129Y32093D3*
X12589D3*
X15129Y29553D3*
X12589D3*
X15129Y27013D3*
X12589D3*
X15129Y24473D3*
X12589D3*
X15129Y21933D3*
X12589D3*
X15129Y19393D3*
X12589D3*
D59*
X13859Y72523D3*
Y14523D3*
X36859D3*
Y72523D3*
D103*
X54882Y55773D3*
X55678D3*
X56478D3*
X57278D3*
X58078D3*
X58878D3*
X59678D3*
X60478D3*
X61278D3*
X62078D3*
X62878D3*
X63678D3*
X64478D3*
X65278D3*
X66078D3*
X66878D3*
D101*
X71148Y58232D3*
X52214D3*
D103*
X67678Y55773D3*
X68477D3*
D108*
X72120Y11520D3*
D105*
X69580D3*
X67040D3*
D99*
X47680Y17760D3*
X46880D3*
X46080D3*
X45280D3*
X44480D3*
D97*
X50530Y17660D3*
X41630D3*
X50530Y12160D3*
X41630D3*
D60*
X48280Y15160D3*
X43880D3*
D108*
X23445Y75440D3*
D105*
X25985D3*
X28525D3*
X31065D3*
D95*
X60800Y12000D3*
X54368Y20797D3*
X60788Y21397D3*
X60822Y19097D3*
X54291Y15347D3*
Y11997D3*
D61*
X57783Y12297D3*
Y19297D3*
D108*
X31280Y14830D3*
D105*
Y12290D3*
X28740Y14830D3*
Y12290D3*
X26200Y14830D3*
Y12290D3*
X23660Y14830D3*
Y12290D3*
X21120Y14830D3*
Y12290D3*
D93*
X21280Y25970D3*
Y32960D3*
D91*
X39520Y31120D3*
Y33020D3*
X41820Y32070D3*
D89*
X69520Y42480D3*
X67620D3*
X68570Y44780D3*
D86*
X43970Y50910D3*
X42270D3*
X43840Y54160D3*
X42140D3*
X83770Y25330D3*
X82070D3*
X65440Y28120D3*
X67140D3*
X61410Y26640D3*
X59710D3*
X61410Y30080D3*
X59710D3*
X55280Y26640D3*
X53580D3*
X55280Y30080D3*
X53580D3*
X65440Y24960D3*
X67140D3*
X83770Y28720D3*
X82070D3*
X65440Y31440D3*
X67140D3*
X78800Y29280D3*
X77100D3*
X34860Y53660D3*
X36560D3*
Y60480D3*
X34860D3*
X36560Y57110D3*
X34860D3*
X21860Y53640D3*
X20160D3*
D87*
X61440Y46800D3*
Y48700D3*
X56880Y46800D3*
Y48700D3*
X51840Y46800D3*
Y48700D3*
X46560Y46800D3*
Y48700D3*
D120*
X72880Y42000D3*
Y43700D3*
X76800Y42080D3*
Y43780D3*
D86*
X38880Y44280D3*
X40580D3*
X27700Y48880D3*
X26000D3*
X40720Y40790D3*
X39020D3*
D120*
X64160Y43760D3*
Y42060D3*
X54240Y43840D3*
Y42140D3*
D86*
X25600Y21840D3*
X23900D3*
X37040Y32240D3*
X35340D3*
X39180Y37040D3*
X40880D3*
X30260Y21840D3*
X28560D3*
X37760Y18560D3*
X36060D3*
D120*
X59440Y43760D3*
Y42060D3*
X49200Y43760D3*
Y42060D3*
X76720Y48600D3*
Y46900D3*
X72640Y48600D3*
Y46900D3*
D123*
X83920Y46240D3*
Y54190D3*
X79420Y46240D3*
Y54190D3*
X83920Y32800D3*
Y40750D3*
X79420Y32800D3*
Y40750D3*
D83*
X18720Y73310D3*
X40700Y26850D3*
X71840Y52400D3*
X76320Y52410D3*
D82*
X46440Y61760D3*
Y60490D3*
Y59220D3*
Y57950D3*
X41040D3*
Y59220D3*
Y60490D3*
Y61760D3*
D45*
X70880Y23440D3*
Y24090D3*
Y24740D3*
Y25390D3*
Y26040D3*
Y26690D3*
Y27340D3*
Y27990D3*
X76680D3*
Y27340D3*
Y26690D3*
Y26040D3*
Y25390D3*
Y24740D3*
Y24090D3*
Y23440D3*
D79*
X83600Y64580D3*
Y64080D3*
Y63580D3*
Y63080D3*
Y62580D3*
Y62080D3*
D77*
X82875Y61355D3*
X82375D3*
X81875D3*
X81375D3*
X80875D3*
X80375D3*
D79*
X79650Y62080D3*
Y62580D3*
Y63080D3*
Y63580D3*
Y64080D3*
Y64580D3*
D77*
X80375Y65305D3*
X80875D3*
X81375D3*
X81875D3*
X82375D3*
X82875D3*
D82*
X31280Y59040D3*
Y57770D3*
Y56500D3*
Y55230D3*
X25880D3*
Y56500D3*
Y57770D3*
Y59040D3*
D75*
X28580Y57035D3*
D73*
X30720Y26160D3*
Y26660D3*
Y27160D3*
Y27660D3*
Y28160D3*
X35120D3*
Y27660D3*
Y27160D3*
Y26660D3*
Y26160D3*
D71*
X47210Y37800D3*
X47860D3*
X48510D3*
X49160D3*
X49810D3*
X50460D3*
X51110D3*
X51760D3*
Y32000D3*
X51110D3*
X50460D3*
X49810D3*
X49160D3*
X48510D3*
X47860D3*
X47210D3*
D69*
X54929Y35260D3*
D67*
X55470Y34370D3*
Y36169D3*
X56292Y36148D3*
Y35252D3*
Y34353D3*
D65*
X32880Y67040D3*
Y64540D3*
X39180D3*
Y67040D3*
D86*
X59830Y33410D3*
X61530D3*
D59*
X83000Y12840D3*
Y74160D3*
M02*
