G04 DipTrace 2.4.0.2*
%INBottomPaste.gbr*%
%MOMM*%
%ADD46R,1.8X0.4*%
%ADD66R,2.0X1.2*%
%ADD68R,0.322X0.4*%
%ADD70C,0.05*%
%ADD72R,0.2X1.6*%
%ADD74R,1.2X0.1*%
%ADD76R,1.9X3.0*%
%ADD78R,0.1X0.55*%
%ADD80R,0.45X0.1*%
%ADD81R,1.6X0.2*%
%ADD84C,1.324*%
%ADD88R,1.3X1.1*%
%ADD90R,0.45X0.85*%
%ADD92R,0.85X0.45*%
%ADD94R,3.86X1.71*%
%ADD96R,1.95X1.3*%
%ADD98R,1.8X2.3*%
%ADD100R,0.3X2.1*%
%ADD102R,1.8X2.4*%
%ADD104R,0.4X1.4*%
%ADD111R,2.2X2.2*%
%ADD113R,3.1X1.45*%
%ADD115R,1.4X1.6*%
%ADD117R,1.45X3.1*%
%ADD119R,1.6X1.4*%
%ADD121R,0.8X0.9*%
%ADD122R,0.9X0.8*%
%ADD124R,1.1X1.35*%
%FSLAX53Y53*%
G04*
G71*
G90*
G75*
G01*
%LNBotPaste*%
%LPD*%
D122*
X45760Y54160D3*
X47460D3*
X84080Y58080D3*
X82380D3*
D121*
X66240Y48600D3*
Y46900D3*
D119*
X67386Y38880D3*
Y36080D3*
D121*
X63795Y38333D3*
Y36633D3*
D117*
X66960Y20470D3*
Y15270D3*
D119*
X73060Y38880D3*
Y36080D3*
D121*
X76982Y38334D3*
Y36634D3*
D117*
X77120Y19350D3*
Y14150D3*
D122*
X61410Y23320D3*
X59710D3*
D115*
X81520Y18480D3*
X84320D3*
D122*
X82070Y22000D3*
X83770D3*
X55280Y23360D3*
X53580D3*
X80880Y68680D3*
X79180D3*
X76880Y58080D3*
X75180D3*
X80480D3*
X78780D3*
X25920Y52000D3*
X27620D3*
X21860Y50090D3*
X20160D3*
X35200Y37120D3*
X36900D3*
D119*
X28000Y39750D3*
Y36950D3*
D113*
X21350Y64960D3*
X26550D3*
D122*
X27680Y45760D3*
X25980D3*
X37920Y21840D3*
X36220D3*
D121*
X45150Y42190D3*
Y43890D3*
D117*
X21280Y42850D3*
Y37650D3*
D122*
X32030Y18560D3*
X30330D3*
X20400Y21840D3*
X18700D3*
X20400Y18560D3*
X18700D3*
D111*
X42240Y23360D3*
X46640D3*
D122*
X20160Y57200D3*
X21860D3*
D111*
X31430Y37360D3*
Y32960D3*
D104*
X54882Y55773D3*
X55678D3*
X56478D3*
X57278D3*
X58078D3*
X58878D3*
X59678D3*
X60478D3*
X61278D3*
X62078D3*
X62878D3*
X63678D3*
X64478D3*
X65278D3*
X66078D3*
X66878D3*
D102*
X71148Y58232D3*
X52214D3*
D104*
X67678Y55773D3*
X68477D3*
D100*
X47680Y17760D3*
X46880D3*
X46080D3*
X45280D3*
X44480D3*
D98*
X50530Y17660D3*
X41630D3*
X50530Y12160D3*
X41630D3*
D96*
X60800Y12000D3*
X54368Y20797D3*
X60788Y21397D3*
X60822Y19097D3*
X54291Y15347D3*
Y11997D3*
D94*
X21280Y25970D3*
Y32960D3*
D92*
X39520Y31120D3*
Y33020D3*
X41820Y32070D3*
D90*
X69520Y42480D3*
X67620D3*
X68570Y44780D3*
D122*
X43970Y50910D3*
X42270D3*
X43840Y54160D3*
X42140D3*
X83770Y25330D3*
X82070D3*
X65440Y28120D3*
X67140D3*
X61410Y26640D3*
X59710D3*
X61410Y30080D3*
X59710D3*
X55280Y26640D3*
X53580D3*
X55280Y30080D3*
X53580D3*
X65440Y24960D3*
X67140D3*
X83770Y28720D3*
X82070D3*
X65440Y31440D3*
X67140D3*
X78800Y29280D3*
X77100D3*
X34860Y53660D3*
X36560D3*
Y60480D3*
X34860D3*
X36560Y57110D3*
X34860D3*
X21860Y53640D3*
X20160D3*
D88*
X61440Y46800D3*
Y48700D3*
X56880Y46800D3*
Y48700D3*
X51840Y46800D3*
Y48700D3*
X46560Y46800D3*
Y48700D3*
D121*
X72880Y42000D3*
Y43700D3*
X76800Y42080D3*
Y43780D3*
D122*
X38880Y44280D3*
X40580D3*
X27700Y48880D3*
X26000D3*
X40720Y40790D3*
X39020D3*
D121*
X64160Y43760D3*
Y42060D3*
X54240Y43840D3*
Y42140D3*
D122*
X25600Y21840D3*
X23900D3*
X37040Y32240D3*
X35340D3*
X39180Y37040D3*
X40880D3*
X30260Y21840D3*
X28560D3*
X37760Y18560D3*
X36060D3*
D121*
X59440Y43760D3*
Y42060D3*
X49200Y43760D3*
Y42060D3*
X76720Y48600D3*
Y46900D3*
X72640Y48600D3*
Y46900D3*
D124*
X83920Y46240D3*
Y54190D3*
X79420Y46240D3*
Y54190D3*
X83920Y32800D3*
Y40750D3*
X79420Y32800D3*
Y40750D3*
D84*
X40700Y26850D3*
X71840Y52400D3*
X76320Y52410D3*
D46*
X46440Y61760D3*
Y60490D3*
Y59220D3*
Y57950D3*
X41040D3*
Y59220D3*
Y60490D3*
Y61760D3*
D81*
X70880Y23440D3*
Y24090D3*
Y24740D3*
Y25390D3*
Y26040D3*
Y26690D3*
Y27340D3*
Y27990D3*
X76680D3*
Y27340D3*
Y26690D3*
Y26040D3*
Y25390D3*
Y24740D3*
Y24090D3*
Y23440D3*
D80*
X83600Y64580D3*
Y64080D3*
Y63580D3*
Y63080D3*
Y62580D3*
Y62080D3*
D78*
X82875Y61355D3*
X82375D3*
X81875D3*
X81375D3*
X80875D3*
X80375D3*
D80*
X79650Y62080D3*
Y62580D3*
Y63080D3*
Y63580D3*
Y64080D3*
Y64580D3*
D78*
X80375Y65305D3*
X80875D3*
X81375D3*
X81875D3*
X82375D3*
X82875D3*
D46*
X31280Y59040D3*
Y57770D3*
Y56500D3*
Y55230D3*
X25880D3*
Y56500D3*
Y57770D3*
Y59040D3*
D76*
X28580Y57035D3*
D74*
X30720Y26160D3*
Y26660D3*
Y27160D3*
Y27660D3*
Y28160D3*
X35120D3*
Y27660D3*
Y27160D3*
Y26660D3*
Y26160D3*
D72*
X47210Y37800D3*
X47860D3*
X48510D3*
X49160D3*
X49810D3*
X50460D3*
X51110D3*
X51760D3*
Y32000D3*
X51110D3*
X50460D3*
X49810D3*
X49160D3*
X48510D3*
X47860D3*
X47210D3*
D70*
X54929Y35260D3*
D68*
X55470Y34370D3*
Y36169D3*
X56292Y36148D3*
Y35252D3*
Y34353D3*
D66*
X32880Y67040D3*
Y64540D3*
X39180D3*
Y67040D3*
D122*
X59830Y33410D3*
X61530D3*
M02*
