G04 DipTrace 2.4.0.2*
%INBottom.gbr*%
%MOMM*%
%ADD12C,0.076*%
%ADD14C,0.2*%
%ADD15C,0.4*%
%ADD16C,0.3*%
%ADD17C,0.1*%
%ADD18C,0.33*%
%ADD19C,0.635*%
%ADD20R,1.3X1.55*%
%ADD21R,1.1X1.0*%
%ADD22R,1.0X1.1*%
%ADD23R,1.8X1.6*%
%ADD25R,1.65X3.3*%
%ADD26R,1.6X1.8*%
%ADD27R,3.3X1.65*%
%ADD28R,2.4X2.4*%
%ADD29R,1.7X1.7*%
%ADD31C,1.7*%
%ADD32R,0.6X1.6*%
%ADD33R,2.0X2.6*%
%ADD35R,0.5X2.3*%
%ADD36R,2.0X2.5*%
%ADD37R,2.15X1.5*%
%ADD38R,4.06X1.91*%
%ADD40R,1.05X0.65*%
%ADD41R,0.65X1.05*%
%ADD42R,1.5X1.3*%
%ADD44C,1.524*%
%ADD45R,2.0X0.6*%
%ADD46R,1.8X0.4*%
%ADD47R,0.65X0.3*%
%ADD48R,0.3X0.75*%
%ADD49R,2.1X3.2*%
%ADD50R,1.4X0.3*%
%ADD51R,0.4X1.8*%
%ADD53C,0.25*%
%ADD54R,0.522X0.6*%
%ADD55R,2.2X1.4*%
%ADD56C,0.7*%
%ADD58C,0.8*%
%FSLAX53Y53*%
G04*
G71*
G90*
G75*
G01*
%LNBottom*%
%LPD*%
X72880Y42000D2*
D14*
Y41050D1*
X70880Y23440D2*
X69440D1*
X55470Y34370D2*
Y33890D1*
X57010Y32350D1*
X61170D1*
X62830Y30690D1*
Y24210D1*
X63980Y23060D1*
X68300D1*
X68680Y23440D1*
X69440D1*
X17600Y44160D2*
Y31920D1*
X19280Y30240D1*
X22080D1*
X25440Y26880D1*
Y25800D1*
X15129Y21933D2*
X15987D1*
X16320Y21600D1*
Y19040D1*
X19120Y16240D1*
X26880D1*
X27520Y15600D1*
Y13510D1*
X28740Y12290D1*
X83920Y54190D2*
Y46240D1*
X79360Y55760D2*
Y55840D1*
X82880D1*
X84080Y54640D1*
Y54350D1*
X83920Y54190D1*
Y40750D2*
Y32800D1*
Y31760D1*
X83360Y31200D1*
X65278Y55773D2*
Y52482D1*
X66480Y51280D1*
X47860Y32000D2*
Y34700D1*
X45440Y37120D1*
X66078Y55773D2*
Y52642D1*
X67440Y51280D1*
X69200Y24720D2*
X70860D1*
X70880Y24740D1*
X69200Y24720D2*
X68470D1*
X67590Y23840D1*
X64640D1*
X63730Y24750D1*
Y34220D1*
X57700Y35250D2*
X56294D1*
X56292Y35252D1*
X39020Y40790D2*
D15*
Y37200D1*
X39180Y37040D1*
X39520Y33020D2*
X38560D1*
X30330Y18560D2*
X29030D1*
Y18650D1*
X30720Y26660D2*
D16*
Y26640D1*
X29760D1*
X29440Y26320D1*
X30260Y21840D2*
D15*
X32240D1*
X21860Y53640D2*
X21680D1*
Y52160D1*
X21280Y37650D2*
Y36870D1*
X25310D1*
X18700Y21840D2*
Y18560D1*
X36220Y21840D2*
Y21760D1*
X34800D1*
X34240Y21200D1*
X39180Y37040D2*
X38080D1*
X38000Y37120D1*
X44480Y17760D2*
Y19520D1*
X44000Y20000D1*
X41630Y12160D2*
X50530D1*
X41630Y17660D2*
X44380D1*
X44480Y17760D1*
X25310Y36870D2*
Y36950D1*
X28000D1*
X45150Y43890D2*
Y43880D1*
X47110D1*
X47625Y43365D1*
X63795Y36633D2*
X63670D1*
Y35310D1*
X50530Y17660D2*
Y19440D1*
X83770Y28720D2*
Y25330D1*
Y22000D1*
Y19030D1*
X84320Y18480D1*
Y16800D1*
X76680Y24090D2*
X75040D1*
X67386Y36080D2*
X67626Y35840D1*
X65890D1*
X65098Y36633D1*
X63795D1*
X76982Y36634D2*
X75894D1*
X75420Y36160D1*
X73140D1*
X73060Y36080D1*
X65440Y24960D2*
Y28120D1*
Y31440D1*
Y32320D1*
X61410Y26640D2*
Y26530D1*
X59920Y25040D1*
Y23530D1*
X59710Y23320D1*
X55280Y26640D2*
Y26000D1*
X53920Y24640D1*
Y23700D1*
X53580Y23360D1*
X59710Y23320D2*
Y23300D1*
X58670D1*
X53580Y23360D2*
X52430D1*
X50460Y37800D2*
X50480D1*
Y36320D1*
X67620Y42480D2*
X67660D1*
Y41170D1*
X66240Y46900D2*
X66230D1*
Y46040D1*
X62878Y55773D2*
X62880D1*
Y52080D1*
X63760Y51200D1*
X68477Y55773D2*
X68450D1*
Y53710D1*
X46440Y57950D2*
Y58000D1*
X48480D1*
X47460Y54160D2*
Y52970D1*
X79420Y32800D2*
Y40750D1*
Y46240D1*
Y54190D1*
Y40750D2*
X80800D1*
X76982Y36634D2*
X76950D1*
Y35460D1*
X83770Y28720D2*
X84800D1*
X78800Y29280D2*
Y28320D1*
X70880Y26040D2*
X72440D1*
X72800Y26400D1*
X34860Y60480D2*
X33360D1*
X31280Y56500D2*
X32860D1*
X33340Y56020D1*
X36290D1*
X36560Y56290D1*
Y57110D1*
X27620Y52000D2*
X29200D1*
X25980Y45760D2*
Y46920D1*
X25020Y47880D1*
X21470D1*
X20160Y49190D1*
Y50090D1*
Y46470D1*
X26550Y64960D2*
Y66630D1*
X27040Y67120D1*
X18700Y21840D2*
X18560D1*
X17840Y22560D1*
X17360D1*
X31200Y29709D2*
D16*
X30989D1*
X30640Y29360D1*
Y28160D1*
X30720D1*
X77940Y69390D2*
D15*
X78560Y68770D1*
X79180D1*
Y68680D1*
X78780Y58080D2*
D16*
Y58370D1*
X80875Y60465D1*
Y61355D1*
X79650Y64580D2*
X79120Y65110D1*
D15*
Y68680D1*
X79180D1*
X75180Y58080D2*
Y57070D1*
X75220D1*
X78780Y58080D2*
X78890D1*
Y57070D1*
X82380Y58080D2*
X82410D1*
Y56960D1*
X83600Y64580D2*
D16*
Y64630D1*
X84740D1*
X41630Y17660D2*
D15*
Y12160D1*
X50530Y17660D2*
Y12160D1*
X76800Y42080D2*
X76740D1*
Y40850D1*
X36900Y37120D2*
X38000D1*
X60800Y12000D2*
X62400D1*
X62640Y11760D1*
X55470Y36169D2*
Y36780D1*
X56180Y37490D1*
X54929Y35260D2*
D17*
X55160D1*
X55470Y35570D1*
Y36169D1*
X76320Y52410D2*
D15*
X76470D1*
X77610Y51270D1*
X36560Y57080D2*
Y57110D1*
X61530Y33410D2*
Y34150D1*
X60970Y34890D1*
X15129Y54953D2*
D14*
X15353D1*
X18090Y57690D1*
Y58990D1*
X21580Y62480D1*
X29200D1*
X30160Y63440D1*
Y65520D1*
X60478Y55773D2*
D16*
Y52082D1*
X61520Y51040D1*
Y48780D1*
X61440Y48700D1*
X59678Y55773D2*
D15*
Y51842D1*
X56790Y50160D2*
Y48790D1*
X56880Y48700D1*
X58878Y55773D2*
X58800D1*
Y51120D1*
X51840Y50130D2*
Y48700D1*
X58078Y55773D2*
X58000D1*
Y52000D1*
X46660Y50190D2*
Y48700D1*
X46560D1*
X72550Y24090D2*
D14*
X70880D1*
X56292Y36148D2*
X60842D1*
X63280Y33710D1*
Y24550D1*
X64380Y23450D1*
X68020D1*
X68660Y24090D1*
X70880D1*
X82070Y28720D2*
Y27830D1*
X81600Y27360D1*
X76700D1*
X76680Y27340D1*
X80875Y65305D2*
Y66725D1*
X80880Y66730D1*
Y68680D1*
X53580Y26640D2*
D16*
Y30080D1*
Y31310D1*
X65480Y15170D2*
Y15270D1*
X66960D1*
X82070Y22000D2*
D14*
Y22490D1*
X78520Y26040D1*
X76680D1*
X81520Y18480D2*
Y21450D1*
X82070Y22000D1*
X55280Y30080D2*
X55840D1*
X56160Y29760D1*
Y24240D1*
X55280Y23360D1*
X54291Y15347D2*
X55747D1*
X56160Y15760D1*
Y24240D1*
X30720Y26160D2*
Y26080D1*
X28560Y23920D1*
Y21840D1*
X22880Y58240D2*
Y57040D1*
X23440Y56480D1*
X25860D1*
X25880Y56500D1*
X46560Y46800D2*
D16*
X46460D1*
Y45670D1*
X51620D2*
Y46800D1*
X51840D1*
X56880D2*
Y45610D1*
X61440Y46800D2*
Y45610D1*
Y46800D2*
X63920D1*
X65920Y44800D1*
X68550D1*
X68570Y44780D1*
X32880Y67040D2*
D14*
X34300D1*
X38620Y62720D1*
X46320D1*
X46640Y62400D1*
Y61960D1*
X46440Y61760D1*
X39180Y64540D2*
X45700D1*
X48000Y62240D1*
Y60720D1*
X47770Y60490D1*
X46440D1*
X82070Y25330D2*
Y25370D1*
X80640Y26800D1*
X76790D1*
X76680Y26690D1*
X67140Y28120D2*
X68160D1*
X68920Y27360D1*
X70860D1*
X70880Y27340D1*
X59710Y30080D2*
D16*
Y26640D1*
Y30080D2*
Y31250D1*
X75650Y14380D2*
X76890D1*
X77120Y14150D1*
X61410Y30080D2*
D14*
X62080D1*
X62400Y29760D1*
Y23920D1*
X61800Y23320D1*
X61410D1*
X62400Y23920D2*
Y19520D1*
X62000Y19120D1*
X60845D1*
X60822Y19097D1*
X70880Y26690D2*
X69700D1*
X67970Y24960D1*
X67140D1*
X70880Y27990D2*
X69610D1*
X67360Y30240D1*
Y31440D1*
X67140D1*
X77100Y29280D2*
Y29100D1*
X76480Y28480D1*
Y28190D1*
X76680Y27990D1*
X80480Y58080D2*
Y59200D1*
X81360Y60080D1*
Y61340D1*
X81375Y61355D1*
X21900Y55830D2*
D15*
Y57240D1*
X21860Y57200D1*
X47680Y17760D2*
Y21280D1*
X45840Y23120D1*
X46880D1*
X46640Y23360D1*
Y30720D1*
X44560Y32800D1*
Y36800D1*
X42000Y39360D1*
Y45120D1*
X41410Y45710D1*
X39220D1*
X38720Y45210D1*
Y44440D1*
X38880Y44280D1*
X34860Y53660D2*
X32500D1*
X31680Y54480D1*
Y54830D1*
X31280Y55230D1*
X34860Y53660D2*
Y52780D1*
X37370Y43320D2*
X38220Y44170D1*
X38880D1*
Y44280D1*
X25880Y59040D2*
X22640D1*
X21840Y58240D1*
Y57220D1*
X21860Y57200D1*
Y50090D2*
X23260D1*
X34860Y57110D2*
D14*
X34250D1*
X33600Y57760D1*
X31290D1*
X31280Y57770D1*
X36560Y53660D2*
X38220D1*
X38640Y54080D1*
Y59840D1*
X38000Y60480D1*
X36560D1*
X31280Y59040D2*
X35920D1*
X36560Y59680D1*
Y60480D1*
X20160Y53640D2*
Y57200D1*
X25880Y57770D2*
X23930D1*
X23520Y57360D1*
X69520Y42480D2*
X70480D1*
X71760Y43760D1*
X72820D1*
X72880Y43700D1*
X76720D1*
X76800Y43780D1*
X12589Y65113D2*
D15*
Y67653D1*
X28000Y39750D2*
X30550D1*
X31360Y38940D1*
Y37360D1*
X31430D1*
X35340Y32240D2*
X34100D1*
Y32160D1*
X35340D1*
Y37170D1*
X31430D1*
Y37360D1*
X31280Y14830D2*
Y16160D1*
X30400Y17040D1*
X23990D1*
X22470Y18560D1*
X20400D1*
X40700Y26850D2*
Y24900D1*
X42240Y23360D1*
Y21290D1*
X38230Y17280D1*
X35360D1*
X33040Y14960D1*
X31410D1*
X31280Y14830D1*
X35340Y32240D2*
Y31860D1*
X36400Y30800D1*
Y27920D1*
X36140Y27660D1*
D18*
X35120D1*
X21280Y42850D2*
D15*
X19040D1*
X28000Y39750D2*
X26010D1*
X22910Y42850D1*
X21280D1*
X35200Y37120D2*
Y37280D1*
X34800D1*
X30560D2*
X30640Y37360D1*
X31430D1*
X35200Y37310D2*
X35340Y37170D1*
X40700Y26850D2*
Y26890D1*
X40580Y44280D2*
D14*
Y40930D1*
X40720Y40790D1*
Y39120D1*
X43600Y36240D1*
Y31760D1*
X42320Y30480D1*
X39640D1*
X39400Y30720D1*
Y31120D1*
X39520D1*
X25600Y21840D2*
Y21140D1*
X25890Y20850D1*
X32210D1*
X33840Y22480D1*
Y23280D1*
Y25760D1*
X34240Y26160D1*
X35120D1*
X41820Y32070D2*
X42870D1*
X42960Y32160D1*
X30720Y27660D2*
D16*
X29860D1*
X29520Y28000D1*
D15*
Y29700D1*
X31430Y31610D1*
Y32960D1*
X21280D2*
X23760D1*
X24010Y33210D1*
X31430D1*
Y32960D1*
X40880Y37040D2*
D14*
Y35360D1*
X39920Y34400D1*
X37920D1*
X37040Y33520D1*
Y32240D1*
X35120Y27160D2*
X36600D1*
X37040Y27600D1*
Y32240D1*
X36060Y18560D2*
X32000D1*
Y20080D1*
X36320Y24400D1*
Y26400D1*
X36080Y26640D1*
X35140D1*
X35120Y26660D1*
X36060Y18560D2*
D3*
X37920Y21840D2*
Y18560D1*
X37760D1*
X47860Y37800D2*
Y39940D1*
X49120Y41200D1*
Y41980D1*
X49200Y42060D1*
X49160Y37800D2*
Y39160D1*
X50000Y40000D1*
X58480D1*
X59520Y41040D1*
Y41980D1*
X59440Y42060D1*
X48510Y37800D2*
Y39310D1*
X49760Y40560D1*
X53600D1*
X54320Y41280D1*
Y42060D1*
X54240Y42140D1*
X49810Y37800D2*
Y39010D1*
X50240Y39440D1*
X62960D1*
X64240Y40720D1*
Y41980D1*
X64160Y42060D1*
X72640Y46900D2*
Y45920D1*
X76720Y46900D2*
X75850D1*
X75720Y47030D1*
X77120Y19350D2*
D16*
Y20640D1*
X78560Y22080D1*
Y24240D1*
X78000Y24800D1*
X76740D1*
X76680Y24740D1*
X66960Y20470D2*
D15*
X72470D1*
X75440Y23440D1*
X76680D1*
X50460Y32000D2*
D14*
X50400D1*
Y34240D1*
X67678Y55773D2*
Y52802D1*
X68160Y52320D1*
X68480D1*
X69680Y51120D1*
X42270Y50910D2*
Y52050D1*
X42190D1*
X27440Y43360D2*
X31000D1*
X38550Y50910D1*
X42270D1*
X41040Y59220D2*
Y59280D1*
X42800D1*
X43280Y59760D1*
X44000D1*
X81760Y67440D2*
Y67520D1*
X81920D1*
X82400Y67040D1*
Y65330D1*
X82375Y65305D1*
X66878Y55773D2*
Y52882D1*
X68640Y51120D1*
X47210Y34090D2*
Y32000D1*
X41040Y57950D2*
Y56790D1*
Y56890D1*
X42090Y55840D1*
Y54160D1*
X42140D1*
X26800Y44080D2*
X30850D1*
X40930Y54160D1*
X42140D1*
X82875Y65305D2*
Y67035D1*
X84160Y68320D1*
X64478Y55773D2*
Y52242D1*
X66320Y50400D1*
X71824D1*
X76480D1*
X76640Y50240D1*
Y48680D1*
X76720Y48600D1*
X48510Y32000D2*
Y34350D1*
X48560Y34400D1*
X63678Y55773D2*
Y52322D1*
X66090Y49910D1*
X70250D1*
X71560Y48600D1*
X72640D1*
X49810Y32000D2*
Y33550D1*
X49440Y33920D1*
X73710Y48910D2*
X72950D1*
X72640Y48600D1*
X60788Y21397D2*
D15*
X58960D1*
X54368Y20797D2*
D14*
X52583D1*
X52680Y20700D1*
X23445Y75440D2*
D15*
X20850D1*
X18720Y73310D1*
X25880Y55230D2*
Y52040D1*
X25920Y52000D1*
X26000Y48880D2*
Y51920D1*
X25920Y52000D1*
X25880Y55230D2*
X23700D1*
X22960Y55970D1*
Y55900D1*
X21350Y66780D2*
Y64960D1*
X23445Y75440D2*
Y74555D1*
X24320Y73680D1*
X29305D1*
X31065Y75440D1*
X21350Y64960D2*
Y70710D1*
X24320Y73680D1*
X27700Y48880D2*
Y49070D1*
X28510D1*
X29235Y49795D1*
X30720Y27160D2*
D16*
Y27200D1*
X29120D1*
X26720Y24800D1*
X23830D1*
Y25430D1*
X23450Y25810D1*
X21050D1*
X20890Y25970D1*
X21280D1*
X23900Y21840D2*
D15*
X23830D1*
Y24800D1*
X27700Y48880D2*
Y45780D1*
X27680Y45760D1*
X21280Y25970D2*
Y27760D1*
X19680Y29360D1*
X18000D1*
X16880Y30480D1*
Y44560D1*
X17760Y45440D1*
X23280D1*
X23920Y44800D1*
X26720D1*
X27680Y45760D1*
X41040Y61760D2*
Y61790D1*
X39240D1*
X46440Y59220D2*
Y59180D1*
X48050D1*
X48100Y59230D1*
X48280D1*
X66240Y48600D2*
X65160D1*
X62000Y51760D1*
Y55695D1*
X62078Y55773D1*
X61278D2*
X62078D1*
X73060Y38880D2*
X74920D1*
X75466Y38334D1*
X76982D1*
X67386Y38880D2*
X65780D1*
X65233Y38333D1*
X63795D1*
X73060Y38880D2*
X71820D1*
X70740Y37800D1*
Y33570D1*
X74590Y29720D1*
Y25970D1*
X75170Y25390D1*
X76680D1*
X70880D2*
X73040D1*
X73680Y26030D1*
Y28710D1*
X69510Y32880D1*
Y38290D1*
X68920Y38880D1*
X67386D1*
X70880Y25390D2*
Y25360D1*
X72960D1*
X45150Y42190D2*
X46230D1*
X46400Y42020D1*
Y38560D1*
X47160Y37800D1*
X47210D1*
X45150Y42190D2*
X46320Y42160D1*
X51110Y32000D2*
X51120D1*
Y35120D1*
X66240Y48600D2*
Y48830D1*
X67460D1*
X20400Y21840D2*
Y20800D1*
X43840Y54160D2*
X45760D1*
X45770D2*
Y52920D1*
X76880Y58080D2*
Y59310D1*
D16*
X79650Y62080D1*
X84080Y58080D2*
D15*
Y58400D1*
X82160Y60320D1*
Y61760D1*
D16*
Y61355D1*
X82375D1*
X81875D2*
X82375D1*
X84080Y58080D2*
D15*
Y56960D1*
X84030D1*
X76880Y58080D2*
Y57130D1*
X56292Y34353D2*
X57123D1*
X71840Y52400D2*
X73190D1*
X43970Y50910D2*
X44930D1*
X59830Y33410D2*
X58066D1*
X57123Y34353D1*
X59440Y43760D2*
D14*
Y48800D1*
X57200Y51040D1*
Y55695D1*
X57278Y55773D1*
X49200Y43760D2*
Y50080D1*
X50320Y51200D1*
X54160D1*
X55678Y52718D1*
Y55773D1*
X64160Y43760D2*
Y44640D1*
X62880Y45920D1*
Y57280D2*
X55360D1*
X54960Y56880D1*
Y55773D1*
X54882D1*
X54240Y43840D2*
Y50320D1*
X56478Y52558D1*
Y55773D1*
D56*
X72880Y41050D3*
X44320Y24000D3*
X69440Y23440D3*
X49680Y59680D3*
X39440Y22560D3*
D3*
X17600Y44160D3*
X25440Y25800D3*
X39520Y35040D3*
X25440Y32190D3*
X17680Y61040D3*
X79360Y55760D3*
X83360Y31200D3*
X28720Y28320D3*
X66480Y51280D3*
X37570Y41530D3*
X45440Y37120D3*
X67440Y51280D3*
X32670Y40000D3*
X29920Y19840D3*
X69200Y24720D3*
X63730Y34220D3*
X57700Y35250D3*
X69200Y24720D3*
D58*
X38560Y33020D3*
X29030Y18650D3*
X29440Y26320D3*
X32240Y21840D3*
X24400Y46080D3*
X21680Y52160D3*
X25310Y36870D3*
X34240Y21200D3*
X38000Y37120D3*
X44000Y20000D3*
X47625Y43365D3*
X63670Y35310D3*
X50530Y19440D3*
X84320Y16800D3*
X75040Y24090D3*
X65440Y32320D3*
X58670Y23300D3*
X52430Y23360D3*
X50480Y36320D3*
X67660Y41170D3*
X66230Y46040D3*
X63760Y51200D3*
X68450Y53710D3*
X48480Y58000D3*
X47460Y52970D3*
X80800Y40750D3*
X76950Y35460D3*
X33200Y34240D3*
X84800Y28720D3*
X78800Y28320D3*
X31200Y29709D3*
X18080Y25658D3*
X72800Y26400D3*
X31040Y53840D3*
X29298Y46778D3*
X30400Y68320D3*
X33360Y60480D3*
X29200Y52000D3*
X20160Y46470D3*
X27040Y67120D3*
X20870Y17470D3*
X17360Y22560D3*
X31200Y29709D3*
X77940Y69390D3*
X75220Y57070D3*
X78890D3*
X82410Y56960D3*
X84740Y64630D3*
X76740Y40850D3*
X62640Y11760D3*
X56180Y37490D3*
X77610Y51270D3*
X36560Y57080D3*
X60970Y34890D3*
D56*
X30160Y65520D3*
X24160Y63120D3*
D58*
X59678Y51842D3*
X56790Y50160D3*
X58800Y51120D3*
X51840Y50130D3*
X58000Y52000D3*
X46660Y50190D3*
D56*
X29520Y23280D3*
X72550Y24090D3*
D58*
X53580Y31310D3*
X65480Y15170D3*
D56*
X22880Y58240D3*
D58*
X46460Y45670D3*
X51620D3*
X56880Y45610D3*
X61440D3*
X56880D3*
X59710Y31250D3*
X75650Y14380D3*
X21900Y55830D3*
X34860Y52780D3*
X37370Y43320D3*
X23260Y50090D3*
X21900Y55830D3*
X34860Y52780D3*
D56*
X23520Y57360D3*
D58*
X19040Y66320D3*
Y42850D3*
X40700Y26890D3*
X34100Y32160D3*
D56*
X42960D3*
X33840Y23280D3*
X72640Y45920D3*
X75720Y47030D3*
X50400Y34240D3*
X69680Y51120D3*
X29280Y35200D3*
X42190Y52050D3*
X27440Y43360D3*
X44000Y59760D3*
X81760Y67440D3*
X42190Y52050D3*
X44000Y59760D3*
X68640Y51120D3*
X47210Y34090D3*
D3*
X26800Y44080D3*
X41040Y56790D3*
X84160Y68320D3*
X41040Y56790D3*
X48560Y34400D3*
X71824Y50400D3*
X49440Y33920D3*
X73710Y48910D3*
D58*
X58960Y21397D3*
D56*
X52680Y20700D3*
D58*
X22960Y55900D3*
X21350Y66780D3*
X29235Y49795D3*
D56*
X26080Y43600D3*
X39600Y47840D3*
X26080Y43600D3*
X30240Y45840D3*
X39520Y55840D3*
X30240Y45840D3*
D58*
X39240Y61790D3*
X48280Y59230D3*
X72960Y25360D3*
X75170Y25390D3*
X46320Y42160D3*
X51120Y35120D3*
X67460Y48830D3*
X20400Y20800D3*
X45770Y52920D3*
X84030Y56960D3*
X76880Y57130D3*
X57123Y34353D3*
X73190Y52400D3*
X44930Y50910D3*
D56*
X62880Y45920D3*
Y57280D3*
X21423Y61171D2*
D19*
X33499D1*
X20798Y60539D2*
X33499D1*
X20430Y59908D2*
X22486D1*
X27614D2*
X29541D1*
X33011D2*
X33490D1*
X20420Y59276D2*
X21573D1*
X27614D2*
X29541D1*
X20401Y58644D2*
X21008D1*
X27614D2*
X29541D1*
X27614Y58013D2*
X29541D1*
X27614Y57381D2*
X29541D1*
X27614Y56749D2*
X33450D1*
X27614Y56118D2*
X29541D1*
X33011D2*
X33579D1*
X27614Y55486D2*
X29541D1*
X33011D2*
X35533D1*
X27614Y54854D2*
X29541D1*
X33011D2*
X35533D1*
X26820Y54223D2*
X30781D1*
X26820Y53591D2*
X31267D1*
X29162Y52959D2*
X31912D1*
X29172Y52328D2*
X33827D1*
X29181Y51696D2*
X35524D1*
X29201Y51064D2*
X35524D1*
X20336Y58373D2*
X20984D1*
X21097Y58699D1*
X21447Y59082D1*
X22023Y59657D1*
X22283Y59836D1*
X22640Y59913D1*
X24198D1*
X24207Y60013D1*
X27553D1*
X27543Y58067D1*
X27553Y57790D1*
X27543Y56797D1*
X27553Y56520D1*
X27543Y55527D1*
X27553Y55250D1*
Y54257D1*
X26749D1*
X26753Y53375D1*
X28782Y53357D1*
X29049Y53200D1*
X29097Y53046D1*
X29139Y50854D1*
X29259Y50868D1*
X29571Y50814D1*
X29739Y50730D1*
X35583Y50758D1*
X35586Y51999D1*
X35265Y51786D1*
X34958Y51712D1*
X34642Y51730D1*
X34345Y51839D1*
X34093Y52030D1*
X33907Y52286D1*
X33840Y52483D1*
X33637Y52487D1*
Y52795D1*
X32500Y52787D1*
X32189Y52844D1*
X31883Y53043D1*
X31063Y53863D1*
X30901Y54086D1*
X30730Y54257D1*
X29607D1*
Y56203D1*
X32953D1*
Y54526D1*
X33641Y54533D1*
X33637Y54833D1*
X35592D1*
X35596Y55928D1*
X34178Y55937D1*
X33637D1*
Y56622D1*
X33276Y56991D1*
X32955Y56987D1*
X32953Y56797D1*
X29607D1*
X29617Y58743D1*
X29607Y59020D1*
Y60013D1*
X32953D1*
Y59805D1*
X33552Y59813D1*
X33570Y61796D1*
X29555Y61790D1*
X29403Y61734D1*
X29200Y61707D1*
X21907D1*
X20367Y60170D1*
X20338Y58375D1*
X20955Y58373D1*
X35584Y51999D2*
X35537Y51948D1*
X35265Y51786D1*
X34958Y51712D1*
X34642Y51730D1*
X34345Y51839D1*
X34093Y52030D1*
X33907Y52286D1*
X33840Y52483D1*
D21*
X45760Y54160D3*
X47460D3*
X84080Y58080D3*
X82380D3*
D22*
X66240Y48600D3*
Y46900D3*
D23*
X67386Y38880D3*
Y36080D3*
D22*
X63795Y38333D3*
Y36633D3*
D25*
X66960Y20470D3*
Y15270D3*
D23*
X73060Y38880D3*
Y36080D3*
D22*
X76982Y38334D3*
Y36634D3*
D25*
X77120Y19350D3*
Y14150D3*
D21*
X61410Y23320D3*
X59710D3*
D26*
X81520Y18480D3*
X84320D3*
D21*
X82070Y22000D3*
X83770D3*
X55280Y23360D3*
X53580D3*
X80880Y68680D3*
X79180D3*
X76880Y58080D3*
X75180D3*
X80480D3*
X78780D3*
X25920Y52000D3*
X27620D3*
X21860Y50090D3*
X20160D3*
X35200Y37120D3*
X36900D3*
D23*
X28000Y39750D3*
Y36950D3*
D27*
X21350Y64960D3*
X26550D3*
D21*
X27680Y45760D3*
X25980D3*
X37920Y21840D3*
X36220D3*
D22*
X45150Y42190D3*
Y43890D3*
D25*
X21280Y42850D3*
Y37650D3*
D21*
X32030Y18560D3*
X30330D3*
X20400Y21840D3*
X18700D3*
X20400Y18560D3*
X18700D3*
D28*
X42240Y23360D3*
X46640D3*
D21*
X20160Y57200D3*
X21860D3*
D28*
X31430Y37360D3*
Y32960D3*
D29*
X15129Y67653D3*
D31*
X12589D3*
X15129Y65113D3*
X12589D3*
X15129Y62573D3*
X12589D3*
X15129Y60033D3*
X12589D3*
X15129Y57493D3*
X12589D3*
X15129Y54953D3*
X12589D3*
X15129Y52413D3*
X12589D3*
X15129Y49873D3*
X12589D3*
X15129Y47333D3*
X12589D3*
X15129Y44793D3*
X12589D3*
X15129Y42253D3*
X12589D3*
X15129Y39713D3*
X12589D3*
X15129Y37173D3*
X12589D3*
X15129Y34633D3*
X12589D3*
X15129Y32093D3*
X12589D3*
X15129Y29553D3*
X12589D3*
X15129Y27013D3*
X12589D3*
X15129Y24473D3*
X12589D3*
X15129Y21933D3*
X12589D3*
X15129Y19393D3*
X12589D3*
D32*
X54882Y55773D3*
X55678D3*
X56478D3*
X57278D3*
X58078D3*
X58878D3*
X59678D3*
X60478D3*
X61278D3*
X62078D3*
X62878D3*
X63678D3*
X64478D3*
X65278D3*
X66078D3*
X66878D3*
D33*
X71148Y58232D3*
X52214D3*
D32*
X67678Y55773D3*
X68477D3*
D29*
X72120Y11520D3*
D31*
X69580D3*
X67040D3*
D35*
X47680Y17760D3*
X46880D3*
X46080D3*
X45280D3*
X44480D3*
D36*
X50530Y17660D3*
X41630D3*
X50530Y12160D3*
X41630D3*
D29*
X23445Y75440D3*
D31*
X25985D3*
X28525D3*
X31065D3*
D37*
X60800Y12000D3*
X54368Y20797D3*
X60788Y21397D3*
X60822Y19097D3*
X54291Y15347D3*
Y11997D3*
D29*
X31280Y14830D3*
D31*
Y12290D3*
X28740Y14830D3*
Y12290D3*
X26200Y14830D3*
Y12290D3*
X23660Y14830D3*
Y12290D3*
X21120Y14830D3*
Y12290D3*
D38*
X21280Y25970D3*
Y32960D3*
D40*
X39520Y31120D3*
Y33020D3*
X41820Y32070D3*
D41*
X69520Y42480D3*
X67620D3*
X68570Y44780D3*
D21*
X43970Y50910D3*
X42270D3*
X43840Y54160D3*
X42140D3*
X83770Y25330D3*
X82070D3*
X65440Y28120D3*
X67140D3*
X61410Y26640D3*
X59710D3*
X61410Y30080D3*
X59710D3*
X55280Y26640D3*
X53580D3*
X55280Y30080D3*
X53580D3*
X65440Y24960D3*
X67140D3*
X83770Y28720D3*
X82070D3*
X65440Y31440D3*
X67140D3*
X78800Y29280D3*
X77100D3*
X34860Y53660D3*
X36560D3*
Y60480D3*
X34860D3*
X36560Y57110D3*
X34860D3*
X21860Y53640D3*
X20160D3*
D42*
X61440Y46800D3*
Y48700D3*
X56880Y46800D3*
Y48700D3*
X51840Y46800D3*
Y48700D3*
X46560Y46800D3*
Y48700D3*
D22*
X72880Y42000D3*
Y43700D3*
X76800Y42080D3*
Y43780D3*
D21*
X38880Y44280D3*
X40580D3*
X27700Y48880D3*
X26000D3*
X40720Y40790D3*
X39020D3*
D22*
X64160Y43760D3*
Y42060D3*
X54240Y43840D3*
Y42140D3*
D21*
X25600Y21840D3*
X23900D3*
X37040Y32240D3*
X35340D3*
X39180Y37040D3*
X40880D3*
X30260Y21840D3*
X28560D3*
X37760Y18560D3*
X36060D3*
D22*
X59440Y43760D3*
Y42060D3*
X49200Y43760D3*
Y42060D3*
X76720Y48600D3*
Y46900D3*
X72640Y48600D3*
Y46900D3*
D20*
X83920Y46240D3*
Y54190D3*
X79420Y46240D3*
Y54190D3*
X83920Y32800D3*
Y40750D3*
X79420Y32800D3*
Y40750D3*
D44*
X18720Y73310D3*
X40700Y26850D3*
X71840Y52400D3*
X76320Y52410D3*
D45*
X46440Y61760D3*
Y60490D3*
Y59220D3*
Y57950D3*
X41040D3*
Y59220D3*
Y60490D3*
Y61760D3*
D46*
X70880Y23440D3*
Y24090D3*
Y24740D3*
Y25390D3*
Y26040D3*
Y26690D3*
Y27340D3*
Y27990D3*
X76680D3*
Y27340D3*
Y26690D3*
Y26040D3*
Y25390D3*
Y24740D3*
Y24090D3*
Y23440D3*
D47*
X83600Y64580D3*
Y64080D3*
Y63580D3*
Y63080D3*
Y62580D3*
Y62080D3*
D48*
X82875Y61355D3*
X82375D3*
X81875D3*
X81375D3*
X80875D3*
X80375D3*
D47*
X79650Y62080D3*
Y62580D3*
Y63080D3*
Y63580D3*
Y64080D3*
Y64580D3*
D48*
X80375Y65305D3*
X80875D3*
X81375D3*
X81875D3*
X82375D3*
X82875D3*
D45*
X31280Y59040D3*
Y57770D3*
Y56500D3*
Y55230D3*
X25880D3*
Y56500D3*
Y57770D3*
Y59040D3*
D49*
X28580Y57035D3*
D50*
X30720Y26160D3*
Y26660D3*
Y27160D3*
Y27660D3*
Y28160D3*
X35120D3*
Y27660D3*
Y27160D3*
Y26660D3*
Y26160D3*
D51*
X47210Y37800D3*
X47860D3*
X48510D3*
X49160D3*
X49810D3*
X50460D3*
X51110D3*
X51760D3*
Y32000D3*
X51110D3*
X50460D3*
X49810D3*
X49160D3*
X48510D3*
X47860D3*
X47210D3*
D53*
X54929Y35260D3*
D54*
X55470Y34370D3*
Y36169D3*
X56292Y36148D3*
Y35252D3*
Y34353D3*
D55*
X32880Y67040D3*
Y64540D3*
X39180D3*
Y67040D3*
D21*
X59830Y33410D3*
X61530D3*
X53492Y35271D2*
D16*
X53494Y35322D1*
X53499Y35374D1*
X53508Y35424D1*
X53520Y35474D1*
X53536Y35523D1*
X53555Y35571D1*
X53578Y35617D1*
X53603Y35662D1*
X53632Y35704D1*
X53663Y35745D1*
X53698Y35783D1*
X53734Y35819D1*
X53774Y35852D1*
X53815Y35882D1*
X53858Y35909D1*
X53903Y35933D1*
X53950Y35954D1*
X53998Y35972D1*
X54047Y35986D1*
X54097Y35997D1*
X54148Y36004D1*
X54199Y36008D1*
X54250D1*
X54301Y36004D1*
X54352Y35997D1*
X54402Y35986D1*
X54451Y35972D1*
X54499Y35954D1*
X54546Y35933D1*
X54591Y35909D1*
X54634Y35882D1*
X54676Y35852D1*
X54715Y35819D1*
X54752Y35783D1*
X54786Y35745D1*
X54817Y35704D1*
X54846Y35662D1*
X54871Y35617D1*
X54894Y35571D1*
X54913Y35523D1*
X54929Y35474D1*
X54941Y35424D1*
X54950Y35374D1*
X54955Y35322D1*
X54957Y35271D1*
X54955Y35220D1*
X54950Y35168D1*
X54941Y35118D1*
X54929Y35068D1*
X54913Y35019D1*
X54894Y34971D1*
X54871Y34925D1*
X54846Y34881D1*
X54817Y34838D1*
X54786Y34797D1*
X54752Y34759D1*
X54715Y34723D1*
X54676Y34690D1*
X54634Y34660D1*
X54591Y34633D1*
X54546Y34609D1*
X54499Y34588D1*
X54451Y34570D1*
X54402Y34556D1*
X54352Y34545D1*
X54301Y34538D1*
X54250Y34535D1*
X54199D1*
X54148Y34538D1*
X54097Y34545D1*
X54047Y34556D1*
X53998Y34570D1*
X53950Y34588D1*
X53903Y34609D1*
X53858Y34633D1*
X53815Y34660D1*
X53774Y34690D1*
X53734Y34723D1*
X53698Y34759D1*
X53663Y34797D1*
X53632Y34838D1*
X53603Y34881D1*
X53578Y34925D1*
X53555Y34971D1*
X53536Y35019D1*
X53520Y35068D1*
X53508Y35118D1*
X53499Y35168D1*
X53494Y35220D1*
X53492Y35271D1*
X49514Y30038D2*
D12*
X51072D1*
X49514Y30000D2*
X51072D1*
X49514Y29962D2*
X51072D1*
X49514Y29924D2*
X51072D1*
X49514Y29886D2*
X51072D1*
X49514Y29848D2*
X49666D1*
X50920D2*
X51072D1*
X49514Y29810D2*
X49666D1*
X50920D2*
X51072D1*
X49514Y29772D2*
X49666D1*
X50920D2*
X51072D1*
X49514Y29734D2*
X49666D1*
X50920D2*
X51072D1*
X49514Y29696D2*
X49666D1*
X50920D2*
X51072D1*
X49514Y29658D2*
X49666D1*
X50920D2*
X51072D1*
X49514Y29620D2*
X49666D1*
X50920D2*
X51072D1*
X49514Y29582D2*
X49666D1*
X50920D2*
X51072D1*
X49514Y29544D2*
X49666D1*
X50920D2*
X51072D1*
X49514Y29506D2*
X49666D1*
X50918D2*
X51072D1*
X49514Y29468D2*
X49666D1*
X50913D2*
X51072D1*
X49514Y29430D2*
X49666D1*
X50904D2*
X51070D1*
X49514Y29392D2*
X49666D1*
X50894D2*
X51065D1*
X49514Y29354D2*
X49667D1*
X50888D2*
X51056D1*
X49514Y29316D2*
X49672D1*
X50883D2*
X51046D1*
X49515Y29278D2*
X49683D1*
X50876D2*
X51038D1*
X49520Y29240D2*
X49699D1*
X50865D2*
X51030D1*
X49531Y29202D2*
X49721D1*
X50849D2*
X51019D1*
X49545Y29164D2*
X49750D1*
X50825D2*
X51007D1*
X49563Y29126D2*
X49785D1*
X50790D2*
X50994D1*
X49582Y29088D2*
X49832D1*
X50736D2*
X50976D1*
X49606Y29050D2*
X49910D1*
X50650D2*
X50953D1*
X49635Y29012D2*
X50056D1*
X50497D2*
X50925D1*
X49669Y28974D2*
X50291D1*
X50259D2*
X50890D1*
X49707Y28936D2*
X50848D1*
X49752Y28898D2*
X50799D1*
X49814Y28860D2*
X50735D1*
X49904Y28822D2*
X50644D1*
X50024Y28784D2*
X50523D1*
X50160Y28746D2*
X50388D1*
X49514Y28442D2*
X51072D1*
X49514Y28404D2*
X51072D1*
X49514Y28366D2*
X51072D1*
X49514Y28328D2*
X51072D1*
X49514Y28290D2*
X51072D1*
X49514Y28252D2*
X51072D1*
X49514Y28214D2*
X49666D1*
X50198D2*
X50350D1*
X50920D2*
X51072D1*
X49514Y28176D2*
X49666D1*
X50198D2*
X50350D1*
X50920D2*
X51072D1*
X49514Y28138D2*
X49666D1*
X50198D2*
X50350D1*
X50920D2*
X51072D1*
X49514Y28100D2*
X49666D1*
X50198D2*
X50350D1*
X50920D2*
X51072D1*
X49514Y28062D2*
X49666D1*
X50198D2*
X50350D1*
X50920D2*
X51072D1*
X49514Y28024D2*
X49666D1*
X50198D2*
X50350D1*
X50920D2*
X51072D1*
X49514Y27986D2*
X49666D1*
X50198D2*
X50350D1*
X50920D2*
X51072D1*
X49514Y27948D2*
X49666D1*
X50198D2*
X50350D1*
X50920D2*
X51072D1*
X49514Y27910D2*
X49666D1*
X50198D2*
X50350D1*
X50920D2*
X51072D1*
X49514Y27872D2*
X49666D1*
X50196D2*
X50350D1*
X50920D2*
X51072D1*
X49514Y27834D2*
X49666D1*
X50191D2*
X50350D1*
X50918D2*
X51072D1*
X49514Y27796D2*
X49666D1*
X50182D2*
X50350D1*
X50913D2*
X51072D1*
X49514Y27758D2*
X49667D1*
X50172D2*
X50350D1*
X50904D2*
X51070D1*
X49514Y27720D2*
X49672D1*
X50164D2*
X50351D1*
X50894D2*
X51065D1*
X49515Y27682D2*
X49683D1*
X50154D2*
X50356D1*
X50886D2*
X51056D1*
X49520Y27644D2*
X49701D1*
X50140D2*
X50367D1*
X50878D2*
X51046D1*
X49531Y27606D2*
X49726D1*
X50106D2*
X50383D1*
X50864D2*
X51038D1*
X49545Y27568D2*
X49800D1*
X50029D2*
X50408D1*
X50845D2*
X51030D1*
X49563Y27530D2*
X49912D1*
X49915D2*
X50443D1*
X50795D2*
X51018D1*
X49584Y27492D2*
X50202D1*
X50281D2*
X50519D1*
X50719D2*
X51002D1*
X49614Y27454D2*
X50169D1*
X50296D2*
X50618D1*
X50617D2*
X50985D1*
X49658Y27416D2*
X50131D1*
X50317D2*
X50964D1*
X49716Y27378D2*
X50089D1*
X50345D2*
X50934D1*
X49780Y27340D2*
X50046D1*
X50380D2*
X50889D1*
X50421Y27302D2*
X50831D1*
X50464Y27264D2*
X50768D1*
X50198Y27036D2*
X50388D1*
X50023Y26998D2*
X50563D1*
X49887Y26960D2*
X50700D1*
X49792Y26922D2*
X50799D1*
X49725Y26884D2*
X50870D1*
X49676Y26846D2*
X50921D1*
X49637Y26808D2*
X49979D1*
X50652D2*
X50960D1*
X49608Y26770D2*
X49888D1*
X50722D2*
X50990D1*
X49585Y26732D2*
X49820D1*
X50781D2*
X51013D1*
X49569Y26694D2*
X49774D1*
X50825D2*
X51030D1*
X49560Y26656D2*
X49743D1*
X50855D2*
X51045D1*
X49555Y26618D2*
X49723D1*
X50876D2*
X51057D1*
X49553Y26580D2*
X49712D1*
X50891D2*
X51065D1*
X49552Y26542D2*
X49707D1*
X50902D2*
X51069D1*
X49552Y26504D2*
X49705D1*
X50898D2*
X51069D1*
X49552Y26466D2*
X49706D1*
X50890D2*
X51065D1*
X49553Y26428D2*
X49712D1*
X50879D2*
X51056D1*
X49558Y26390D2*
X49727D1*
X50860D2*
X51045D1*
X49569Y26352D2*
X49754D1*
X50832D2*
X51033D1*
X49583Y26314D2*
X49795D1*
X50790D2*
X51019D1*
X49601Y26276D2*
X49859D1*
X50727D2*
X51002D1*
X49622Y26238D2*
X49951D1*
X50634D2*
X50979D1*
X49650Y26200D2*
X50069D1*
X50516D2*
X50948D1*
X49691Y26162D2*
X50908D1*
X49743Y26124D2*
X50854D1*
X49813Y26086D2*
X50780D1*
X49904Y26048D2*
X50685D1*
X50008Y26010D2*
X50578D1*
X50198Y25782D2*
X50388D1*
X50023Y25744D2*
X50563D1*
X49887Y25706D2*
X50700D1*
X49792Y25668D2*
X50799D1*
X49725Y25630D2*
X50870D1*
X49676Y25592D2*
X50921D1*
X49637Y25554D2*
X49979D1*
X50652D2*
X50960D1*
X49608Y25516D2*
X49888D1*
X50722D2*
X50990D1*
X49585Y25478D2*
X49820D1*
X50781D2*
X51013D1*
X49569Y25440D2*
X49774D1*
X50825D2*
X51030D1*
X49560Y25402D2*
X49743D1*
X50855D2*
X51045D1*
X49555Y25364D2*
X49723D1*
X50876D2*
X51057D1*
X49553Y25326D2*
X49712D1*
X50891D2*
X51065D1*
X49552Y25288D2*
X49707D1*
X50902D2*
X51069D1*
X49552Y25250D2*
X49705D1*
X50898D2*
X51069D1*
X49552Y25212D2*
X49706D1*
X50890D2*
X51065D1*
X49553Y25174D2*
X49712D1*
X50879D2*
X51056D1*
X49558Y25136D2*
X49727D1*
X50860D2*
X51045D1*
X49569Y25098D2*
X49754D1*
X50832D2*
X51033D1*
X49583Y25060D2*
X49795D1*
X50790D2*
X51019D1*
X49601Y25022D2*
X49859D1*
X50727D2*
X51002D1*
X49622Y24984D2*
X49951D1*
X50634D2*
X50979D1*
X49650Y24946D2*
X50069D1*
X50516D2*
X50948D1*
X49691Y24908D2*
X50908D1*
X49743Y24870D2*
X50854D1*
X49813Y24832D2*
X50780D1*
X49904Y24794D2*
X50685D1*
X50008Y24756D2*
X50578D1*
X49856Y24490D2*
X49932D1*
X50616D2*
X50768D1*
X49787Y24452D2*
X49933D1*
X50616D2*
X50823D1*
X49728Y24414D2*
X49939D1*
X50619D2*
X50872D1*
X49683Y24376D2*
X49952D1*
X50626D2*
X50914D1*
X49648Y24338D2*
X49970D1*
X50659D2*
X50950D1*
X49618Y24300D2*
X49906D1*
X50704D2*
X50978D1*
X49592Y24262D2*
X49845D1*
X50753D2*
X51000D1*
X49573Y24224D2*
X49794D1*
X50797D2*
X51018D1*
X49561Y24186D2*
X49755D1*
X50833D2*
X51032D1*
X49556Y24148D2*
X49725D1*
X50859D2*
X51046D1*
X49553Y24110D2*
X49714D1*
X50160D2*
X50312D1*
X50877D2*
X51058D1*
X49552Y24072D2*
X49708D1*
X50154D2*
X50294D1*
X50891D2*
X51065D1*
X49552Y24034D2*
X49706D1*
X50144D2*
X50283D1*
X50902D2*
X51069D1*
X49552Y23996D2*
X49706D1*
X50134D2*
X50279D1*
X50898D2*
X51069D1*
X49552Y23958D2*
X49710D1*
X50126D2*
X50282D1*
X50890D2*
X51065D1*
X49553Y23920D2*
X49721D1*
X50116D2*
X50291D1*
X50880D2*
X51056D1*
X49558Y23882D2*
X49739D1*
X50102D2*
X50307D1*
X50867D2*
X51045D1*
X49569Y23844D2*
X49763D1*
X50063D2*
X50329D1*
X50849D2*
X51033D1*
X49585Y23806D2*
X49824D1*
X50004D2*
X50360D1*
X50823D2*
X51019D1*
X49607Y23768D2*
X49909D1*
X49918D2*
X50404D1*
X50788D2*
X51002D1*
X49636Y23730D2*
X50160D1*
X50242D2*
X50473D1*
X50698D2*
X50980D1*
X49671Y23692D2*
X50120D1*
X50253D2*
X50573D1*
X50955D1*
X49712Y23654D2*
X50076D1*
X50270D2*
X50925D1*
X49763Y23616D2*
X50025D1*
X50299D2*
X50889D1*
X49818Y23578D2*
X49970D1*
X50343D2*
X50842D1*
X50400Y23540D2*
X50788D1*
X50464Y23502D2*
X50730D1*
X50426Y23274D2*
X50578D1*
X50426Y23236D2*
X50578D1*
X50426Y23198D2*
X50578D1*
X50426Y23160D2*
X50578D1*
X50426Y23122D2*
X50578D1*
X50426Y23084D2*
X50578D1*
X50426Y23046D2*
X50578D1*
X50426Y23008D2*
X50578D1*
X50426Y22970D2*
X50578D1*
X50426Y22932D2*
X50578D1*
X50426Y22894D2*
X50578D1*
X50426Y22856D2*
X50578D1*
X50426Y22818D2*
X50578D1*
X50426Y22780D2*
X50578D1*
X50426Y22742D2*
X50578D1*
X50426Y22704D2*
X50578D1*
X50198Y22514D2*
X50388D1*
X50023Y22476D2*
X50563D1*
X49887Y22438D2*
X50700D1*
X49792Y22400D2*
X50799D1*
X49725Y22362D2*
X50870D1*
X49676Y22324D2*
X50921D1*
X49637Y22286D2*
X49979D1*
X50652D2*
X50960D1*
X49608Y22248D2*
X49888D1*
X50722D2*
X50990D1*
X49585Y22210D2*
X49820D1*
X50781D2*
X51013D1*
X49569Y22172D2*
X49774D1*
X50825D2*
X51030D1*
X49560Y22134D2*
X49743D1*
X50855D2*
X51045D1*
X49555Y22096D2*
X49723D1*
X50876D2*
X51057D1*
X49553Y22058D2*
X49712D1*
X50891D2*
X51065D1*
X49552Y22020D2*
X49707D1*
X50902D2*
X51069D1*
X49552Y21982D2*
X49705D1*
X50898D2*
X51069D1*
X49552Y21944D2*
X49706D1*
X50890D2*
X51065D1*
X49553Y21906D2*
X49712D1*
X50879D2*
X51056D1*
X49558Y21868D2*
X49727D1*
X50860D2*
X51045D1*
X49569Y21830D2*
X49754D1*
X50832D2*
X51033D1*
X49583Y21792D2*
X49795D1*
X50790D2*
X51019D1*
X49601Y21754D2*
X49859D1*
X50727D2*
X51002D1*
X49622Y21716D2*
X49951D1*
X50634D2*
X50979D1*
X49650Y21678D2*
X50069D1*
X50516D2*
X50948D1*
X49691Y21640D2*
X50908D1*
X49743Y21602D2*
X50854D1*
X49813Y21564D2*
X50780D1*
X49904Y21526D2*
X50685D1*
X50008Y21488D2*
X50578D1*
X50958Y21260D2*
X51072D1*
X49856Y21222D2*
X49970D1*
X50889D2*
X51072D1*
X49787Y21184D2*
X49971D1*
X50829D2*
X51072D1*
X49727Y21146D2*
X49977D1*
X50778D2*
X51072D1*
X49678Y21108D2*
X49990D1*
X50734D2*
X51072D1*
X49640Y21070D2*
X50008D1*
X50693D2*
X51072D1*
X49613Y21032D2*
X49922D1*
X50654D2*
X51072D1*
X49595Y20994D2*
X49851D1*
X50616D2*
X50844D1*
X50920D2*
X51072D1*
X49579Y20956D2*
X49796D1*
X50579D2*
X50806D1*
X50920D2*
X51072D1*
X49566Y20918D2*
X49756D1*
X50546D2*
X50768D1*
X50920D2*
X51072D1*
X49559Y20880D2*
X49725D1*
X50517D2*
X50730D1*
X50920D2*
X51072D1*
X49555Y20842D2*
X49714D1*
X50489D2*
X50693D1*
X50920D2*
X51072D1*
X49553Y20804D2*
X49708D1*
X50457D2*
X50660D1*
X50920D2*
X51072D1*
X49552Y20766D2*
X49705D1*
X50423D2*
X50631D1*
X50920D2*
X51072D1*
X49552Y20728D2*
X49704D1*
X50388D2*
X50603D1*
X50920D2*
X51072D1*
X49552Y20690D2*
X49705D1*
X50355D2*
X50572D1*
X50920D2*
X51072D1*
X49552Y20652D2*
X49710D1*
X50325D2*
X50538D1*
X50920D2*
X51072D1*
X49553Y20614D2*
X49721D1*
X50292D2*
X50507D1*
X50920D2*
X51072D1*
X49558Y20576D2*
X49738D1*
X50251D2*
X50479D1*
X50920D2*
X51072D1*
X49569Y20538D2*
X49761D1*
X50197D2*
X50451D1*
X50920D2*
X51072D1*
X49583Y20500D2*
X49837D1*
X50112D2*
X50419D1*
X50920D2*
X51072D1*
X49601Y20462D2*
X49963D1*
X49981D2*
X50383D1*
X50920D2*
X51072D1*
X49620Y20424D2*
X50342D1*
X50920D2*
X51072D1*
X49646Y20386D2*
X50294D1*
X50920D2*
X51072D1*
X49683Y20348D2*
X50239D1*
X50920D2*
X51072D1*
X49738Y20310D2*
X50173D1*
X50920D2*
X51072D1*
X49811Y20272D2*
X50094D1*
X50920D2*
X51072D1*
X49894Y20234D2*
X50008D1*
X50920D2*
X51072D1*
X49514Y30038D2*
Y30000D1*
Y29962D1*
Y29924D1*
Y29886D1*
Y29848D1*
Y29810D1*
Y29772D1*
Y29734D1*
Y29696D1*
Y29658D1*
Y29620D1*
Y29582D1*
Y29544D1*
Y29506D1*
Y29468D1*
Y29430D1*
Y29392D1*
Y29354D1*
Y29316D1*
X49515Y29278D1*
X49520Y29240D1*
X49531Y29202D1*
X49545Y29164D1*
X49563Y29126D1*
X49582Y29088D1*
X49606Y29050D1*
X49635Y29012D1*
X49669Y28974D1*
X49707Y28936D1*
X49752Y28898D1*
X49814Y28860D1*
X49904Y28822D1*
X50024Y28784D1*
X50160Y28746D1*
X51072Y30038D2*
Y30000D1*
Y29962D1*
Y29924D1*
Y29886D1*
Y29848D1*
Y29810D1*
Y29772D1*
Y29734D1*
Y29696D1*
Y29658D1*
Y29620D1*
Y29582D1*
Y29544D1*
Y29506D1*
Y29468D1*
X51070Y29430D1*
X51065Y29392D1*
X51056Y29354D1*
X51046Y29316D1*
X51038Y29278D1*
X51030Y29240D1*
X51019Y29202D1*
X51007Y29164D1*
X50994Y29126D1*
X50976Y29088D1*
X50953Y29050D1*
X50925Y29012D1*
X50890Y28974D1*
X50848Y28936D1*
X50799Y28898D1*
X50735Y28860D1*
X50644Y28822D1*
X50523Y28784D1*
X50388Y28746D1*
X49666Y29886D2*
Y29848D1*
Y29810D1*
Y29772D1*
Y29734D1*
Y29696D1*
Y29658D1*
Y29620D1*
Y29582D1*
Y29544D1*
Y29506D1*
Y29468D1*
Y29430D1*
Y29392D1*
X49667Y29354D1*
X49672Y29316D1*
X49683Y29278D1*
X49699Y29240D1*
X49721Y29202D1*
X49750Y29164D1*
X49785Y29126D1*
X49832Y29088D1*
X49910Y29050D1*
X50056Y29012D1*
X50291Y28974D1*
X50578Y28936D1*
X50920Y29886D2*
Y29848D1*
Y29810D1*
Y29772D1*
Y29734D1*
Y29696D1*
Y29658D1*
Y29620D1*
Y29582D1*
Y29544D1*
X50918Y29506D1*
X50913Y29468D1*
X50904Y29430D1*
X50894Y29392D1*
X50888Y29354D1*
X50883Y29316D1*
X50876Y29278D1*
X50865Y29240D1*
X50849Y29202D1*
X50825Y29164D1*
X50790Y29126D1*
X50736Y29088D1*
X50650Y29050D1*
X50497Y29012D1*
X50259Y28974D1*
X49970Y28936D1*
X49514Y28442D2*
Y28404D1*
Y28366D1*
Y28328D1*
Y28290D1*
Y28252D1*
Y28214D1*
Y28176D1*
Y28138D1*
Y28100D1*
Y28062D1*
Y28024D1*
Y27986D1*
Y27948D1*
Y27910D1*
Y27872D1*
Y27834D1*
Y27796D1*
Y27758D1*
Y27720D1*
X49515Y27682D1*
X49520Y27644D1*
X49531Y27606D1*
X49545Y27568D1*
X49563Y27530D1*
X49584Y27492D1*
X49614Y27454D1*
X49658Y27416D1*
X49716Y27378D1*
X49780Y27340D1*
X51072Y28442D2*
Y28404D1*
Y28366D1*
Y28328D1*
Y28290D1*
Y28252D1*
Y28214D1*
Y28176D1*
Y28138D1*
Y28100D1*
Y28062D1*
Y28024D1*
Y27986D1*
Y27948D1*
Y27910D1*
Y27872D1*
Y27834D1*
Y27796D1*
X51070Y27758D1*
X51065Y27720D1*
X51056Y27682D1*
X51046Y27644D1*
X51038Y27606D1*
X51030Y27568D1*
X51018Y27530D1*
X51002Y27492D1*
X50985Y27454D1*
X50964Y27416D1*
X50934Y27378D1*
X50889Y27340D1*
X50831Y27302D1*
X50768Y27264D1*
X49666Y28252D2*
Y28214D1*
Y28176D1*
Y28138D1*
Y28100D1*
Y28062D1*
Y28024D1*
Y27986D1*
Y27948D1*
Y27910D1*
Y27872D1*
Y27834D1*
Y27796D1*
X49667Y27758D1*
X49672Y27720D1*
X49683Y27682D1*
X49701Y27644D1*
X49726Y27606D1*
X49800Y27568D1*
X49912Y27530D1*
X50046Y27492D1*
X50198Y28252D2*
Y28214D1*
Y28176D1*
Y28138D1*
Y28100D1*
Y28062D1*
Y28024D1*
Y27986D1*
Y27948D1*
Y27910D1*
X50196Y27872D1*
X50191Y27834D1*
X50182Y27796D1*
X50172Y27758D1*
X50164Y27720D1*
X50154Y27682D1*
X50140Y27644D1*
X50106Y27606D1*
X50029Y27568D1*
X49915Y27530D1*
X49780Y27492D1*
X50350Y28252D2*
Y28214D1*
Y28176D1*
Y28138D1*
Y28100D1*
Y28062D1*
Y28024D1*
Y27986D1*
Y27948D1*
Y27910D1*
Y27872D1*
Y27834D1*
Y27796D1*
Y27758D1*
X50351Y27720D1*
X50356Y27682D1*
X50367Y27644D1*
X50383Y27606D1*
X50408Y27568D1*
X50443Y27530D1*
X50519Y27492D1*
X50618Y27454D1*
X50730Y27416D1*
X50920Y28252D2*
Y28214D1*
Y28176D1*
Y28138D1*
Y28100D1*
Y28062D1*
Y28024D1*
Y27986D1*
Y27948D1*
Y27910D1*
Y27872D1*
X50918Y27834D1*
X50913Y27796D1*
X50904Y27758D1*
X50894Y27720D1*
X50886Y27682D1*
X50878Y27644D1*
X50864Y27606D1*
X50845Y27568D1*
X50795Y27530D1*
X50719Y27492D1*
X50617Y27454D1*
X50502Y27416D1*
X50236Y27530D2*
X50202Y27492D1*
X50169Y27454D1*
X50131Y27416D1*
X50089Y27378D1*
X50046Y27340D1*
X50274Y27530D2*
X50281Y27492D1*
X50296Y27454D1*
X50317Y27416D1*
X50345Y27378D1*
X50380Y27340D1*
X50421Y27302D1*
X50464Y27264D1*
X50198Y27036D2*
X50023Y26998D1*
X49887Y26960D1*
X49792Y26922D1*
X49725Y26884D1*
X49676Y26846D1*
X49637Y26808D1*
X49608Y26770D1*
X49585Y26732D1*
X49569Y26694D1*
X49560Y26656D1*
X49555Y26618D1*
X49553Y26580D1*
X49552Y26542D1*
Y26504D1*
Y26466D1*
X49553Y26428D1*
X49558Y26390D1*
X49569Y26352D1*
X49583Y26314D1*
X49601Y26276D1*
X49622Y26238D1*
X49650Y26200D1*
X49691Y26162D1*
X49743Y26124D1*
X49813Y26086D1*
X49904Y26048D1*
X50008Y26010D1*
X50388Y27036D2*
X50563Y26998D1*
X50700Y26960D1*
X50799Y26922D1*
X50870Y26884D1*
X50921Y26846D1*
X50960Y26808D1*
X50990Y26770D1*
X51013Y26732D1*
X51030Y26694D1*
X51045Y26656D1*
X51057Y26618D1*
X51065Y26580D1*
X51069Y26542D1*
Y26504D1*
X51065Y26466D1*
X51056Y26428D1*
X51045Y26390D1*
X51033Y26352D1*
X51019Y26314D1*
X51002Y26276D1*
X50979Y26238D1*
X50948Y26200D1*
X50908Y26162D1*
X50854Y26124D1*
X50780Y26086D1*
X50685Y26048D1*
X50578Y26010D1*
X50084Y26846D2*
X49979Y26808D1*
X49888Y26770D1*
X49820Y26732D1*
X49774Y26694D1*
X49743Y26656D1*
X49723Y26618D1*
X49712Y26580D1*
X49707Y26542D1*
X49705Y26504D1*
X49706Y26466D1*
X49712Y26428D1*
X49727Y26390D1*
X49754Y26352D1*
X49795Y26314D1*
X49859Y26276D1*
X49951Y26238D1*
X50069Y26200D1*
X50198Y26162D1*
X50578Y26846D2*
X50652Y26808D1*
X50722Y26770D1*
X50781Y26732D1*
X50825Y26694D1*
X50855Y26656D1*
X50876Y26618D1*
X50891Y26580D1*
X50902Y26542D1*
X50898Y26504D1*
X50890Y26466D1*
X50879Y26428D1*
X50860Y26390D1*
X50832Y26352D1*
X50790Y26314D1*
X50727Y26276D1*
X50634Y26238D1*
X50516Y26200D1*
X50388Y26162D1*
X50198Y25782D2*
X50023Y25744D1*
X49887Y25706D1*
X49792Y25668D1*
X49725Y25630D1*
X49676Y25592D1*
X49637Y25554D1*
X49608Y25516D1*
X49585Y25478D1*
X49569Y25440D1*
X49560Y25402D1*
X49555Y25364D1*
X49553Y25326D1*
X49552Y25288D1*
Y25250D1*
Y25212D1*
X49553Y25174D1*
X49558Y25136D1*
X49569Y25098D1*
X49583Y25060D1*
X49601Y25022D1*
X49622Y24984D1*
X49650Y24946D1*
X49691Y24908D1*
X49743Y24870D1*
X49813Y24832D1*
X49904Y24794D1*
X50008Y24756D1*
X50388Y25782D2*
X50563Y25744D1*
X50700Y25706D1*
X50799Y25668D1*
X50870Y25630D1*
X50921Y25592D1*
X50960Y25554D1*
X50990Y25516D1*
X51013Y25478D1*
X51030Y25440D1*
X51045Y25402D1*
X51057Y25364D1*
X51065Y25326D1*
X51069Y25288D1*
Y25250D1*
X51065Y25212D1*
X51056Y25174D1*
X51045Y25136D1*
X51033Y25098D1*
X51019Y25060D1*
X51002Y25022D1*
X50979Y24984D1*
X50948Y24946D1*
X50908Y24908D1*
X50854Y24870D1*
X50780Y24832D1*
X50685Y24794D1*
X50578Y24756D1*
X50084Y25592D2*
X49979Y25554D1*
X49888Y25516D1*
X49820Y25478D1*
X49774Y25440D1*
X49743Y25402D1*
X49723Y25364D1*
X49712Y25326D1*
X49707Y25288D1*
X49705Y25250D1*
X49706Y25212D1*
X49712Y25174D1*
X49727Y25136D1*
X49754Y25098D1*
X49795Y25060D1*
X49859Y25022D1*
X49951Y24984D1*
X50069Y24946D1*
X50198Y24908D1*
X50578Y25592D2*
X50652Y25554D1*
X50722Y25516D1*
X50781Y25478D1*
X50825Y25440D1*
X50855Y25402D1*
X50876Y25364D1*
X50891Y25326D1*
X50902Y25288D1*
X50898Y25250D1*
X50890Y25212D1*
X50879Y25174D1*
X50860Y25136D1*
X50832Y25098D1*
X50790Y25060D1*
X50727Y25022D1*
X50634Y24984D1*
X50516Y24946D1*
X50388Y24908D1*
X49856Y24490D2*
X49787Y24452D1*
X49728Y24414D1*
X49683Y24376D1*
X49648Y24338D1*
X49618Y24300D1*
X49592Y24262D1*
X49573Y24224D1*
X49561Y24186D1*
X49556Y24148D1*
X49553Y24110D1*
X49552Y24072D1*
Y24034D1*
Y23996D1*
Y23958D1*
X49553Y23920D1*
X49558Y23882D1*
X49569Y23844D1*
X49585Y23806D1*
X49607Y23768D1*
X49636Y23730D1*
X49671Y23692D1*
X49712Y23654D1*
X49763Y23616D1*
X49818Y23578D1*
X49932Y24490D2*
X49933Y24452D1*
X49939Y24414D1*
X49952Y24376D1*
X49970Y24338D1*
X49906Y24300D1*
X49845Y24262D1*
X49794Y24224D1*
X49755Y24186D1*
X49725Y24148D1*
X49714Y24110D1*
X49708Y24072D1*
X49706Y24034D1*
Y23996D1*
X49710Y23958D1*
X49721Y23920D1*
X49739Y23882D1*
X49763Y23844D1*
X49824Y23806D1*
X49909Y23768D1*
X50008Y23730D1*
X50616Y24490D2*
Y24452D1*
X50619Y24414D1*
X50626Y24376D1*
X50659Y24338D1*
X50704Y24300D1*
X50753Y24262D1*
X50797Y24224D1*
X50833Y24186D1*
X50859Y24148D1*
X50877Y24110D1*
X50891Y24072D1*
X50902Y24034D1*
X50898Y23996D1*
X50890Y23958D1*
X50880Y23920D1*
X50867Y23882D1*
X50849Y23844D1*
X50823Y23806D1*
X50788Y23768D1*
X50698Y23730D1*
X50573Y23692D1*
X50426Y23654D1*
X50768Y24490D2*
X50823Y24452D1*
X50872Y24414D1*
X50914Y24376D1*
X50950Y24338D1*
X50978Y24300D1*
X51000Y24262D1*
X51018Y24224D1*
X51032Y24186D1*
X51046Y24148D1*
X51058Y24110D1*
X51065Y24072D1*
X51069Y24034D1*
Y23996D1*
X51065Y23958D1*
X51056Y23920D1*
X51045Y23882D1*
X51033Y23844D1*
X51019Y23806D1*
X51002Y23768D1*
X50980Y23730D1*
X50955Y23692D1*
X50925Y23654D1*
X50889Y23616D1*
X50842Y23578D1*
X50788Y23540D1*
X50730Y23502D1*
X50160Y24110D2*
X50154Y24072D1*
X50144Y24034D1*
X50134Y23996D1*
X50126Y23958D1*
X50116Y23920D1*
X50102Y23882D1*
X50063Y23844D1*
X50004Y23806D1*
X49918Y23768D1*
X49818Y23730D1*
X50312Y24110D2*
X50294Y24072D1*
X50283Y24034D1*
X50279Y23996D1*
X50282Y23958D1*
X50291Y23920D1*
X50307Y23882D1*
X50329Y23844D1*
X50360Y23806D1*
X50404Y23768D1*
X50473Y23730D1*
X50573Y23692D1*
X50692Y23654D1*
X50198Y23768D2*
X50160Y23730D1*
X50120Y23692D1*
X50076Y23654D1*
X50025Y23616D1*
X49970Y23578D1*
X50236Y23768D2*
X50242Y23730D1*
X50253Y23692D1*
X50270Y23654D1*
X50299Y23616D1*
X50343Y23578D1*
X50400Y23540D1*
X50464Y23502D1*
X50426Y23274D2*
Y23236D1*
Y23198D1*
Y23160D1*
Y23122D1*
Y23084D1*
Y23046D1*
Y23008D1*
Y22970D1*
Y22932D1*
Y22894D1*
Y22856D1*
Y22818D1*
Y22780D1*
Y22742D1*
Y22704D1*
X50578Y23274D2*
Y23236D1*
Y23198D1*
Y23160D1*
Y23122D1*
Y23084D1*
Y23046D1*
Y23008D1*
Y22970D1*
Y22932D1*
Y22894D1*
Y22856D1*
Y22818D1*
Y22780D1*
Y22742D1*
Y22704D1*
X50198Y22514D2*
X50023Y22476D1*
X49887Y22438D1*
X49792Y22400D1*
X49725Y22362D1*
X49676Y22324D1*
X49637Y22286D1*
X49608Y22248D1*
X49585Y22210D1*
X49569Y22172D1*
X49560Y22134D1*
X49555Y22096D1*
X49553Y22058D1*
X49552Y22020D1*
Y21982D1*
Y21944D1*
X49553Y21906D1*
X49558Y21868D1*
X49569Y21830D1*
X49583Y21792D1*
X49601Y21754D1*
X49622Y21716D1*
X49650Y21678D1*
X49691Y21640D1*
X49743Y21602D1*
X49813Y21564D1*
X49904Y21526D1*
X50008Y21488D1*
X50388Y22514D2*
X50563Y22476D1*
X50700Y22438D1*
X50799Y22400D1*
X50870Y22362D1*
X50921Y22324D1*
X50960Y22286D1*
X50990Y22248D1*
X51013Y22210D1*
X51030Y22172D1*
X51045Y22134D1*
X51057Y22096D1*
X51065Y22058D1*
X51069Y22020D1*
Y21982D1*
X51065Y21944D1*
X51056Y21906D1*
X51045Y21868D1*
X51033Y21830D1*
X51019Y21792D1*
X51002Y21754D1*
X50979Y21716D1*
X50948Y21678D1*
X50908Y21640D1*
X50854Y21602D1*
X50780Y21564D1*
X50685Y21526D1*
X50578Y21488D1*
X50084Y22324D2*
X49979Y22286D1*
X49888Y22248D1*
X49820Y22210D1*
X49774Y22172D1*
X49743Y22134D1*
X49723Y22096D1*
X49712Y22058D1*
X49707Y22020D1*
X49705Y21982D1*
X49706Y21944D1*
X49712Y21906D1*
X49727Y21868D1*
X49754Y21830D1*
X49795Y21792D1*
X49859Y21754D1*
X49951Y21716D1*
X50069Y21678D1*
X50198Y21640D1*
X50578Y22324D2*
X50652Y22286D1*
X50722Y22248D1*
X50781Y22210D1*
X50825Y22172D1*
X50855Y22134D1*
X50876Y22096D1*
X50891Y22058D1*
X50902Y22020D1*
X50898Y21982D1*
X50890Y21944D1*
X50879Y21906D1*
X50860Y21868D1*
X50832Y21830D1*
X50790Y21792D1*
X50727Y21754D1*
X50634Y21716D1*
X50516Y21678D1*
X50388Y21640D1*
X50958Y21260D2*
X50889Y21222D1*
X50829Y21184D1*
X50778Y21146D1*
X50734Y21108D1*
X50693Y21070D1*
X50654Y21032D1*
X50616Y20994D1*
X50579Y20956D1*
X50546Y20918D1*
X50517Y20880D1*
X50489Y20842D1*
X50457Y20804D1*
X50423Y20766D1*
X50388Y20728D1*
X50355Y20690D1*
X50325Y20652D1*
X50292Y20614D1*
X50251Y20576D1*
X50197Y20538D1*
X50112Y20500D1*
X49981Y20462D1*
X49818Y20424D1*
X51072Y21260D2*
Y21222D1*
Y21184D1*
Y21146D1*
Y21108D1*
Y21070D1*
Y21032D1*
Y20994D1*
Y20956D1*
Y20918D1*
Y20880D1*
Y20842D1*
Y20804D1*
Y20766D1*
Y20728D1*
Y20690D1*
Y20652D1*
Y20614D1*
Y20576D1*
Y20538D1*
Y20500D1*
Y20462D1*
Y20424D1*
Y20386D1*
Y20348D1*
Y20310D1*
Y20272D1*
Y20234D1*
X49856Y21222D2*
X49787Y21184D1*
X49727Y21146D1*
X49678Y21108D1*
X49640Y21070D1*
X49613Y21032D1*
X49595Y20994D1*
X49579Y20956D1*
X49566Y20918D1*
X49559Y20880D1*
X49555Y20842D1*
X49553Y20804D1*
X49552Y20766D1*
Y20728D1*
Y20690D1*
Y20652D1*
X49553Y20614D1*
X49558Y20576D1*
X49569Y20538D1*
X49583Y20500D1*
X49601Y20462D1*
X49620Y20424D1*
X49646Y20386D1*
X49683Y20348D1*
X49738Y20310D1*
X49811Y20272D1*
X49894Y20234D1*
X49970Y21222D2*
X49971Y21184D1*
X49977Y21146D1*
X49990Y21108D1*
X50008Y21070D1*
X49922Y21032D1*
X49851Y20994D1*
X49796Y20956D1*
X49756Y20918D1*
X49725Y20880D1*
X49714Y20842D1*
X49708Y20804D1*
X49705Y20766D1*
X49704Y20728D1*
X49705Y20690D1*
X49710Y20652D1*
X49721Y20614D1*
X49738Y20576D1*
X49761Y20538D1*
X49837Y20500D1*
X49963Y20462D1*
X50122Y20424D1*
X50882Y21032D2*
X50844Y20994D1*
X50806Y20956D1*
X50768Y20918D1*
X50730Y20880D1*
X50693Y20842D1*
X50660Y20804D1*
X50631Y20766D1*
X50603Y20728D1*
X50572Y20690D1*
X50538Y20652D1*
X50507Y20614D1*
X50479Y20576D1*
X50451Y20538D1*
X50419Y20500D1*
X50383Y20462D1*
X50342Y20424D1*
X50294Y20386D1*
X50239Y20348D1*
X50173Y20310D1*
X50094Y20272D1*
X50008Y20234D1*
X50920Y21032D2*
Y20994D1*
Y20956D1*
Y20918D1*
Y20880D1*
Y20842D1*
Y20804D1*
Y20766D1*
Y20728D1*
Y20690D1*
Y20652D1*
Y20614D1*
Y20576D1*
Y20538D1*
Y20500D1*
Y20462D1*
Y20424D1*
Y20386D1*
Y20348D1*
Y20310D1*
Y20272D1*
Y20234D1*
M02*
