G04 DipTrace 2.4.0.2*
%INInner2.gbr*%
%MOMM*%
%ADD14C,0.2*%
%ADD15C,0.4*%
%ADD16C,0.3*%
%ADD19C,0.635*%
%ADD30C,1.7*%
%ADD44C,1.524*%
%ADD56C,0.7*%
%ADD58C,0.8*%
%FSLAX53Y53*%
G04*
G71*
G90*
G75*
G01*
%LNInner2_Plane*%
%LPD*%
X44320Y24000D2*
D14*
X44480D1*
X38200Y17720D1*
X28360D1*
X19040Y27040D1*
X15156D1*
X15129Y27013D1*
Y29553D2*
Y29760D1*
X15280D1*
X16240Y28800D1*
X25360D1*
X31600Y22560D1*
X39440D1*
X17680Y61040D2*
X28480D1*
X42860Y46660D1*
X60340D1*
X65920Y52240D1*
X69340D1*
X72860Y55760D1*
X79360D1*
X28720Y28320D2*
X25600Y31440D1*
X16240D1*
X15587Y32093D1*
X15129D1*
X32670Y40000D2*
X25040D1*
X18960Y46080D1*
X13842D1*
X12589Y47333D1*
X38560Y33020D2*
D15*
Y32400D1*
X38640Y32320D1*
X29030Y18650D2*
X29840D1*
X29440Y26320D2*
D16*
X30160D1*
X32240Y21840D2*
D15*
Y21280D1*
X24400Y46080D2*
Y47920D1*
X21680Y52160D2*
X21760Y52080D1*
X25310Y36870D2*
Y36320D1*
X24800D1*
X34240Y21200D2*
X34960D1*
X38000Y37120D2*
X37680D1*
X37280Y37520D1*
X44000Y20000D2*
X44480D1*
X47625Y43365D2*
X48820Y44560D1*
X63670Y35310D2*
X62540D1*
Y35190D1*
X50530Y19440D2*
X51200D1*
X84320Y16800D2*
X83680D1*
X75040Y24090D2*
Y23680D1*
X75120Y23600D1*
X65440Y32320D2*
X66320D1*
X58670Y23300D2*
X59010Y22960D1*
X52430Y23360D2*
Y22880D1*
X50480Y36320D2*
X49040D1*
X67660Y41170D2*
X67970D1*
X68480Y41680D1*
X66230Y46040D2*
X66960D1*
X63760Y51200D2*
Y52160D1*
X68450Y53710D2*
X67120Y55040D1*
X48480Y58000D2*
X49040Y56240D1*
X49120D1*
X47460Y52970D2*
Y54160D1*
X48480D1*
X48320Y54000D1*
X80800Y40750D2*
Y41600D1*
X81360Y42160D1*
X76950Y35460D2*
X78560D1*
X78210Y35110D1*
X33200Y34240D2*
X33760D1*
X33840Y34160D1*
X84800Y28720D2*
Y28880D1*
X78800Y28320D2*
X79200D1*
X79280Y28240D1*
X31200Y29709D2*
Y29040D1*
X18080Y25658D2*
Y26240D1*
X18160Y26320D1*
X72800Y26400D2*
X73440Y26320D1*
X31040Y53840D2*
X30880Y53680D1*
X29298Y46778D2*
X28480Y45960D1*
X30400Y68320D2*
X28880D1*
X33360Y60480D2*
X33920Y59920D1*
X29200Y52000D2*
Y51680D1*
X28880D1*
X28400Y51200D1*
X20160Y46470D2*
X19680Y50400D1*
X19440Y50640D1*
X27040Y67120D2*
Y66640D1*
X21990Y16350D2*
X20870Y17470D1*
X17360Y22560D2*
Y22880D1*
X18160D1*
X77360Y67470D2*
X77940D1*
Y69390D1*
X75220Y57070D2*
Y58240D1*
X73280D1*
X78890Y57070D2*
X80240D1*
X82410Y56960D2*
X81440D1*
X84740Y64630D2*
X83990Y65380D1*
X76740Y40850D2*
X77490D1*
X78080Y41440D1*
X62640Y11760D2*
Y13040D1*
X62480Y13200D1*
X56180Y37490D2*
X56820Y36850D1*
X77610Y51270D2*
Y50270D1*
X77510Y50170D1*
X37840Y56240D2*
X37400D1*
X36560Y57080D1*
X60970Y34890D2*
X60370Y34100D1*
X53580Y31310D2*
D16*
X65480Y19410D1*
Y15170D1*
X59710Y31250D2*
X59750D1*
Y30280D1*
X75650Y14380D1*
X34860Y52780D2*
D15*
Y45830D1*
X37370Y43320D1*
X12589Y67653D2*
Y65113D1*
X19040Y66320D2*
X13922D1*
X12589Y67653D1*
X40700Y26890D2*
X44810Y31000D1*
Y32220D1*
X43370Y33660D1*
X41860D1*
X38630Y30430D1*
X35830D1*
X34100Y32160D1*
X42960D2*
D14*
Y32400D1*
X33840Y23280D1*
X50400Y34240D2*
X43760Y40880D1*
Y45040D1*
X28560Y60240D1*
X15336D1*
X15129Y60033D1*
X29280Y35200D2*
X21920D1*
X16080Y41040D1*
X13802D1*
X12589Y42253D1*
X42190Y52050D2*
Y54470D1*
X32660Y64000D1*
X16556D1*
X15129Y62573D1*
Y65113D2*
X15682Y64560D1*
X33270D1*
X41040Y56790D1*
X26080Y43600D2*
Y48960D1*
X18880Y56160D1*
X13922D1*
X12589Y57493D1*
Y60033D2*
X12687D1*
X13840Y58880D1*
X24880D1*
X30240Y53520D1*
Y45840D1*
D56*
X72880Y41050D3*
X44320Y24000D3*
X69440Y23440D3*
X49680Y59680D3*
X39440Y22560D3*
D3*
X17600Y44160D3*
X25440Y25800D3*
X39520Y35040D3*
X25440Y32190D3*
X17680Y61040D3*
X79360Y55760D3*
X83360Y31200D3*
X28720Y28320D3*
X66480Y51280D3*
X37570Y41530D3*
X45440Y37120D3*
X67440Y51280D3*
X32670Y40000D3*
X29920Y19840D3*
X69200Y24720D3*
X63730Y34220D3*
X57700Y35250D3*
X69200Y24720D3*
D58*
X38560Y33020D3*
X29030Y18650D3*
X29440Y26320D3*
X32240Y21840D3*
X24400Y46080D3*
X21680Y52160D3*
X25310Y36870D3*
X34240Y21200D3*
X38000Y37120D3*
X44000Y20000D3*
X47625Y43365D3*
X63670Y35310D3*
X50530Y19440D3*
X84320Y16800D3*
X75040Y24090D3*
X65440Y32320D3*
X58670Y23300D3*
X52430Y23360D3*
X50480Y36320D3*
X67660Y41170D3*
X66230Y46040D3*
X63760Y51200D3*
X68450Y53710D3*
X48480Y58000D3*
X47460Y52970D3*
X80800Y40750D3*
X76950Y35460D3*
X33200Y34240D3*
X84800Y28720D3*
X78800Y28320D3*
X31200Y29709D3*
X18080Y25658D3*
X72800Y26400D3*
X31040Y53840D3*
X29298Y46778D3*
X30400Y68320D3*
X33360Y60480D3*
X29200Y52000D3*
X20160Y46470D3*
X27040Y67120D3*
X20870Y17470D3*
X17360Y22560D3*
X31200Y29709D3*
X77940Y69390D3*
X75220Y57070D3*
X78890D3*
X82410Y56960D3*
X84740Y64630D3*
X76740Y40850D3*
X62640Y11760D3*
X56180Y37490D3*
X77610Y51270D3*
X36560Y57080D3*
X60970Y34890D3*
D56*
X30160Y65520D3*
X24160Y63120D3*
D58*
X59678Y51842D3*
X56790Y50160D3*
X58800Y51120D3*
X51840Y50130D3*
X58000Y52000D3*
X46660Y50190D3*
D56*
X29520Y23280D3*
X72550Y24090D3*
D58*
X53580Y31310D3*
X65480Y15170D3*
D56*
X22880Y58240D3*
D58*
X46460Y45670D3*
X51620D3*
X56880Y45610D3*
X61440D3*
X56880D3*
X59710Y31250D3*
X75650Y14380D3*
X21900Y55830D3*
X34860Y52780D3*
X37370Y43320D3*
X23260Y50090D3*
X21900Y55830D3*
X34860Y52780D3*
D56*
X23520Y57360D3*
D58*
X19040Y66320D3*
Y42850D3*
X40700Y26890D3*
X34100Y32160D3*
D56*
X42960D3*
X33840Y23280D3*
X72640Y45920D3*
X75720Y47030D3*
X50400Y34240D3*
X69680Y51120D3*
X29280Y35200D3*
X42190Y52050D3*
X27440Y43360D3*
X44000Y59760D3*
X81760Y67440D3*
X42190Y52050D3*
X44000Y59760D3*
X68640Y51120D3*
X47210Y34090D3*
D3*
X26800Y44080D3*
X41040Y56790D3*
X84160Y68320D3*
X41040Y56790D3*
X48560Y34400D3*
X71824Y50400D3*
X49440Y33920D3*
X73710Y48910D3*
D58*
X58960Y21397D3*
D56*
X52680Y20700D3*
D58*
X22960Y55900D3*
X21350Y66780D3*
X29235Y49795D3*
D56*
X26080Y43600D3*
X39600Y47840D3*
X26080Y43600D3*
X30240Y45840D3*
X39520Y55840D3*
X30240Y45840D3*
D58*
X39240Y61790D3*
X48280Y59230D3*
X72960Y25360D3*
X75170Y25390D3*
X46320Y42160D3*
X51120Y35120D3*
X67460Y48830D3*
X20400Y20800D3*
X45770Y52920D3*
X84030Y56960D3*
X76880Y57130D3*
X57123Y34353D3*
X73190Y52400D3*
X44930Y50910D3*
D56*
X62880Y45920D3*
Y57280D3*
X11989Y75430D2*
D19*
X21863D1*
X25036D2*
X26943D1*
X32656D2*
X40883D1*
X11413Y74798D2*
X12596D1*
X15124D2*
X22002D1*
X24887D2*
X27082D1*
X32507D2*
X35595D1*
X38123D2*
X40883D1*
X11145Y74167D2*
X11822D1*
X15898D2*
X17507D1*
X19936D2*
X22547D1*
X24341D2*
X27627D1*
X29421D2*
X30167D1*
X31961D2*
X34821D1*
X38897D2*
X40883D1*
X11056Y73535D2*
X11423D1*
X16285D2*
X17239D1*
X20204D2*
X34434D1*
X39284D2*
X40883D1*
X11046Y72903D2*
X11244D1*
X16463D2*
X17279D1*
X20154D2*
X34255D1*
X39462D2*
X40883D1*
X11046Y72272D2*
X11244D1*
X16483D2*
X17666D1*
X19777D2*
X34235D1*
X39482D2*
X40883D1*
X81144D2*
X81592D1*
X84408D2*
X84956D1*
X11046Y71640D2*
X11382D1*
X16334D2*
X34384D1*
X39333D2*
X40883D1*
X81144D2*
X84956D1*
X11046Y71008D2*
X11723D1*
X15997D2*
X34722D1*
X38996D2*
X40883D1*
X81144D2*
X84956D1*
X11046Y70377D2*
X12377D1*
X15332D2*
X35386D1*
X38341D2*
X84956D1*
X11046Y69745D2*
X84956D1*
X11046Y69113D2*
X12090D1*
X13080D2*
X14630D1*
X15620D2*
X83448D1*
X11046Y68482D2*
X11244D1*
X16473D2*
X83091D1*
X16701Y67850D2*
X80759D1*
X82761D2*
X83190D1*
X16652Y67218D2*
X18390D1*
X19688D2*
X20305D1*
X22397D2*
X80700D1*
X82821D2*
X84956D1*
X11046Y66587D2*
X11441D1*
X22466D2*
X81136D1*
X82384D2*
X84956D1*
X11046Y65955D2*
X11264D1*
X20115D2*
X20603D1*
X22099D2*
X29175D1*
X31148D2*
X84956D1*
X33450Y65323D2*
X84956D1*
X34293Y64692D2*
X84956D1*
X11046Y64060D2*
X11421D1*
X13755D2*
X13966D1*
X34928D2*
X84956D1*
X11046Y63428D2*
X13806D1*
X35553D2*
X84956D1*
X11046Y62797D2*
X13558D1*
X16701D2*
X23123D1*
X25195D2*
X32707D1*
X36188D2*
X38809D1*
X39671D2*
X84956D1*
X11046Y62165D2*
X13598D1*
X16662D2*
X23728D1*
X24589D2*
X33342D1*
X36823D2*
X38174D1*
X40306D2*
X84956D1*
X11046Y61533D2*
X12268D1*
X12920D2*
X13955D1*
X16305D2*
X16723D1*
X29143D2*
X33967D1*
X37448D2*
X38135D1*
X40345D2*
X84956D1*
X11046Y60902D2*
X11283D1*
X29778D2*
X34602D1*
X38083D2*
X38571D1*
X39909D2*
X84956D1*
X30404Y60270D2*
X35237D1*
X38718D2*
X43046D1*
X44949D2*
X47957D1*
X50575D2*
X84956D1*
X31039Y59638D2*
X35863D1*
X39343D2*
X42917D1*
X45078D2*
X47223D1*
X50763D2*
X84956D1*
X11046Y59007D2*
X11401D1*
X25909D2*
X28639D1*
X31674D2*
X36498D1*
X39978D2*
X43244D1*
X44751D2*
X47164D1*
X50515D2*
X84956D1*
X11046Y58375D2*
X11283D1*
X26544D2*
X29265D1*
X32299D2*
X37133D1*
X40613D2*
X47570D1*
X48987D2*
X84956D1*
X14152Y57743D2*
X21922D1*
X24530D2*
X24861D1*
X27169D2*
X29900D1*
X32934D2*
X37758D1*
X41476D2*
X61907D1*
X63850D2*
X75937D1*
X77820D2*
X83230D1*
X14132Y57112D2*
X22468D1*
X24579D2*
X25494D1*
X27804D2*
X30535D1*
X33569D2*
X38393D1*
X42072D2*
X61808D1*
X63949D2*
X75748D1*
X78019D2*
X82902D1*
X11046Y56480D2*
X11382D1*
X19718D2*
X20980D1*
X24103D2*
X26119D1*
X28439D2*
X31160D1*
X34194D2*
X38661D1*
X42082D2*
X62175D1*
X63582D2*
X72514D1*
X80152D2*
X83011D1*
X11046Y55848D2*
X11303D1*
X20353D2*
X20761D1*
X24093D2*
X26754D1*
X29064D2*
X31795D1*
X34829D2*
X38432D1*
X41972D2*
X71790D1*
X80440D2*
X84956D1*
X16692Y55217D2*
X18668D1*
X23845D2*
X27389D1*
X29699D2*
X32430D1*
X35464D2*
X38651D1*
X42598D2*
X71165D1*
X80291D2*
X84956D1*
X16672Y54585D2*
X19303D1*
X21613D2*
X28014D1*
X30334D2*
X33055D1*
X36089D2*
X40923D1*
X43014D2*
X70530D1*
X72839D2*
X84956D1*
X11046Y53953D2*
X11382D1*
X16344D2*
X19928D1*
X22248D2*
X28649D1*
X30939D2*
X33690D1*
X36724D2*
X41349D1*
X43024D2*
X45417D1*
X46120D2*
X69895D1*
X72204D2*
X84956D1*
X11046Y53322D2*
X13846D1*
X16414D2*
X20563D1*
X22873D2*
X29284D1*
X31078D2*
X33868D1*
X37359D2*
X41349D1*
X43024D2*
X44713D1*
X46824D2*
X69270D1*
X71579D2*
X72573D1*
X73802D2*
X84956D1*
X11046Y52690D2*
X13568D1*
X16692D2*
X21198D1*
X23508D2*
X29403D1*
X31078D2*
X33729D1*
X37984D2*
X41330D1*
X43054D2*
X44663D1*
X46884D2*
X57115D1*
X60397D2*
X65211D1*
X70944D2*
X72097D1*
X74288D2*
X84956D1*
X11046Y52058D2*
X13588D1*
X16672D2*
X21823D1*
X24133D2*
X29403D1*
X31078D2*
X33928D1*
X38619D2*
X41101D1*
X43272D2*
X45070D1*
X46477D2*
X56867D1*
X60794D2*
X64586D1*
X70319D2*
X72107D1*
X74268D2*
X84956D1*
X11046Y51427D2*
X13905D1*
X16354D2*
X22458D1*
X24768D2*
X29403D1*
X31078D2*
X33928D1*
X35791D2*
X36220D1*
X39254D2*
X41320D1*
X43064D2*
X43929D1*
X45931D2*
X57026D1*
X60735D2*
X63951D1*
X70716D2*
X72673D1*
X73703D2*
X84956D1*
X11046Y50795D2*
X11323D1*
X16404D2*
X22389D1*
X25403D2*
X28788D1*
X31078D2*
X33928D1*
X35791D2*
X36845D1*
X39879D2*
X43800D1*
X47608D2*
X50934D1*
X52748D2*
X55865D1*
X59971D2*
X63316D1*
X72829D2*
X84956D1*
X16692Y50163D2*
X22131D1*
X26028D2*
X28163D1*
X31078D2*
X33928D1*
X35791D2*
X37480D1*
X40514D2*
X44098D1*
X47797D2*
X50706D1*
X52976D2*
X55657D1*
X57927D2*
X58256D1*
X59346D2*
X62691D1*
X65001D2*
X68218D1*
X70101D2*
X70768D1*
X72879D2*
X84956D1*
X16672Y49532D2*
X22280D1*
X26663D2*
X28133D1*
X31078D2*
X33928D1*
X35791D2*
X38115D1*
X41149D2*
X45755D1*
X47568D2*
X50884D1*
X52797D2*
X55855D1*
X57718D2*
X62056D1*
X64366D2*
X66581D1*
X68335D2*
X71224D1*
X72423D2*
X72831D1*
X74586D2*
X84956D1*
X11046Y48900D2*
X11362D1*
X16364D2*
X24988D1*
X26921D2*
X28580D1*
X31078D2*
X33928D1*
X35791D2*
X38740D1*
X41774D2*
X61421D1*
X63731D2*
X66323D1*
X68593D2*
X72623D1*
X74794D2*
X84956D1*
X11046Y48268D2*
X11323D1*
X16394D2*
X25246D1*
X26921D2*
X29403D1*
X31078D2*
X33928D1*
X35791D2*
X38611D1*
X42409D2*
X60796D1*
X63106D2*
X66481D1*
X68434D2*
X72851D1*
X74566D2*
X84956D1*
X16682Y47637D2*
X25246D1*
X26921D2*
X29403D1*
X31078D2*
X33928D1*
X35791D2*
X38532D1*
X43044D2*
X60161D1*
X62471D2*
X74836D1*
X76610D2*
X84956D1*
X16682Y47005D2*
X25246D1*
X26921D2*
X29403D1*
X31078D2*
X33928D1*
X35791D2*
X38948D1*
X40256D2*
X40631D1*
X61836D2*
X74637D1*
X76808D2*
X84956D1*
X11046Y46373D2*
X11342D1*
X19827D2*
X25246D1*
X26921D2*
X29304D1*
X31177D2*
X33928D1*
X35791D2*
X41270D1*
X63860D2*
X71661D1*
X73623D2*
X74875D1*
X76570D2*
X84956D1*
X11046Y45742D2*
X13022D1*
X20452D2*
X25246D1*
X26921D2*
X29155D1*
X31326D2*
X33928D1*
X36248D2*
X41905D1*
X44215D2*
X45328D1*
X47598D2*
X50487D1*
X52758D2*
X55756D1*
X58006D2*
X60310D1*
X63949D2*
X71571D1*
X73713D2*
X84956D1*
X11046Y45110D2*
X13578D1*
X16682D2*
X17160D1*
X18041D2*
X18777D1*
X21087D2*
X25246D1*
X26921D2*
X29463D1*
X31019D2*
X34285D1*
X36883D2*
X42530D1*
X44592D2*
X45477D1*
X47439D2*
X50646D1*
X52599D2*
X55865D1*
X57897D2*
X60429D1*
X63572D2*
X71948D1*
X73326D2*
X84956D1*
X11046Y44478D2*
X13578D1*
X18636D2*
X19402D1*
X21722D2*
X25246D1*
X27804D2*
X34910D1*
X37508D2*
X42927D1*
X44592D2*
X84956D1*
X11046Y43847D2*
X13876D1*
X19499D2*
X20037D1*
X22347D2*
X25028D1*
X28399D2*
X35545D1*
X38371D2*
X42927D1*
X44592D2*
X84956D1*
X11046Y43215D2*
X11342D1*
X16374D2*
X17150D1*
X20115D2*
X20672D1*
X22982D2*
X25068D1*
X28518D2*
X36180D1*
X38500D2*
X42927D1*
X44592D2*
X46062D1*
X46582D2*
X84956D1*
X16682Y42583D2*
X17934D1*
X20144D2*
X21297D1*
X23617D2*
X26715D1*
X28171D2*
X36527D1*
X38212D2*
X42927D1*
X44592D2*
X45268D1*
X47370D2*
X84956D1*
X16682Y41952D2*
X18390D1*
X19688D2*
X21932D1*
X24242D2*
X36577D1*
X38569D2*
X42927D1*
X44592D2*
X45209D1*
X47439D2*
X72335D1*
X73425D2*
X84956D1*
X11046Y41320D2*
X11323D1*
X16959D2*
X22567D1*
X24877D2*
X36507D1*
X38639D2*
X42927D1*
X44592D2*
X45586D1*
X47052D2*
X71829D1*
X73931D2*
X84956D1*
X11046Y40688D2*
X11362D1*
X17584D2*
X23192D1*
X33489D2*
X36924D1*
X38212D2*
X42947D1*
X45108D2*
X71859D1*
X73901D2*
X84956D1*
X18219Y40057D2*
X23827D1*
X33757D2*
X43423D1*
X45743D2*
X72573D1*
X73191D2*
X84956D1*
X18854Y39425D2*
X24462D1*
X33579D2*
X44058D1*
X46368D2*
X84956D1*
X11046Y38793D2*
X11303D1*
X16404D2*
X17170D1*
X19480D2*
X44693D1*
X47003D2*
X84956D1*
X11046Y38162D2*
X11362D1*
X13814D2*
X17805D1*
X20115D2*
X45318D1*
X47638D2*
X84956D1*
X14132Y37530D2*
X18430D1*
X20750D2*
X44435D1*
X48263D2*
X84956D1*
X14152Y36898D2*
X19065D1*
X21375D2*
X44376D1*
X48898D2*
X84956D1*
X11046Y36267D2*
X11303D1*
X13874D2*
X19700D1*
X22010D2*
X44812D1*
X46070D2*
X47213D1*
X49533D2*
X57522D1*
X57870D2*
X84956D1*
X11046Y35635D2*
X11382D1*
X16344D2*
X20325D1*
X30265D2*
X38621D1*
X40415D2*
X47848D1*
X52123D2*
X56689D1*
X58711D2*
X84956D1*
X16672Y35003D2*
X20960D1*
X30344D2*
X38432D1*
X40603D2*
X46687D1*
X52252D2*
X56202D1*
X58760D2*
X63009D1*
X64455D2*
X84956D1*
X16692Y34372D2*
X28620D1*
X29947D2*
X38680D1*
X40355D2*
X41290D1*
X43937D2*
X46161D1*
X51954D2*
X55984D1*
X58284D2*
X62652D1*
X64803D2*
X84956D1*
X11046Y33740D2*
X11283D1*
X16424D2*
X40645D1*
X44592D2*
X46181D1*
X51359D2*
X56183D1*
X58066D2*
X62761D1*
X64694D2*
X84956D1*
X11046Y33108D2*
X13935D1*
X16324D2*
X24929D1*
X25949D2*
X33531D1*
X34660D2*
X40010D1*
X45217D2*
X46856D1*
X47558D2*
X48751D1*
X50128D2*
X84956D1*
X11046Y32477D2*
X13588D1*
X16662D2*
X24393D1*
X26484D2*
X33015D1*
X35186D2*
X39375D1*
X45703D2*
X84956D1*
X11046Y31845D2*
X13568D1*
X26465D2*
X33015D1*
X35712D2*
X38750D1*
X45743D2*
X52591D1*
X54573D2*
X58752D1*
X60665D2*
X82505D1*
X84220D2*
X84956D1*
X11046Y31213D2*
X13826D1*
X26980D2*
X33531D1*
X43411D2*
X43731D1*
X45743D2*
X52452D1*
X54901D2*
X58574D1*
X60844D2*
X82277D1*
X84448D2*
X84956D1*
X11046Y30582D2*
X11401D1*
X16314D2*
X25306D1*
X27615D2*
X34384D1*
X42300D2*
X43096D1*
X45644D2*
X52730D1*
X55536D2*
X58812D1*
X60675D2*
X82485D1*
X84240D2*
X84956D1*
X16662Y29950D2*
X25931D1*
X28250D2*
X35009D1*
X41665D2*
X42461D1*
X45058D2*
X53712D1*
X56171D2*
X58931D1*
X61310D2*
X84956D1*
X25998Y29318D2*
X26566D1*
X29005D2*
X38720D1*
X41030D2*
X41836D1*
X44423D2*
X54347D1*
X56796D2*
X59487D1*
X61935D2*
X84956D1*
X11046Y28687D2*
X11283D1*
X26633D2*
X27201D1*
X29739D2*
X38095D1*
X40405D2*
X41201D1*
X43798D2*
X54972D1*
X57431D2*
X60122D1*
X62570D2*
X84956D1*
X11046Y28055D2*
X12258D1*
X12920D2*
X13955D1*
X27258D2*
X27675D1*
X29769D2*
X37460D1*
X39770D2*
X40566D1*
X43163D2*
X55607D1*
X58066D2*
X60747D1*
X63205D2*
X84956D1*
X11046Y27423D2*
X13598D1*
X19817D2*
X25583D1*
X27893D2*
X28157D1*
X29272D2*
X36825D1*
X39135D2*
X39702D1*
X42528D2*
X56242D1*
X58691D2*
X61382D1*
X63830D2*
X84956D1*
X11046Y26792D2*
X13558D1*
X20442D2*
X25127D1*
X25750D2*
X26209D1*
X28528D2*
X36200D1*
X38510D2*
X39573D1*
X41903D2*
X56867D1*
X59326D2*
X62007D1*
X64465D2*
X84956D1*
X11046Y26160D2*
X13806D1*
X16453D2*
X18767D1*
X21077D2*
X24423D1*
X26465D2*
X26844D1*
X29153D2*
X35565D1*
X37875D2*
X39851D1*
X41546D2*
X57502D1*
X59961D2*
X62642D1*
X65100D2*
X72187D1*
X73742D2*
X74359D1*
X75985D2*
X84956D1*
X11046Y25528D2*
X11421D1*
X13755D2*
X13966D1*
X16295D2*
X19392D1*
X21712D2*
X24393D1*
X26484D2*
X27479D1*
X29788D2*
X34930D1*
X37240D2*
X58137D1*
X60586D2*
X63277D1*
X65725D2*
X68506D1*
X69893D2*
X71839D1*
X76292D2*
X84956D1*
X16652Y24897D2*
X20027D1*
X22337D2*
X24899D1*
X25978D2*
X28104D1*
X30423D2*
X34305D1*
X36615D2*
X43760D1*
X44880D2*
X58762D1*
X61221D2*
X63902D1*
X66360D2*
X68128D1*
X70270D2*
X71859D1*
X76183D2*
X84956D1*
X16701Y24265D2*
X20662D1*
X22972D2*
X28739D1*
X31048D2*
X33501D1*
X35980D2*
X43264D1*
X45376D2*
X59397D1*
X61856D2*
X64537D1*
X66995D2*
X68218D1*
X70180D2*
X71482D1*
X73623D2*
X84956D1*
X11046Y23633D2*
X11264D1*
X16463D2*
X21287D1*
X23607D2*
X28501D1*
X31683D2*
X32817D1*
X35345D2*
X42957D1*
X45336D2*
X60032D1*
X62481D2*
X65172D1*
X67620D2*
X68377D1*
X70508D2*
X71571D1*
X73524D2*
X84956D1*
X11046Y23002D2*
X11441D1*
X16275D2*
X21922D1*
X24232D2*
X28471D1*
X40425D2*
X42322D1*
X44641D2*
X60657D1*
X63116D2*
X65797D1*
X68255D2*
X68458D1*
X70428D2*
X84956D1*
X16652Y22370D2*
X22557D1*
X24867D2*
X28987D1*
X30046D2*
X30634D1*
X40504D2*
X41697D1*
X44006D2*
X58445D1*
X59475D2*
X61292D1*
X63751D2*
X66432D1*
X68890D2*
X84956D1*
X16701Y21738D2*
X19819D1*
X20988D2*
X23182D1*
X25502D2*
X38770D1*
X40107D2*
X41062D1*
X43371D2*
X57879D1*
X60040D2*
X61927D1*
X64376D2*
X67067D1*
X69516D2*
X84956D1*
X11046Y21107D2*
X11244D1*
X16473D2*
X19313D1*
X21494D2*
X23817D1*
X26127D2*
X40427D1*
X42746D2*
X51678D1*
X53680D2*
X57859D1*
X60060D2*
X62552D1*
X65011D2*
X67692D1*
X70151D2*
X84956D1*
X11046Y20475D2*
X11460D1*
X13725D2*
X14630D1*
X15630D2*
X19313D1*
X21484D2*
X24452D1*
X26762D2*
X29056D1*
X30781D2*
X39802D1*
X42111D2*
X51618D1*
X53740D2*
X56679D1*
X59574D2*
X63187D1*
X65646D2*
X68327D1*
X70786D2*
X84956D1*
X14112Y19843D2*
X19849D1*
X20948D2*
X25077D1*
X27397D2*
X28838D1*
X31009D2*
X39167D1*
X41476D2*
X52055D1*
X53303D2*
X56252D1*
X59316D2*
X63822D1*
X66241D2*
X68962D1*
X71411D2*
X84956D1*
X14161Y19212D2*
X25712D1*
X28022D2*
X29046D1*
X30790D2*
X38532D1*
X40851D2*
X56153D1*
X59415D2*
X64447D1*
X66370D2*
X69587D1*
X72046D2*
X84956D1*
X11046Y18580D2*
X11244D1*
X13943D2*
X26347D1*
X28657D2*
X37906D1*
X40216D2*
X56321D1*
X59246D2*
X64596D1*
X66370D2*
X70222D1*
X72681D2*
X84956D1*
X11046Y17948D2*
X12050D1*
X13130D2*
X26973D1*
X39581D2*
X56917D1*
X58651D2*
X64596D1*
X66370D2*
X70857D1*
X73306D2*
X84956D1*
X11046Y17317D2*
X27608D1*
X38956D2*
X64596D1*
X66370D2*
X71482D1*
X73941D2*
X84956D1*
X11046Y16685D2*
X12407D1*
X15312D2*
X35406D1*
X38311D2*
X64596D1*
X66370D2*
X72117D1*
X74576D2*
X84956D1*
X11046Y16053D2*
X11733D1*
X15987D2*
X22686D1*
X24629D2*
X25226D1*
X27169D2*
X27766D1*
X29709D2*
X30306D1*
X32249D2*
X34731D1*
X38986D2*
X43135D1*
X44622D2*
X47541D1*
X49027D2*
X64596D1*
X66370D2*
X72752D1*
X75201D2*
X84956D1*
X11046Y15422D2*
X11382D1*
X16334D2*
X22190D1*
X32745D2*
X34384D1*
X39333D2*
X42728D1*
X45038D2*
X47124D1*
X49434D2*
X64378D1*
X66589D2*
X73377D1*
X75965D2*
X84956D1*
X11046Y14790D2*
X11244D1*
X16483D2*
X22071D1*
X32864D2*
X34235D1*
X39482D2*
X42758D1*
X44999D2*
X47154D1*
X49404D2*
X64418D1*
X66549D2*
X74012D1*
X76709D2*
X81682D1*
X84319D2*
X84956D1*
X11046Y14158D2*
X11244D1*
X16463D2*
X22230D1*
X32705D2*
X34255D1*
X39462D2*
X43314D1*
X44453D2*
X47709D1*
X48848D2*
X65063D1*
X65904D2*
X74538D1*
X76759D2*
X81027D1*
X11046Y13527D2*
X11421D1*
X16295D2*
X22706D1*
X32229D2*
X34424D1*
X39294D2*
X56738D1*
X58820D2*
X74935D1*
X76362D2*
X80719D1*
X11125Y12895D2*
X11802D1*
X15908D2*
X22200D1*
X32745D2*
X34811D1*
X38917D2*
X56272D1*
X59296D2*
X68863D1*
X70299D2*
X71403D1*
X72839D2*
X80620D1*
X11373Y12263D2*
X12566D1*
X15144D2*
X22071D1*
X32864D2*
X35575D1*
X38143D2*
X56153D1*
X59415D2*
X68188D1*
X73514D2*
X80690D1*
X11899Y11632D2*
X22220D1*
X32715D2*
X56302D1*
X59266D2*
X68000D1*
X73703D2*
X80957D1*
X13457Y11000D2*
X22786D1*
X32150D2*
X56837D1*
X58730D2*
X68089D1*
X73613D2*
X81523D1*
X16410Y72206D2*
X16352Y71895D1*
X16256Y71592D1*
X16123Y71304D1*
X15955Y71035D1*
X15756Y70788D1*
X15528Y70567D1*
X15274Y70377D1*
X14999Y70219D1*
X14706Y70096D1*
X14401Y70010D1*
X14087Y69962D1*
X13770Y69954D1*
X13454Y69984D1*
X13144Y70054D1*
X12846Y70161D1*
X12562Y70303D1*
X12299Y70480D1*
X12059Y70688D1*
X11847Y70924D1*
X11665Y71184D1*
X11517Y71464D1*
X11404Y71761D1*
X11329Y72069D1*
X11292Y72384D1*
X11295Y72702D1*
X11336Y73016D1*
X11416Y73323D1*
X11533Y73618D1*
X11686Y73896D1*
X11871Y74154D1*
X12087Y74386D1*
X12330Y74590D1*
X12597Y74763D1*
X12882Y74901D1*
X13183Y75003D1*
X13493Y75068D1*
X13809Y75094D1*
X14126Y75080D1*
X14439Y75028D1*
X14743Y74937D1*
X15034Y74810D1*
X15307Y74648D1*
X15558Y74453D1*
X15782Y74229D1*
X15978Y73979D1*
X16141Y73707D1*
X16270Y73417D1*
X16361Y73113D1*
X16415Y72801D1*
X16430Y72523D1*
X16410Y72206D1*
Y14206D2*
X16352Y13895D1*
X16256Y13592D1*
X16123Y13304D1*
X15955Y13035D1*
X15756Y12788D1*
X15528Y12567D1*
X15274Y12377D1*
X14999Y12219D1*
X14706Y12096D1*
X14401Y12010D1*
X14087Y11962D1*
X13770Y11954D1*
X13454Y11984D1*
X13144Y12054D1*
X12846Y12161D1*
X12562Y12303D1*
X12299Y12480D1*
X12059Y12688D1*
X11847Y12924D1*
X11665Y13184D1*
X11517Y13464D1*
X11404Y13761D1*
X11329Y14069D1*
X11292Y14384D1*
X11295Y14702D1*
X11336Y15016D1*
X11416Y15323D1*
X11533Y15618D1*
X11686Y15896D1*
X11871Y16154D1*
X12087Y16386D1*
X12330Y16590D1*
X12597Y16763D1*
X12882Y16901D1*
X13183Y17003D1*
X13493Y17068D1*
X13809Y17094D1*
X14126Y17080D1*
X14439Y17028D1*
X14743Y16937D1*
X15034Y16810D1*
X15307Y16648D1*
X15558Y16453D1*
X15782Y16229D1*
X15978Y15979D1*
X16141Y15707D1*
X16270Y15417D1*
X16361Y15113D1*
X16415Y14801D1*
X16430Y14523D1*
X16410Y14206D1*
X39410Y72206D2*
X39352Y71895D1*
X39256Y71592D1*
X39123Y71304D1*
X38955Y71035D1*
X38756Y70788D1*
X38528Y70567D1*
X38274Y70377D1*
X37999Y70219D1*
X37706Y70096D1*
X37401Y70010D1*
X37087Y69962D1*
X36770Y69954D1*
X36454Y69984D1*
X36144Y70054D1*
X35846Y70161D1*
X35562Y70303D1*
X35299Y70480D1*
X35059Y70688D1*
X34847Y70924D1*
X34665Y71184D1*
X34517Y71464D1*
X34404Y71761D1*
X34329Y72069D1*
X34292Y72384D1*
X34295Y72702D1*
X34336Y73016D1*
X34416Y73323D1*
X34533Y73618D1*
X34686Y73896D1*
X34871Y74154D1*
X35087Y74386D1*
X35330Y74590D1*
X35597Y74763D1*
X35882Y74901D1*
X36183Y75003D1*
X36493Y75068D1*
X36809Y75094D1*
X37126Y75080D1*
X37439Y75028D1*
X37743Y74937D1*
X38034Y74810D1*
X38307Y74648D1*
X38558Y74453D1*
X38782Y74229D1*
X38978Y73979D1*
X39141Y73707D1*
X39270Y73417D1*
X39361Y73113D1*
X39415Y72801D1*
X39430Y72523D1*
X39410Y72206D1*
X73610Y11205D2*
X73551Y10978D1*
X81617D1*
X81410Y11150D1*
X81194Y11382D1*
X81012Y11642D1*
X80867Y11924D1*
X80762Y12224D1*
X80699Y12535D1*
X80679Y12851D1*
X80702Y13168D1*
X80769Y13478D1*
X80876Y13776D1*
X81024Y14057D1*
X81208Y14315D1*
X81426Y14546D1*
X81674Y14745D1*
X81946Y14908D1*
X82238Y15032D1*
X82544Y15116D1*
X82858Y15157D1*
X83176Y15154D1*
X83490Y15109D1*
X83794Y15021D1*
X84084Y14892D1*
X84354Y14725D1*
X84599Y14523D1*
X84813Y14289D1*
X85025Y13966D1*
X85023Y56555D1*
X84920Y56361D1*
X84707Y56128D1*
X84435Y55966D1*
X84128Y55892D1*
X83812Y55910D1*
X83515Y56019D1*
X83263Y56210D1*
X83077Y56466D1*
X82975Y56765D1*
X82964Y57082D1*
X83046Y57387D1*
X83213Y57656D1*
X83452Y57864D1*
X83740Y57993D1*
X84054Y58033D1*
X84366Y57979D1*
X84648Y57837D1*
X84877Y57618D1*
X85028Y57351D1*
X85023Y67766D1*
X84771Y67499D1*
X84491Y67352D1*
X84179Y67297D1*
X83866Y67340D1*
X83581Y67477D1*
X83351Y67694D1*
X83198Y67971D1*
X83138Y68281D1*
X83175Y68596D1*
X83306Y68883D1*
X83519Y69117D1*
X83793Y69275D1*
X84102Y69341D1*
X84417Y69310D1*
X84707Y69184D1*
X84945Y68976D1*
X85021Y68849D1*
X85023Y73025D1*
X84799Y72693D1*
X84582Y72462D1*
X84336Y72262D1*
X84064Y72098D1*
X83773Y71972D1*
X83467Y71887D1*
X83153Y71844D1*
X82836Y71845D1*
X82522Y71889D1*
X82216Y71976D1*
X81926Y72103D1*
X81655Y72269D1*
X81410Y72470D1*
X81194Y72702D1*
X81078Y72847D1*
Y70990D1*
X80922Y70722D1*
X80760Y70672D1*
X41260D1*
X40992Y70828D1*
X40943Y70990D1*
Y76060D1*
X32460Y76049D1*
X32545Y75798D1*
X32588Y75440D1*
X32555Y75125D1*
X32457Y74823D1*
X32300Y74548D1*
X32088Y74312D1*
X31833Y74125D1*
X31544Y73994D1*
X31234Y73927D1*
X30917Y73924D1*
X30607Y73988D1*
X30316Y74114D1*
X30058Y74298D1*
X29798Y74607D1*
X29548Y74312D1*
X29293Y74125D1*
X29004Y73994D1*
X28694Y73927D1*
X28377Y73924D1*
X28067Y73988D1*
X27776Y74114D1*
X27518Y74298D1*
X27303Y74531D1*
X27142Y74803D1*
X27040Y75103D1*
X27002Y75418D1*
X27031Y75734D1*
X27129Y76045D1*
X24840Y76038D1*
X24925Y75798D1*
X24968Y75440D1*
X24935Y75125D1*
X24837Y74823D1*
X24680Y74548D1*
X24468Y74312D1*
X24213Y74125D1*
X23924Y73994D1*
X23614Y73927D1*
X23297Y73924D1*
X22987Y73988D1*
X22696Y74114D1*
X22438Y74298D1*
X22223Y74531D1*
X22062Y74803D1*
X21960Y75103D1*
X21922Y75418D1*
X21951Y75734D1*
X22041Y76027D1*
X19670Y76031D1*
X13565Y76023D1*
X12849Y75928D1*
X12244Y75678D1*
X11723Y75278D1*
X11323Y74758D1*
X11072Y74151D1*
X10977Y73429D1*
X10978Y13564D1*
X11072Y12849D1*
X11322Y12244D1*
X11722Y11723D1*
X12242Y11323D1*
X12849Y11072D1*
X13571Y10977D1*
X22880Y10978D1*
X22653Y11148D1*
X22438Y11381D1*
X22277Y11653D1*
X22175Y11953D1*
X22137Y12268D1*
X22166Y12584D1*
X22259Y12887D1*
X22413Y13164D1*
X22621Y13403D1*
X22818Y13552D1*
X22653Y13688D1*
X22438Y13921D1*
X22277Y14193D1*
X22175Y14494D1*
X22137Y14808D1*
X22166Y15124D1*
X22259Y15427D1*
X22413Y15704D1*
X22621Y15943D1*
X22873Y16134D1*
X23160Y16269D1*
X23469Y16341D1*
X23786Y16348D1*
X24097Y16289D1*
X24390Y16167D1*
X24651Y15987D1*
X24869Y15757D1*
X24925Y15664D1*
X25161Y15943D1*
X25413Y16134D1*
X25700Y16269D1*
X26009Y16341D1*
X26326Y16348D1*
X26637Y16289D1*
X26930Y16167D1*
X27191Y15987D1*
X27409Y15757D1*
X27465Y15664D1*
X27701Y15943D1*
X27953Y16134D1*
X28240Y16269D1*
X28549Y16341D1*
X28866Y16348D1*
X29177Y16289D1*
X29470Y16167D1*
X29731Y15987D1*
X29949Y15757D1*
X30005Y15664D1*
X30241Y15943D1*
X30493Y16134D1*
X30780Y16269D1*
X31089Y16341D1*
X31406Y16348D1*
X31717Y16289D1*
X32010Y16167D1*
X32271Y15987D1*
X32489Y15757D1*
X32654Y15486D1*
X32760Y15188D1*
X32803Y14830D1*
X32770Y14515D1*
X32672Y14213D1*
X32515Y13938D1*
X32303Y13702D1*
X32120Y13568D1*
X32271Y13447D1*
X32489Y13217D1*
X32654Y12946D1*
X32760Y12648D1*
X32803Y12290D1*
X32770Y11975D1*
X32672Y11673D1*
X32515Y11398D1*
X32303Y11162D1*
X32056Y10981D1*
X56932Y10978D1*
X56598Y11266D1*
X56415Y11525D1*
X56288Y11815D1*
X56222Y12125D1*
X56219Y12442D1*
X56280Y12753D1*
X56402Y13045D1*
X56581Y13307D1*
X56808Y13528D1*
X57075Y13699D1*
X57371Y13813D1*
X57683Y13865D1*
X58000Y13853D1*
X58308Y13778D1*
X58595Y13642D1*
X58848Y13452D1*
X59058Y13215D1*
X59217Y12940D1*
X59316Y12639D1*
X59354Y12297D1*
X59322Y11982D1*
X59227Y11679D1*
X59074Y11402D1*
X58868Y11161D1*
X58626Y10972D1*
X68163Y10978D1*
X68095Y11183D1*
X68057Y11498D1*
X68086Y11814D1*
X68179Y12117D1*
X68333Y12394D1*
X68541Y12633D1*
X68793Y12824D1*
X69080Y12959D1*
X69389Y13031D1*
X69706Y13038D1*
X70017Y12979D1*
X70310Y12857D1*
X70571Y12677D1*
X70789Y12447D1*
X70845Y12354D1*
X71081Y12633D1*
X71333Y12824D1*
X71620Y12959D1*
X71929Y13031D1*
X72246Y13038D1*
X72557Y12979D1*
X72850Y12857D1*
X73111Y12677D1*
X73329Y12447D1*
X73494Y12176D1*
X73600Y11878D1*
X73643Y11520D1*
X73610Y11205D1*
X49358Y14847D2*
X49228Y14558D1*
X49022Y14318D1*
X48758Y14144D1*
X48455Y14051D1*
X48139Y14046D1*
X47834Y14129D1*
X47564Y14295D1*
X47351Y14529D1*
X47212Y14813D1*
X47157Y15125D1*
X47192Y15439D1*
X47313Y15732D1*
X47511Y15979D1*
X47770Y16161D1*
X48069Y16263D1*
X48385Y16278D1*
X48693Y16204D1*
X48968Y16047D1*
X49188Y15820D1*
X49336Y15540D1*
X49402Y15160D1*
X49358Y14847D1*
X44958D2*
X44828Y14558D1*
X44622Y14318D1*
X44358Y14144D1*
X44055Y14051D1*
X43739Y14046D1*
X43434Y14129D1*
X43164Y14295D1*
X42951Y14529D1*
X42812Y14813D1*
X42757Y15125D1*
X42792Y15439D1*
X42913Y15732D1*
X43111Y15979D1*
X43370Y16161D1*
X43669Y16263D1*
X43985Y16278D1*
X44293Y16204D1*
X44568Y16047D1*
X44788Y15820D1*
X44936Y15540D1*
X45002Y15160D1*
X44958Y14847D1*
X59322Y18982D2*
X59227Y18679D1*
X59074Y18402D1*
X58868Y18161D1*
X58618Y17966D1*
X58334Y17826D1*
X58027Y17745D1*
X57711Y17728D1*
X57397Y17774D1*
X57099Y17883D1*
X56829Y18049D1*
X56598Y18266D1*
X56415Y18525D1*
X56288Y18815D1*
X56222Y19125D1*
X56219Y19442D1*
X56280Y19753D1*
X56402Y20045D1*
X56581Y20307D1*
X56808Y20528D1*
X57075Y20699D1*
X57371Y20813D1*
X57683Y20865D1*
X58048Y20841D1*
X57905Y21202D1*
X57894Y21519D1*
X57976Y21824D1*
X58143Y22093D1*
X58382Y22301D1*
X58670Y22430D1*
X58984Y22470D1*
X59296Y22416D1*
X59578Y22274D1*
X59807Y22055D1*
X59962Y21780D1*
X60033Y21397D1*
X59986Y21084D1*
X59850Y20798D1*
X59637Y20565D1*
X59365Y20403D1*
X59058Y20329D1*
X58969Y20334D1*
X59217Y19940D1*
X59316Y19639D1*
X59354Y19297D1*
X59322Y18982D1*
X20120Y72995D2*
X20017Y72696D1*
X19850Y72426D1*
X19629Y72199D1*
X19363Y72027D1*
X19066Y71917D1*
X18751Y71875D1*
X18436Y71904D1*
X18134Y72000D1*
X17861Y72161D1*
X17630Y72377D1*
X17451Y72639D1*
X17335Y72934D1*
X17286Y73247D1*
X17308Y73563D1*
X17398Y73867D1*
X17552Y74144D1*
X17764Y74380D1*
X18022Y74564D1*
X18314Y74686D1*
X18626Y74742D1*
X18942Y74728D1*
X19248Y74644D1*
X19528Y74496D1*
X19768Y74290D1*
X19958Y74036D1*
X20087Y73746D1*
X20155Y73310D1*
X20120Y72995D1*
X73854Y40738D2*
X73712Y40455D1*
X73491Y40229D1*
X73211Y40082D1*
X72899Y40027D1*
X72586Y40070D1*
X72301Y40207D1*
X72071Y40424D1*
X71918Y40701D1*
X71858Y41011D1*
X71895Y41326D1*
X72026Y41613D1*
X72239Y41847D1*
X72513Y42005D1*
X72822Y42071D1*
X73137Y42040D1*
X73427Y41914D1*
X73665Y41706D1*
X73828Y41435D1*
X73903Y41050D1*
X73854Y40738D1*
X70414Y23128D2*
X70272Y22845D1*
X70051Y22619D1*
X69771Y22472D1*
X69459Y22417D1*
X69146Y22460D1*
X68861Y22597D1*
X68631Y22814D1*
X68478Y23091D1*
X68418Y23401D1*
X68455Y23716D1*
X68549Y23922D1*
X68391Y24094D1*
X68238Y24371D1*
X68178Y24681D1*
X68215Y24996D1*
X68346Y25283D1*
X68559Y25517D1*
X68833Y25675D1*
X69142Y25741D1*
X69457Y25710D1*
X69747Y25584D1*
X69985Y25376D1*
X70148Y25105D1*
X70223Y24720D1*
X70174Y24408D1*
X70090Y24240D1*
X70225Y24096D1*
X70388Y23825D1*
X70463Y23440D1*
X70414Y23128D1*
X50654Y59368D2*
X50512Y59085D1*
X50291Y58859D1*
X50011Y58712D1*
X49699Y58657D1*
X49386Y58700D1*
X49252Y58764D1*
X49170Y58631D1*
X48957Y58398D1*
X48685Y58236D1*
X48378Y58162D1*
X48062Y58180D1*
X47765Y58289D1*
X47513Y58480D1*
X47327Y58736D1*
X47225Y59035D1*
X47214Y59352D1*
X47296Y59657D1*
X47463Y59926D1*
X47702Y60134D1*
X47990Y60263D1*
X48304Y60303D1*
X48616Y60249D1*
X48784Y60165D1*
X48826Y60243D1*
X49039Y60477D1*
X49313Y60635D1*
X49622Y60701D1*
X49937Y60670D1*
X50227Y60544D1*
X50465Y60336D1*
X50628Y60065D1*
X50703Y59680D1*
X50654Y59368D1*
X38779Y23335D2*
X39073Y23515D1*
X39382Y23581D1*
X39697Y23550D1*
X39987Y23424D1*
X40225Y23216D1*
X40388Y22945D1*
X40463Y22560D1*
X40414Y22248D1*
X40272Y21965D1*
X40051Y21739D1*
X39771Y21592D1*
X39459Y21537D1*
X39146Y21580D1*
X38861Y21717D1*
X38782Y21792D1*
X18574Y43848D2*
X18552Y43803D1*
X18750Y43883D1*
X19064Y43923D1*
X19376Y43869D1*
X19658Y43727D1*
X19887Y43508D1*
X20042Y43233D1*
X20113Y42850D1*
X20066Y42537D1*
X19930Y42251D1*
X19717Y42018D1*
X19445Y41856D1*
X19138Y41782D1*
X18822Y41800D1*
X18525Y41909D1*
X18273Y42100D1*
X18087Y42356D1*
X17985Y42655D1*
X17974Y42972D1*
X18048Y43249D1*
X17931Y43192D1*
X17619Y43137D1*
X17306Y43180D1*
X17021Y43317D1*
X16791Y43534D1*
X16638Y43811D1*
X16578Y44121D1*
X16615Y44436D1*
X16746Y44723D1*
X16959Y44957D1*
X17233Y45115D1*
X17542Y45181D1*
X17857Y45150D1*
X18147Y45024D1*
X18385Y44816D1*
X18548Y44545D1*
X18623Y44160D1*
X18574Y43848D1*
X26414Y25488D2*
X26272Y25205D1*
X26051Y24979D1*
X25771Y24832D1*
X25459Y24777D1*
X25146Y24820D1*
X24861Y24957D1*
X24631Y25174D1*
X24478Y25451D1*
X24418Y25761D1*
X24455Y26076D1*
X24586Y26363D1*
X24799Y26597D1*
X25073Y26755D1*
X25382Y26821D1*
X25697Y26790D1*
X25987Y26664D1*
X26225Y26456D1*
X26388Y26185D1*
X26463Y25800D1*
X26414Y25488D1*
X40494Y34728D2*
X40352Y34445D1*
X40131Y34219D1*
X39851Y34072D1*
X39539Y34017D1*
X39226Y34060D1*
X38941Y34197D1*
X38711Y34414D1*
X38558Y34691D1*
X38498Y35001D1*
X38535Y35316D1*
X38666Y35603D1*
X38879Y35837D1*
X39153Y35995D1*
X39462Y36061D1*
X39777Y36030D1*
X40067Y35904D1*
X40305Y35696D1*
X40468Y35425D1*
X40543Y35040D1*
X40494Y34728D1*
X84334Y30888D2*
X84192Y30605D1*
X83971Y30379D1*
X83691Y30232D1*
X83379Y30177D1*
X83066Y30220D1*
X82781Y30357D1*
X82551Y30574D1*
X82398Y30851D1*
X82338Y31161D1*
X82375Y31476D1*
X82506Y31763D1*
X82719Y31997D1*
X82993Y32155D1*
X83302Y32221D1*
X83617Y32190D1*
X83907Y32064D1*
X84145Y31856D1*
X84308Y31585D1*
X84383Y31200D1*
X84334Y30888D1*
X30894Y19528D2*
X30752Y19245D1*
X30531Y19019D1*
X30251Y18872D1*
X29939Y18817D1*
X29626Y18860D1*
X29341Y18997D1*
X29111Y19214D1*
X28958Y19491D1*
X28898Y19801D1*
X28935Y20116D1*
X29066Y20403D1*
X29279Y20637D1*
X29553Y20795D1*
X29862Y20861D1*
X30177Y20830D1*
X30467Y20704D1*
X30705Y20496D1*
X30868Y20225D1*
X30943Y19840D1*
X30894Y19528D1*
X64704Y33908D2*
X64562Y33625D1*
X64341Y33399D1*
X64061Y33252D1*
X63749Y33197D1*
X63436Y33240D1*
X63151Y33377D1*
X62921Y33594D1*
X62768Y33871D1*
X62708Y34181D1*
X62745Y34496D1*
X62876Y34783D1*
X63089Y35017D1*
X63363Y35175D1*
X63672Y35241D1*
X63987Y35210D1*
X64277Y35084D1*
X64515Y34876D1*
X64678Y34605D1*
X64753Y34220D1*
X64704Y33908D1*
X58674Y34938D2*
X58532Y34655D1*
X58311Y34429D1*
X58196Y34353D1*
X58149Y34040D1*
X58013Y33754D1*
X57800Y33521D1*
X57528Y33359D1*
X57221Y33285D1*
X56905Y33303D1*
X56608Y33412D1*
X56356Y33603D1*
X56170Y33859D1*
X56068Y34158D1*
X56057Y34475D1*
X56139Y34780D1*
X56306Y35049D1*
X56545Y35257D1*
X56680Y35317D1*
X56715Y35526D1*
X56846Y35813D1*
X57059Y36047D1*
X57333Y36205D1*
X57642Y36271D1*
X57957Y36240D1*
X58247Y36114D1*
X58485Y35906D1*
X58648Y35635D1*
X58723Y35250D1*
X58674Y34938D1*
X68556Y23938D2*
X68391Y24094D1*
X68238Y24371D1*
X68178Y24681D1*
X68215Y24996D1*
X68346Y25283D1*
X68559Y25517D1*
X68833Y25675D1*
X69142Y25741D1*
X69457Y25710D1*
X69747Y25584D1*
X69985Y25376D1*
X70148Y25105D1*
X70223Y24720D1*
X70174Y24408D1*
X70090Y24240D1*
X58898Y52570D2*
X59100Y52745D1*
X59388Y52875D1*
X59702Y52914D1*
X60014Y52861D1*
X60296Y52719D1*
X60525Y52500D1*
X60680Y52224D1*
X60751Y51842D1*
X60704Y51529D1*
X60568Y51243D1*
X60355Y51010D1*
X60083Y50848D1*
X59824Y50785D1*
X59690Y50521D1*
X59477Y50288D1*
X59205Y50126D1*
X58898Y50052D1*
X58582Y50070D1*
X58285Y50179D1*
X58033Y50370D1*
X57847Y50626D1*
X57744Y50955D1*
X57637Y50818D1*
X57792Y50543D1*
X57863Y50160D1*
X57816Y49847D1*
X57680Y49561D1*
X57467Y49328D1*
X57195Y49166D1*
X56888Y49092D1*
X56572Y49110D1*
X56275Y49219D1*
X56023Y49410D1*
X55837Y49666D1*
X55735Y49965D1*
X55724Y50282D1*
X55806Y50587D1*
X55973Y50856D1*
X56212Y51064D1*
X56500Y51193D1*
X56814Y51233D1*
X57126Y51179D1*
X57408Y51037D1*
X57637Y50818D1*
X57735Y50967D1*
X57485Y51059D1*
X57233Y51250D1*
X57047Y51506D1*
X56945Y51805D1*
X56934Y52122D1*
X57016Y52427D1*
X57183Y52696D1*
X57422Y52904D1*
X57710Y53033D1*
X58024Y53073D1*
X58336Y53019D1*
X58618Y52877D1*
X58847Y52658D1*
X58891Y52581D1*
X52866Y49817D2*
X52730Y49531D1*
X52517Y49298D1*
X52245Y49136D1*
X51938Y49062D1*
X51622Y49080D1*
X51325Y49189D1*
X51073Y49380D1*
X50887Y49636D1*
X50785Y49935D1*
X50774Y50252D1*
X50856Y50557D1*
X51023Y50826D1*
X51262Y51034D1*
X51550Y51163D1*
X51864Y51203D1*
X52176Y51149D1*
X52458Y51007D1*
X52687Y50788D1*
X52842Y50513D1*
X52913Y50130D1*
X52866Y49817D1*
X47686Y49877D2*
X47550Y49591D1*
X47337Y49358D1*
X47065Y49196D1*
X46758Y49122D1*
X46442Y49140D1*
X46145Y49249D1*
X45893Y49440D1*
X45707Y49696D1*
X45605Y49995D1*
X45603Y50065D1*
X45335Y49916D1*
X45028Y49842D1*
X44712Y49860D1*
X44415Y49969D1*
X44163Y50160D1*
X43977Y50416D1*
X43875Y50715D1*
X43864Y51032D1*
X43946Y51337D1*
X44113Y51606D1*
X44352Y51814D1*
X44640Y51943D1*
X44954Y51983D1*
X45266Y51929D1*
X45548Y51787D1*
X45777Y51568D1*
X45932Y51293D1*
X45990Y51032D1*
X46370Y51223D1*
X46684Y51263D1*
X46996Y51209D1*
X47278Y51067D1*
X47507Y50848D1*
X47662Y50573D1*
X47733Y50190D1*
X47686Y49877D1*
X73524Y23778D2*
X73382Y23495D1*
X73161Y23269D1*
X72881Y23122D1*
X72569Y23067D1*
X72256Y23110D1*
X71971Y23247D1*
X71741Y23464D1*
X71588Y23741D1*
X71528Y24051D1*
X71565Y24366D1*
X71696Y24653D1*
X71909Y24887D1*
X71986Y24931D1*
X71905Y25165D1*
X71894Y25482D1*
X71976Y25787D1*
X72143Y26056D1*
X72382Y26264D1*
X72670Y26393D1*
X72984Y26433D1*
X73296Y26379D1*
X73578Y26237D1*
X73807Y26018D1*
X73962Y25743D1*
X74033Y25360D1*
X73986Y25047D1*
X73850Y24761D1*
X73637Y24528D1*
X73510Y24452D1*
X73573Y24090D1*
X73524Y23778D1*
X54646Y31408D2*
X66062Y19992D1*
X66238Y19730D1*
X66303Y19410D1*
Y15848D1*
X66482Y15553D1*
X66553Y15170D1*
X66506Y14857D1*
X66370Y14571D1*
X66157Y14338D1*
X65885Y14176D1*
X65578Y14102D1*
X65262Y14120D1*
X64965Y14229D1*
X64713Y14420D1*
X64527Y14676D1*
X64425Y14975D1*
X64414Y15292D1*
X64496Y15597D1*
X64658Y15857D1*
X64657Y19069D1*
X53483Y30243D1*
X53362Y30260D1*
X53065Y30369D1*
X52813Y30560D1*
X52627Y30816D1*
X52525Y31115D1*
X52514Y31432D1*
X52596Y31737D1*
X52763Y32006D1*
X53002Y32214D1*
X53290Y32343D1*
X53604Y32383D1*
X53916Y32329D1*
X54198Y32187D1*
X54427Y31968D1*
X54582Y31693D1*
X54644Y31413D1*
X57906Y45886D2*
X57953Y45610D1*
X57906Y45297D1*
X57770Y45011D1*
X57557Y44778D1*
X57285Y44616D1*
X56978Y44542D1*
X56662Y44560D1*
X56365Y44669D1*
X56113Y44860D1*
X55927Y45116D1*
X55825Y45415D1*
X55814Y45732D1*
X55857Y45894D1*
X60577Y30616D2*
X75746Y15448D1*
X75986Y15399D1*
X76268Y15257D1*
X76497Y15038D1*
X76652Y14763D1*
X76723Y14380D1*
X76676Y14067D1*
X76540Y13781D1*
X76327Y13548D1*
X76055Y13386D1*
X75748Y13312D1*
X75432Y13330D1*
X75135Y13439D1*
X74883Y13630D1*
X74697Y13886D1*
X74595Y14185D1*
X74592Y14274D1*
X59168Y29698D1*
X58992Y29960D1*
X58927Y30280D1*
Y30508D1*
X58757Y30756D1*
X58655Y31055D1*
X58644Y31372D1*
X58726Y31677D1*
X58893Y31946D1*
X59132Y32154D1*
X59420Y32283D1*
X59734Y32323D1*
X60046Y32269D1*
X60328Y32127D1*
X60557Y31908D1*
X60712Y31633D1*
X60783Y31250D1*
X60736Y30937D1*
X60567Y30615D1*
X22484Y54942D2*
X22305Y54836D1*
X21998Y54762D1*
X21682Y54780D1*
X21385Y54889D1*
X21133Y55080D1*
X20947Y55336D1*
X20845Y55635D1*
X20834Y55952D1*
X20916Y56257D1*
X21083Y56526D1*
X21322Y56734D1*
X21610Y56863D1*
X21924Y56903D1*
X22236Y56849D1*
X22351Y56791D1*
X73614Y45608D2*
X73472Y45325D1*
X73251Y45099D1*
X72971Y44952D1*
X72659Y44897D1*
X72346Y44940D1*
X72061Y45077D1*
X71831Y45294D1*
X71678Y45571D1*
X71618Y45881D1*
X71655Y46196D1*
X71786Y46483D1*
X71999Y46717D1*
X72273Y46875D1*
X72582Y46941D1*
X72897Y46910D1*
X73187Y46784D1*
X73425Y46576D1*
X73588Y46305D1*
X73663Y45920D1*
X73614Y45608D1*
X76694Y46718D2*
X76552Y46435D1*
X76331Y46209D1*
X76051Y46062D1*
X75739Y46007D1*
X75426Y46050D1*
X75141Y46187D1*
X74911Y46404D1*
X74758Y46681D1*
X74698Y46991D1*
X74735Y47306D1*
X74866Y47593D1*
X75079Y47827D1*
X75353Y47985D1*
X75662Y48051D1*
X75977Y48020D1*
X76267Y47894D1*
X76505Y47686D1*
X76668Y47415D1*
X76743Y47030D1*
X76694Y46718D1*
X44974Y59448D2*
X44832Y59165D1*
X44611Y58939D1*
X44331Y58792D1*
X44019Y58737D1*
X43706Y58780D1*
X43421Y58917D1*
X43191Y59134D1*
X43038Y59411D1*
X42978Y59721D1*
X43015Y60036D1*
X43146Y60323D1*
X43359Y60557D1*
X43633Y60715D1*
X43942Y60781D1*
X44257Y60750D1*
X44547Y60624D1*
X44785Y60416D1*
X44948Y60145D1*
X45023Y59760D1*
X44974Y59448D1*
X82734Y67128D2*
X82592Y66845D1*
X82371Y66619D1*
X82091Y66472D1*
X81779Y66417D1*
X81466Y66460D1*
X81181Y66597D1*
X80951Y66814D1*
X80798Y67091D1*
X80738Y67401D1*
X80775Y67716D1*
X80906Y68003D1*
X81119Y68237D1*
X81393Y68395D1*
X81702Y68461D1*
X82017Y68430D1*
X82307Y68304D1*
X82545Y68096D1*
X82708Y67825D1*
X82783Y67440D1*
X82734Y67128D1*
X42967Y52712D2*
X43138Y52435D1*
X43213Y52050D1*
X43164Y51738D1*
X43022Y51455D1*
X42801Y51229D1*
X42521Y51082D1*
X42209Y51027D1*
X41896Y51070D1*
X41611Y51207D1*
X41381Y51424D1*
X41228Y51701D1*
X41168Y52011D1*
X41205Y52326D1*
X41336Y52613D1*
X41423Y52708D1*
X44974Y59448D2*
X44832Y59165D1*
X44611Y58939D1*
X44331Y58792D1*
X44019Y58737D1*
X43706Y58780D1*
X43421Y58917D1*
X43191Y59134D1*
X43038Y59411D1*
X42978Y59721D1*
X43015Y60036D1*
X43146Y60323D1*
X43359Y60557D1*
X43633Y60715D1*
X43942Y60781D1*
X44257Y60750D1*
X44547Y60624D1*
X44785Y60416D1*
X44948Y60145D1*
X45023Y59760D1*
X44974Y59448D1*
X48055Y33521D2*
X47821Y33269D1*
X47541Y33122D1*
X47229Y33067D1*
X46916Y33110D1*
X46631Y33247D1*
X46401Y33464D1*
X46248Y33741D1*
X46188Y34051D1*
X46225Y34366D1*
X46356Y34653D1*
X46569Y34887D1*
X46843Y35045D1*
X47152Y35111D1*
X47467Y35080D1*
X47712Y34974D1*
X41130Y57797D2*
X41297Y57780D1*
X41587Y57654D1*
X41825Y57446D1*
X41988Y57175D1*
X42063Y56790D1*
X42014Y56478D1*
X41872Y56195D1*
X41713Y56033D1*
X72798Y50088D2*
X72656Y49805D1*
X72434Y49579D1*
X72155Y49432D1*
X71843Y49377D1*
X71530Y49420D1*
X71245Y49557D1*
X71015Y49774D1*
X70862Y50051D1*
X70802Y50361D1*
X70839Y50676D1*
X70970Y50963D1*
X71183Y51197D1*
X71457Y51355D1*
X71766Y51421D1*
X72081Y51390D1*
X72371Y51264D1*
X72609Y51056D1*
X72772Y50785D1*
X72847Y50400D1*
X72798Y50088D1*
X74684Y48598D2*
X74542Y48315D1*
X74321Y48089D1*
X74041Y47942D1*
X73729Y47887D1*
X73416Y47930D1*
X73131Y48067D1*
X72901Y48284D1*
X72748Y48561D1*
X72688Y48871D1*
X72725Y49186D1*
X72856Y49473D1*
X73069Y49707D1*
X73343Y49865D1*
X73652Y49931D1*
X73967Y49900D1*
X74257Y49774D1*
X74495Y49566D1*
X74658Y49295D1*
X74733Y48910D1*
X74684Y48598D1*
X53654Y20388D2*
X53512Y20105D1*
X53291Y19879D1*
X53011Y19732D1*
X52699Y19677D1*
X52386Y19720D1*
X52101Y19857D1*
X51871Y20074D1*
X51718Y20351D1*
X51658Y20661D1*
X51695Y20976D1*
X51826Y21263D1*
X52039Y21497D1*
X52313Y21655D1*
X52622Y21721D1*
X52937Y21690D1*
X53227Y21564D1*
X53465Y21356D1*
X53628Y21085D1*
X53703Y20700D1*
X53654Y20388D1*
X22376Y66467D2*
X22240Y66181D1*
X22027Y65948D1*
X21755Y65786D1*
X21448Y65712D1*
X21132Y65730D1*
X20835Y65839D1*
X20583Y66030D1*
X20397Y66286D1*
X20295Y66585D1*
X20284Y66902D1*
X20366Y67207D1*
X20533Y67476D1*
X20772Y67684D1*
X21060Y67813D1*
X21374Y67853D1*
X21686Y67799D1*
X21968Y67657D1*
X22197Y67438D1*
X22352Y67163D1*
X22423Y66780D1*
X22376Y66467D1*
X19651Y56482D2*
X26627Y49507D1*
X26801Y49233D1*
X26853Y48960D1*
X26850Y45091D1*
X27057Y45070D1*
X27347Y44944D1*
X27585Y44736D1*
X27748Y44465D1*
X27797Y44307D1*
X27987Y44224D1*
X28225Y44016D1*
X28388Y43745D1*
X28463Y43360D1*
X28414Y43048D1*
X28272Y42765D1*
X28051Y42539D1*
X27771Y42392D1*
X27459Y42337D1*
X27146Y42380D1*
X26861Y42517D1*
X26626Y42743D1*
X26411Y42632D1*
X26099Y42577D1*
X25786Y42620D1*
X25501Y42757D1*
X25271Y42974D1*
X25118Y43251D1*
X25058Y43561D1*
X25095Y43876D1*
X25226Y44163D1*
X25313Y44258D1*
X25307Y48650D1*
X24248Y49697D1*
X24150Y49491D1*
X23937Y49258D1*
X23665Y49096D1*
X23358Y49022D1*
X23042Y49040D1*
X22745Y49149D1*
X22493Y49340D1*
X22307Y49596D1*
X22205Y49895D1*
X22194Y50212D1*
X22276Y50517D1*
X22443Y50786D1*
X22682Y50994D1*
X22871Y51079D1*
X18553Y55394D1*
X16588Y55387D1*
X16651Y54997D1*
X16619Y54638D1*
X16522Y54336D1*
X16364Y54062D1*
X16153Y53825D1*
X15969Y53691D1*
X16120Y53570D1*
X16338Y53340D1*
X16503Y53070D1*
X16609Y52771D1*
X16652Y52413D1*
X16619Y52098D1*
X16522Y51796D1*
X16364Y51522D1*
X16153Y51285D1*
X15969Y51151D1*
X16120Y51030D1*
X16338Y50800D1*
X16503Y50530D1*
X16609Y50231D1*
X16652Y49873D1*
X16619Y49558D1*
X16522Y49256D1*
X16364Y48982D1*
X16153Y48745D1*
X15969Y48611D1*
X16120Y48490D1*
X16338Y48260D1*
X16503Y47990D1*
X16609Y47691D1*
X16652Y47333D1*
X16619Y47018D1*
X16567Y46858D1*
X18960Y46853D1*
X19277Y46783D1*
X19507Y46627D1*
X25365Y40768D1*
X31995Y40773D1*
X32303Y40955D1*
X32612Y41021D1*
X32927Y40990D1*
X33217Y40864D1*
X33455Y40656D1*
X33618Y40385D1*
X33693Y40000D1*
X33644Y39688D1*
X33502Y39405D1*
X33281Y39179D1*
X33001Y39032D1*
X32689Y38977D1*
X32376Y39020D1*
X32091Y39157D1*
X32012Y39232D1*
X25040Y39227D1*
X24723Y39297D1*
X24493Y39453D1*
X18635Y45312D1*
X16569Y45307D1*
X16651Y44837D1*
X16619Y44478D1*
X16522Y44176D1*
X16364Y43902D1*
X16153Y43665D1*
X15969Y43531D1*
X16120Y43410D1*
X16338Y43180D1*
X16503Y42910D1*
X16609Y42611D1*
X16652Y42253D1*
X16619Y41938D1*
X16531Y41665D1*
X17076Y41138D1*
X22246Y35967D1*
X28617Y35973D1*
X28913Y36155D1*
X29222Y36221D1*
X29537Y36190D1*
X29827Y36064D1*
X30065Y35856D1*
X30228Y35585D1*
X30303Y35200D1*
X30254Y34888D1*
X30112Y34605D1*
X29891Y34379D1*
X29611Y34232D1*
X29299Y34177D1*
X28986Y34220D1*
X28701Y34357D1*
X28622Y34432D1*
X21920Y34427D1*
X21603Y34497D1*
X21373Y34653D1*
X16619Y39398D1*
X16522Y39096D1*
X16364Y38822D1*
X16153Y38585D1*
X15897Y38398D1*
X15608Y38268D1*
X15299Y38200D1*
X14982Y38197D1*
X14671Y38261D1*
X14380Y38387D1*
X14122Y38571D1*
X13862Y38881D1*
X13613Y38585D1*
X13429Y38451D1*
X13580Y38330D1*
X13798Y38100D1*
X13963Y37830D1*
X14069Y37531D1*
X14112Y37173D1*
X14079Y36858D1*
X13982Y36556D1*
X13824Y36282D1*
X13613Y36045D1*
X13429Y35911D1*
X13580Y35790D1*
X13798Y35560D1*
X13855Y35467D1*
X14090Y35746D1*
X14343Y35937D1*
X14630Y36072D1*
X14938Y36144D1*
X15255Y36151D1*
X15566Y36092D1*
X15859Y35970D1*
X16120Y35790D1*
X16338Y35560D1*
X16503Y35290D1*
X16609Y34991D1*
X16652Y34633D1*
X16619Y34318D1*
X16522Y34016D1*
X16364Y33742D1*
X16153Y33505D1*
X15969Y33371D1*
X16120Y33250D1*
X16338Y33020D1*
X16503Y32750D1*
X16609Y32451D1*
X16642Y32206D1*
X19733Y32213D1*
X24426D1*
X24455Y32466D1*
X24586Y32753D1*
X24799Y32987D1*
X25073Y33145D1*
X25382Y33211D1*
X25697Y33180D1*
X25987Y33054D1*
X26225Y32846D1*
X26388Y32575D1*
X26463Y32190D1*
X26414Y31878D1*
X26371Y31762D1*
X28791Y29342D1*
X28977Y29310D1*
X29267Y29184D1*
X29505Y28976D1*
X29668Y28705D1*
X29743Y28320D1*
X29694Y28008D1*
X29552Y27725D1*
X29331Y27499D1*
X29051Y27352D1*
X28739Y27297D1*
X28426Y27340D1*
X28141Y27477D1*
X27911Y27694D1*
X27758Y27971D1*
X27707Y28233D1*
X25276Y30671D1*
X16230Y30669D1*
X16503Y30210D1*
X16609Y29911D1*
X16652Y29574D1*
X25360Y29573D1*
X25677Y29503D1*
X25907Y29347D1*
X31919Y23334D1*
X32820Y23333D1*
X32855Y23556D1*
X32986Y23843D1*
X33199Y24077D1*
X33473Y24235D1*
X33773Y24299D1*
X42014Y32547D1*
X42028Y32594D1*
X39247Y29813D1*
X38987Y29634D1*
X38630Y29557D1*
X35830D1*
X35519Y29614D1*
X35213Y29813D1*
X33929Y31097D1*
X33585Y31219D1*
X33333Y31410D1*
X33147Y31666D1*
X33045Y31965D1*
X33034Y32282D1*
X33116Y32587D1*
X33283Y32856D1*
X33522Y33064D1*
X33810Y33193D1*
X34124Y33233D1*
X34436Y33179D1*
X34718Y33037D1*
X34947Y32818D1*
X35102Y32543D1*
X35166Y32328D1*
X36198Y31297D1*
X38261Y31303D1*
X41243Y34277D1*
X41503Y34456D1*
X41860Y34533D1*
X43370D1*
X43681Y34476D1*
X43987Y34277D1*
X45427Y32837D1*
X45606Y32577D1*
X45683Y32220D1*
Y31000D1*
X45626Y30689D1*
X45427Y30383D1*
X41758Y26713D1*
X41726Y26577D1*
X41590Y26291D1*
X41377Y26058D1*
X41105Y25896D1*
X40798Y25822D1*
X40482Y25840D1*
X40185Y25949D1*
X39933Y26140D1*
X39747Y26396D1*
X39645Y26695D1*
X39634Y27012D1*
X39716Y27317D1*
X39883Y27586D1*
X40122Y27794D1*
X40410Y27923D1*
X40532Y27956D1*
X43934Y31359D1*
X43792Y31565D1*
X43571Y31339D1*
X43291Y31192D1*
X42979Y31137D1*
X42813Y31160D1*
X34982Y23329D1*
X38774Y23333D1*
X39073Y23515D1*
X39382Y23581D1*
X39697Y23550D1*
X39987Y23424D1*
X40225Y23216D1*
X40388Y22945D1*
X40463Y22560D1*
X40414Y22248D1*
X40272Y21965D1*
X40051Y21739D1*
X39771Y21592D1*
X39459Y21537D1*
X39146Y21580D1*
X38861Y21717D1*
X38782Y21792D1*
X31600Y21787D1*
X31283Y21857D1*
X31053Y22013D1*
X30359Y22708D1*
X30131Y22459D1*
X29851Y22312D1*
X29539Y22257D1*
X29226Y22300D1*
X28941Y22437D1*
X28711Y22654D1*
X28558Y22931D1*
X28498Y23241D1*
X28535Y23556D1*
X28666Y23843D1*
X28879Y24077D1*
X28956Y24121D1*
X27012Y26055D1*
X25041Y28026D1*
X16262Y28027D1*
X16415Y27813D1*
X19040D1*
X19357Y27743D1*
X19587Y27587D1*
X28686Y18487D1*
X35345Y18493D1*
X37875D1*
X43301Y23914D1*
X43335Y24276D1*
X43466Y24563D1*
X43679Y24797D1*
X43953Y24955D1*
X44262Y25021D1*
X44577Y24990D1*
X44867Y24864D1*
X45105Y24656D1*
X45268Y24385D1*
X45343Y24000D1*
X45294Y23688D1*
X45152Y23405D1*
X44931Y23179D1*
X44602Y23023D1*
X38747Y17173D1*
X38473Y16999D1*
X38200Y16947D1*
X37743Y16937D1*
X38034Y16810D1*
X38307Y16648D1*
X38558Y16453D1*
X38782Y16229D1*
X38978Y15979D1*
X39141Y15707D1*
X39270Y15417D1*
X39361Y15113D1*
X39415Y14801D1*
X39430Y14523D1*
X39410Y14206D1*
X39352Y13895D1*
X39256Y13592D1*
X39123Y13304D1*
X38955Y13035D1*
X38756Y12788D1*
X38528Y12567D1*
X38274Y12377D1*
X37999Y12219D1*
X37706Y12096D1*
X37401Y12010D1*
X37087Y11962D1*
X36770Y11954D1*
X36454Y11984D1*
X36144Y12054D1*
X35846Y12161D1*
X35562Y12303D1*
X35299Y12480D1*
X35059Y12688D1*
X34847Y12924D1*
X34665Y13184D1*
X34517Y13464D1*
X34404Y13761D1*
X34329Y14069D1*
X34292Y14384D1*
X34295Y14702D1*
X34336Y15016D1*
X34416Y15323D1*
X34533Y15618D1*
X34686Y15896D1*
X34871Y16154D1*
X35087Y16386D1*
X35330Y16590D1*
X35597Y16763D1*
X36023Y16949D1*
X28360Y16947D1*
X28043Y17017D1*
X27813Y17173D1*
X18714Y26273D1*
X16450Y26267D1*
X16364Y26122D1*
X16153Y25885D1*
X15969Y25751D1*
X16120Y25630D1*
X16338Y25400D1*
X16503Y25130D1*
X16609Y24831D1*
X16652Y24473D1*
X16619Y24158D1*
X16522Y23856D1*
X16364Y23582D1*
X16153Y23345D1*
X15969Y23211D1*
X16120Y23090D1*
X16338Y22860D1*
X16503Y22590D1*
X16609Y22291D1*
X16652Y21933D1*
X16619Y21618D1*
X16522Y21316D1*
X16364Y21042D1*
X16153Y20805D1*
X15897Y20618D1*
X15608Y20488D1*
X15299Y20420D1*
X14982Y20417D1*
X14671Y20481D1*
X14380Y20607D1*
X14122Y20791D1*
X13862Y21101D1*
X13613Y20805D1*
X13429Y20671D1*
X13580Y20550D1*
X13798Y20320D1*
X13963Y20050D1*
X14069Y19751D1*
X14112Y19393D1*
X14079Y19078D1*
X13982Y18776D1*
X13824Y18502D1*
X13613Y18265D1*
X13357Y18078D1*
X13068Y17948D1*
X12759Y17880D1*
X12442Y17877D1*
X12131Y17941D1*
X11840Y18067D1*
X11582Y18251D1*
X11367Y18484D1*
X11206Y18757D1*
X11104Y19057D1*
X11066Y19371D1*
X11095Y19687D1*
X11188Y19990D1*
X11342Y20267D1*
X11550Y20506D1*
X11747Y20655D1*
X11582Y20791D1*
X11367Y21024D1*
X11206Y21297D1*
X11104Y21597D1*
X11066Y21911D1*
X11095Y22227D1*
X11188Y22530D1*
X11342Y22807D1*
X11550Y23046D1*
X11747Y23195D1*
X11582Y23331D1*
X11367Y23564D1*
X11206Y23837D1*
X11104Y24137D1*
X11066Y24451D1*
X11095Y24767D1*
X11188Y25070D1*
X11342Y25347D1*
X11550Y25586D1*
X11803Y25777D1*
X12090Y25912D1*
X12398Y25984D1*
X12715Y25991D1*
X13026Y25932D1*
X13319Y25810D1*
X13580Y25630D1*
X13798Y25400D1*
X13855Y25307D1*
X14090Y25586D1*
X14287Y25735D1*
X14122Y25871D1*
X13907Y26104D1*
X13746Y26377D1*
X13644Y26677D1*
X13606Y26991D1*
X13635Y27307D1*
X13728Y27610D1*
X13882Y27887D1*
X14090Y28126D1*
X14287Y28275D1*
X14122Y28411D1*
X13862Y28721D1*
X13613Y28425D1*
X13357Y28238D1*
X13068Y28108D1*
X12759Y28040D1*
X12442Y28037D1*
X12131Y28101D1*
X11840Y28227D1*
X11582Y28411D1*
X11367Y28644D1*
X11206Y28917D1*
X11104Y29217D1*
X11066Y29531D1*
X11095Y29847D1*
X11188Y30150D1*
X11342Y30427D1*
X11550Y30666D1*
X11803Y30857D1*
X12090Y30992D1*
X12398Y31064D1*
X12715Y31071D1*
X13026Y31012D1*
X13319Y30890D1*
X13580Y30710D1*
X13798Y30480D1*
X13855Y30387D1*
X14090Y30666D1*
X14287Y30815D1*
X14122Y30951D1*
X13907Y31184D1*
X13746Y31457D1*
X13644Y31757D1*
X13606Y32071D1*
X13635Y32387D1*
X13728Y32690D1*
X13882Y32967D1*
X14090Y33206D1*
X14287Y33355D1*
X14122Y33491D1*
X13862Y33801D1*
X13613Y33505D1*
X13357Y33318D1*
X13068Y33188D1*
X12759Y33120D1*
X12442Y33117D1*
X12131Y33181D1*
X11840Y33307D1*
X11582Y33491D1*
X11367Y33724D1*
X11206Y33997D1*
X11104Y34297D1*
X11066Y34611D1*
X11095Y34927D1*
X11188Y35230D1*
X11342Y35507D1*
X11550Y35746D1*
X11747Y35895D1*
X11582Y36031D1*
X11367Y36264D1*
X11206Y36537D1*
X11104Y36837D1*
X11066Y37151D1*
X11095Y37467D1*
X11188Y37770D1*
X11342Y38047D1*
X11550Y38286D1*
X11747Y38435D1*
X11582Y38571D1*
X11367Y38804D1*
X11206Y39077D1*
X11104Y39377D1*
X11066Y39691D1*
X11095Y40007D1*
X11188Y40310D1*
X11342Y40587D1*
X11550Y40826D1*
X11747Y40975D1*
X11582Y41111D1*
X11367Y41344D1*
X11206Y41617D1*
X11104Y41917D1*
X11066Y42231D1*
X11095Y42547D1*
X11188Y42850D1*
X11342Y43127D1*
X11550Y43366D1*
X11803Y43557D1*
X12090Y43692D1*
X12398Y43764D1*
X12715Y43771D1*
X13026Y43712D1*
X13319Y43590D1*
X13580Y43410D1*
X13798Y43180D1*
X13855Y43087D1*
X14090Y43366D1*
X14287Y43515D1*
X14122Y43651D1*
X13907Y43884D1*
X13746Y44157D1*
X13644Y44457D1*
X13606Y44771D1*
X13635Y45087D1*
X13708Y45324D1*
X13459Y45409D1*
X13296Y45533D1*
X12966Y45863D1*
X12759Y45820D1*
X12442Y45817D1*
X12131Y45881D1*
X11840Y46007D1*
X11582Y46191D1*
X11367Y46424D1*
X11206Y46697D1*
X11104Y46997D1*
X11066Y47311D1*
X11095Y47627D1*
X11188Y47930D1*
X11342Y48207D1*
X11550Y48446D1*
X11747Y48595D1*
X11582Y48731D1*
X11367Y48964D1*
X11206Y49237D1*
X11104Y49537D1*
X11066Y49851D1*
X11095Y50167D1*
X11188Y50470D1*
X11342Y50747D1*
X11550Y50986D1*
X11803Y51177D1*
X12090Y51312D1*
X12398Y51384D1*
X12715Y51391D1*
X13026Y51332D1*
X13319Y51210D1*
X13580Y51030D1*
X13798Y50800D1*
X13855Y50707D1*
X14090Y50986D1*
X14287Y51135D1*
X14122Y51271D1*
X13907Y51504D1*
X13746Y51777D1*
X13644Y52077D1*
X13606Y52391D1*
X13635Y52707D1*
X13728Y53010D1*
X13882Y53287D1*
X14090Y53526D1*
X14287Y53675D1*
X14122Y53811D1*
X13862Y54121D1*
X13613Y53825D1*
X13357Y53638D1*
X13068Y53508D1*
X12759Y53440D1*
X12442Y53437D1*
X12131Y53501D1*
X11840Y53627D1*
X11582Y53811D1*
X11367Y54044D1*
X11206Y54317D1*
X11104Y54617D1*
X11066Y54931D1*
X11095Y55247D1*
X11188Y55550D1*
X11342Y55827D1*
X11550Y56066D1*
X11752Y56230D1*
X11582Y56351D1*
X11367Y56584D1*
X11206Y56857D1*
X11104Y57157D1*
X11066Y57471D1*
X11095Y57787D1*
X11188Y58090D1*
X11342Y58367D1*
X11550Y58606D1*
X11752Y58770D1*
X11582Y58891D1*
X11367Y59124D1*
X11206Y59397D1*
X11104Y59697D1*
X11066Y60011D1*
X11095Y60327D1*
X11188Y60630D1*
X11342Y60907D1*
X11550Y61146D1*
X11803Y61337D1*
X12090Y61472D1*
X12398Y61544D1*
X12715Y61551D1*
X13026Y61492D1*
X13319Y61370D1*
X13580Y61190D1*
X13798Y60960D1*
X13858Y60864D1*
X14090Y61146D1*
X14292Y61310D1*
X14122Y61431D1*
X13907Y61664D1*
X13746Y61937D1*
X13644Y62237D1*
X13606Y62551D1*
X13635Y62867D1*
X13728Y63170D1*
X13882Y63447D1*
X14090Y63686D1*
X14292Y63850D1*
X14122Y63971D1*
X13862Y64281D1*
X13613Y63985D1*
X13357Y63798D1*
X13068Y63668D1*
X12759Y63600D1*
X12442Y63597D1*
X12131Y63661D1*
X11840Y63787D1*
X11582Y63971D1*
X11367Y64204D1*
X11206Y64477D1*
X11104Y64777D1*
X11066Y65091D1*
X11095Y65407D1*
X11188Y65710D1*
X11342Y65987D1*
X11550Y66226D1*
X11716Y66352D1*
X11719Y66413D1*
X11582Y66511D1*
X11367Y66744D1*
X11206Y67017D1*
X11104Y67317D1*
X11066Y67631D1*
X11095Y67947D1*
X11188Y68250D1*
X11342Y68527D1*
X11550Y68766D1*
X11803Y68957D1*
X12090Y69092D1*
X12398Y69164D1*
X12715Y69171D1*
X13026Y69112D1*
X13319Y68990D1*
X13580Y68810D1*
X13798Y68580D1*
X13858Y68484D1*
X14090Y68766D1*
X14343Y68957D1*
X14630Y69092D1*
X14938Y69164D1*
X15255Y69171D1*
X15566Y69112D1*
X15859Y68990D1*
X16120Y68810D1*
X16338Y68580D1*
X16503Y68310D1*
X16609Y68011D1*
X16652Y67653D1*
X16619Y67338D1*
X16573Y67197D1*
X18417Y67193D1*
X18750Y67353D1*
X19064Y67393D1*
X19376Y67339D1*
X19658Y67197D1*
X19887Y66978D1*
X20042Y66703D1*
X20113Y66320D1*
X20066Y66007D1*
X19930Y65721D1*
X19717Y65488D1*
X19454Y65332D1*
X29146Y65333D1*
X29138Y65481D1*
X29175Y65796D1*
X29306Y66083D1*
X29519Y66317D1*
X29793Y66475D1*
X30102Y66541D1*
X30417Y66510D1*
X30707Y66384D1*
X30945Y66176D1*
X31108Y65905D1*
X31183Y65520D1*
X31154Y65334D1*
X33270Y65333D1*
X33587Y65263D1*
X33817Y65107D1*
X41120Y57803D1*
X41297Y57780D1*
X41587Y57654D1*
X41825Y57446D1*
X41988Y57175D1*
X42063Y56790D1*
X42014Y56478D1*
X41872Y56195D1*
X41713Y56033D1*
X42737Y55017D1*
X42911Y54743D1*
X42963Y54470D1*
X42975Y52706D1*
X43138Y52435D1*
X43213Y52050D1*
X43164Y51738D1*
X43022Y51455D1*
X42801Y51229D1*
X42521Y51082D1*
X42209Y51027D1*
X41896Y51070D1*
X41611Y51207D1*
X41381Y51424D1*
X41228Y51701D1*
X41168Y52011D1*
X41205Y52326D1*
X41336Y52613D1*
X41423Y52708D1*
X41417Y54144D1*
X40346Y55221D1*
X40131Y55019D1*
X39851Y54872D1*
X39539Y54817D1*
X39226Y54860D1*
X38941Y54997D1*
X38711Y55214D1*
X38558Y55491D1*
X38498Y55801D1*
X38535Y56116D1*
X38666Y56403D1*
X38905Y56652D1*
X36480Y59087D1*
X32333Y63233D1*
X26945Y63227D1*
X25169D1*
X25183Y63120D1*
X25134Y62808D1*
X24992Y62525D1*
X24771Y62299D1*
X24491Y62152D1*
X24179Y62097D1*
X23866Y62140D1*
X23581Y62277D1*
X23351Y62494D1*
X23198Y62771D1*
X23138Y63081D1*
X23155Y63229D1*
X16874Y63227D1*
X16604Y62955D1*
X16652Y62573D1*
X16619Y62258D1*
X16522Y61956D1*
X16364Y61682D1*
X16153Y61445D1*
X15969Y61311D1*
X16290Y61010D1*
X16656Y61013D1*
X16695Y61316D1*
X16826Y61603D1*
X17039Y61837D1*
X17313Y61995D1*
X17622Y62061D1*
X17937Y62030D1*
X18227Y61904D1*
X18339Y61807D1*
X23713Y61813D1*
X28480D1*
X28797Y61743D1*
X29027Y61587D1*
X43177Y47436D1*
X60015Y47433D1*
X65373Y52787D1*
X65647Y52961D1*
X65920Y53013D1*
X69026D1*
X72313Y56307D1*
X72587Y56481D1*
X72860Y56533D1*
X75985D1*
X75825Y56935D1*
X75814Y57252D1*
X75896Y57557D1*
X76063Y57826D1*
X76302Y58034D1*
X76590Y58163D1*
X76904Y58203D1*
X77216Y58149D1*
X77498Y58007D1*
X77727Y57788D1*
X77882Y57513D1*
X77953Y57130D1*
X77906Y56817D1*
X77775Y56540D1*
X78684Y56533D1*
X78993Y56715D1*
X79302Y56781D1*
X79617Y56750D1*
X79907Y56624D1*
X80145Y56416D1*
X80308Y56145D1*
X80383Y55760D1*
X80334Y55448D1*
X80192Y55165D1*
X79971Y54939D1*
X79691Y54792D1*
X79379Y54737D1*
X79066Y54780D1*
X78781Y54917D1*
X78702Y54992D1*
X73179Y54987D1*
X70200Y52007D1*
X70465Y51776D1*
X70628Y51505D1*
X70703Y51120D1*
X70654Y50808D1*
X70512Y50525D1*
X70291Y50299D1*
X70011Y50152D1*
X69699Y50097D1*
X69386Y50140D1*
X69163Y50247D1*
X68971Y50152D1*
X68659Y50097D1*
X68346Y50140D1*
X68061Y50277D1*
X67939Y50392D1*
X67771Y50312D1*
X67459Y50257D1*
X67146Y50300D1*
X66977Y50381D1*
X66811Y50312D1*
X66499Y50257D1*
X66186Y50300D1*
X65901Y50437D1*
X65671Y50654D1*
X65580Y50819D1*
X64670Y49897D1*
X61464Y46683D1*
X61776Y46629D1*
X62032Y46500D1*
X62239Y46717D1*
X62513Y46875D1*
X62822Y46941D1*
X63137Y46910D1*
X63427Y46784D1*
X63665Y46576D1*
X63828Y46305D1*
X63903Y45920D1*
X63854Y45608D1*
X63712Y45325D1*
X63491Y45099D1*
X63211Y44952D1*
X62899Y44897D1*
X62586Y44940D1*
X62363Y45047D1*
X62117Y44778D1*
X61845Y44616D1*
X61538Y44542D1*
X61222Y44560D1*
X60925Y44669D1*
X60673Y44860D1*
X60487Y45116D1*
X60385Y45415D1*
X60374Y45732D1*
X60417Y45894D1*
X58118Y45887D1*
X57909D1*
X57953Y45610D1*
X57906Y45297D1*
X57770Y45011D1*
X57557Y44778D1*
X57285Y44616D1*
X56978Y44542D1*
X56662Y44560D1*
X56365Y44669D1*
X56113Y44860D1*
X55927Y45116D1*
X55825Y45415D1*
X55814Y45732D1*
X55857Y45894D1*
X52670Y45887D1*
X52693Y45670D1*
X52646Y45357D1*
X52510Y45071D1*
X52297Y44838D1*
X52025Y44676D1*
X51718Y44602D1*
X51402Y44620D1*
X51105Y44729D1*
X50853Y44920D1*
X50667Y45176D1*
X50565Y45475D1*
X50554Y45792D1*
X50582Y45897D1*
X49545Y45887D1*
X47511D1*
X47533Y45670D1*
X47486Y45357D1*
X47350Y45071D1*
X47137Y44838D1*
X46865Y44676D1*
X46558Y44602D1*
X46242Y44620D1*
X45945Y44729D1*
X45693Y44920D1*
X45507Y45176D1*
X45405Y45475D1*
X45394Y45792D1*
X45422Y45897D1*
X43999Y45887D1*
X44307Y45587D1*
X44481Y45313D1*
X44533Y45040D1*
Y41200D1*
X50151Y35582D1*
X50303Y35816D1*
X50542Y36024D1*
X50830Y36153D1*
X51144Y36193D1*
X51456Y36139D1*
X51738Y35997D1*
X51967Y35778D1*
X52122Y35503D1*
X52193Y35120D1*
X52146Y34807D1*
X52010Y34521D1*
X51797Y34288D1*
X51525Y34126D1*
X51419Y34101D1*
X51374Y33928D1*
X51232Y33645D1*
X51011Y33419D1*
X50731Y33272D1*
X50419Y33217D1*
X50214Y33245D1*
X50051Y33099D1*
X49771Y32952D1*
X49459Y32897D1*
X49146Y32940D1*
X48861Y33077D1*
X48631Y33294D1*
X48588Y33372D1*
X48266Y33420D1*
X48061Y33518D1*
X47821Y33269D1*
X47541Y33122D1*
X47229Y33067D1*
X46916Y33110D1*
X46631Y33247D1*
X46401Y33464D1*
X46248Y33741D1*
X46188Y34051D1*
X46225Y34366D1*
X46356Y34653D1*
X46569Y34887D1*
X46843Y35045D1*
X47152Y35111D1*
X47467Y35080D1*
X47712Y34974D1*
X47919Y35197D1*
X48184Y35350D1*
X46935Y36612D1*
X46465Y37082D1*
X46414Y36808D1*
X46272Y36525D1*
X46051Y36299D1*
X45771Y36152D1*
X45459Y36097D1*
X45146Y36140D1*
X44861Y36277D1*
X44631Y36494D1*
X44478Y36771D1*
X44418Y37081D1*
X44455Y37396D1*
X44586Y37683D1*
X44799Y37917D1*
X45073Y38075D1*
X45412Y38138D1*
X43213Y40333D1*
X43039Y40607D1*
X42987Y40880D1*
Y44720D1*
X40442Y47265D1*
X40211Y47019D1*
X39931Y46872D1*
X39619Y46817D1*
X39306Y46860D1*
X39021Y46997D1*
X38791Y47214D1*
X38638Y47491D1*
X38578Y47801D1*
X38615Y48116D1*
X38746Y48403D1*
X38959Y48637D1*
X39036Y48681D1*
X37601Y50106D1*
X35728Y51979D1*
X35733Y46182D1*
X37547Y44378D1*
X37706Y44339D1*
X37988Y44197D1*
X38217Y43978D1*
X38372Y43703D1*
X38443Y43320D1*
X38396Y43007D1*
X38260Y42721D1*
X38005Y42463D1*
X38117Y42394D1*
X38355Y42186D1*
X38518Y41915D1*
X38593Y41530D1*
X38544Y41218D1*
X38402Y40935D1*
X38181Y40709D1*
X37901Y40562D1*
X37589Y40507D1*
X37276Y40550D1*
X36991Y40687D1*
X36761Y40904D1*
X36608Y41181D1*
X36548Y41491D1*
X36585Y41806D1*
X36716Y42093D1*
X36938Y42332D1*
X36603Y42570D1*
X36417Y42826D1*
X36304Y43152D1*
X34243Y45213D1*
X34064Y45473D1*
X33987Y45830D1*
Y52150D1*
X33907Y52286D1*
X33805Y52585D1*
X33794Y52902D1*
X33876Y53207D1*
X34043Y53476D1*
X34140Y53560D1*
X28235Y59472D1*
X25375Y59467D1*
X26549Y58304D1*
X30787Y54067D1*
X30961Y53793D1*
X31013Y53520D1*
X31025Y46496D1*
X31188Y46225D1*
X31263Y45840D1*
X31214Y45528D1*
X31072Y45245D1*
X30851Y45019D1*
X30571Y44872D1*
X30259Y44817D1*
X29946Y44860D1*
X29661Y44997D1*
X29431Y45214D1*
X29278Y45491D1*
X29218Y45801D1*
X29255Y46116D1*
X29386Y46403D1*
X29473Y46498D1*
X29467Y48747D1*
X29333Y48727D1*
X29017Y48745D1*
X28720Y48854D1*
X28468Y49045D1*
X28282Y49301D1*
X28180Y49600D1*
X28169Y49917D1*
X28251Y50222D1*
X28418Y50491D1*
X28657Y50699D1*
X28945Y50828D1*
X29259Y50868D1*
X29464Y50832D1*
X29467Y53192D1*
X24565Y58102D1*
X24305Y58016D1*
X24468Y57745D1*
X24543Y57360D1*
X24494Y57048D1*
X24352Y56765D1*
X24131Y56539D1*
X23894Y56415D1*
X23962Y56283D1*
X24033Y55900D1*
X23986Y55587D1*
X23850Y55301D1*
X23637Y55068D1*
X23365Y54906D1*
X23058Y54832D1*
X22742Y54850D1*
X22491Y54942D1*
X22305Y54836D1*
X21998Y54762D1*
X21682Y54780D1*
X21385Y54889D1*
X21133Y55080D1*
X20947Y55336D1*
X20845Y55635D1*
X20834Y55952D1*
X20916Y56257D1*
X21083Y56526D1*
X21322Y56734D1*
X21610Y56863D1*
X21924Y56903D1*
X22236Y56849D1*
X22351Y56791D1*
X22607Y56905D1*
X22558Y57011D1*
X22504Y57292D1*
X22301Y57397D1*
X22071Y57614D1*
X21918Y57891D1*
X21875Y58114D1*
X18848Y58107D1*
X13985D1*
X14069Y57851D1*
X14112Y57493D1*
X14058Y57112D1*
X14250Y56933D1*
X18880D1*
X19197Y56863D1*
X19427Y56707D1*
X19651Y56482D1*
X26629Y42747D2*
X26411Y42632D1*
X26099Y42577D1*
X25786Y42620D1*
X25501Y42757D1*
X25271Y42974D1*
X25118Y43251D1*
X25058Y43561D1*
X25095Y43876D1*
X25226Y44163D1*
X25313Y44258D1*
X31017Y46502D2*
X31188Y46225D1*
X31263Y45840D1*
X31214Y45528D1*
X31072Y45245D1*
X30851Y45019D1*
X30571Y44872D1*
X30259Y44817D1*
X29946Y44860D1*
X29661Y44997D1*
X29431Y45214D1*
X29278Y45491D1*
X29218Y45801D1*
X29255Y46116D1*
X29386Y46403D1*
X29473Y46498D1*
X40266Y61477D2*
X40130Y61191D1*
X39917Y60958D1*
X39645Y60796D1*
X39338Y60722D1*
X39022Y60740D1*
X38725Y60849D1*
X38473Y61040D1*
X38287Y61296D1*
X38185Y61595D1*
X38174Y61912D1*
X38256Y62217D1*
X38423Y62486D1*
X38662Y62694D1*
X38950Y62823D1*
X39264Y62863D1*
X39576Y62809D1*
X39858Y62667D1*
X40087Y62448D1*
X40242Y62173D1*
X40313Y61790D1*
X40266Y61477D1*
X76196Y25077D2*
X76060Y24791D1*
X75847Y24558D1*
X75575Y24396D1*
X75268Y24322D1*
X74952Y24340D1*
X74655Y24449D1*
X74403Y24640D1*
X74217Y24896D1*
X74115Y25195D1*
X74104Y25512D1*
X74186Y25817D1*
X74353Y26086D1*
X74592Y26294D1*
X74880Y26423D1*
X75194Y26463D1*
X75506Y26409D1*
X75788Y26267D1*
X76017Y26048D1*
X76172Y25773D1*
X76243Y25390D1*
X76196Y25077D1*
X47346Y41847D2*
X47210Y41561D1*
X46997Y41328D1*
X46725Y41166D1*
X46418Y41092D1*
X46102Y41110D1*
X45805Y41219D1*
X45553Y41410D1*
X45367Y41666D1*
X45265Y41965D1*
X45254Y42282D1*
X45336Y42587D1*
X45503Y42856D1*
X45742Y43064D1*
X46030Y43193D1*
X46344Y43233D1*
X46656Y43179D1*
X46938Y43037D1*
X47167Y42818D1*
X47322Y42543D1*
X47393Y42160D1*
X47346Y41847D1*
X68486Y48517D2*
X68350Y48231D1*
X68137Y47998D1*
X67865Y47836D1*
X67558Y47762D1*
X67242Y47780D1*
X66945Y47889D1*
X66693Y48080D1*
X66507Y48336D1*
X66405Y48635D1*
X66394Y48952D1*
X66476Y49257D1*
X66643Y49526D1*
X66882Y49734D1*
X67170Y49863D1*
X67484Y49903D1*
X67796Y49849D1*
X68078Y49707D1*
X68307Y49488D1*
X68462Y49213D1*
X68533Y48830D1*
X68486Y48517D1*
X21426Y20487D2*
X21290Y20201D1*
X21077Y19968D1*
X20805Y19806D1*
X20498Y19732D1*
X20182Y19750D1*
X19885Y19859D1*
X19633Y20050D1*
X19447Y20306D1*
X19345Y20605D1*
X19334Y20922D1*
X19416Y21227D1*
X19583Y21496D1*
X19822Y21704D1*
X20110Y21833D1*
X20424Y21873D1*
X20736Y21819D1*
X21018Y21677D1*
X21247Y21458D1*
X21402Y21183D1*
X21473Y20800D1*
X21426Y20487D1*
X46796Y52607D2*
X46660Y52321D1*
X46447Y52088D1*
X46175Y51926D1*
X45868Y51852D1*
X45552Y51870D1*
X45255Y51979D1*
X45003Y52170D1*
X44817Y52426D1*
X44715Y52725D1*
X44704Y53042D1*
X44786Y53347D1*
X44953Y53616D1*
X45192Y53824D1*
X45480Y53953D1*
X45794Y53993D1*
X46106Y53939D1*
X46388Y53797D1*
X46617Y53578D1*
X46772Y53303D1*
X46843Y52920D1*
X46796Y52607D1*
X74216Y52087D2*
X74080Y51801D1*
X73867Y51568D1*
X73595Y51406D1*
X73288Y51332D1*
X72972Y51350D1*
X72675Y51459D1*
X72423Y51650D1*
X72237Y51906D1*
X72135Y52205D1*
X72124Y52522D1*
X72206Y52827D1*
X72373Y53096D1*
X72612Y53304D1*
X72900Y53433D1*
X73214Y53473D1*
X73526Y53419D1*
X73808Y53277D1*
X74037Y53058D1*
X74192Y52783D1*
X74263Y52400D1*
X74216Y52087D1*
X63854Y56968D2*
X63712Y56685D1*
X63491Y56459D1*
X63211Y56312D1*
X62899Y56257D1*
X62586Y56300D1*
X62301Y56437D1*
X62071Y56654D1*
X61918Y56931D1*
X61858Y57241D1*
X61895Y57556D1*
X62026Y57843D1*
X62239Y58077D1*
X62513Y58235D1*
X62822Y58301D1*
X63137Y58270D1*
X63427Y58144D1*
X63665Y57936D1*
X63828Y57665D1*
X63903Y57280D1*
X63854Y56968D1*
D30*
X15129Y67653D3*
X12589D3*
X15129Y65113D3*
X12589D3*
X15129Y62573D3*
X12589D3*
X15129Y60033D3*
X12589D3*
X15129Y57493D3*
X12589D3*
X15129Y54953D3*
X12589D3*
X15129Y52413D3*
X12589D3*
X15129Y49873D3*
X12589D3*
X15129Y47333D3*
X12589D3*
X15129Y44793D3*
X12589D3*
X15129Y42253D3*
X12589D3*
X15129Y39713D3*
X12589D3*
X15129Y37173D3*
X12589D3*
X15129Y34633D3*
X12589D3*
X15129Y32093D3*
X12589D3*
X15129Y29553D3*
X12589D3*
X15129Y27013D3*
X12589D3*
X15129Y24473D3*
X12589D3*
X15129Y21933D3*
X12589D3*
X15129Y19393D3*
X12589D3*
X72120Y11520D3*
X69580D3*
X67040D3*
X23445Y75440D3*
X25985D3*
X28525D3*
X31065D3*
X31280Y14830D3*
Y12290D3*
X28740Y14830D3*
Y12290D3*
X26200Y14830D3*
Y12290D3*
X23660Y14830D3*
Y12290D3*
X21120Y14830D3*
Y12290D3*
D44*
X18720Y73310D3*
M02*
