G04 DipTrace 2.4.0.2*
%INInner1.gbr*%
%MOMM*%
%ADD14C,0.2*%
%ADD15C,0.4*%
%ADD19C,0.635*%
%ADD30C,1.7*%
%ADD44C,1.524*%
%ADD56C,0.7*%
%ADD58C,0.8*%
%FSLAX53Y53*%
G04*
G71*
G90*
G75*
G01*
%LNInner1_Plane*%
%LPD*%
X49680Y59680D2*
D14*
X48640Y60720D1*
X36490D1*
X28150Y69060D1*
X18960D1*
X16480Y66580D1*
Y57120D1*
X15680Y56320D1*
X13520D1*
X12240Y55040D1*
X12502D1*
X12589Y54953D1*
X39440Y22560D2*
X39040D1*
X33280Y16800D1*
X30710D1*
X28740Y14830D1*
X12589Y49873D2*
Y49811D1*
X13840Y48560D1*
Y46720D1*
X14480Y46080D1*
X15680D1*
X17600Y44160D1*
X15129Y21933D2*
Y21840D1*
X31040D1*
X39520Y30320D1*
Y35040D1*
X12589Y29553D2*
X12636Y29600D1*
X13040D1*
X14240Y30800D1*
X16880D1*
X18270Y32190D1*
X25440D1*
X37570Y41530D2*
X34170D1*
X33520Y40880D1*
X13756D1*
X12589Y39713D1*
X45440Y37120D2*
X44080Y38480D1*
X13896D1*
X12589Y37173D1*
Y19393D2*
Y18160D1*
X16480D1*
X18160Y19840D1*
X29920D1*
X15129Y49873D2*
X15953D1*
X16880Y50800D1*
Y63440D1*
X18160Y64720D1*
X22560D1*
X24160Y63120D1*
X15129Y24473D2*
X28327D1*
X29520Y23280D1*
X21900Y55830D2*
D15*
Y55660D1*
X22580Y54980D1*
X32660D1*
X34860Y52780D1*
X12589Y65113D2*
Y67653D1*
X72640Y45920D2*
D14*
X69600D1*
X67840Y44160D1*
X36000D1*
X33200Y41360D1*
X16160D1*
X15267Y42253D1*
X15129D1*
X75720Y47030D2*
X69860D1*
X67490Y44660D1*
X35860D1*
X32960Y41760D1*
X18162D1*
X15129Y44793D1*
X47210Y34090D2*
Y36550D1*
X44720Y39040D1*
X16320D1*
X15647Y39713D1*
X15129D1*
X26080Y43600D2*
X25920D1*
X25600Y43920D1*
Y44560D1*
X25920Y44880D1*
X31600D1*
X34560Y47840D1*
X39600D1*
X30240Y45840D2*
X30290D1*
Y46610D1*
X39520Y55840D1*
X39240Y61790D2*
D15*
Y61360D1*
X44320D1*
X43600Y62080D1*
X48280Y59230D2*
X47290Y58240D1*
X72960Y25360D2*
X72800Y25200D1*
X75170Y25390D2*
X74240Y26320D1*
X46320Y42160D2*
X47040D1*
X51120Y35120D2*
X50320D1*
X67460Y48830D2*
Y48620D1*
X67680Y48400D1*
X20400Y20800D2*
X18800D1*
X45770Y52920D2*
X45890Y52800D1*
X84030Y56960D2*
Y57280D1*
X76880Y57130D2*
Y56880D1*
X57123Y34353D2*
Y33890D1*
X58020D1*
X73190Y52400D2*
Y51370D1*
X73240Y51320D1*
X44930Y50910D2*
X45440D1*
X45820Y51290D1*
D56*
X72880Y41050D3*
X44320Y24000D3*
X69440Y23440D3*
X49680Y59680D3*
X39440Y22560D3*
D3*
X17600Y44160D3*
X25440Y25800D3*
X39520Y35040D3*
X25440Y32190D3*
X17680Y61040D3*
X79360Y55760D3*
X83360Y31200D3*
X28720Y28320D3*
X66480Y51280D3*
X37570Y41530D3*
X45440Y37120D3*
X67440Y51280D3*
X32670Y40000D3*
X29920Y19840D3*
X69200Y24720D3*
X63730Y34220D3*
X57700Y35250D3*
X69200Y24720D3*
D58*
X38560Y33020D3*
X29030Y18650D3*
X29440Y26320D3*
X32240Y21840D3*
X24400Y46080D3*
X21680Y52160D3*
X25310Y36870D3*
X34240Y21200D3*
X38000Y37120D3*
X44000Y20000D3*
X47625Y43365D3*
X63670Y35310D3*
X50530Y19440D3*
X84320Y16800D3*
X75040Y24090D3*
X65440Y32320D3*
X58670Y23300D3*
X52430Y23360D3*
X50480Y36320D3*
X67660Y41170D3*
X66230Y46040D3*
X63760Y51200D3*
X68450Y53710D3*
X48480Y58000D3*
X47460Y52970D3*
X80800Y40750D3*
X76950Y35460D3*
X33200Y34240D3*
X84800Y28720D3*
X78800Y28320D3*
X31200Y29709D3*
X18080Y25658D3*
X72800Y26400D3*
X31040Y53840D3*
X29298Y46778D3*
X30400Y68320D3*
X33360Y60480D3*
X29200Y52000D3*
X20160Y46470D3*
X27040Y67120D3*
X20870Y17470D3*
X17360Y22560D3*
X31200Y29709D3*
X77940Y69390D3*
X75220Y57070D3*
X78890D3*
X82410Y56960D3*
X84740Y64630D3*
X76740Y40850D3*
X62640Y11760D3*
X56180Y37490D3*
X77610Y51270D3*
X36560Y57080D3*
X60970Y34890D3*
D56*
X30160Y65520D3*
X24160Y63120D3*
D58*
X59678Y51842D3*
X56790Y50160D3*
X58800Y51120D3*
X51840Y50130D3*
X58000Y52000D3*
X46660Y50190D3*
D56*
X29520Y23280D3*
X72550Y24090D3*
D58*
X53580Y31310D3*
X65480Y15170D3*
D56*
X22880Y58240D3*
D58*
X46460Y45670D3*
X51620D3*
X56880Y45610D3*
X61440D3*
X56880D3*
X59710Y31250D3*
X75650Y14380D3*
X21900Y55830D3*
X34860Y52780D3*
X37370Y43320D3*
X23260Y50090D3*
X21900Y55830D3*
X34860Y52780D3*
D56*
X23520Y57360D3*
D58*
X19040Y66320D3*
Y42850D3*
X40700Y26890D3*
X34100Y32160D3*
D56*
X42960D3*
X33840Y23280D3*
X72640Y45920D3*
X75720Y47030D3*
X50400Y34240D3*
X69680Y51120D3*
X29280Y35200D3*
X42190Y52050D3*
X27440Y43360D3*
X44000Y59760D3*
X81760Y67440D3*
X42190Y52050D3*
X44000Y59760D3*
X68640Y51120D3*
X47210Y34090D3*
D3*
X26800Y44080D3*
X41040Y56790D3*
X84160Y68320D3*
X41040Y56790D3*
X48560Y34400D3*
X71824Y50400D3*
X49440Y33920D3*
X73710Y48910D3*
D58*
X58960Y21397D3*
D56*
X52680Y20700D3*
D58*
X22960Y55900D3*
X21350Y66780D3*
X29235Y49795D3*
D56*
X26080Y43600D3*
X39600Y47840D3*
X26080Y43600D3*
X30240Y45840D3*
X39520Y55840D3*
X30240Y45840D3*
D58*
X39240Y61790D3*
X48280Y59230D3*
X72960Y25360D3*
X75170Y25390D3*
X46320Y42160D3*
X51120Y35120D3*
X67460Y48830D3*
X20400Y20800D3*
X45770Y52920D3*
X84030Y56960D3*
X76880Y57130D3*
X57123Y34353D3*
X73190Y52400D3*
X44930Y50910D3*
D56*
X62880Y45920D3*
Y57280D3*
X11989Y75430D2*
D19*
X21863D1*
X32656D2*
X40883D1*
X11413Y74798D2*
X12596D1*
X15124D2*
X22002D1*
X32507D2*
X35595D1*
X38123D2*
X40883D1*
X11145Y74167D2*
X11822D1*
X15898D2*
X17507D1*
X19936D2*
X22547D1*
X24341D2*
X25087D1*
X26881D2*
X27627D1*
X29421D2*
X30167D1*
X31961D2*
X34821D1*
X38897D2*
X40883D1*
X11056Y73535D2*
X11423D1*
X16285D2*
X17239D1*
X20204D2*
X34434D1*
X39284D2*
X40883D1*
X11046Y72903D2*
X11244D1*
X16463D2*
X17279D1*
X20154D2*
X34255D1*
X39462D2*
X40883D1*
X11046Y72272D2*
X11244D1*
X16483D2*
X17666D1*
X19777D2*
X34235D1*
X39482D2*
X40883D1*
X81144D2*
X81592D1*
X84408D2*
X84956D1*
X11046Y71640D2*
X11382D1*
X16334D2*
X34384D1*
X39333D2*
X40883D1*
X81144D2*
X84956D1*
X11046Y71008D2*
X11723D1*
X15997D2*
X34722D1*
X38996D2*
X40883D1*
X81144D2*
X84956D1*
X11046Y70377D2*
X12377D1*
X15332D2*
X35386D1*
X38341D2*
X77455D1*
X78425D2*
X84956D1*
X11046Y69745D2*
X18539D1*
X28568D2*
X76860D1*
X79011D2*
X84956D1*
X11046Y69113D2*
X12090D1*
X13080D2*
X17854D1*
X29253D2*
X29622D1*
X31187D2*
X76840D1*
X79041D2*
X83448D1*
X11046Y68482D2*
X11244D1*
X13933D2*
X17229D1*
X31525D2*
X77306D1*
X78574D2*
X83091D1*
X14161Y67850D2*
X16594D1*
X18904D2*
X26189D1*
X27893D2*
X28195D1*
X31425D2*
X80759D1*
X82761D2*
X83190D1*
X14112Y67218D2*
X15959D1*
X19688D2*
X20305D1*
X22397D2*
X25911D1*
X28171D2*
X28838D1*
X31148D2*
X80700D1*
X82821D2*
X84956D1*
X11046Y66587D2*
X11441D1*
X13735D2*
X14679D1*
X17644D2*
X17934D1*
X22466D2*
X26050D1*
X28032D2*
X29463D1*
X31783D2*
X81136D1*
X82384D2*
X84956D1*
X11046Y65955D2*
X11264D1*
X17317D2*
X17963D1*
X20115D2*
X20603D1*
X22099D2*
X29175D1*
X32408D2*
X84956D1*
X17317Y65323D2*
X17616D1*
X23111D2*
X29096D1*
X33043D2*
X83855D1*
X23746Y64692D2*
X29493D1*
X30820D2*
X31358D1*
X33678D2*
X83607D1*
X11046Y64060D2*
X11421D1*
X24629D2*
X31993D1*
X34303D2*
X83765D1*
X11046Y63428D2*
X11264D1*
X18021D2*
X22696D1*
X25195D2*
X32628D1*
X34938D2*
X84956D1*
X17713Y62797D2*
X23123D1*
X25195D2*
X33253D1*
X35573D2*
X84956D1*
X17713Y62165D2*
X23728D1*
X24589D2*
X33888D1*
X36198D2*
X84956D1*
X11046Y61533D2*
X11421D1*
X18636D2*
X33094D1*
X33628D2*
X34523D1*
X36833D2*
X84956D1*
X11046Y60902D2*
X11283D1*
X18755D2*
X32311D1*
X34412D2*
X35148D1*
X49612D2*
X84956D1*
X18418Y60270D2*
X32241D1*
X34472D2*
X35783D1*
X50575D2*
X84956D1*
X17713Y59638D2*
X32628D1*
X34085D2*
X42917D1*
X45078D2*
X48563D1*
X50763D2*
X84956D1*
X11046Y59007D2*
X11401D1*
X17713D2*
X22141D1*
X23617D2*
X43244D1*
X44751D2*
X48047D1*
X50515D2*
X84956D1*
X11046Y58375D2*
X11283D1*
X17713D2*
X21803D1*
X23954D2*
X47412D1*
X49553D2*
X84956D1*
X17713Y57743D2*
X21922D1*
X24530D2*
X35654D1*
X37468D2*
X40605D1*
X41476D2*
X47372D1*
X49583D2*
X61907D1*
X63850D2*
X74320D1*
X76114D2*
X77991D1*
X79785D2*
X81612D1*
X83208D2*
X84956D1*
X17713Y57112D2*
X22468D1*
X24579D2*
X35426D1*
X37696D2*
X40010D1*
X42072D2*
X47818D1*
X49146D2*
X61808D1*
X63949D2*
X74082D1*
X76352D2*
X77753D1*
X80023D2*
X81285D1*
X83535D2*
X84956D1*
X11046Y56480D2*
X11382D1*
X17713D2*
X20980D1*
X24103D2*
X35605D1*
X37508D2*
X38661D1*
X42082D2*
X62175D1*
X63582D2*
X74260D1*
X76183D2*
X77931D1*
X80152D2*
X81384D1*
X83436D2*
X84956D1*
X11046Y55848D2*
X11303D1*
X17713D2*
X20761D1*
X32815D2*
X38373D1*
X41506D2*
X78279D1*
X80440D2*
X84956D1*
X17713Y55217D2*
X20960D1*
X33717D2*
X37738D1*
X40395D2*
X78427D1*
X80291D2*
X84956D1*
X17713Y54585D2*
X21674D1*
X34352D2*
X37113D1*
X39423D2*
X67761D1*
X69139D2*
X84956D1*
X11046Y53953D2*
X11382D1*
X17713D2*
X29909D1*
X32170D2*
X32396D1*
X34987D2*
X36478D1*
X38788D2*
X46965D1*
X47955D2*
X67345D1*
X69555D2*
X84956D1*
X11046Y53322D2*
X11303D1*
X17713D2*
X30038D1*
X32041D2*
X33025D1*
X38162D2*
X46380D1*
X48541D2*
X67384D1*
X69516D2*
X84956D1*
X17713Y52690D2*
X20682D1*
X22674D2*
X28312D1*
X30086D2*
X33650D1*
X37527D2*
X41330D1*
X43054D2*
X46360D1*
X48561D2*
X57115D1*
X60397D2*
X68059D1*
X68841D2*
X84956D1*
X17713Y52058D2*
X20553D1*
X22813D2*
X28064D1*
X30334D2*
X34007D1*
X36892D2*
X41101D1*
X43272D2*
X46836D1*
X48084D2*
X56867D1*
X60794D2*
X63048D1*
X64465D2*
X65757D1*
X70151D2*
X76820D1*
X78406D2*
X84956D1*
X11046Y51427D2*
X11362D1*
X17713D2*
X20831D1*
X22526D2*
X28233D1*
X30165D2*
X33948D1*
X36267D2*
X41320D1*
X43064D2*
X57026D1*
X60735D2*
X62652D1*
X64872D2*
X65400D1*
X70716D2*
X76483D1*
X78733D2*
X84956D1*
X11046Y50795D2*
X11323D1*
X17713D2*
X22389D1*
X24133D2*
X28788D1*
X29689D2*
X33323D1*
X35632D2*
X45715D1*
X47608D2*
X50934D1*
X52748D2*
X55865D1*
X59971D2*
X62701D1*
X64813D2*
X65519D1*
X72829D2*
X76582D1*
X78634D2*
X84956D1*
X17396Y50163D2*
X22131D1*
X24391D2*
X28163D1*
X30304D2*
X32688D1*
X34997D2*
X45526D1*
X47797D2*
X50706D1*
X52976D2*
X55657D1*
X57927D2*
X58256D1*
X59346D2*
X63426D1*
X64098D2*
X68218D1*
X70101D2*
X70768D1*
X72879D2*
X84956D1*
X16771Y49532D2*
X22280D1*
X24242D2*
X28133D1*
X30334D2*
X32053D1*
X34372D2*
X45755D1*
X47568D2*
X50884D1*
X52797D2*
X55855D1*
X57718D2*
X71224D1*
X72423D2*
X72831D1*
X74586D2*
X84956D1*
X11046Y48900D2*
X11362D1*
X16364D2*
X28580D1*
X29888D2*
X31427D1*
X33737D2*
X72623D1*
X74794D2*
X84956D1*
X11046Y48268D2*
X11323D1*
X14677D2*
X30792D1*
X33102D2*
X33829D1*
X40593D2*
X72851D1*
X74566D2*
X84956D1*
X14677Y47637D2*
X28590D1*
X32477D2*
X33203D1*
X40663D2*
X69319D1*
X76610D2*
X84956D1*
X14707Y47005D2*
X19164D1*
X21156D2*
X23798D1*
X25006D2*
X28183D1*
X31842D2*
X32568D1*
X34878D2*
X38948D1*
X40256D2*
X65698D1*
X66757D2*
X68674D1*
X76808D2*
X84956D1*
X11046Y46373D2*
X11342D1*
X16543D2*
X19025D1*
X21295D2*
X23301D1*
X25492D2*
X28243D1*
X31207D2*
X31933D1*
X34253D2*
X45586D1*
X47330D2*
X50745D1*
X52490D2*
X56063D1*
X57699D2*
X60628D1*
X63860D2*
X65152D1*
X67313D2*
X68049D1*
X76570D2*
X84956D1*
X11046Y45742D2*
X11342D1*
X17178D2*
X19313D1*
X21008D2*
X23321D1*
X25482D2*
X28957D1*
X33618D2*
X45328D1*
X47598D2*
X50487D1*
X52758D2*
X55756D1*
X58006D2*
X60310D1*
X63949D2*
X65132D1*
X73713D2*
X84956D1*
X18041Y45110D2*
X23877D1*
X32983D2*
X35158D1*
X69942D2*
X71948D1*
X73326D2*
X84956D1*
X18636Y44478D2*
X24760D1*
X32358D2*
X34523D1*
X69317D2*
X84956D1*
X11046Y43847D2*
X11342D1*
X19499D2*
X24770D1*
X28399D2*
X33888D1*
X68682D2*
X84956D1*
X11046Y43215D2*
X11342D1*
X20115D2*
X25068D1*
X28518D2*
X33263D1*
X38500D2*
X46499D1*
X48749D2*
X84956D1*
X20144Y42583D2*
X26715D1*
X28171D2*
X32628D1*
X35583D2*
X36527D1*
X38212D2*
X46826D1*
X48422D2*
X84956D1*
X38569Y41952D2*
X66858D1*
X68454D2*
X72335D1*
X73425D2*
X84956D1*
X11046Y41320D2*
X11323D1*
X38639D2*
X66531D1*
X68781D2*
X71829D1*
X73931D2*
X75709D1*
X77771D2*
X79826D1*
X81769D2*
X84956D1*
X11046Y40688D2*
X11362D1*
X34481D2*
X36924D1*
X38212D2*
X66640D1*
X68682D2*
X71859D1*
X73901D2*
X75620D1*
X77860D2*
X79668D1*
X81938D2*
X84956D1*
X16672Y40057D2*
X31586D1*
X33757D2*
X72573D1*
X73191D2*
X75957D1*
X77523D2*
X79916D1*
X81680D2*
X84956D1*
X45495Y39425D2*
X84956D1*
X11046Y38793D2*
X11303D1*
X46120D2*
X84956D1*
X11046Y38162D2*
X11362D1*
X46755D2*
X55280D1*
X57083D2*
X84956D1*
X16672Y37530D2*
X24403D1*
X26217D2*
X36944D1*
X39055D2*
X43870D1*
X47390D2*
X55042D1*
X57312D2*
X84956D1*
X16692Y36898D2*
X24175D1*
X26445D2*
X36885D1*
X39115D2*
X44376D1*
X47965D2*
X49515D1*
X51448D2*
X55220D1*
X57143D2*
X84956D1*
X11046Y36267D2*
X11303D1*
X16414D2*
X24363D1*
X26256D2*
X37291D1*
X38718D2*
X44812D1*
X46070D2*
X46333D1*
X48045D2*
X49346D1*
X51617D2*
X57522D1*
X57870D2*
X63118D1*
X64217D2*
X76175D1*
X77721D2*
X84956D1*
X11046Y35635D2*
X11382D1*
X16344D2*
X28292D1*
X30265D2*
X38621D1*
X40415D2*
X46370D1*
X48045D2*
X49594D1*
X51368D2*
X56689D1*
X58711D2*
X60131D1*
X61806D2*
X62582D1*
X64753D2*
X75828D1*
X78068D2*
X84956D1*
X16672Y35003D2*
X28213D1*
X30344D2*
X32380D1*
X34015D2*
X38432D1*
X40603D2*
X46370D1*
X49454D2*
X49654D1*
X51140D2*
X56649D1*
X58760D2*
X59844D1*
X62104D2*
X62582D1*
X64763D2*
X75917D1*
X77989D2*
X84956D1*
X16692Y34372D2*
X28620D1*
X29947D2*
X32072D1*
X34333D2*
X38680D1*
X40355D2*
X46161D1*
X51478D2*
X57115D1*
X58284D2*
X59963D1*
X61975D2*
X62652D1*
X64803D2*
X84956D1*
X11046Y33740D2*
X11283D1*
X16424D2*
X32191D1*
X34214D2*
X37698D1*
X40355D2*
X46181D1*
X51359D2*
X62761D1*
X64694D2*
X84956D1*
X11046Y33108D2*
X11382D1*
X16324D2*
X24929D1*
X25949D2*
X33531D1*
X34660D2*
X37430D1*
X40355D2*
X42510D1*
X43411D2*
X46856D1*
X47558D2*
X48751D1*
X50128D2*
X64646D1*
X66231D2*
X84956D1*
X16662Y32477D2*
X17398D1*
X26484D2*
X33015D1*
X35186D2*
X37569D1*
X40355D2*
X41925D1*
X43997D2*
X64318D1*
X66569D2*
X84956D1*
X26465Y31845D2*
X33015D1*
X35186D2*
X38680D1*
X40355D2*
X41925D1*
X43997D2*
X52591D1*
X54573D2*
X58752D1*
X60665D2*
X64418D1*
X66470D2*
X82505D1*
X84220D2*
X84956D1*
X11046Y31213D2*
X11283D1*
X18448D2*
X25077D1*
X25810D2*
X33531D1*
X34670D2*
X38680D1*
X40355D2*
X42510D1*
X43411D2*
X52452D1*
X54712D2*
X58574D1*
X60844D2*
X82277D1*
X84448D2*
X84956D1*
X11046Y30582D2*
X11401D1*
X17823D2*
X30515D1*
X31892D2*
X38621D1*
X40355D2*
X52730D1*
X54434D2*
X58812D1*
X60616D2*
X82485D1*
X84240D2*
X84956D1*
X16662Y29950D2*
X30088D1*
X32309D2*
X37996D1*
X40266D2*
X84956D1*
X16701Y29318D2*
X28431D1*
X29002D2*
X30138D1*
X32259D2*
X37361D1*
X39671D2*
X78348D1*
X79259D2*
X83845D1*
X11046Y28687D2*
X11283D1*
X16443D2*
X27707D1*
X29739D2*
X30812D1*
X31584D2*
X36726D1*
X39045D2*
X77733D1*
X79874D2*
X83666D1*
X11046Y28055D2*
X11421D1*
X16305D2*
X27667D1*
X29769D2*
X36101D1*
X38410D2*
X77693D1*
X79904D2*
X83894D1*
X16662Y27423D2*
X28163D1*
X29272D2*
X35466D1*
X37775D2*
X39702D1*
X41695D2*
X72415D1*
X73187D2*
X78150D1*
X79447D2*
X84956D1*
X16701Y26792D2*
X25127D1*
X25750D2*
X28411D1*
X30463D2*
X34831D1*
X37150D2*
X39573D1*
X41834D2*
X71740D1*
X73861D2*
X84956D1*
X11046Y26160D2*
X11264D1*
X16453D2*
X17071D1*
X19093D2*
X24423D1*
X26465D2*
X28312D1*
X30562D2*
X34206D1*
X36515D2*
X39851D1*
X41546D2*
X71690D1*
X73911D2*
X84956D1*
X11046Y25528D2*
X11421D1*
X16295D2*
X16951D1*
X19212D2*
X24393D1*
X26484D2*
X28649D1*
X30225D2*
X33571D1*
X35880D2*
X68506D1*
X69893D2*
X72107D1*
X73484D2*
X84956D1*
X29064Y24897D2*
X32936D1*
X35255D2*
X43760D1*
X44880D2*
X68128D1*
X70270D2*
X71859D1*
X73246D2*
X74270D1*
X75806D2*
X84956D1*
X29858Y24265D2*
X32311D1*
X34620D2*
X43264D1*
X45376D2*
X51787D1*
X53065D2*
X58137D1*
X59207D2*
X68218D1*
X70180D2*
X71482D1*
X73623D2*
X73918D1*
X76163D2*
X84956D1*
X11046Y23633D2*
X11264D1*
X16463D2*
X28014D1*
X30542D2*
X31676D1*
X34858D2*
X43304D1*
X45336D2*
X51331D1*
X53531D2*
X57591D1*
X59752D2*
X68377D1*
X70508D2*
X71571D1*
X73524D2*
X74002D1*
X76074D2*
X84956D1*
X11046Y23002D2*
X11441D1*
X18398D2*
X28471D1*
X30572D2*
X31050D1*
X34888D2*
X38323D1*
X40425D2*
X44038D1*
X44605D2*
X51361D1*
X53502D2*
X57572D1*
X59762D2*
X68456D1*
X70428D2*
X84956D1*
X34372Y22370D2*
X37698D1*
X40504D2*
X51956D1*
X52906D2*
X58068D1*
X59475D2*
X84956D1*
X35235Y21738D2*
X37063D1*
X40107D2*
X57879D1*
X60040D2*
X84956D1*
X11046Y21107D2*
X11244D1*
X35374D2*
X36428D1*
X38738D2*
X51678D1*
X53680D2*
X57859D1*
X60060D2*
X84956D1*
X11046Y20475D2*
X11460D1*
X16265D2*
X17656D1*
X30781D2*
X33382D1*
X35097D2*
X35803D1*
X38113D2*
X42977D1*
X45028D2*
X50180D1*
X50872D2*
X51618D1*
X53740D2*
X56679D1*
X59574D2*
X84956D1*
X16652Y19843D2*
X17011D1*
X31009D2*
X35168D1*
X37478D2*
X42877D1*
X45128D2*
X49475D1*
X51587D2*
X52055D1*
X53303D2*
X56252D1*
X59316D2*
X84956D1*
X30790Y19212D2*
X34533D1*
X36843D2*
X43205D1*
X44790D2*
X49416D1*
X51646D2*
X56153D1*
X59415D2*
X84956D1*
X11046Y18580D2*
X11244D1*
X18061D2*
X27895D1*
X30165D2*
X33908D1*
X36218D2*
X49823D1*
X51230D2*
X56321D1*
X59246D2*
X84956D1*
X11046Y17948D2*
X11782D1*
X17426D2*
X19849D1*
X21891D2*
X28153D1*
X29907D2*
X33273D1*
X35583D2*
X56917D1*
X58651D2*
X84956D1*
X11046Y17317D2*
X19749D1*
X22000D2*
X30068D1*
X34948D2*
X83319D1*
X11046Y16685D2*
X12407D1*
X15312D2*
X20077D1*
X21662D2*
X29443D1*
X34323D2*
X35406D1*
X38311D2*
X83190D1*
X11046Y16053D2*
X11733D1*
X15987D2*
X20146D1*
X22089D2*
X22686D1*
X24629D2*
X25226D1*
X27169D2*
X27766D1*
X33539D2*
X34731D1*
X38986D2*
X43135D1*
X44622D2*
X47541D1*
X49027D2*
X64805D1*
X66152D2*
X83488D1*
X11046Y15422D2*
X11382D1*
X16334D2*
X19650D1*
X32745D2*
X34384D1*
X39333D2*
X42728D1*
X45038D2*
X47124D1*
X49434D2*
X64378D1*
X66589D2*
X75332D1*
X75965D2*
X84956D1*
X11046Y14790D2*
X11244D1*
X16483D2*
X19531D1*
X32864D2*
X34235D1*
X39482D2*
X42758D1*
X44999D2*
X47154D1*
X49404D2*
X64418D1*
X66549D2*
X74598D1*
X76709D2*
X81682D1*
X84319D2*
X84956D1*
X11046Y14158D2*
X11244D1*
X16463D2*
X19690D1*
X32705D2*
X34255D1*
X39462D2*
X43314D1*
X44453D2*
X47709D1*
X48848D2*
X65063D1*
X65904D2*
X74538D1*
X76759D2*
X81027D1*
X11046Y13527D2*
X11421D1*
X16295D2*
X20166D1*
X29689D2*
X30425D1*
X32130D2*
X34424D1*
X39294D2*
X56738D1*
X58820D2*
X74935D1*
X76362D2*
X80719D1*
X11125Y12895D2*
X11802D1*
X15908D2*
X19660D1*
X30205D2*
X34811D1*
X38917D2*
X56272D1*
X59296D2*
X66323D1*
X67759D2*
X68863D1*
X70299D2*
X71403D1*
X72839D2*
X80620D1*
X11373Y12263D2*
X12566D1*
X15144D2*
X19531D1*
X30324D2*
X35575D1*
X38143D2*
X56153D1*
X59415D2*
X61630D1*
X63652D2*
X65648D1*
X73514D2*
X80690D1*
X11899Y11632D2*
X19680D1*
X30175D2*
X56302D1*
X59266D2*
X61511D1*
X63771D2*
X65460D1*
X73703D2*
X80957D1*
X13457Y11000D2*
X20246D1*
X29610D2*
X56837D1*
X58730D2*
X61818D1*
X63463D2*
X65549D1*
X73613D2*
X81523D1*
X16600Y40099D2*
X16645Y39806D1*
X16693Y40107D1*
X16603D1*
X16955Y39813D1*
X31669D1*
X31648Y39961D1*
X31665Y40109D1*
X16693Y40107D1*
X16428Y23693D2*
X16364Y23582D1*
X16153Y23345D1*
X15969Y23211D1*
X16120Y23090D1*
X16331Y22867D1*
X16376Y22987D1*
X16543Y23256D1*
X16782Y23464D1*
X17070Y23593D1*
X17384Y23633D1*
X17696Y23579D1*
X17978Y23437D1*
X18207Y23218D1*
X18362Y22943D1*
X18431Y22613D1*
X28752D1*
X28558Y22931D1*
X28507Y23193D1*
X28012Y23695D1*
X20072Y23700D1*
X16450D1*
X16410Y72206D2*
X16352Y71895D1*
X16256Y71592D1*
X16123Y71304D1*
X15955Y71035D1*
X15756Y70788D1*
X15528Y70567D1*
X15274Y70377D1*
X14999Y70219D1*
X14706Y70096D1*
X14401Y70010D1*
X14087Y69962D1*
X13770Y69954D1*
X13454Y69984D1*
X13144Y70054D1*
X12846Y70161D1*
X12562Y70303D1*
X12299Y70480D1*
X12059Y70688D1*
X11847Y70924D1*
X11665Y71184D1*
X11517Y71464D1*
X11404Y71761D1*
X11329Y72069D1*
X11292Y72384D1*
X11295Y72702D1*
X11336Y73016D1*
X11416Y73323D1*
X11533Y73618D1*
X11686Y73896D1*
X11871Y74154D1*
X12087Y74386D1*
X12330Y74590D1*
X12597Y74763D1*
X12882Y74901D1*
X13183Y75003D1*
X13493Y75068D1*
X13809Y75094D1*
X14126Y75080D1*
X14439Y75028D1*
X14743Y74937D1*
X15034Y74810D1*
X15307Y74648D1*
X15558Y74453D1*
X15782Y74229D1*
X15978Y73979D1*
X16141Y73707D1*
X16270Y73417D1*
X16361Y73113D1*
X16415Y72801D1*
X16430Y72523D1*
X16410Y72206D1*
Y14206D2*
X16352Y13895D1*
X16256Y13592D1*
X16123Y13304D1*
X15955Y13035D1*
X15756Y12788D1*
X15528Y12567D1*
X15274Y12377D1*
X14999Y12219D1*
X14706Y12096D1*
X14401Y12010D1*
X14087Y11962D1*
X13770Y11954D1*
X13454Y11984D1*
X13144Y12054D1*
X12846Y12161D1*
X12562Y12303D1*
X12299Y12480D1*
X12059Y12688D1*
X11847Y12924D1*
X11665Y13184D1*
X11517Y13464D1*
X11404Y13761D1*
X11329Y14069D1*
X11292Y14384D1*
X11295Y14702D1*
X11336Y15016D1*
X11416Y15323D1*
X11533Y15618D1*
X11686Y15896D1*
X11871Y16154D1*
X12087Y16386D1*
X12330Y16590D1*
X12597Y16763D1*
X12882Y16901D1*
X13183Y17003D1*
X13493Y17068D1*
X13809Y17094D1*
X14126Y17080D1*
X14439Y17028D1*
X14743Y16937D1*
X15034Y16810D1*
X15307Y16648D1*
X15558Y16453D1*
X15782Y16229D1*
X15978Y15979D1*
X16141Y15707D1*
X16270Y15417D1*
X16361Y15113D1*
X16415Y14801D1*
X16430Y14523D1*
X16410Y14206D1*
X39410D2*
X39352Y13895D1*
X39256Y13592D1*
X39123Y13304D1*
X38955Y13035D1*
X38756Y12788D1*
X38528Y12567D1*
X38274Y12377D1*
X37999Y12219D1*
X37706Y12096D1*
X37401Y12010D1*
X37087Y11962D1*
X36770Y11954D1*
X36454Y11984D1*
X36144Y12054D1*
X35846Y12161D1*
X35562Y12303D1*
X35299Y12480D1*
X35059Y12688D1*
X34847Y12924D1*
X34665Y13184D1*
X34517Y13464D1*
X34404Y13761D1*
X34329Y14069D1*
X34292Y14384D1*
X34295Y14702D1*
X34336Y15016D1*
X34416Y15323D1*
X34533Y15618D1*
X34686Y15896D1*
X34871Y16154D1*
X35087Y16386D1*
X35330Y16590D1*
X35597Y16763D1*
X35882Y16901D1*
X36183Y17003D1*
X36493Y17068D1*
X36809Y17094D1*
X37126Y17080D1*
X37439Y17028D1*
X37743Y16937D1*
X38034Y16810D1*
X38307Y16648D1*
X38558Y16453D1*
X38782Y16229D1*
X38978Y15979D1*
X39141Y15707D1*
X39270Y15417D1*
X39361Y15113D1*
X39415Y14801D1*
X39430Y14523D1*
X39410Y14206D1*
Y72206D2*
X39352Y71895D1*
X39256Y71592D1*
X39123Y71304D1*
X38955Y71035D1*
X38756Y70788D1*
X38528Y70567D1*
X38274Y70377D1*
X37999Y70219D1*
X37706Y70096D1*
X37401Y70010D1*
X37087Y69962D1*
X36770Y69954D1*
X36454Y69984D1*
X36144Y70054D1*
X35846Y70161D1*
X35562Y70303D1*
X35299Y70480D1*
X35059Y70688D1*
X34847Y70924D1*
X34665Y71184D1*
X34517Y71464D1*
X34404Y71761D1*
X34329Y72069D1*
X34292Y72384D1*
X34295Y72702D1*
X34336Y73016D1*
X34416Y73323D1*
X34533Y73618D1*
X34686Y73896D1*
X34871Y74154D1*
X35087Y74386D1*
X35330Y74590D1*
X35597Y74763D1*
X35882Y74901D1*
X36183Y75003D1*
X36493Y75068D1*
X36809Y75094D1*
X37126Y75080D1*
X37439Y75028D1*
X37743Y74937D1*
X38034Y74810D1*
X38307Y74648D1*
X38558Y74453D1*
X38782Y74229D1*
X38978Y73979D1*
X39141Y73707D1*
X39270Y73417D1*
X39361Y73113D1*
X39415Y72801D1*
X39430Y72523D1*
X39410Y72206D1*
X73610Y11205D2*
X73551Y10978D1*
X81617D1*
X81410Y11150D1*
X81194Y11382D1*
X81012Y11642D1*
X80867Y11924D1*
X80762Y12224D1*
X80699Y12535D1*
X80679Y12851D1*
X80702Y13168D1*
X80769Y13478D1*
X80876Y13776D1*
X81024Y14057D1*
X81208Y14315D1*
X81426Y14546D1*
X81674Y14745D1*
X81946Y14908D1*
X82238Y15032D1*
X82544Y15116D1*
X82858Y15157D1*
X83176Y15154D1*
X83490Y15109D1*
X83794Y15021D1*
X84084Y14892D1*
X84354Y14725D1*
X84599Y14523D1*
X84813Y14289D1*
X85025Y13966D1*
X85023Y15994D1*
X84725Y15806D1*
X84418Y15732D1*
X84102Y15750D1*
X83805Y15859D1*
X83553Y16050D1*
X83367Y16306D1*
X83265Y16605D1*
X83254Y16922D1*
X83336Y17227D1*
X83503Y17496D1*
X83742Y17704D1*
X84030Y17833D1*
X84344Y17873D1*
X84656Y17819D1*
X84938Y17677D1*
X85017Y17602D1*
X85023Y21798D1*
Y27662D1*
X84582Y27670D1*
X84285Y27779D1*
X84033Y27970D1*
X83847Y28226D1*
X83745Y28525D1*
X83734Y28842D1*
X83816Y29147D1*
X83983Y29416D1*
X84222Y29624D1*
X84510Y29753D1*
X84824Y29793D1*
X85029Y29757D1*
X85023Y35451D1*
Y63599D1*
X84838Y63562D1*
X84522Y63580D1*
X84225Y63689D1*
X83973Y63880D1*
X83787Y64136D1*
X83685Y64435D1*
X83674Y64752D1*
X83756Y65057D1*
X83923Y65326D1*
X84162Y65534D1*
X84450Y65663D1*
X84764Y65703D1*
X85027Y65657D1*
X85023Y67766D1*
X84771Y67499D1*
X84491Y67352D1*
X84179Y67297D1*
X83866Y67340D1*
X83581Y67477D1*
X83351Y67694D1*
X83198Y67971D1*
X83138Y68281D1*
X83175Y68596D1*
X83306Y68883D1*
X83519Y69117D1*
X83793Y69275D1*
X84102Y69341D1*
X84417Y69310D1*
X84707Y69184D1*
X84945Y68976D1*
X85021Y68849D1*
X85023Y73025D1*
X84799Y72693D1*
X84582Y72462D1*
X84336Y72262D1*
X84064Y72098D1*
X83773Y71972D1*
X83467Y71887D1*
X83153Y71844D1*
X82836Y71845D1*
X82522Y71889D1*
X82216Y71976D1*
X81926Y72103D1*
X81655Y72269D1*
X81410Y72470D1*
X81194Y72702D1*
X81078Y72847D1*
Y70990D1*
X80922Y70722D1*
X80760Y70672D1*
X41260D1*
X40992Y70828D1*
X40943Y70990D1*
Y76060D1*
X32460Y76049D1*
X32545Y75798D1*
X32588Y75440D1*
X32555Y75125D1*
X32457Y74823D1*
X32300Y74548D1*
X32088Y74312D1*
X31833Y74125D1*
X31544Y73994D1*
X31234Y73927D1*
X30917Y73924D1*
X30607Y73988D1*
X30316Y74114D1*
X30058Y74298D1*
X29798Y74607D1*
X29548Y74312D1*
X29293Y74125D1*
X29004Y73994D1*
X28694Y73927D1*
X28377Y73924D1*
X28067Y73988D1*
X27776Y74114D1*
X27518Y74298D1*
X27258Y74607D1*
X27008Y74312D1*
X26753Y74125D1*
X26464Y73994D1*
X26154Y73927D1*
X25837Y73924D1*
X25527Y73988D1*
X25236Y74114D1*
X24978Y74298D1*
X24718Y74607D1*
X24468Y74312D1*
X24213Y74125D1*
X23924Y73994D1*
X23614Y73927D1*
X23297Y73924D1*
X22987Y73988D1*
X22696Y74114D1*
X22438Y74298D1*
X22223Y74531D1*
X22062Y74803D1*
X21960Y75103D1*
X21922Y75418D1*
X21951Y75734D1*
X22041Y76027D1*
X19670Y76031D1*
X13565Y76023D1*
X12849Y75928D1*
X12244Y75678D1*
X11723Y75278D1*
X11323Y74758D1*
X11072Y74151D1*
X10977Y73429D1*
X10978Y13564D1*
X11072Y12849D1*
X11322Y12244D1*
X11722Y11723D1*
X12242Y11323D1*
X12849Y11072D1*
X13571Y10977D1*
X20340Y10978D1*
X20113Y11148D1*
X19898Y11381D1*
X19737Y11653D1*
X19635Y11953D1*
X19597Y12268D1*
X19626Y12584D1*
X19719Y12887D1*
X19873Y13164D1*
X20081Y13403D1*
X20278Y13552D1*
X20113Y13688D1*
X19898Y13921D1*
X19737Y14193D1*
X19635Y14494D1*
X19597Y14808D1*
X19626Y15124D1*
X19719Y15427D1*
X19873Y15704D1*
X20081Y15943D1*
X20333Y16134D1*
X20620Y16269D1*
X20929Y16341D1*
X21246Y16348D1*
X21557Y16289D1*
X21850Y16167D1*
X22111Y15987D1*
X22329Y15757D1*
X22385Y15664D1*
X22621Y15943D1*
X22873Y16134D1*
X23160Y16269D1*
X23469Y16341D1*
X23786Y16348D1*
X24097Y16289D1*
X24390Y16167D1*
X24651Y15987D1*
X24869Y15757D1*
X24925Y15664D1*
X25161Y15943D1*
X25413Y16134D1*
X25700Y16269D1*
X26009Y16341D1*
X26326Y16348D1*
X26637Y16289D1*
X26930Y16167D1*
X27191Y15987D1*
X27409Y15757D1*
X27465Y15664D1*
X27701Y15943D1*
X27953Y16134D1*
X28240Y16269D1*
X28549Y16341D1*
X28866Y16348D1*
X29109Y16302D1*
X30163Y17347D1*
X30437Y17521D1*
X30710Y17573D1*
X32962D1*
X38534Y23142D1*
X38799Y23357D1*
X39073Y23515D1*
X39382Y23581D1*
X39697Y23550D1*
X39987Y23424D1*
X40225Y23216D1*
X40388Y22945D1*
X40463Y22560D1*
X40414Y22248D1*
X40272Y21965D1*
X40051Y21739D1*
X39771Y21592D1*
X39459Y21537D1*
X39156Y21579D1*
X33827Y16253D1*
X33553Y16079D1*
X33280Y16027D1*
X32218D1*
X32489Y15757D1*
X32654Y15486D1*
X32760Y15188D1*
X32803Y14830D1*
X32770Y14515D1*
X32672Y14213D1*
X32515Y13938D1*
X32303Y13702D1*
X32048Y13515D1*
X31759Y13384D1*
X31449Y13317D1*
X31132Y13314D1*
X30822Y13378D1*
X30531Y13504D1*
X30273Y13688D1*
X30013Y13997D1*
X29763Y13702D1*
X29580Y13568D1*
X29731Y13447D1*
X29949Y13217D1*
X30114Y12946D1*
X30220Y12648D1*
X30263Y12290D1*
X30230Y11975D1*
X30132Y11673D1*
X29975Y11398D1*
X29763Y11162D1*
X29516Y10981D1*
X56932Y10978D1*
X56598Y11266D1*
X56415Y11525D1*
X56288Y11815D1*
X56222Y12125D1*
X56219Y12442D1*
X56280Y12753D1*
X56402Y13045D1*
X56581Y13307D1*
X56808Y13528D1*
X57075Y13699D1*
X57371Y13813D1*
X57683Y13865D1*
X58000Y13853D1*
X58308Y13778D1*
X58595Y13642D1*
X58848Y13452D1*
X59058Y13215D1*
X59217Y12940D1*
X59316Y12639D1*
X59354Y12297D1*
X59322Y11982D1*
X59227Y11679D1*
X59074Y11402D1*
X58868Y11161D1*
X58626Y10972D1*
X61912Y10978D1*
X61687Y11266D1*
X61585Y11565D1*
X61574Y11882D1*
X61656Y12187D1*
X61823Y12456D1*
X62062Y12664D1*
X62350Y12793D1*
X62664Y12833D1*
X62976Y12779D1*
X63258Y12637D1*
X63487Y12418D1*
X63642Y12143D1*
X63713Y11760D1*
X63666Y11447D1*
X63530Y11161D1*
X63364Y10979D1*
X65623Y10978D1*
X65555Y11183D1*
X65517Y11498D1*
X65546Y11814D1*
X65639Y12117D1*
X65793Y12394D1*
X66001Y12633D1*
X66253Y12824D1*
X66540Y12959D1*
X66849Y13031D1*
X67166Y13038D1*
X67477Y12979D1*
X67770Y12857D1*
X68031Y12677D1*
X68249Y12447D1*
X68305Y12354D1*
X68541Y12633D1*
X68793Y12824D1*
X69080Y12959D1*
X69389Y13031D1*
X69706Y13038D1*
X70017Y12979D1*
X70310Y12857D1*
X70571Y12677D1*
X70789Y12447D1*
X70845Y12354D1*
X71081Y12633D1*
X71333Y12824D1*
X71620Y12959D1*
X71929Y13031D1*
X72246Y13038D1*
X72557Y12979D1*
X72850Y12857D1*
X73111Y12677D1*
X73329Y12447D1*
X73494Y12176D1*
X73600Y11878D1*
X73643Y11520D1*
X73610Y11205D1*
X49358Y14847D2*
X49228Y14558D1*
X49022Y14318D1*
X48758Y14144D1*
X48455Y14051D1*
X48139Y14046D1*
X47834Y14129D1*
X47564Y14295D1*
X47351Y14529D1*
X47212Y14813D1*
X47157Y15125D1*
X47192Y15439D1*
X47313Y15732D1*
X47511Y15979D1*
X47770Y16161D1*
X48069Y16263D1*
X48385Y16278D1*
X48693Y16204D1*
X48968Y16047D1*
X49188Y15820D1*
X49336Y15540D1*
X49402Y15160D1*
X49358Y14847D1*
X44958D2*
X44828Y14558D1*
X44622Y14318D1*
X44358Y14144D1*
X44055Y14051D1*
X43739Y14046D1*
X43434Y14129D1*
X43164Y14295D1*
X42951Y14529D1*
X42812Y14813D1*
X42757Y15125D1*
X42792Y15439D1*
X42913Y15732D1*
X43111Y15979D1*
X43370Y16161D1*
X43669Y16263D1*
X43985Y16278D1*
X44293Y16204D1*
X44568Y16047D1*
X44788Y15820D1*
X44936Y15540D1*
X45002Y15160D1*
X44958Y14847D1*
X59322Y18982D2*
X59227Y18679D1*
X59074Y18402D1*
X58868Y18161D1*
X58618Y17966D1*
X58334Y17826D1*
X58027Y17745D1*
X57711Y17728D1*
X57397Y17774D1*
X57099Y17883D1*
X56829Y18049D1*
X56598Y18266D1*
X56415Y18525D1*
X56288Y18815D1*
X56222Y19125D1*
X56219Y19442D1*
X56280Y19753D1*
X56402Y20045D1*
X56581Y20307D1*
X56808Y20528D1*
X57075Y20699D1*
X57371Y20813D1*
X57683Y20865D1*
X58048Y20841D1*
X57905Y21202D1*
X57894Y21519D1*
X57976Y21824D1*
X58143Y22093D1*
X58359Y22281D1*
X58155Y22359D1*
X57903Y22550D1*
X57717Y22806D1*
X57615Y23105D1*
X57604Y23422D1*
X57686Y23727D1*
X57853Y23996D1*
X58092Y24204D1*
X58380Y24333D1*
X58694Y24373D1*
X59006Y24319D1*
X59288Y24177D1*
X59517Y23958D1*
X59672Y23683D1*
X59743Y23300D1*
X59696Y22987D1*
X59560Y22701D1*
X59347Y22468D1*
X59271Y22422D1*
X59578Y22274D1*
X59807Y22055D1*
X59962Y21780D1*
X60033Y21397D1*
X59986Y21084D1*
X59850Y20798D1*
X59637Y20565D1*
X59365Y20403D1*
X59058Y20329D1*
X58969Y20334D1*
X59217Y19940D1*
X59316Y19639D1*
X59354Y19297D1*
X59322Y18982D1*
X20120Y72995D2*
X20017Y72696D1*
X19850Y72426D1*
X19629Y72199D1*
X19363Y72027D1*
X19066Y71917D1*
X18751Y71875D1*
X18436Y71904D1*
X18134Y72000D1*
X17861Y72161D1*
X17630Y72377D1*
X17451Y72639D1*
X17335Y72934D1*
X17286Y73247D1*
X17308Y73563D1*
X17398Y73867D1*
X17552Y74144D1*
X17764Y74380D1*
X18022Y74564D1*
X18314Y74686D1*
X18626Y74742D1*
X18942Y74728D1*
X19248Y74644D1*
X19528Y74496D1*
X19768Y74290D1*
X19958Y74036D1*
X20087Y73746D1*
X20155Y73310D1*
X20120Y72995D1*
X73854Y40738D2*
X73712Y40455D1*
X73491Y40229D1*
X73211Y40082D1*
X72899Y40027D1*
X72586Y40070D1*
X72301Y40207D1*
X72071Y40424D1*
X71918Y40701D1*
X71858Y41011D1*
X71895Y41326D1*
X72026Y41613D1*
X72239Y41847D1*
X72513Y42005D1*
X72822Y42071D1*
X73137Y42040D1*
X73427Y41914D1*
X73665Y41706D1*
X73828Y41435D1*
X73903Y41050D1*
X73854Y40738D1*
X45294Y23688D2*
X45152Y23405D1*
X44931Y23179D1*
X44651Y23032D1*
X44339Y22977D1*
X44026Y23020D1*
X43741Y23157D1*
X43511Y23374D1*
X43358Y23651D1*
X43298Y23961D1*
X43335Y24276D1*
X43466Y24563D1*
X43679Y24797D1*
X43953Y24955D1*
X44262Y25021D1*
X44577Y24990D1*
X44867Y24864D1*
X45105Y24656D1*
X45268Y24385D1*
X45343Y24000D1*
X45294Y23688D1*
X70414Y23128D2*
X70272Y22845D1*
X70051Y22619D1*
X69771Y22472D1*
X69459Y22417D1*
X69146Y22460D1*
X68861Y22597D1*
X68631Y22814D1*
X68478Y23091D1*
X68418Y23401D1*
X68455Y23716D1*
X68549Y23922D1*
X68391Y24094D1*
X68238Y24371D1*
X68178Y24681D1*
X68215Y24996D1*
X68346Y25283D1*
X68559Y25517D1*
X68833Y25675D1*
X69142Y25741D1*
X69457Y25710D1*
X69747Y25584D1*
X69985Y25376D1*
X70148Y25105D1*
X70223Y24720D1*
X70174Y24408D1*
X70090Y24240D1*
X70225Y24096D1*
X70388Y23825D1*
X70463Y23440D1*
X70414Y23128D1*
X38712Y23262D2*
X38799Y23357D1*
X39073Y23515D1*
X39382Y23581D1*
X39697Y23550D1*
X39987Y23424D1*
X40225Y23216D1*
X40388Y22945D1*
X40463Y22560D1*
X40414Y22248D1*
X40272Y21965D1*
X40051Y21739D1*
X39771Y21592D1*
X39459Y21537D1*
X39156Y21579D1*
X80334Y55448D2*
X80192Y55165D1*
X79971Y54939D1*
X79691Y54792D1*
X79379Y54737D1*
X79066Y54780D1*
X78781Y54917D1*
X78551Y55134D1*
X78398Y55411D1*
X78338Y55721D1*
X78375Y56036D1*
X78412Y56116D1*
X78123Y56320D1*
X77937Y56576D1*
X77835Y56875D1*
X77824Y57192D1*
X77906Y57497D1*
X78073Y57766D1*
X78312Y57974D1*
X78600Y58103D1*
X78914Y58143D1*
X79226Y58089D1*
X79508Y57947D1*
X79737Y57728D1*
X79892Y57453D1*
X79963Y57070D1*
X79916Y56757D1*
X79861Y56641D1*
X80145Y56416D1*
X80308Y56145D1*
X80383Y55760D1*
X80334Y55448D1*
X84334Y30888D2*
X84192Y30605D1*
X83971Y30379D1*
X83691Y30232D1*
X83379Y30177D1*
X83066Y30220D1*
X82781Y30357D1*
X82551Y30574D1*
X82398Y30851D1*
X82338Y31161D1*
X82375Y31476D1*
X82506Y31763D1*
X82719Y31997D1*
X82993Y32155D1*
X83302Y32221D1*
X83617Y32190D1*
X83907Y32064D1*
X84145Y31856D1*
X84308Y31585D1*
X84383Y31200D1*
X84334Y30888D1*
X29694Y28008D2*
X29552Y27725D1*
X29331Y27499D1*
X29051Y27352D1*
X28739Y27297D1*
X28426Y27340D1*
X28141Y27477D1*
X27911Y27694D1*
X27758Y27971D1*
X27698Y28281D1*
X27735Y28596D1*
X27866Y28883D1*
X28079Y29117D1*
X28353Y29275D1*
X28662Y29341D1*
X28977Y29310D1*
X29267Y29184D1*
X29505Y28976D1*
X29668Y28705D1*
X29743Y28320D1*
X29694Y28008D1*
X35232Y42303D2*
X36899D1*
X36938Y42332D1*
X36603Y42570D1*
X36417Y42826D1*
X36315Y43125D1*
X36306Y43372D1*
X35235Y42302D1*
X66942Y50381D2*
X66811Y50312D1*
X66499Y50257D1*
X66186Y50300D1*
X65901Y50437D1*
X65671Y50654D1*
X65518Y50931D1*
X65458Y51241D1*
X65495Y51556D1*
X65626Y51843D1*
X65839Y52077D1*
X66113Y52235D1*
X66422Y52301D1*
X66737Y52270D1*
X66945Y52180D1*
X67073Y52235D1*
X67382Y52301D1*
X67697Y52270D1*
X67987Y52144D1*
X68143Y52008D1*
X68273Y52075D1*
X68582Y52141D1*
X68897Y52110D1*
X69160Y51996D1*
X69313Y52075D1*
X69622Y52141D1*
X69937Y52110D1*
X70227Y51984D1*
X70465Y51776D1*
X70628Y51505D1*
X70703Y51120D1*
X70654Y50808D1*
X70512Y50525D1*
X70291Y50299D1*
X70011Y50152D1*
X69699Y50097D1*
X69386Y50140D1*
X69163Y50247D1*
X68971Y50152D1*
X68659Y50097D1*
X68346Y50140D1*
X68061Y50277D1*
X67939Y50392D1*
X67771Y50312D1*
X67459Y50257D1*
X67146Y50300D1*
X66977Y50381D1*
X64704Y33908D2*
X64562Y33625D1*
X64341Y33399D1*
X64061Y33252D1*
X63749Y33197D1*
X63436Y33240D1*
X63151Y33377D1*
X62921Y33594D1*
X62768Y33871D1*
X62708Y34181D1*
X62745Y34496D1*
X62823Y34666D1*
X62717Y34816D1*
X62615Y35115D1*
X62604Y35432D1*
X62686Y35737D1*
X62853Y36006D1*
X63092Y36214D1*
X63380Y36343D1*
X63694Y36383D1*
X64006Y36329D1*
X64288Y36187D1*
X64517Y35968D1*
X64672Y35693D1*
X64743Y35310D1*
X64696Y34997D1*
X64590Y34774D1*
X64678Y34605D1*
X64753Y34220D1*
X64704Y33908D1*
X58674Y34938D2*
X58532Y34655D1*
X58311Y34429D1*
X58031Y34282D1*
X57719Y34227D1*
X57406Y34270D1*
X57121Y34407D1*
X56891Y34624D1*
X56738Y34901D1*
X56678Y35211D1*
X56715Y35526D1*
X56846Y35813D1*
X57059Y36047D1*
X57333Y36205D1*
X57642Y36271D1*
X57957Y36240D1*
X58247Y36114D1*
X58485Y35906D1*
X58648Y35635D1*
X58723Y35250D1*
X58674Y34938D1*
X68556Y23938D2*
X68391Y24094D1*
X68238Y24371D1*
X68178Y24681D1*
X68215Y24996D1*
X68346Y25283D1*
X68559Y25517D1*
X68833Y25675D1*
X69142Y25741D1*
X69457Y25710D1*
X69747Y25584D1*
X69985Y25376D1*
X70148Y25105D1*
X70223Y24720D1*
X70174Y24408D1*
X70090Y24240D1*
X30466Y26007D2*
X30330Y25721D1*
X30117Y25488D1*
X29845Y25326D1*
X29538Y25252D1*
X29222Y25270D1*
X28925Y25379D1*
X28673Y25570D1*
X28487Y25826D1*
X28385Y26125D1*
X28374Y26442D1*
X28456Y26747D1*
X28623Y27016D1*
X28862Y27224D1*
X29150Y27353D1*
X29464Y27393D1*
X29776Y27339D1*
X30058Y27197D1*
X30287Y26978D1*
X30442Y26703D1*
X30513Y26320D1*
X30466Y26007D1*
X25426Y45767D2*
X25290Y45481D1*
X25077Y45248D1*
X24805Y45086D1*
X24498Y45012D1*
X24182Y45030D1*
X23885Y45139D1*
X23633Y45330D1*
X23447Y45586D1*
X23345Y45885D1*
X23334Y46202D1*
X23416Y46507D1*
X23583Y46776D1*
X23822Y46984D1*
X24110Y47113D1*
X24424Y47153D1*
X24736Y47099D1*
X25018Y46957D1*
X25247Y46738D1*
X25402Y46463D1*
X25473Y46080D1*
X25426Y45767D1*
X22706Y51847D2*
X22570Y51561D1*
X22357Y51328D1*
X22085Y51166D1*
X21778Y51092D1*
X21462Y51110D1*
X21165Y51219D1*
X20913Y51410D1*
X20727Y51666D1*
X20625Y51965D1*
X20614Y52282D1*
X20696Y52587D1*
X20863Y52856D1*
X21102Y53064D1*
X21390Y53193D1*
X21704Y53233D1*
X22016Y53179D1*
X22298Y53037D1*
X22527Y52818D1*
X22682Y52543D1*
X22753Y52160D1*
X22706Y51847D1*
X45026Y19687D2*
X44890Y19401D1*
X44677Y19168D1*
X44405Y19006D1*
X44098Y18932D1*
X43782Y18950D1*
X43485Y19059D1*
X43233Y19250D1*
X43047Y19506D1*
X42945Y19805D1*
X42934Y20122D1*
X43016Y20427D1*
X43183Y20696D1*
X43422Y20904D1*
X43710Y21033D1*
X44024Y21073D1*
X44336Y21019D1*
X44618Y20877D1*
X44847Y20658D1*
X45002Y20383D1*
X45073Y20000D1*
X45026Y19687D1*
X51556Y19127D2*
X51420Y18841D1*
X51207Y18608D1*
X50935Y18446D1*
X50628Y18372D1*
X50312Y18390D1*
X50015Y18499D1*
X49763Y18690D1*
X49577Y18946D1*
X49475Y19245D1*
X49464Y19562D1*
X49546Y19867D1*
X49713Y20136D1*
X49952Y20344D1*
X50240Y20473D1*
X50554Y20513D1*
X50866Y20459D1*
X51148Y20317D1*
X51377Y20098D1*
X51532Y19823D1*
X51603Y19440D1*
X51556Y19127D1*
X76066Y23777D2*
X75930Y23491D1*
X75717Y23258D1*
X75445Y23096D1*
X75138Y23022D1*
X74822Y23040D1*
X74525Y23149D1*
X74273Y23340D1*
X74087Y23596D1*
X73985Y23895D1*
X73974Y24212D1*
X74056Y24517D1*
X74223Y24786D1*
X74462Y24994D1*
X74750Y25123D1*
X75064Y25163D1*
X75376Y25109D1*
X75658Y24967D1*
X75887Y24748D1*
X76042Y24473D1*
X76113Y24090D1*
X76066Y23777D1*
X66466Y32007D2*
X66330Y31721D1*
X66117Y31488D1*
X65845Y31326D1*
X65538Y31252D1*
X65222Y31270D1*
X64925Y31379D1*
X64673Y31570D1*
X64487Y31826D1*
X64385Y32125D1*
X64374Y32442D1*
X64456Y32747D1*
X64623Y33016D1*
X64862Y33224D1*
X65150Y33353D1*
X65464Y33393D1*
X65776Y33339D1*
X66058Y33197D1*
X66287Y32978D1*
X66442Y32703D1*
X66513Y32320D1*
X66466Y32007D1*
X53456Y23047D2*
X53320Y22761D1*
X53107Y22528D1*
X52835Y22366D1*
X52528Y22292D1*
X52212Y22310D1*
X51915Y22419D1*
X51663Y22610D1*
X51477Y22866D1*
X51375Y23165D1*
X51364Y23482D1*
X51446Y23787D1*
X51613Y24056D1*
X51852Y24264D1*
X52140Y24393D1*
X52454Y24433D1*
X52766Y24379D1*
X53048Y24237D1*
X53277Y24018D1*
X53432Y23743D1*
X53503Y23360D1*
X53456Y23047D1*
X68686Y40857D2*
X68550Y40571D1*
X68337Y40338D1*
X68065Y40176D1*
X67758Y40102D1*
X67442Y40120D1*
X67145Y40229D1*
X66893Y40420D1*
X66707Y40676D1*
X66605Y40975D1*
X66594Y41292D1*
X66676Y41597D1*
X66843Y41866D1*
X67082Y42074D1*
X67370Y42203D1*
X67684Y42243D1*
X67996Y42189D1*
X68278Y42047D1*
X68507Y41828D1*
X68662Y41553D1*
X68733Y41170D1*
X68686Y40857D1*
X64786Y50887D2*
X64650Y50601D1*
X64437Y50368D1*
X64165Y50206D1*
X63858Y50132D1*
X63542Y50150D1*
X63245Y50259D1*
X62993Y50450D1*
X62807Y50706D1*
X62705Y51005D1*
X62694Y51322D1*
X62776Y51627D1*
X62943Y51896D1*
X63182Y52104D1*
X63470Y52233D1*
X63784Y52273D1*
X64096Y52219D1*
X64378Y52077D1*
X64607Y51858D1*
X64762Y51583D1*
X64833Y51200D1*
X64786Y50887D1*
X69476Y53397D2*
X69340Y53111D1*
X69127Y52878D1*
X68855Y52716D1*
X68548Y52642D1*
X68232Y52660D1*
X67935Y52769D1*
X67683Y52960D1*
X67497Y53216D1*
X67395Y53515D1*
X67384Y53832D1*
X67466Y54137D1*
X67633Y54406D1*
X67872Y54614D1*
X68160Y54743D1*
X68474Y54783D1*
X68786Y54729D1*
X69068Y54587D1*
X69297Y54368D1*
X69452Y54093D1*
X69523Y53710D1*
X69476Y53397D1*
X48486Y52657D2*
X48350Y52371D1*
X48137Y52138D1*
X47865Y51976D1*
X47558Y51902D1*
X47242Y51920D1*
X46945Y52029D1*
X46693Y52220D1*
X46507Y52476D1*
X46405Y52775D1*
X46394Y53092D1*
X46476Y53397D1*
X46643Y53666D1*
X46882Y53874D1*
X47170Y54003D1*
X47484Y54043D1*
X47796Y53989D1*
X48078Y53847D1*
X48307Y53628D1*
X48462Y53353D1*
X48533Y52970D1*
X48486Y52657D1*
X81826Y40437D2*
X81690Y40151D1*
X81477Y39918D1*
X81205Y39756D1*
X80898Y39682D1*
X80582Y39700D1*
X80285Y39809D1*
X80033Y40000D1*
X79847Y40256D1*
X79745Y40555D1*
X79734Y40872D1*
X79816Y41177D1*
X79983Y41446D1*
X80222Y41654D1*
X80510Y41783D1*
X80824Y41823D1*
X81136Y41769D1*
X81418Y41627D1*
X81647Y41408D1*
X81802Y41133D1*
X81873Y40750D1*
X81826Y40437D1*
X77976Y35147D2*
X77840Y34861D1*
X77627Y34628D1*
X77355Y34466D1*
X77048Y34392D1*
X76732Y34410D1*
X76435Y34519D1*
X76183Y34710D1*
X75997Y34966D1*
X75895Y35265D1*
X75884Y35582D1*
X75966Y35887D1*
X76133Y36156D1*
X76372Y36364D1*
X76660Y36493D1*
X76974Y36533D1*
X77286Y36479D1*
X77568Y36337D1*
X77797Y36118D1*
X77952Y35843D1*
X78023Y35460D1*
X77976Y35147D1*
X34226Y33927D2*
X34090Y33641D1*
X33877Y33408D1*
X33605Y33246D1*
X33298Y33172D1*
X32982Y33190D1*
X32685Y33299D1*
X32433Y33490D1*
X32247Y33746D1*
X32145Y34045D1*
X32134Y34362D1*
X32216Y34667D1*
X32383Y34936D1*
X32622Y35144D1*
X32910Y35273D1*
X33224Y35313D1*
X33536Y35259D1*
X33818Y35117D1*
X34047Y34898D1*
X34202Y34623D1*
X34273Y34240D1*
X34226Y33927D1*
X79826Y28007D2*
X79690Y27721D1*
X79477Y27488D1*
X79205Y27326D1*
X78898Y27252D1*
X78582Y27270D1*
X78285Y27379D1*
X78033Y27570D1*
X77847Y27826D1*
X77745Y28125D1*
X77734Y28442D1*
X77816Y28747D1*
X77983Y29016D1*
X78222Y29224D1*
X78510Y29353D1*
X78824Y29393D1*
X79136Y29339D1*
X79418Y29197D1*
X79647Y28978D1*
X79802Y28703D1*
X79873Y28320D1*
X79826Y28007D1*
X32226Y29396D2*
X32090Y29111D1*
X31877Y28877D1*
X31605Y28716D1*
X31298Y28641D1*
X30982Y28659D1*
X30685Y28768D1*
X30433Y28959D1*
X30247Y29215D1*
X30145Y29515D1*
X30134Y29831D1*
X30216Y30136D1*
X30383Y30405D1*
X30622Y30613D1*
X30910Y30742D1*
X31224Y30782D1*
X31536Y30728D1*
X31818Y30586D1*
X32047Y30367D1*
X32202Y30092D1*
X32273Y29709D1*
X32226Y29396D1*
X73826Y26087D2*
X73690Y25801D1*
X73477Y25568D1*
X73205Y25406D1*
X72898Y25332D1*
X72582Y25350D1*
X72285Y25459D1*
X72033Y25650D1*
X71847Y25906D1*
X71745Y26205D1*
X71734Y26522D1*
X71816Y26827D1*
X71983Y27096D1*
X72222Y27304D1*
X72510Y27433D1*
X72824Y27473D1*
X73136Y27419D1*
X73418Y27277D1*
X73647Y27058D1*
X73802Y26783D1*
X73873Y26400D1*
X73826Y26087D1*
X34386Y60167D2*
X34250Y59881D1*
X34037Y59648D1*
X33765Y59486D1*
X33458Y59412D1*
X33142Y59430D1*
X32845Y59539D1*
X32593Y59730D1*
X32407Y59986D1*
X32305Y60285D1*
X32294Y60602D1*
X32376Y60907D1*
X32543Y61176D1*
X32782Y61384D1*
X33070Y61513D1*
X33384Y61553D1*
X33696Y61499D1*
X33978Y61357D1*
X34207Y61138D1*
X34362Y60863D1*
X34433Y60480D1*
X34386Y60167D1*
X30226Y51687D2*
X30090Y51401D1*
X29877Y51168D1*
X29605Y51006D1*
X29298Y50932D1*
X28982Y50950D1*
X28685Y51059D1*
X28433Y51250D1*
X28247Y51506D1*
X28145Y51805D1*
X28134Y52122D1*
X28216Y52427D1*
X28383Y52696D1*
X28622Y52904D1*
X28910Y53033D1*
X29224Y53073D1*
X29536Y53019D1*
X29818Y52877D1*
X30047Y52658D1*
X30202Y52383D1*
X30273Y52000D1*
X30226Y51687D1*
X21186Y46157D2*
X21050Y45871D1*
X20837Y45638D1*
X20565Y45476D1*
X20258Y45402D1*
X19942Y45420D1*
X19645Y45529D1*
X19393Y45720D1*
X19207Y45976D1*
X19105Y46275D1*
X19094Y46592D1*
X19176Y46897D1*
X19343Y47166D1*
X19582Y47374D1*
X19870Y47503D1*
X20184Y47543D1*
X20496Y47489D1*
X20778Y47347D1*
X21007Y47128D1*
X21162Y46853D1*
X21233Y46470D1*
X21186Y46157D1*
X28066Y66807D2*
X27930Y66521D1*
X27717Y66288D1*
X27445Y66126D1*
X27138Y66052D1*
X26822Y66070D1*
X26525Y66179D1*
X26273Y66370D1*
X26087Y66626D1*
X25985Y66925D1*
X25974Y67242D1*
X26056Y67547D1*
X26223Y67816D1*
X26462Y68024D1*
X26750Y68153D1*
X27064Y68193D1*
X27376Y68139D1*
X27658Y67997D1*
X27887Y67778D1*
X28042Y67503D1*
X28113Y67120D1*
X28066Y66807D1*
X21896Y17157D2*
X21760Y16871D1*
X21547Y16638D1*
X21275Y16476D1*
X20968Y16402D1*
X20652Y16420D1*
X20355Y16529D1*
X20103Y16720D1*
X19917Y16976D1*
X19815Y17275D1*
X19804Y17592D1*
X19886Y17897D1*
X20053Y18166D1*
X20292Y18374D1*
X20580Y18503D1*
X20894Y18543D1*
X21206Y18489D1*
X21488Y18347D1*
X21717Y18128D1*
X21872Y17853D1*
X21943Y17470D1*
X21896Y17157D1*
X32226Y29396D2*
X32090Y29111D1*
X31877Y28877D1*
X31605Y28716D1*
X31298Y28641D1*
X30982Y28659D1*
X30685Y28768D1*
X30433Y28959D1*
X30247Y29215D1*
X30145Y29515D1*
X30134Y29831D1*
X30216Y30136D1*
X30383Y30405D1*
X30622Y30613D1*
X30910Y30742D1*
X31224Y30782D1*
X31536Y30728D1*
X31818Y30586D1*
X32047Y30367D1*
X32202Y30092D1*
X32273Y29709D1*
X32226Y29396D1*
X78966Y69077D2*
X78830Y68791D1*
X78617Y68558D1*
X78345Y68396D1*
X78038Y68322D1*
X77722Y68340D1*
X77425Y68449D1*
X77173Y68640D1*
X76987Y68896D1*
X76885Y69195D1*
X76874Y69512D1*
X76956Y69817D1*
X77123Y70086D1*
X77362Y70294D1*
X77650Y70423D1*
X77964Y70463D1*
X78276Y70409D1*
X78558Y70267D1*
X78787Y70048D1*
X78942Y69773D1*
X79013Y69390D1*
X78966Y69077D1*
X76246Y56757D2*
X76110Y56471D1*
X75897Y56238D1*
X75625Y56076D1*
X75318Y56002D1*
X75002Y56020D1*
X74705Y56129D1*
X74453Y56320D1*
X74267Y56576D1*
X74165Y56875D1*
X74154Y57192D1*
X74236Y57497D1*
X74403Y57766D1*
X74642Y57974D1*
X74930Y58103D1*
X75244Y58143D1*
X75556Y58089D1*
X75838Y57947D1*
X76067Y57728D1*
X76222Y57453D1*
X76293Y57070D1*
X76246Y56757D1*
X83436Y56647D2*
X83300Y56361D1*
X83087Y56128D1*
X82815Y55966D1*
X82508Y55892D1*
X82192Y55910D1*
X81895Y56019D1*
X81643Y56210D1*
X81457Y56466D1*
X81355Y56765D1*
X81344Y57082D1*
X81426Y57387D1*
X81593Y57656D1*
X81832Y57864D1*
X82120Y57993D1*
X82434Y58033D1*
X82746Y57979D1*
X83028Y57837D1*
X83257Y57618D1*
X83412Y57343D1*
X83483Y56960D1*
X83436Y56647D1*
X77766Y40537D2*
X77630Y40251D1*
X77417Y40018D1*
X77145Y39856D1*
X76838Y39782D1*
X76522Y39800D1*
X76225Y39909D1*
X75973Y40100D1*
X75787Y40356D1*
X75685Y40655D1*
X75674Y40972D1*
X75756Y41277D1*
X75923Y41546D1*
X76162Y41754D1*
X76450Y41883D1*
X76764Y41923D1*
X77076Y41869D1*
X77358Y41727D1*
X77587Y41508D1*
X77742Y41233D1*
X77813Y40850D1*
X77766Y40537D1*
X57206Y37177D2*
X57070Y36891D1*
X56857Y36658D1*
X56585Y36496D1*
X56278Y36422D1*
X55962Y36440D1*
X55665Y36549D1*
X55413Y36740D1*
X55227Y36996D1*
X55125Y37295D1*
X55114Y37612D1*
X55196Y37917D1*
X55363Y38186D1*
X55602Y38394D1*
X55890Y38523D1*
X56204Y38563D1*
X56516Y38509D1*
X56798Y38367D1*
X57027Y38148D1*
X57182Y37873D1*
X57253Y37490D1*
X57206Y37177D1*
X78636Y50957D2*
X78500Y50671D1*
X78287Y50438D1*
X78015Y50276D1*
X77708Y50202D1*
X77392Y50220D1*
X77095Y50329D1*
X76843Y50520D1*
X76657Y50776D1*
X76555Y51075D1*
X76544Y51392D1*
X76626Y51697D1*
X76793Y51966D1*
X77032Y52174D1*
X77320Y52303D1*
X77634Y52343D1*
X77946Y52289D1*
X78228Y52147D1*
X78457Y51928D1*
X78612Y51653D1*
X78683Y51270D1*
X78636Y50957D1*
X37586Y56767D2*
X37450Y56481D1*
X37237Y56248D1*
X36965Y56086D1*
X36658Y56012D1*
X36342Y56030D1*
X36045Y56139D1*
X35793Y56330D1*
X35607Y56586D1*
X35505Y56885D1*
X35494Y57202D1*
X35576Y57507D1*
X35743Y57776D1*
X35982Y57984D1*
X36270Y58113D1*
X36584Y58153D1*
X36896Y58099D1*
X37178Y57957D1*
X37407Y57738D1*
X37562Y57463D1*
X37633Y57080D1*
X37586Y56767D1*
X61996Y34577D2*
X61860Y34291D1*
X61647Y34058D1*
X61375Y33896D1*
X61068Y33822D1*
X60752Y33840D1*
X60455Y33949D1*
X60203Y34140D1*
X60017Y34396D1*
X59915Y34695D1*
X59904Y35012D1*
X59986Y35317D1*
X60153Y35586D1*
X60392Y35794D1*
X60680Y35923D1*
X60994Y35963D1*
X61306Y35909D1*
X61588Y35767D1*
X61817Y35548D1*
X61972Y35273D1*
X62043Y34890D1*
X61996Y34577D1*
X58898Y52570D2*
X59100Y52745D1*
X59388Y52875D1*
X59702Y52914D1*
X60014Y52861D1*
X60296Y52719D1*
X60525Y52500D1*
X60680Y52224D1*
X60751Y51842D1*
X60704Y51529D1*
X60568Y51243D1*
X60355Y51010D1*
X60083Y50848D1*
X59824Y50785D1*
X59690Y50521D1*
X59477Y50288D1*
X59205Y50126D1*
X58898Y50052D1*
X58582Y50070D1*
X58285Y50179D1*
X58033Y50370D1*
X57847Y50626D1*
X57744Y50955D1*
X57637Y50818D1*
X57792Y50543D1*
X57863Y50160D1*
X57816Y49847D1*
X57680Y49561D1*
X57467Y49328D1*
X57195Y49166D1*
X56888Y49092D1*
X56572Y49110D1*
X56275Y49219D1*
X56023Y49410D1*
X55837Y49666D1*
X55735Y49965D1*
X55724Y50282D1*
X55806Y50587D1*
X55973Y50856D1*
X56212Y51064D1*
X56500Y51193D1*
X56814Y51233D1*
X57126Y51179D1*
X57408Y51037D1*
X57637Y50818D1*
X57735Y50967D1*
X57485Y51059D1*
X57233Y51250D1*
X57047Y51506D1*
X56945Y51805D1*
X56934Y52122D1*
X57016Y52427D1*
X57183Y52696D1*
X57422Y52904D1*
X57710Y53033D1*
X58024Y53073D1*
X58336Y53019D1*
X58618Y52877D1*
X58847Y52658D1*
X58891Y52581D1*
X52866Y49817D2*
X52730Y49531D1*
X52517Y49298D1*
X52245Y49136D1*
X51938Y49062D1*
X51622Y49080D1*
X51325Y49189D1*
X51073Y49380D1*
X50887Y49636D1*
X50785Y49935D1*
X50774Y50252D1*
X50856Y50557D1*
X51023Y50826D1*
X51262Y51034D1*
X51550Y51163D1*
X51864Y51203D1*
X52176Y51149D1*
X52458Y51007D1*
X52687Y50788D1*
X52842Y50513D1*
X52913Y50130D1*
X52866Y49817D1*
X47686Y49877D2*
X47550Y49591D1*
X47337Y49358D1*
X47065Y49196D1*
X46758Y49122D1*
X46442Y49140D1*
X46145Y49249D1*
X45893Y49440D1*
X45707Y49696D1*
X45605Y49995D1*
X45594Y50312D1*
X45676Y50617D1*
X45843Y50886D1*
X46082Y51094D1*
X46370Y51223D1*
X46684Y51263D1*
X46996Y51209D1*
X47278Y51067D1*
X47507Y50848D1*
X47662Y50573D1*
X47733Y50190D1*
X47686Y49877D1*
X73524Y23778D2*
X73382Y23495D1*
X73161Y23269D1*
X72881Y23122D1*
X72569Y23067D1*
X72256Y23110D1*
X71971Y23247D1*
X71741Y23464D1*
X71588Y23741D1*
X71528Y24051D1*
X71565Y24366D1*
X71696Y24653D1*
X71909Y24887D1*
X72183Y25045D1*
X72492Y25111D1*
X72807Y25080D1*
X73097Y24954D1*
X73335Y24746D1*
X73498Y24475D1*
X73573Y24090D1*
X73524Y23778D1*
X54606Y30997D2*
X54470Y30711D1*
X54257Y30478D1*
X53985Y30316D1*
X53678Y30242D1*
X53362Y30260D1*
X53065Y30369D1*
X52813Y30560D1*
X52627Y30816D1*
X52525Y31115D1*
X52514Y31432D1*
X52596Y31737D1*
X52763Y32006D1*
X53002Y32214D1*
X53290Y32343D1*
X53604Y32383D1*
X53916Y32329D1*
X54198Y32187D1*
X54427Y31968D1*
X54582Y31693D1*
X54653Y31310D1*
X54606Y30997D1*
X66506Y14857D2*
X66370Y14571D1*
X66157Y14338D1*
X65885Y14176D1*
X65578Y14102D1*
X65262Y14120D1*
X64965Y14229D1*
X64713Y14420D1*
X64527Y14676D1*
X64425Y14975D1*
X64414Y15292D1*
X64496Y15597D1*
X64663Y15866D1*
X64902Y16074D1*
X65190Y16203D1*
X65504Y16243D1*
X65816Y16189D1*
X66098Y16047D1*
X66327Y15828D1*
X66482Y15553D1*
X66553Y15170D1*
X66506Y14857D1*
X55825Y45425D2*
X55814Y45732D1*
X55896Y46037D1*
X56063Y46306D1*
X56302Y46514D1*
X56590Y46643D1*
X56904Y46683D1*
X57216Y46629D1*
X57498Y46487D1*
X57727Y46268D1*
X57882Y45993D1*
X57953Y45610D1*
X57925Y45424D1*
X60736Y30937D2*
X60600Y30651D1*
X60387Y30418D1*
X60115Y30256D1*
X59808Y30182D1*
X59492Y30200D1*
X59195Y30309D1*
X58943Y30500D1*
X58757Y30756D1*
X58655Y31055D1*
X58644Y31372D1*
X58726Y31677D1*
X58893Y31946D1*
X59132Y32154D1*
X59420Y32283D1*
X59734Y32323D1*
X60046Y32269D1*
X60328Y32127D1*
X60557Y31908D1*
X60712Y31633D1*
X60783Y31250D1*
X60736Y30937D1*
X76676Y14067D2*
X76540Y13781D1*
X76327Y13548D1*
X76055Y13386D1*
X75748Y13312D1*
X75432Y13330D1*
X75135Y13439D1*
X74883Y13630D1*
X74697Y13886D1*
X74595Y14185D1*
X74584Y14502D1*
X74666Y14807D1*
X74833Y15076D1*
X75072Y15284D1*
X75360Y15413D1*
X75674Y15453D1*
X75986Y15399D1*
X76268Y15257D1*
X76497Y15038D1*
X76652Y14763D1*
X76723Y14380D1*
X76676Y14067D1*
X24286Y49777D2*
X24150Y49491D1*
X23937Y49258D1*
X23665Y49096D1*
X23358Y49022D1*
X23042Y49040D1*
X22745Y49149D1*
X22493Y49340D1*
X22307Y49596D1*
X22205Y49895D1*
X22194Y50212D1*
X22276Y50517D1*
X22443Y50786D1*
X22682Y50994D1*
X22970Y51123D1*
X23284Y51163D1*
X23596Y51109D1*
X23878Y50967D1*
X24107Y50748D1*
X24262Y50473D1*
X24333Y50090D1*
X24286Y49777D1*
X21468Y54858D2*
X21385Y54889D1*
X21133Y55080D1*
X20947Y55336D1*
X20845Y55635D1*
X20834Y55952D1*
X20916Y56257D1*
X21083Y56526D1*
X21322Y56734D1*
X21610Y56863D1*
X21924Y56903D1*
X22236Y56849D1*
X22351Y56791D1*
X41726Y26577D2*
X41590Y26291D1*
X41377Y26058D1*
X41105Y25896D1*
X40798Y25822D1*
X40482Y25840D1*
X40185Y25949D1*
X39933Y26140D1*
X39747Y26396D1*
X39645Y26695D1*
X39634Y27012D1*
X39716Y27317D1*
X39883Y27586D1*
X40122Y27794D1*
X40410Y27923D1*
X40724Y27963D1*
X41036Y27909D1*
X41318Y27767D1*
X41547Y27548D1*
X41702Y27273D1*
X41773Y26890D1*
X41726Y26577D1*
X35126Y31847D2*
X34990Y31561D1*
X34777Y31328D1*
X34505Y31166D1*
X34198Y31092D1*
X33882Y31110D1*
X33585Y31219D1*
X33333Y31410D1*
X33147Y31666D1*
X33045Y31965D1*
X33034Y32282D1*
X33116Y32587D1*
X33283Y32856D1*
X33522Y33064D1*
X33810Y33193D1*
X34124Y33233D1*
X34436Y33179D1*
X34718Y33037D1*
X34947Y32818D1*
X35102Y32543D1*
X35173Y32160D1*
X35126Y31847D1*
X43934Y31848D2*
X43792Y31565D1*
X43571Y31339D1*
X43291Y31192D1*
X42979Y31137D1*
X42666Y31180D1*
X42381Y31317D1*
X42151Y31534D1*
X41998Y31811D1*
X41938Y32121D1*
X41975Y32436D1*
X42106Y32723D1*
X42319Y32957D1*
X42593Y33115D1*
X42902Y33181D1*
X43217Y33150D1*
X43507Y33024D1*
X43745Y32816D1*
X43908Y32545D1*
X43983Y32160D1*
X43934Y31848D1*
X50490Y35247D2*
X50657Y35230D1*
X50947Y35104D1*
X51185Y34896D1*
X51348Y34625D1*
X51423Y34240D1*
X51374Y33928D1*
X51232Y33645D1*
X51011Y33419D1*
X50731Y33272D1*
X50419Y33217D1*
X50214Y33245D1*
X50051Y33099D1*
X49771Y32952D1*
X49459Y32897D1*
X49146Y32940D1*
X48861Y33077D1*
X48631Y33294D1*
X48588Y33372D1*
X48266Y33420D1*
X48061Y33518D1*
X47821Y33269D1*
X47541Y33122D1*
X47229Y33067D1*
X46916Y33110D1*
X46631Y33247D1*
X46401Y33464D1*
X46248Y33741D1*
X46188Y34051D1*
X46225Y34366D1*
X46356Y34653D1*
X46443Y34748D1*
X46437Y36223D1*
X46210Y36462D1*
X46051Y36299D1*
X45771Y36152D1*
X45459Y36097D1*
X45146Y36140D1*
X44861Y36277D1*
X44631Y36494D1*
X44478Y36771D1*
X44423Y37044D1*
X43764Y37703D1*
X38891Y37707D1*
X39002Y37503D1*
X39073Y37120D1*
X39026Y36807D1*
X38890Y36521D1*
X38677Y36288D1*
X38405Y36126D1*
X38098Y36052D1*
X37782Y36070D1*
X37485Y36179D1*
X37233Y36370D1*
X37047Y36626D1*
X36945Y36925D1*
X36934Y37242D1*
X37016Y37547D1*
X37115Y37707D1*
X25973D1*
X26157Y37528D1*
X26312Y37253D1*
X26383Y36870D1*
X26336Y36557D1*
X26200Y36271D1*
X25987Y36038D1*
X25715Y35876D1*
X25408Y35802D1*
X25092Y35820D1*
X24795Y35929D1*
X24543Y36120D1*
X24357Y36376D1*
X24255Y36675D1*
X24244Y36992D1*
X24326Y37297D1*
X24493Y37566D1*
X24650Y37702D1*
X16547Y37707D1*
X16609Y37531D1*
X16652Y37173D1*
X16619Y36858D1*
X16522Y36556D1*
X16364Y36282D1*
X16153Y36045D1*
X15969Y35911D1*
X16120Y35790D1*
X16338Y35560D1*
X16503Y35290D1*
X16609Y34991D1*
X16652Y34633D1*
X16619Y34318D1*
X16522Y34016D1*
X16364Y33742D1*
X16153Y33505D1*
X15969Y33371D1*
X16120Y33250D1*
X16338Y33020D1*
X16503Y32750D1*
X16609Y32451D1*
X16652Y32093D1*
X16619Y31778D1*
X16555Y31580D1*
X17723Y32737D1*
X17997Y32911D1*
X18270Y32963D1*
X24769D1*
X25073Y33145D1*
X25382Y33211D1*
X25697Y33180D1*
X25987Y33054D1*
X26225Y32846D1*
X26388Y32575D1*
X26463Y32190D1*
X26414Y31878D1*
X26272Y31595D1*
X26051Y31369D1*
X25771Y31222D1*
X25459Y31167D1*
X25146Y31210D1*
X24861Y31347D1*
X24782Y31422D1*
X18584Y31417D1*
X17427Y30253D1*
X17153Y30079D1*
X16880Y30027D1*
X16572D1*
X16651Y29597D1*
X16619Y29238D1*
X16522Y28936D1*
X16364Y28662D1*
X16153Y28425D1*
X15969Y28291D1*
X16120Y28170D1*
X16338Y27940D1*
X16503Y27670D1*
X16609Y27371D1*
X16652Y27013D1*
X16619Y26698D1*
X16522Y26396D1*
X16364Y26122D1*
X16153Y25885D1*
X15969Y25751D1*
X16120Y25630D1*
X16338Y25400D1*
X16436Y25239D1*
X17084Y25246D1*
X17025Y25464D1*
X17014Y25780D1*
X17096Y26085D1*
X17263Y26354D1*
X17502Y26562D1*
X17790Y26691D1*
X18104Y26731D1*
X18416Y26677D1*
X18698Y26535D1*
X18927Y26316D1*
X19082Y26041D1*
X19153Y25658D1*
X19106Y25345D1*
X19060Y25247D1*
X24585Y25246D1*
X24478Y25451D1*
X24418Y25761D1*
X24455Y26076D1*
X24586Y26363D1*
X24799Y26597D1*
X25073Y26755D1*
X25382Y26821D1*
X25697Y26790D1*
X25987Y26664D1*
X26225Y26456D1*
X26388Y26185D1*
X26463Y25800D1*
X26414Y25488D1*
X26294Y25249D1*
X28327Y25246D1*
X28644Y25176D1*
X28873Y25020D1*
X29596Y24297D1*
X29777Y24270D1*
X30067Y24144D1*
X30305Y23936D1*
X30468Y23665D1*
X30543Y23280D1*
X30494Y22968D1*
X30352Y22685D1*
X30276Y22607D1*
X30716Y22613D1*
X38751Y30644D1*
X38747Y31957D1*
X38342Y31970D1*
X38045Y32079D1*
X37793Y32270D1*
X37607Y32526D1*
X37505Y32825D1*
X37494Y33142D1*
X37576Y33447D1*
X37743Y33716D1*
X37982Y33924D1*
X38270Y34053D1*
X38584Y34093D1*
X38750Y34064D1*
X38747Y34378D1*
X38558Y34691D1*
X38498Y35001D1*
X38535Y35316D1*
X38666Y35603D1*
X38879Y35837D1*
X39153Y35995D1*
X39462Y36061D1*
X39777Y36030D1*
X40067Y35904D1*
X40305Y35696D1*
X40468Y35425D1*
X40543Y35040D1*
X40494Y34728D1*
X40352Y34445D1*
X40290Y34382D1*
X40293Y30320D1*
X40223Y30003D1*
X40067Y29773D1*
X34419Y24126D1*
X34625Y23936D1*
X34788Y23665D1*
X34863Y23280D1*
X34814Y22968D1*
X34672Y22685D1*
X34451Y22459D1*
X34171Y22312D1*
X33859Y22257D1*
X33546Y22300D1*
X33261Y22437D1*
X33031Y22654D1*
X33087Y22498D1*
X33242Y22223D1*
X33313Y21840D1*
X33291Y21693D1*
X33423Y21896D1*
X33662Y22104D1*
X33950Y22233D1*
X34264Y22273D1*
X34576Y22219D1*
X34858Y22077D1*
X35087Y21858D1*
X35242Y21583D1*
X35313Y21200D1*
X35266Y20887D1*
X35130Y20601D1*
X34917Y20368D1*
X34645Y20206D1*
X34338Y20132D1*
X34022Y20150D1*
X33725Y20259D1*
X33473Y20450D1*
X33287Y20706D1*
X33185Y21005D1*
X33174Y21312D1*
X32917Y21008D1*
X32645Y20846D1*
X32338Y20772D1*
X32022Y20790D1*
X31725Y20899D1*
X31473Y21090D1*
X31421Y21162D1*
X31243Y21094D1*
X31040Y21067D1*
X16385D1*
X16153Y20805D1*
X15969Y20671D1*
X16120Y20550D1*
X16338Y20320D1*
X16503Y20050D1*
X16609Y19751D1*
X16652Y19425D1*
X17613Y20387D1*
X17887Y20561D1*
X18160Y20613D1*
X29243D1*
X29553Y20795D1*
X29862Y20861D1*
X30177Y20830D1*
X30467Y20704D1*
X30705Y20496D1*
X30868Y20225D1*
X30943Y19840D1*
X30894Y19528D1*
X30752Y19245D1*
X30531Y19019D1*
X30251Y18872D1*
X30085Y18843D1*
X30103Y18650D1*
X30056Y18337D1*
X29920Y18051D1*
X29707Y17818D1*
X29435Y17656D1*
X29128Y17582D1*
X28812Y17600D1*
X28515Y17709D1*
X28263Y17900D1*
X28077Y18156D1*
X27975Y18455D1*
X27964Y18772D1*
X28043Y19068D1*
X18480Y19067D1*
X17027Y17613D1*
X16753Y17439D1*
X16480Y17387D1*
X12589D1*
X12281Y17451D1*
X12023Y17634D1*
X11843Y17963D1*
X11367Y18484D1*
X11206Y18757D1*
X11104Y19057D1*
X11066Y19371D1*
X11095Y19687D1*
X11188Y19990D1*
X11342Y20267D1*
X11550Y20506D1*
X11747Y20655D1*
X11582Y20791D1*
X11367Y21024D1*
X11206Y21297D1*
X11104Y21597D1*
X11066Y21911D1*
X11095Y22227D1*
X11188Y22530D1*
X11342Y22807D1*
X11550Y23046D1*
X11747Y23195D1*
X11582Y23331D1*
X11367Y23564D1*
X11206Y23837D1*
X11104Y24137D1*
X11066Y24451D1*
X11095Y24767D1*
X11188Y25070D1*
X11342Y25347D1*
X11550Y25586D1*
X11747Y25735D1*
X11582Y25871D1*
X11367Y26104D1*
X11206Y26377D1*
X11104Y26677D1*
X11066Y26991D1*
X11095Y27307D1*
X11188Y27610D1*
X11342Y27887D1*
X11550Y28126D1*
X11747Y28275D1*
X11582Y28411D1*
X11367Y28644D1*
X11206Y28917D1*
X11104Y29217D1*
X11066Y29531D1*
X11095Y29847D1*
X11188Y30150D1*
X11342Y30427D1*
X11550Y30666D1*
X11747Y30815D1*
X11582Y30951D1*
X11367Y31184D1*
X11206Y31457D1*
X11104Y31757D1*
X11066Y32071D1*
X11095Y32387D1*
X11188Y32690D1*
X11342Y32967D1*
X11550Y33206D1*
X11747Y33355D1*
X11582Y33491D1*
X11367Y33724D1*
X11206Y33997D1*
X11104Y34297D1*
X11066Y34611D1*
X11095Y34927D1*
X11188Y35230D1*
X11342Y35507D1*
X11550Y35746D1*
X11747Y35895D1*
X11582Y36031D1*
X11367Y36264D1*
X11206Y36537D1*
X11104Y36837D1*
X11066Y37151D1*
X11095Y37467D1*
X11188Y37770D1*
X11342Y38047D1*
X11550Y38286D1*
X11752Y38450D1*
X11582Y38571D1*
X11367Y38804D1*
X11206Y39077D1*
X11104Y39377D1*
X11066Y39691D1*
X11095Y40007D1*
X11188Y40310D1*
X11342Y40587D1*
X11550Y40826D1*
X11752Y40990D1*
X11582Y41111D1*
X11367Y41344D1*
X11206Y41617D1*
X11104Y41917D1*
X11066Y42231D1*
X11095Y42547D1*
X11188Y42850D1*
X11342Y43127D1*
X11550Y43366D1*
X11752Y43530D1*
X11582Y43651D1*
X11367Y43884D1*
X11206Y44157D1*
X11104Y44457D1*
X11066Y44771D1*
X11095Y45087D1*
X11188Y45390D1*
X11342Y45667D1*
X11550Y45906D1*
X11752Y46070D1*
X11582Y46191D1*
X11367Y46424D1*
X11206Y46697D1*
X11104Y46997D1*
X11066Y47311D1*
X11095Y47627D1*
X11188Y47930D1*
X11342Y48207D1*
X11550Y48446D1*
X11752Y48610D1*
X11582Y48731D1*
X11367Y48964D1*
X11206Y49237D1*
X11104Y49537D1*
X11066Y49851D1*
X11095Y50167D1*
X11188Y50470D1*
X11342Y50747D1*
X11550Y50986D1*
X11752Y51150D1*
X11582Y51271D1*
X11367Y51504D1*
X11206Y51777D1*
X11104Y52077D1*
X11066Y52391D1*
X11095Y52707D1*
X11188Y53010D1*
X11342Y53287D1*
X11550Y53526D1*
X11752Y53690D1*
X11582Y53811D1*
X11367Y54044D1*
X11206Y54317D1*
X11104Y54617D1*
X11066Y54931D1*
X11095Y55247D1*
X11188Y55550D1*
X11342Y55827D1*
X11550Y56066D1*
X11752Y56230D1*
X11582Y56351D1*
X11367Y56584D1*
X11206Y56857D1*
X11104Y57157D1*
X11066Y57471D1*
X11095Y57787D1*
X11188Y58090D1*
X11342Y58367D1*
X11550Y58606D1*
X11752Y58770D1*
X11582Y58891D1*
X11367Y59124D1*
X11206Y59397D1*
X11104Y59697D1*
X11066Y60011D1*
X11095Y60327D1*
X11188Y60630D1*
X11342Y60907D1*
X11550Y61146D1*
X11752Y61310D1*
X11582Y61431D1*
X11367Y61664D1*
X11206Y61937D1*
X11104Y62237D1*
X11066Y62551D1*
X11095Y62867D1*
X11188Y63170D1*
X11342Y63447D1*
X11550Y63686D1*
X11752Y63850D1*
X11582Y63971D1*
X11367Y64204D1*
X11206Y64477D1*
X11104Y64777D1*
X11066Y65091D1*
X11095Y65407D1*
X11188Y65710D1*
X11342Y65987D1*
X11550Y66226D1*
X11716Y66352D1*
X11719Y66413D1*
X11582Y66511D1*
X11367Y66744D1*
X11206Y67017D1*
X11104Y67317D1*
X11066Y67631D1*
X11095Y67947D1*
X11188Y68250D1*
X11342Y68527D1*
X11550Y68766D1*
X11803Y68957D1*
X12090Y69092D1*
X12398Y69164D1*
X12715Y69171D1*
X13026Y69112D1*
X13319Y68990D1*
X13580Y68810D1*
X13798Y68580D1*
X13963Y68310D1*
X14069Y68011D1*
X14112Y67653D1*
X14079Y67338D1*
X13982Y67036D1*
X13824Y66762D1*
X13613Y66525D1*
X13461Y66414D1*
X13462Y66353D1*
X13580Y66270D1*
X13798Y66040D1*
X13855Y65947D1*
X14090Y66226D1*
X14343Y66417D1*
X14630Y66552D1*
X14938Y66624D1*
X15255Y66631D1*
X15566Y66572D1*
X15704Y66515D1*
X15777Y66897D1*
X15933Y67127D1*
X18413Y69607D1*
X18687Y69781D1*
X18960Y69833D1*
X28150D1*
X28467Y69763D1*
X28697Y69607D1*
X29461Y68842D1*
X29583Y69016D1*
X29822Y69224D1*
X30110Y69353D1*
X30424Y69393D1*
X30736Y69339D1*
X31018Y69197D1*
X31247Y68978D1*
X31402Y68703D1*
X31473Y68320D1*
X31426Y68007D1*
X31290Y67721D1*
X31077Y67488D1*
X30916Y67392D1*
X36814Y61489D1*
X48640Y61493D1*
X48957Y61423D1*
X49187Y61267D1*
X49755Y60698D1*
X49937Y60670D1*
X50227Y60544D1*
X50465Y60336D1*
X50628Y60065D1*
X50703Y59680D1*
X50654Y59368D1*
X50512Y59085D1*
X50291Y58859D1*
X50011Y58712D1*
X49699Y58657D1*
X49386Y58700D1*
X49217Y58781D1*
X49327Y58658D1*
X49482Y58383D1*
X49553Y58000D1*
X49506Y57687D1*
X49370Y57401D1*
X49157Y57168D1*
X48885Y57006D1*
X48578Y56932D1*
X48262Y56950D1*
X47965Y57059D1*
X47713Y57250D1*
X47527Y57506D1*
X47425Y57805D1*
X47414Y58122D1*
X47496Y58427D1*
X47663Y58696D1*
X47902Y58904D1*
X48190Y59033D1*
X48504Y59073D1*
X48816Y59019D1*
X48984Y58935D1*
X48871Y59054D1*
X48718Y59331D1*
X48667Y59593D1*
X48313Y59954D1*
X44999Y59947D1*
X45023Y59760D1*
X44974Y59448D1*
X44832Y59165D1*
X44611Y58939D1*
X44331Y58792D1*
X44019Y58737D1*
X43706Y58780D1*
X43421Y58917D1*
X43191Y59134D1*
X43038Y59411D1*
X42978Y59721D1*
X43004Y59947D1*
X36490D1*
X36173Y60017D1*
X35943Y60173D1*
X31067Y65049D1*
X30992Y64925D1*
X30771Y64699D1*
X30491Y64552D1*
X30179Y64497D1*
X29866Y64540D1*
X29581Y64677D1*
X29351Y64894D1*
X29198Y65171D1*
X29138Y65481D1*
X29175Y65796D1*
X29306Y66083D1*
X29519Y66317D1*
X29699Y66421D1*
X27826Y68291D1*
X19270Y68287D1*
X17254Y66261D1*
X17253Y64903D1*
X17613Y65267D1*
X17887Y65441D1*
X18160Y65493D1*
X18349D1*
X18087Y65826D1*
X17985Y66125D1*
X17974Y66442D1*
X18056Y66747D1*
X18223Y67016D1*
X18462Y67224D1*
X18750Y67353D1*
X19064Y67393D1*
X19376Y67339D1*
X19658Y67197D1*
X19887Y66978D1*
X20042Y66703D1*
X20113Y66320D1*
X20066Y66007D1*
X19930Y65721D1*
X19724Y65495D1*
X22560Y65493D1*
X22877Y65423D1*
X23107Y65267D1*
X24236Y64137D1*
X24417Y64110D1*
X24707Y63984D1*
X24945Y63776D1*
X25108Y63505D1*
X25183Y63120D1*
X25134Y62808D1*
X24992Y62525D1*
X24771Y62299D1*
X24491Y62152D1*
X24179Y62097D1*
X23866Y62140D1*
X23581Y62277D1*
X23351Y62494D1*
X23198Y62771D1*
X23147Y63033D1*
X22245Y63942D1*
X18482Y63947D1*
X17647Y63114D1*
X17653Y62061D1*
X17937Y62030D1*
X18227Y61904D1*
X18465Y61696D1*
X18628Y61425D1*
X18703Y61040D1*
X18654Y60728D1*
X18512Y60445D1*
X18291Y60219D1*
X18011Y60072D1*
X17650Y60024D1*
X17653Y50800D1*
X17583Y50483D1*
X17427Y50253D1*
X16578Y49405D1*
X16522Y49256D1*
X16364Y48982D1*
X16153Y48745D1*
X15897Y48558D1*
X15608Y48428D1*
X15299Y48360D1*
X14982Y48357D1*
X14607Y48448D1*
X14613Y47042D1*
X14807Y46853D1*
X15680D1*
X15997Y46783D1*
X16227Y46627D1*
X17679Y45174D1*
X17857Y45150D1*
X18147Y45024D1*
X18385Y44816D1*
X18548Y44545D1*
X18623Y44160D1*
X18552Y43803D1*
X18750Y43883D1*
X19064Y43923D1*
X19376Y43869D1*
X19658Y43727D1*
X19887Y43508D1*
X20042Y43233D1*
X20113Y42850D1*
X20067Y42533D1*
X26844D1*
X26626Y42743D1*
X26411Y42632D1*
X26099Y42577D1*
X25786Y42620D1*
X25501Y42757D1*
X25271Y42974D1*
X25118Y43251D1*
X25105Y43319D1*
X24887Y43623D1*
X24827Y43920D1*
Y44560D1*
X24881Y44844D1*
X25053Y45107D1*
X25373Y45427D1*
X25623Y45593D1*
X25920Y45653D1*
X29244D1*
X28782Y45836D1*
X28530Y46027D1*
X28345Y46284D1*
X28242Y46583D1*
X28232Y46899D1*
X28313Y47205D1*
X28481Y47473D1*
X28719Y47681D1*
X29008Y47811D1*
X29322Y47850D1*
X29633Y47796D1*
X29916Y47654D1*
X30080Y47497D1*
X34395Y51808D1*
X34093Y52030D1*
X33907Y52286D1*
X33794Y52612D1*
X32299Y54106D1*
X32110Y53914D1*
X32066Y53527D1*
X31930Y53241D1*
X31717Y53008D1*
X31445Y52846D1*
X31138Y52772D1*
X30822Y52790D1*
X30525Y52899D1*
X30273Y53090D1*
X30087Y53346D1*
X29985Y53645D1*
X29974Y53962D1*
X30012Y54105D1*
X22580Y54107D1*
X22269Y54164D1*
X21963Y54363D1*
X21479Y54847D1*
X21385Y54889D1*
X21133Y55080D1*
X20947Y55336D1*
X20845Y55635D1*
X20834Y55952D1*
X20916Y56257D1*
X21083Y56526D1*
X21322Y56734D1*
X21610Y56863D1*
X21924Y56903D1*
X22236Y56849D1*
X22351Y56791D1*
X22607Y56905D1*
X22558Y57011D1*
X22504Y57292D1*
X22301Y57397D1*
X22071Y57614D1*
X21918Y57891D1*
X21858Y58201D1*
X21895Y58516D1*
X22026Y58803D1*
X22239Y59037D1*
X22513Y59195D1*
X22822Y59261D1*
X23137Y59230D1*
X23427Y59104D1*
X23665Y58896D1*
X23828Y58625D1*
X23900Y58310D1*
X24067Y58224D1*
X24305Y58016D1*
X24468Y57745D1*
X24543Y57360D1*
X24494Y57048D1*
X24352Y56765D1*
X24131Y56539D1*
X23894Y56415D1*
X23962Y56283D1*
X24033Y55900D1*
X24026Y55851D1*
X32660Y55853D1*
X32971Y55796D1*
X33277Y55597D1*
X35038Y53836D1*
X35196Y53799D1*
X35478Y53657D1*
X35707Y53438D1*
X35819Y53240D1*
X38506Y55919D1*
X38535Y56116D1*
X38666Y56403D1*
X38879Y56637D1*
X39153Y56795D1*
X39462Y56861D1*
X39777Y56830D1*
X40022Y56724D1*
X40055Y57066D1*
X40186Y57353D1*
X40399Y57587D1*
X40673Y57745D1*
X40982Y57811D1*
X41297Y57780D1*
X41587Y57654D1*
X41825Y57446D1*
X41988Y57175D1*
X42063Y56790D1*
X42014Y56478D1*
X41872Y56195D1*
X41651Y55969D1*
X41371Y55822D1*
X41059Y55767D1*
X40746Y55810D1*
X40541Y55908D1*
X40494Y55528D1*
X40352Y55245D1*
X40131Y55019D1*
X39851Y54872D1*
X39607Y54829D1*
X31121Y46348D1*
X31188Y46225D1*
X31263Y45840D1*
X31234Y45654D1*
X31502Y45876D1*
X34013Y48387D1*
X34287Y48561D1*
X34560Y48613D1*
X38936D1*
X39233Y48795D1*
X39542Y48861D1*
X39857Y48830D1*
X40147Y48704D1*
X40385Y48496D1*
X40548Y48225D1*
X40623Y47840D1*
X40574Y47528D1*
X40432Y47245D1*
X40211Y47019D1*
X39931Y46872D1*
X39619Y46817D1*
X39306Y46860D1*
X39021Y46997D1*
X38942Y47072D1*
X34887Y47067D1*
X32147Y44333D1*
X31873Y44159D1*
X31600Y44107D1*
X28137D1*
X28225Y44016D1*
X28388Y43745D1*
X28463Y43360D1*
X28414Y43048D1*
X28272Y42765D1*
X28042Y42535D1*
X32638Y42533D1*
X35313Y45207D1*
X35587Y45381D1*
X35860Y45433D1*
X45415D1*
X45394Y45792D1*
X45476Y46097D1*
X45643Y46366D1*
X45882Y46574D1*
X46170Y46703D1*
X46484Y46743D1*
X46796Y46689D1*
X47078Y46547D1*
X47307Y46328D1*
X47462Y46053D1*
X47533Y45670D1*
X47496Y45426D1*
X49513Y45433D1*
X50574D1*
X50554Y45792D1*
X50636Y46097D1*
X50803Y46366D1*
X51042Y46574D1*
X51330Y46703D1*
X51644Y46743D1*
X51956Y46689D1*
X52238Y46547D1*
X52467Y46328D1*
X52622Y46053D1*
X52693Y45670D1*
X52656Y45426D1*
X54275Y45433D1*
X55813D1*
X55814Y45732D1*
X55896Y46037D1*
X56063Y46306D1*
X56302Y46514D1*
X56590Y46643D1*
X56904Y46683D1*
X57216Y46629D1*
X57498Y46487D1*
X57727Y46268D1*
X57882Y45993D1*
X57953Y45610D1*
X57925Y45424D1*
X59673Y45433D1*
X60377D1*
X60374Y45732D1*
X60456Y46037D1*
X60623Y46306D1*
X60862Y46514D1*
X61150Y46643D1*
X61464Y46683D1*
X61776Y46629D1*
X62032Y46500D1*
X62239Y46717D1*
X62513Y46875D1*
X62822Y46941D1*
X63137Y46910D1*
X63427Y46784D1*
X63665Y46576D1*
X63828Y46305D1*
X63903Y45920D1*
X63854Y45608D1*
X63770Y45440D1*
X65338Y45433D1*
X65175Y45845D1*
X65164Y46162D1*
X65246Y46467D1*
X65413Y46736D1*
X65652Y46944D1*
X65940Y47073D1*
X66254Y47113D1*
X66566Y47059D1*
X66848Y46917D1*
X67077Y46698D1*
X67232Y46423D1*
X67303Y46040D1*
X67256Y45727D1*
X67114Y45434D1*
X67392Y45656D1*
X69313Y47577D1*
X69587Y47751D1*
X69860Y47803D1*
X75049D1*
X75353Y47985D1*
X75662Y48051D1*
X75977Y48020D1*
X76267Y47894D1*
X76505Y47686D1*
X76668Y47415D1*
X76743Y47030D1*
X76694Y46718D1*
X76552Y46435D1*
X76331Y46209D1*
X76051Y46062D1*
X75739Y46007D1*
X75426Y46050D1*
X75141Y46187D1*
X75062Y46262D1*
X73607Y46257D1*
X73663Y45920D1*
X73614Y45608D1*
X73472Y45325D1*
X73251Y45099D1*
X72971Y44952D1*
X72659Y44897D1*
X72346Y44940D1*
X72061Y45077D1*
X71982Y45152D1*
X69911Y45147D1*
X68387Y43613D1*
X68113Y43439D1*
X67840Y43387D1*
X48701D1*
X48651Y43052D1*
X48515Y42766D1*
X48302Y42533D1*
X48030Y42371D1*
X47723Y42297D1*
X47407Y42315D1*
X47110Y42424D1*
X46858Y42615D1*
X46672Y42871D1*
X46570Y43170D1*
X46563Y43378D1*
X44028Y43387D1*
X38441D1*
X38396Y43007D1*
X38260Y42721D1*
X38005Y42463D1*
X38117Y42394D1*
X38355Y42186D1*
X38518Y41915D1*
X38593Y41530D1*
X38544Y41218D1*
X38402Y40935D1*
X38181Y40709D1*
X37901Y40562D1*
X37589Y40507D1*
X37276Y40550D1*
X36991Y40687D1*
X36912Y40762D1*
X34484Y40757D1*
X34067Y40333D1*
X33793Y40159D1*
X33717Y40133D1*
X33690Y40077D1*
X33664Y39814D1*
X44720Y39813D1*
X45037Y39743D1*
X45267Y39587D1*
X47757Y37097D1*
X47931Y36823D1*
X47983Y36550D1*
Y35250D1*
X48193Y35355D1*
X48502Y35421D1*
X48817Y35390D1*
X49107Y35264D1*
X49345Y35056D1*
X49411Y34946D1*
X49759Y35037D1*
X50033Y35195D1*
X50333Y35259D1*
X49965Y35379D1*
X49713Y35570D1*
X49527Y35826D1*
X49425Y36125D1*
X49414Y36442D1*
X49496Y36747D1*
X49663Y37016D1*
X49902Y37224D1*
X50190Y37353D1*
X50504Y37393D1*
X50816Y37339D1*
X51098Y37197D1*
X51327Y36978D1*
X51482Y36703D1*
X51553Y36320D1*
X51506Y36007D1*
X51370Y35721D1*
X51157Y35488D1*
X50885Y35326D1*
X50578Y35252D1*
X50262Y35270D1*
X30254Y34888D2*
X30112Y34605D1*
X29891Y34379D1*
X29611Y34232D1*
X29299Y34177D1*
X28986Y34220D1*
X28701Y34357D1*
X28471Y34574D1*
X28318Y34851D1*
X28258Y35161D1*
X28295Y35476D1*
X28426Y35763D1*
X28639Y35997D1*
X28913Y36155D1*
X29222Y36221D1*
X29537Y36190D1*
X29827Y36064D1*
X30065Y35856D1*
X30228Y35585D1*
X30303Y35200D1*
X30254Y34888D1*
X43164Y51738D2*
X43022Y51455D1*
X42801Y51229D1*
X42521Y51082D1*
X42209Y51027D1*
X41896Y51070D1*
X41611Y51207D1*
X41381Y51424D1*
X41228Y51701D1*
X41168Y52011D1*
X41205Y52326D1*
X41336Y52613D1*
X41549Y52847D1*
X41823Y53005D1*
X42132Y53071D1*
X42447Y53040D1*
X42737Y52914D1*
X42975Y52706D1*
X43138Y52435D1*
X43213Y52050D1*
X43164Y51738D1*
X82734Y67128D2*
X82592Y66845D1*
X82371Y66619D1*
X82091Y66472D1*
X81779Y66417D1*
X81466Y66460D1*
X81181Y66597D1*
X80951Y66814D1*
X80798Y67091D1*
X80738Y67401D1*
X80775Y67716D1*
X80906Y68003D1*
X81119Y68237D1*
X81393Y68395D1*
X81702Y68461D1*
X82017Y68430D1*
X82307Y68304D1*
X82545Y68096D1*
X82708Y67825D1*
X82783Y67440D1*
X82734Y67128D1*
X43164Y51738D2*
X43022Y51455D1*
X42801Y51229D1*
X42521Y51082D1*
X42209Y51027D1*
X41896Y51070D1*
X41611Y51207D1*
X41381Y51424D1*
X41228Y51701D1*
X41168Y52011D1*
X41205Y52326D1*
X41336Y52613D1*
X41549Y52847D1*
X41823Y53005D1*
X42132Y53071D1*
X42447Y53040D1*
X42737Y52914D1*
X42975Y52706D1*
X43138Y52435D1*
X43213Y52050D1*
X43164Y51738D1*
X44995Y59943D2*
X45023Y59760D1*
X44974Y59448D1*
X44832Y59165D1*
X44611Y58939D1*
X44331Y58792D1*
X44019Y58737D1*
X43706Y58780D1*
X43421Y58917D1*
X43191Y59134D1*
X43038Y59411D1*
X42978Y59721D1*
X43004Y59947D1*
X48055Y33521D2*
X47821Y33269D1*
X47541Y33122D1*
X47229Y33067D1*
X46916Y33110D1*
X46631Y33247D1*
X46401Y33464D1*
X46248Y33741D1*
X46188Y34051D1*
X46225Y34366D1*
X46356Y34653D1*
X46443Y34748D1*
X40024Y56722D2*
X40055Y57066D1*
X40186Y57353D1*
X40399Y57587D1*
X40673Y57745D1*
X40982Y57811D1*
X41297Y57780D1*
X41587Y57654D1*
X41825Y57446D1*
X41988Y57175D1*
X42063Y56790D1*
X42014Y56478D1*
X41872Y56195D1*
X41651Y55969D1*
X41371Y55822D1*
X41059Y55767D1*
X40746Y55810D1*
X40541Y55908D1*
X72798Y50088D2*
X72656Y49805D1*
X72434Y49579D1*
X72155Y49432D1*
X71843Y49377D1*
X71530Y49420D1*
X71245Y49557D1*
X71015Y49774D1*
X70862Y50051D1*
X70802Y50361D1*
X70839Y50676D1*
X70970Y50963D1*
X71183Y51197D1*
X71457Y51355D1*
X71766Y51421D1*
X72081Y51390D1*
X72371Y51264D1*
X72609Y51056D1*
X72772Y50785D1*
X72847Y50400D1*
X72798Y50088D1*
X74684Y48598D2*
X74542Y48315D1*
X74321Y48089D1*
X74041Y47942D1*
X73729Y47887D1*
X73416Y47930D1*
X73131Y48067D1*
X72901Y48284D1*
X72748Y48561D1*
X72688Y48871D1*
X72725Y49186D1*
X72856Y49473D1*
X73069Y49707D1*
X73343Y49865D1*
X73652Y49931D1*
X73967Y49900D1*
X74257Y49774D1*
X74495Y49566D1*
X74658Y49295D1*
X74733Y48910D1*
X74684Y48598D1*
X53654Y20388D2*
X53512Y20105D1*
X53291Y19879D1*
X53011Y19732D1*
X52699Y19677D1*
X52386Y19720D1*
X52101Y19857D1*
X51871Y20074D1*
X51718Y20351D1*
X51658Y20661D1*
X51695Y20976D1*
X51826Y21263D1*
X52039Y21497D1*
X52313Y21655D1*
X52622Y21721D1*
X52937Y21690D1*
X53227Y21564D1*
X53465Y21356D1*
X53628Y21085D1*
X53703Y20700D1*
X53654Y20388D1*
X22376Y66467D2*
X22240Y66181D1*
X22027Y65948D1*
X21755Y65786D1*
X21448Y65712D1*
X21132Y65730D1*
X20835Y65839D1*
X20583Y66030D1*
X20397Y66286D1*
X20295Y66585D1*
X20284Y66902D1*
X20366Y67207D1*
X20533Y67476D1*
X20772Y67684D1*
X21060Y67813D1*
X21374Y67853D1*
X21686Y67799D1*
X21968Y67657D1*
X22197Y67438D1*
X22352Y67163D1*
X22423Y66780D1*
X22376Y66467D1*
X30261Y49482D2*
X30125Y49196D1*
X29912Y48963D1*
X29640Y48801D1*
X29333Y48727D1*
X29017Y48745D1*
X28720Y48854D1*
X28468Y49045D1*
X28282Y49301D1*
X28180Y49600D1*
X28169Y49917D1*
X28251Y50222D1*
X28418Y50491D1*
X28657Y50699D1*
X28945Y50828D1*
X29259Y50868D1*
X29571Y50814D1*
X29853Y50672D1*
X30082Y50453D1*
X30237Y50178D1*
X30308Y49795D1*
X30261Y49482D1*
X26629Y42747D2*
X26411Y42632D1*
X26099Y42577D1*
X25786Y42620D1*
X25501Y42757D1*
X25271Y42974D1*
X25118Y43251D1*
X25105Y43319D1*
X24997Y43436D1*
X24854Y43717D1*
X24827Y43920D1*
X63854Y56968D2*
X63712Y56685D1*
X63491Y56459D1*
X63211Y56312D1*
X62899Y56257D1*
X62586Y56300D1*
X62301Y56437D1*
X62071Y56654D1*
X61918Y56931D1*
X61858Y57241D1*
X61895Y57556D1*
X62026Y57843D1*
X62239Y58077D1*
X62513Y58235D1*
X62822Y58301D1*
X63137Y58270D1*
X63427Y58144D1*
X63665Y57936D1*
X63828Y57665D1*
X63903Y57280D1*
X63854Y56968D1*
D30*
X15129Y67653D3*
X12589D3*
X15129Y65113D3*
X12589D3*
X15129Y62573D3*
X12589D3*
X15129Y60033D3*
X12589D3*
X15129Y57493D3*
X12589D3*
X15129Y54953D3*
X12589D3*
X15129Y52413D3*
X12589D3*
X15129Y49873D3*
X12589D3*
X15129Y47333D3*
X12589D3*
X15129Y44793D3*
X12589D3*
X15129Y42253D3*
X12589D3*
X15129Y39713D3*
X12589D3*
X15129Y37173D3*
X12589D3*
X15129Y34633D3*
X12589D3*
X15129Y32093D3*
X12589D3*
X15129Y29553D3*
X12589D3*
X15129Y27013D3*
X12589D3*
X15129Y24473D3*
X12589D3*
X15129Y21933D3*
X12589D3*
X15129Y19393D3*
X12589D3*
X72120Y11520D3*
X69580D3*
X67040D3*
X23445Y75440D3*
X25985D3*
X28525D3*
X31065D3*
X31280Y14830D3*
Y12290D3*
X28740Y14830D3*
Y12290D3*
X26200Y14830D3*
Y12290D3*
X23660Y14830D3*
Y12290D3*
X21120Y14830D3*
Y12290D3*
D44*
X18720Y73310D3*
M02*
