M48
METRIC,0000.00
T01C0.35
T02C0.4
T03C0.9
T04C0.965
T05C1.1
T06C1.5
T07C3.0
%
T01
X+007288Y+004105
X+007264Y+004592
X+007371Y+004891
X+007182Y+005040
X+006968Y+005112
X+006864Y+005112
X+006744Y+005128
X+006648Y+005128
X+006288Y+004592
X+006288Y+005728
X+004968Y+005968
X+004400Y+005976
X+004104Y+005679
X+003952Y+005584
X+004219Y+005205
X+003960Y+004784
X+003757Y+004153
X+003267Y+004000
X+002928Y+003520
X+002544Y+003219
X+002872Y+002832
X+002544Y+002580
X+002952Y+002328
X+002992Y+001984
X+003384Y+002328
X+003944Y+002256
X+004432Y+002400
X+004296Y+003216
X+003952Y+003504
X+004544Y+003712
X+004721Y+003409
X+004856Y+003440
X+004944Y+003392
X+005040Y+003424
X+005770Y+003525
X+006373Y+003422
X+006920Y+002472
X+006944Y+002344
X+007255Y+002409
X+008336Y+003120
X+007572Y+004703
X+007936Y+005576
X+008176Y+006744
X+008416Y+006832
X+003016Y+006552
X+002416Y+006312
X+002288Y+005824
X+002352Y+005736
X+001768Y+006104
X+001760Y+004416
X+002608Y+004360
X+002680Y+004408
X+002744Y+004336
X+003024Y+004584
X+005268Y+002070
T02
X+003856Y+003302
X+003800Y+003712
X+003320Y+003424
X+003410Y+003216
X+003120Y+002971
X+002944Y+002632
X+003224Y+002184
X+003424Y+002120
X+002903Y+001865
X+002087Y+001747
X+002040Y+002080
X+001736Y+002256
X+001808Y+002566
X+002531Y+003687
X+001904Y+004285
X+002016Y+004647
X+002440Y+004608
X+002326Y+005009
X+002168Y+005216
X+002190Y+005583
X+002296Y+005590
X+002920Y+005200
X+002924Y+004980
X+002930Y+004678
X+003104Y+005384
X+003486Y+005278
X+003656Y+005708
X+003336Y+006048
X+003924Y+006179
X+004828Y+005923
X+004848Y+005800
X+004746Y+005297
X+004577Y+005292
X+004493Y+005091
X+004666Y+005019
X+004646Y+004567
X+004763Y+004337
X+004632Y+004216
X+005162Y+004567
X+005184Y+005013
X+005679Y+005016
X+005800Y+005200
X+005880Y+005112
X+005968Y+005184
X+006376Y+005120
X+006746Y+004883
X+006623Y+004604
X+006144Y+004561
X+005688Y+004561
X+005618Y+003749
X+005712Y+003435
X+006097Y+003489
X+006367Y+003531
X+006544Y+003232
X+005971Y+003125
X+005358Y+003131
X+005112Y+003512
X+005048Y+003632
X+005243Y+002336
X+005053Y+001944
X+004400Y+002000
X+004070Y+002689
X+003737Y+004332
X+002704Y+006712
X+003040Y+006832
X+002135Y+006678
X+001904Y+006632
X+006845Y+005371
X+007319Y+005240
X+007761Y+005127
X+007688Y+005713
X+007522Y+005707
X+007889Y+005707
X+008241Y+005696
X+008403Y+005696
X+008474Y+006463
X+007794Y+006939
X+007674Y+004085
X+008080Y+004075
X+007695Y+003546
X+007880Y+002832
X+007517Y+002539
X+007504Y+002409
X+007296Y+002536
X+007280Y+002640
X+008480Y+002872
X+008432Y+001680
X+007565Y+001438
X+006548Y+001517
X+006264Y+001176
X+005896Y+002140
X+005867Y+002330
X+006766Y+004117
T03
X+004828Y+001516
X+004388Y+001516
T04
X+001872Y+007331
T05
X+001513Y+006765
X+001513Y+006511
X+001259Y+006511
X+001259Y+006765
X+001259Y+006257
X+001259Y+006003
X+001513Y+006003
X+001513Y+006257
X+001513Y+005749
X+001259Y+005749
X+001259Y+005495
X+001513Y+005495
X+001513Y+005241
X+001259Y+005241
X+001259Y+004987
X+001259Y+004733
X+001513Y+004733
X+001513Y+004987
X+001513Y+004479
X+001259Y+004479
X+001259Y+004225
X+001513Y+004225
X+001513Y+003971
X+001259Y+003971
X+001259Y+003717
X+001513Y+003717
X+001513Y+003463
X+001259Y+003463
X+001259Y+003209
X+001513Y+003209
X+001513Y+002955
X+001259Y+002955
X+001259Y+002701
X+001513Y+002701
X+001513Y+002447
X+001259Y+002447
X+001259Y+002193
X+001259Y+001939
X+001513Y+001939
X+001513Y+002193
X+002112Y+001483
X+002366Y+001483
X+002620Y+001483
X+002874Y+001483
X+003128Y+001483
X+003128Y+001229
X+002874Y+001229
X+002620Y+001229
X+002366Y+001229
X+002112Y+001229
X+006704Y+001152
X+006958Y+001152
X+007212Y+001152
X+003107Y+007544
X+002853Y+007544
X+002599Y+007544
X+002345Y+007544
T06
X+005778Y+001230
X+005778Y+001930
T07
X+001386Y+007252
X+003686Y+007252
X+008300Y+007416
X+008300Y+001284
X+003686Y+001452
X+001386Y+001452
T00
M30
