G04 DipTrace 2.4.0.2*
%INTop.gbr*%
%MOMM*%
%ADD12C,0.076*%
%ADD14C,0.2*%
%ADD15C,0.4*%
%ADD16C,0.3*%
%ADD20R,1.3X1.55*%
%ADD21R,1.1X1.0*%
%ADD22R,1.0X1.1*%
%ADD29R,1.7X1.7*%
%ADD31C,1.7*%
%ADD43R,1.5X1.4*%
%ADD44C,1.524*%
%ADD56C,0.7*%
%ADD58C,0.8*%
%FSLAX53Y53*%
G04*
G71*
G90*
G75*
G01*
%LNTop*%
%LPD*%
X72880Y41050D2*
D14*
Y29520D1*
X70160Y26800D1*
X47120D1*
X44320Y24000D1*
X69440Y23440D2*
X69920Y22960D1*
X74880D1*
X76160Y24240D1*
Y33520D1*
X74780Y34900D1*
Y52260D1*
X67360Y59680D1*
X49680D1*
X39440Y22560D2*
Y23710D1*
X39410D1*
X24189Y25658D2*
Y17708D1*
X25440Y25800D2*
X24331D1*
X24189Y25658D1*
X39520Y35040D2*
Y38510D1*
X39410D1*
X25440Y32190D2*
X24590D1*
X24210Y31810D1*
Y30240D1*
X23680D1*
Y30640D1*
X24131Y30189D1*
X24189D1*
Y38139D1*
X15129Y52413D2*
X16173D1*
X17680Y53920D1*
Y61040D1*
X83360Y31200D2*
Y30400D1*
X75120Y22160D1*
X51660D1*
X47260Y17760D1*
X30960D1*
X28720Y20000D1*
Y28320D1*
X66480Y51280D2*
X65200Y50000D1*
Y45760D1*
X60800Y41360D1*
X37740D1*
X37570Y41530D1*
X67440Y51280D2*
Y51790D1*
X67150Y52080D1*
X66400D1*
X64640Y50320D1*
Y45920D1*
X63490Y44770D1*
X35140D1*
X32670Y42300D1*
Y40000D1*
X29920Y19840D2*
X42160D1*
X47040Y24720D1*
X69200D1*
X63730Y34220D2*
X58730D1*
X57700Y35250D1*
X19689Y38139D2*
D15*
Y30189D1*
Y25658D1*
X26080Y47600D2*
Y47200D1*
X24960Y46080D1*
X24400D1*
X15129Y19393D2*
X18004D1*
X19689Y17708D1*
X31100Y34290D2*
X33150D1*
X33200Y34240D1*
X31103Y29709D2*
Y21759D1*
Y29709D2*
X31200D1*
X31100Y42240D2*
Y34290D1*
X19689Y25658D2*
X18080D1*
X29298Y54880D2*
Y54960D1*
X30640D1*
X31040Y54560D1*
Y53840D1*
X29298Y48080D2*
Y46778D1*
X26731Y64431D2*
X27200D1*
Y65120D1*
X30400Y68320D1*
X31671Y69370D2*
Y69591D1*
X30400Y68320D1*
X20870Y17470D2*
X19689D1*
Y17708D1*
X30160Y65520D2*
D14*
X32571Y67931D1*
X33109D1*
X30232Y70809D2*
X30231D1*
X29040Y72000D1*
X23280D1*
X18320Y67040D1*
Y41700D1*
X21040Y38980D1*
Y24920D1*
X19400Y23280D1*
X13440D1*
X12640Y24080D1*
Y24422D1*
X12589Y24473D1*
X24160Y63120D2*
Y64736D1*
X25293Y65869D1*
X28170Y62992D2*
X26640Y61462D1*
Y57120D1*
X27520Y56240D1*
Y47040D1*
X21840Y41360D1*
Y23520D1*
X19040Y20720D1*
X13802D1*
X12589Y21933D1*
X59678Y51842D2*
D15*
Y50878D1*
X58960Y50160D1*
X56790D1*
X58800Y51120D2*
X52480D1*
X51840Y50480D1*
Y50130D1*
X58000Y52000D2*
X48470D1*
X46660Y50190D1*
X29520Y23280D2*
D14*
Y21280D1*
X30400Y20400D1*
X41840D1*
X46880Y25440D1*
X71200D1*
X72550Y24090D1*
X26080Y50960D2*
X26720D1*
X27040Y51280D1*
Y55760D1*
X24560Y58240D1*
X22880D1*
X46460Y45670D2*
D16*
X51620D1*
X56880Y45610D2*
X51620D1*
Y45670D1*
X61440Y45610D2*
X56880D1*
X20380Y50985D2*
D15*
Y54240D1*
Y54310D1*
X21900Y55830D1*
X23260Y50090D2*
Y49440D1*
X21440D1*
X20640Y50240D1*
Y50725D1*
X20380Y50985D1*
X24380Y54240D2*
D14*
X22080D1*
Y50985D2*
X24355D1*
X24380Y50960D1*
X23520Y57360D2*
X24400D1*
X26160Y55600D1*
Y54320D1*
X26080Y54240D1*
X22077Y47679D2*
X24380D1*
Y47600D1*
X12589Y67653D2*
D15*
Y65113D1*
X20377Y47679D2*
X19040D1*
Y66320D1*
Y42850D2*
Y47679D1*
X37463Y54880D2*
D14*
X37840D1*
X38560Y55600D1*
Y58880D1*
X38900Y59220D1*
X39600D1*
X37463Y48080D2*
Y50343D1*
X38820Y51700D1*
X39600D1*
X35603Y29709D2*
Y21597D1*
X35280Y21920D1*
X35442D1*
X35603Y21759D1*
X39410Y25410D2*
X39360D1*
Y28000D1*
X37651Y29709D1*
X35603D1*
X35600Y42240D2*
Y34290D1*
X39410Y40210D2*
X37630D1*
X35600Y42240D1*
X69680Y51120D2*
Y46140D1*
X62740Y39200D1*
X50960D1*
X47840Y36080D1*
Y33280D1*
X46000Y31440D1*
X32080D1*
X29280Y34240D1*
Y35200D1*
X26200Y12290D2*
Y12320D1*
X26320D1*
X27440Y13440D1*
Y43360D1*
X44000Y59760D2*
X51680Y67440D1*
X81760D1*
X42190Y52050D2*
X42240D1*
Y58000D1*
X44000Y59760D1*
X68640Y51120D2*
Y45790D1*
X62440Y39590D1*
X50710D1*
X47280Y36160D1*
Y34160D1*
X47210Y34090D1*
X26200Y14830D2*
X26240D1*
Y15840D1*
X26800Y16400D1*
Y44080D1*
X84160Y68320D2*
X51440D1*
X41020Y57900D1*
Y56770D1*
X41040Y56790D1*
X48560Y34400D2*
Y36080D1*
X51250Y38770D1*
X63000D1*
X71824Y47594D1*
Y50400D1*
X49440Y33920D2*
Y36320D1*
X51460Y38340D1*
X63140D1*
X73710Y48910D1*
X58960Y21397D2*
D15*
X68043D1*
X72160Y17280D1*
Y11560D1*
X72120Y11520D1*
X52680Y20700D2*
D14*
X65300D1*
X69680Y16320D1*
Y11620D1*
X69580Y11520D1*
X22960Y55900D2*
D15*
X21290Y57570D1*
Y66720D1*
X21350Y66780D1*
X29235Y49795D2*
X28080Y50950D1*
Y57280D1*
X34720Y63920D1*
Y69245D1*
X28525Y75440D1*
X23660Y14830D2*
D14*
Y14300D1*
X26080Y16720D1*
Y43600D1*
X39600Y47840D2*
Y50000D1*
X30240Y45840D2*
X28080Y43680D1*
Y17360D1*
X28880Y16560D1*
X32640D1*
X33440Y15760D1*
Y11760D1*
X32800Y11120D1*
X24880D1*
X23660Y12340D1*
Y12290D1*
X39520Y55840D2*
Y57440D1*
X39600Y57520D1*
X62880Y45920D2*
Y57280D1*
D56*
X72880Y41050D3*
X44320Y24000D3*
X69440Y23440D3*
X49680Y59680D3*
X39440Y22560D3*
D3*
X17600Y44160D3*
X25440Y25800D3*
X39520Y35040D3*
X25440Y32190D3*
X17680Y61040D3*
X79360Y55760D3*
X83360Y31200D3*
X28720Y28320D3*
X66480Y51280D3*
X37570Y41530D3*
X45440Y37120D3*
X67440Y51280D3*
X32670Y40000D3*
X29920Y19840D3*
X69200Y24720D3*
X63730Y34220D3*
X57700Y35250D3*
X69200Y24720D3*
D58*
X38560Y33020D3*
X29030Y18650D3*
X29440Y26320D3*
X32240Y21840D3*
X24400Y46080D3*
X21680Y52160D3*
X25310Y36870D3*
X34240Y21200D3*
X38000Y37120D3*
X44000Y20000D3*
X47625Y43365D3*
X63670Y35310D3*
X50530Y19440D3*
X84320Y16800D3*
X75040Y24090D3*
X65440Y32320D3*
X58670Y23300D3*
X52430Y23360D3*
X50480Y36320D3*
X67660Y41170D3*
X66230Y46040D3*
X63760Y51200D3*
X68450Y53710D3*
X48480Y58000D3*
X47460Y52970D3*
X80800Y40750D3*
X76950Y35460D3*
X33200Y34240D3*
X84800Y28720D3*
X78800Y28320D3*
X31200Y29709D3*
X18080Y25658D3*
X72800Y26400D3*
X31040Y53840D3*
X29298Y46778D3*
X30400Y68320D3*
X33360Y60480D3*
X29200Y52000D3*
X20160Y46470D3*
X27040Y67120D3*
X20870Y17470D3*
X17360Y22560D3*
X31200Y29709D3*
X77940Y69390D3*
X75220Y57070D3*
X78890D3*
X82410Y56960D3*
X84740Y64630D3*
X76740Y40850D3*
X62640Y11760D3*
X56180Y37490D3*
X77610Y51270D3*
X36560Y57080D3*
X60970Y34890D3*
D56*
X30160Y65520D3*
X24160Y63120D3*
D58*
X59678Y51842D3*
X56790Y50160D3*
X58800Y51120D3*
X51840Y50130D3*
X58000Y52000D3*
X46660Y50190D3*
D56*
X29520Y23280D3*
X72550Y24090D3*
D58*
X53580Y31310D3*
X65480Y15170D3*
D56*
X22880Y58240D3*
D58*
X46460Y45670D3*
X51620D3*
X56880Y45610D3*
X61440D3*
X56880D3*
X59710Y31250D3*
X75650Y14380D3*
X21900Y55830D3*
X34860Y52780D3*
X37370Y43320D3*
X23260Y50090D3*
X21900Y55830D3*
X34860Y52780D3*
D56*
X23520Y57360D3*
D58*
X19040Y66320D3*
Y42850D3*
X40700Y26890D3*
X34100Y32160D3*
D56*
X42960D3*
X33840Y23280D3*
X72640Y45920D3*
X75720Y47030D3*
X50400Y34240D3*
X69680Y51120D3*
X29280Y35200D3*
X42190Y52050D3*
X27440Y43360D3*
X44000Y59760D3*
X81760Y67440D3*
X42190Y52050D3*
X44000Y59760D3*
X68640Y51120D3*
X47210Y34090D3*
D3*
X26800Y44080D3*
X41040Y56790D3*
X84160Y68320D3*
X41040Y56790D3*
X48560Y34400D3*
X71824Y50400D3*
X49440Y33920D3*
X73710Y48910D3*
D58*
X58960Y21397D3*
D56*
X52680Y20700D3*
D58*
X22960Y55900D3*
X21350Y66780D3*
X29235Y49795D3*
D56*
X26080Y43600D3*
X39600Y47840D3*
X26080Y43600D3*
X30240Y45840D3*
X39520Y55840D3*
X30240Y45840D3*
D58*
X39240Y61790D3*
X48280Y59230D3*
X72960Y25360D3*
X75170Y25390D3*
X46320Y42160D3*
X51120Y35120D3*
X67460Y48830D3*
X20400Y20800D3*
X45770Y52920D3*
X84030Y56960D3*
X76880Y57130D3*
X57123Y34353D3*
X73190Y52400D3*
X44930Y50910D3*
D56*
X62880Y45920D3*
Y57280D3*
D20*
X24189Y38139D3*
Y30189D3*
X19689Y38139D3*
Y30189D3*
X24189Y25658D3*
Y17708D3*
X19689Y25658D3*
Y17708D3*
D21*
X22080Y50985D3*
X20380D3*
X22080Y54240D3*
X20380D3*
X22077Y47679D3*
X20377D3*
D29*
X15129Y67653D3*
D31*
X12589D3*
X15129Y65113D3*
X12589D3*
X15129Y62573D3*
X12589D3*
X15129Y60033D3*
X12589D3*
X15129Y57493D3*
X12589D3*
X15129Y54953D3*
X12589D3*
X15129Y52413D3*
X12589D3*
X15129Y49873D3*
X12589D3*
X15129Y47333D3*
X12589D3*
X15129Y44793D3*
X12589D3*
X15129Y42253D3*
X12589D3*
X15129Y39713D3*
X12589D3*
X15129Y37173D3*
X12589D3*
X15129Y34633D3*
X12589D3*
X15129Y32093D3*
X12589D3*
X15129Y29553D3*
X12589D3*
X15129Y27013D3*
X12589D3*
X15129Y24473D3*
X12589D3*
X15129Y21933D3*
X12589D3*
X15129Y19393D3*
X12589D3*
D29*
X72120Y11520D3*
D31*
X69580D3*
X67040D3*
D29*
X23445Y75440D3*
D31*
X25985D3*
X28525D3*
X31065D3*
D29*
X31280Y14830D3*
D31*
Y12290D3*
X28740Y14830D3*
Y12290D3*
X26200Y14830D3*
Y12290D3*
X23660Y14830D3*
Y12290D3*
X21120Y14830D3*
Y12290D3*
D21*
X26080Y47600D3*
X24380D3*
X26080Y54240D3*
X24380D3*
D22*
X39600Y57520D3*
Y59220D3*
Y50000D3*
Y51700D3*
X39410Y23710D3*
Y25410D3*
Y38510D3*
Y40210D3*
D21*
X26080Y50960D3*
X24380D3*
D43*
X37463Y48080D3*
X29298D3*
X37463Y54880D3*
X29298D3*
D44*
X18720Y73310D3*
G36*
X28488Y64088D2*
X29266Y63310D1*
X27852Y61896D1*
X27074Y62674D1*
X28488Y64088D1*
G37*
G36*
X33428Y69027D2*
X34205Y68249D1*
X32791Y66835D1*
X32013Y67613D1*
X33428Y69027D1*
G37*
G36*
X31989Y70466D2*
X32767Y69689D1*
X31353Y68274D1*
X30575Y69052D1*
X31989Y70466D1*
G37*
G36*
X30550Y71905D2*
X31328Y71128D1*
X29914Y69713D1*
X29136Y70491D1*
X30550Y71905D1*
G37*
G36*
X27050Y65527D2*
X27827Y64749D1*
X26413Y63335D1*
X25635Y64113D1*
X27050Y65527D1*
G37*
G36*
X25611Y66965D2*
X26389Y66188D1*
X24975Y64773D1*
X24197Y65551D1*
X25611Y66965D1*
G37*
G36*
X30756Y64215D2*
X31888Y65346D1*
X33443Y63791D1*
X32312Y62659D1*
X30756Y64215D1*
G37*
G36*
X24807Y70165D2*
X25938Y71296D1*
X27494Y69740D1*
X26362Y68609D1*
X24807Y70165D1*
G37*
D20*
X35600Y42240D3*
Y34290D3*
X31100Y42240D3*
Y34290D3*
X35603Y29709D3*
Y21759D3*
X31103Y29709D3*
Y21759D3*
X38730Y70686D2*
D12*
X40022D1*
X38730Y70648D2*
X40022D1*
X38730Y70610D2*
X40022D1*
X38730Y70572D2*
X40022D1*
X38730Y70534D2*
X40022D1*
X38730Y70496D2*
X38844D1*
X39908D2*
X40022D1*
X38730Y70458D2*
X38844D1*
X39908D2*
X40022D1*
X38730Y70420D2*
X38844D1*
X39908D2*
X40022D1*
X38730Y70382D2*
X38844D1*
X39908D2*
X40022D1*
X38730Y70344D2*
X38844D1*
X39908D2*
X40022D1*
X38730Y70306D2*
X38844D1*
X39908D2*
X40022D1*
X38730Y70268D2*
X38845D1*
X39908D2*
X40022D1*
X38730Y70230D2*
X38850D1*
X39908D2*
X40022D1*
X38731Y70192D2*
X38859D1*
X39908D2*
X40022D1*
X38736Y70154D2*
X38869D1*
X39908D2*
X40022D1*
X38745Y70116D2*
X38877D1*
X39907D2*
X40022D1*
X38755Y70078D2*
X38886D1*
X39902D2*
X40022D1*
X38763Y70040D2*
X38898D1*
X39891D2*
X40021D1*
X38772Y70002D2*
X38915D1*
X39875D2*
X40016D1*
X38784Y69964D2*
X38939D1*
X39851D2*
X40005D1*
X38801Y69926D2*
X38977D1*
X39820D2*
X39989D1*
X38823Y69888D2*
X39029D1*
X39745D2*
X39967D1*
X38852Y69850D2*
X39177D1*
X39609D2*
X39938D1*
X38887Y69812D2*
X39404D1*
X39386D2*
X39903D1*
X38930Y69774D2*
X39860D1*
X38985Y69736D2*
X39805D1*
X39060Y69698D2*
X39730D1*
X39155Y69660D2*
X39635D1*
X39262Y69622D2*
X39528D1*
X38730Y69356D2*
X40022D1*
X38730Y69318D2*
X40022D1*
X38730Y69280D2*
X40022D1*
X38730Y69242D2*
X40022D1*
X38730Y69204D2*
X38844D1*
X39338D2*
X39452D1*
X39908D2*
X40022D1*
X38730Y69166D2*
X38844D1*
X39338D2*
X39452D1*
X39908D2*
X40022D1*
X38730Y69128D2*
X38844D1*
X39338D2*
X39452D1*
X39908D2*
X40022D1*
X38730Y69090D2*
X38844D1*
X39338D2*
X39452D1*
X39908D2*
X40022D1*
X38730Y69052D2*
X38844D1*
X39338D2*
X39452D1*
X39908D2*
X40022D1*
X38730Y69014D2*
X38844D1*
X39338D2*
X39452D1*
X39908D2*
X40022D1*
X38730Y68976D2*
X38844D1*
X39338D2*
X39452D1*
X39908D2*
X40022D1*
X38730Y68938D2*
X38844D1*
X39338D2*
X39453D1*
X39908D2*
X40022D1*
X38730Y68900D2*
X38845D1*
X39338D2*
X39458D1*
X39908D2*
X40022D1*
X38730Y68862D2*
X38850D1*
X39338D2*
X39467D1*
X39908D2*
X40022D1*
X38731Y68824D2*
X38859D1*
X39338D2*
X39477D1*
X39907D2*
X40022D1*
X38736Y68786D2*
X38869D1*
X39337D2*
X39485D1*
X39901D2*
X40022D1*
X38745Y68748D2*
X38877D1*
X39331D2*
X39496D1*
X39892D2*
X40021D1*
X38755Y68710D2*
X38888D1*
X39322D2*
X39512D1*
X39868D2*
X40016D1*
X38763Y68672D2*
X38905D1*
X39298D2*
X39573D1*
X39795D2*
X40005D1*
X38773Y68634D2*
X38973D1*
X39218D2*
X39672D1*
X39676D2*
X39989D1*
X38789Y68596D2*
X39084D1*
X39085D2*
X39369D1*
X39452D2*
X39965D1*
X38811Y68558D2*
X39353D1*
X39490D2*
X39931D1*
X38841Y68520D2*
X39326D1*
X39528D2*
X39885D1*
X38882Y68482D2*
X39288D1*
X39566D2*
X39832D1*
X38936Y68444D2*
X39240D1*
X38996Y68406D2*
X39186D1*
X39224Y68178D2*
X39566D1*
X39097Y68140D2*
X39693D1*
X38995Y68102D2*
X39795D1*
X38918Y68064D2*
X39871D1*
X38861Y68026D2*
X39924D1*
X38820Y67988D2*
X39087D1*
X39715D2*
X39961D1*
X38792Y67950D2*
X39006D1*
X39780D2*
X39987D1*
X38773Y67912D2*
X38949D1*
X39830D2*
X40004D1*
X38757Y67874D2*
X38907D1*
X39864D2*
X40014D1*
X38745Y67836D2*
X38888D1*
X39890D2*
X40019D1*
X38737Y67798D2*
X38873D1*
X39899D2*
X40021D1*
X38734Y67760D2*
X38862D1*
X39903D2*
X40022D1*
X38737Y67722D2*
X38867D1*
X39900D2*
X40022D1*
X38746Y67684D2*
X38880D1*
X39890D2*
X40020D1*
X38757Y67646D2*
X38902D1*
X39872D2*
X40016D1*
X38770Y67608D2*
X38933D1*
X39848D2*
X40005D1*
X38789Y67570D2*
X39018D1*
X39760D2*
X39989D1*
X38816Y67532D2*
X39167D1*
X39598D2*
X39965D1*
X38850Y67494D2*
X39400D1*
X39342D2*
X39930D1*
X38895Y67456D2*
X39880D1*
X38959Y67418D2*
X39813D1*
X39047Y67380D2*
X39731D1*
X39148Y67342D2*
X39642D1*
X39224Y67152D2*
X39566D1*
X39097Y67114D2*
X39693D1*
X38995Y67076D2*
X39795D1*
X38918Y67038D2*
X39871D1*
X38861Y67000D2*
X39924D1*
X38820Y66962D2*
X39087D1*
X39715D2*
X39961D1*
X38792Y66924D2*
X39006D1*
X39780D2*
X39987D1*
X38773Y66886D2*
X38949D1*
X39830D2*
X40004D1*
X38757Y66848D2*
X38907D1*
X39864D2*
X40014D1*
X38745Y66810D2*
X38888D1*
X39890D2*
X40019D1*
X38737Y66772D2*
X38873D1*
X39899D2*
X40021D1*
X38734Y66734D2*
X38862D1*
X39903D2*
X40022D1*
X38737Y66696D2*
X38867D1*
X39900D2*
X40022D1*
X38746Y66658D2*
X38880D1*
X39890D2*
X40020D1*
X38757Y66620D2*
X38902D1*
X39872D2*
X40016D1*
X38770Y66582D2*
X38933D1*
X39848D2*
X40005D1*
X38789Y66544D2*
X39018D1*
X39760D2*
X39989D1*
X38816Y66506D2*
X39167D1*
X39598D2*
X39965D1*
X38850Y66468D2*
X39400D1*
X39342D2*
X39930D1*
X38895Y66430D2*
X39880D1*
X38959Y66392D2*
X39813D1*
X39047Y66354D2*
X39731D1*
X39148Y66316D2*
X39642D1*
X39034Y66126D2*
X39072D1*
X38966Y66088D2*
X39089D1*
X39718D2*
X39832D1*
X38907Y66050D2*
X39101D1*
X39711D2*
X39870D1*
X38861Y66012D2*
X39093D1*
X39698D2*
X39908D1*
X38827Y65974D2*
X39056D1*
X39680D2*
X39944D1*
X38803Y65936D2*
X39011D1*
X39748D2*
X39976D1*
X38784Y65898D2*
X38967D1*
X39807D2*
X39999D1*
X38770Y65860D2*
X38930D1*
X39852D2*
X40011D1*
X38756Y65822D2*
X38901D1*
X39885D2*
X40018D1*
X38744Y65784D2*
X38878D1*
X39376D2*
X39490D1*
X39897D2*
X40020D1*
X38737Y65746D2*
X38859D1*
X39393D2*
X39496D1*
X39903D2*
X40021D1*
X38734Y65708D2*
X38858D1*
X39403D2*
X39507D1*
X39905D2*
X40022D1*
X38737Y65670D2*
X38864D1*
X39407D2*
X39522D1*
X39901D2*
X40022D1*
X38746Y65632D2*
X38877D1*
X39396D2*
X39541D1*
X39889D2*
X40020D1*
X38757Y65594D2*
X38895D1*
X39380D2*
X39564D1*
X39870D2*
X40014D1*
X38768Y65556D2*
X38921D1*
X39355D2*
X39626D1*
X39809D2*
X40000D1*
X38782Y65518D2*
X38963D1*
X39320D2*
X39719D1*
X39716D2*
X39980D1*
X38800Y65480D2*
X39029D1*
X39238D2*
X39955D1*
X38824Y65442D2*
X39120D1*
X39125D2*
X39406D1*
X39535D2*
X39924D1*
X38860Y65404D2*
X39394D1*
X39586D2*
X39881D1*
X38908Y65366D2*
X39359D1*
X39642D2*
X39832D1*
X38969Y65328D2*
X39314D1*
X39034Y65290D2*
X39262D1*
X39148Y65100D2*
X39262D1*
X39148Y65062D2*
X39262D1*
X39148Y65024D2*
X39262D1*
X39148Y64986D2*
X39262D1*
X39148Y64948D2*
X39262D1*
X39148Y64910D2*
X39262D1*
X39148Y64872D2*
X39262D1*
X39148Y64834D2*
X39262D1*
X39148Y64796D2*
X39262D1*
X39148Y64758D2*
X39262D1*
X39148Y64720D2*
X39262D1*
X39148Y64682D2*
X39262D1*
X39148Y64644D2*
X39262D1*
X39224Y64492D2*
X39566D1*
X39097Y64454D2*
X39693D1*
X38995Y64416D2*
X39795D1*
X38918Y64378D2*
X39871D1*
X38861Y64340D2*
X39924D1*
X38820Y64302D2*
X39087D1*
X39715D2*
X39961D1*
X38792Y64264D2*
X39006D1*
X39780D2*
X39987D1*
X38773Y64226D2*
X38949D1*
X39830D2*
X40004D1*
X38757Y64188D2*
X38907D1*
X39864D2*
X40014D1*
X38745Y64150D2*
X38888D1*
X39890D2*
X40019D1*
X38737Y64112D2*
X38873D1*
X39899D2*
X40021D1*
X38734Y64074D2*
X38862D1*
X39903D2*
X40022D1*
X38737Y64036D2*
X38867D1*
X39900D2*
X40022D1*
X38746Y63998D2*
X38880D1*
X39890D2*
X40020D1*
X38757Y63960D2*
X38902D1*
X39872D2*
X40016D1*
X38770Y63922D2*
X38933D1*
X39848D2*
X40005D1*
X38789Y63884D2*
X39018D1*
X39760D2*
X39989D1*
X38816Y63846D2*
X39167D1*
X39598D2*
X39965D1*
X38850Y63808D2*
X39400D1*
X39342D2*
X39930D1*
X38895Y63770D2*
X39880D1*
X38959Y63732D2*
X39813D1*
X39047Y63694D2*
X39731D1*
X39148Y63656D2*
X39642D1*
X38730Y63504D2*
X38768D1*
X38730Y63466D2*
X38847D1*
X39680D2*
X39756D1*
X38730Y63428D2*
X38916D1*
X39673D2*
X39829D1*
X38730Y63390D2*
X38975D1*
X39660D2*
X39887D1*
X38730Y63352D2*
X39025D1*
X39642D2*
X39931D1*
X38730Y63314D2*
X39068D1*
X39715D2*
X39964D1*
X38730Y63276D2*
X39107D1*
X39780D2*
X39988D1*
X38730Y63238D2*
X38844D1*
X38958D2*
X39141D1*
X39830D2*
X40004D1*
X38730Y63200D2*
X38844D1*
X38996D2*
X39170D1*
X39864D2*
X40014D1*
X38730Y63162D2*
X38844D1*
X39033D2*
X39199D1*
X39890D2*
X40019D1*
X38730Y63124D2*
X38844D1*
X39066D2*
X39230D1*
X39899D2*
X40021D1*
X38730Y63086D2*
X38844D1*
X39095D2*
X39265D1*
X39904D2*
X40022D1*
X38730Y63048D2*
X38844D1*
X39123D2*
X39301D1*
X39906D2*
X40022D1*
X38730Y63010D2*
X38844D1*
X39154D2*
X39338D1*
X39906D2*
X40022D1*
X38730Y62972D2*
X38844D1*
X39189D2*
X39376D1*
X39900D2*
X40022D1*
X38730Y62934D2*
X38844D1*
X39225D2*
X39416D1*
X39888D2*
X40020D1*
X38730Y62896D2*
X38844D1*
X39262D2*
X39468D1*
X39853D2*
X40014D1*
X38730Y62858D2*
X38844D1*
X39300D2*
X39551D1*
X39791D2*
X40000D1*
X38730Y62820D2*
X38844D1*
X39338D2*
X39678D1*
X39690D2*
X39978D1*
X38730Y62782D2*
X38844D1*
X39378D2*
X39951D1*
X38730Y62744D2*
X38844D1*
X39421D2*
X39916D1*
X38730Y62706D2*
X38844D1*
X39472D2*
X39875D1*
X38730Y62668D2*
X38844D1*
X39528D2*
X39832D1*
X38730Y70686D2*
Y70648D1*
Y70610D1*
Y70572D1*
Y70534D1*
Y70496D1*
Y70458D1*
Y70420D1*
Y70382D1*
Y70344D1*
Y70306D1*
Y70268D1*
Y70230D1*
X38731Y70192D1*
X38736Y70154D1*
X38745Y70116D1*
X38755Y70078D1*
X38763Y70040D1*
X38772Y70002D1*
X38784Y69964D1*
X38801Y69926D1*
X38823Y69888D1*
X38852Y69850D1*
X38887Y69812D1*
X38930Y69774D1*
X38985Y69736D1*
X39060Y69698D1*
X39155Y69660D1*
X39262Y69622D1*
X40022Y70686D2*
Y70648D1*
Y70610D1*
Y70572D1*
Y70534D1*
Y70496D1*
Y70458D1*
Y70420D1*
Y70382D1*
Y70344D1*
Y70306D1*
Y70268D1*
Y70230D1*
Y70192D1*
Y70154D1*
Y70116D1*
Y70078D1*
X40021Y70040D1*
X40016Y70002D1*
X40005Y69964D1*
X39989Y69926D1*
X39967Y69888D1*
X39938Y69850D1*
X39903Y69812D1*
X39860Y69774D1*
X39805Y69736D1*
X39730Y69698D1*
X39635Y69660D1*
X39528Y69622D1*
X38844Y70534D2*
Y70496D1*
Y70458D1*
Y70420D1*
Y70382D1*
Y70344D1*
Y70306D1*
X38845Y70268D1*
X38850Y70230D1*
X38859Y70192D1*
X38869Y70154D1*
X38877Y70116D1*
X38886Y70078D1*
X38898Y70040D1*
X38915Y70002D1*
X38939Y69964D1*
X38977Y69926D1*
X39029Y69888D1*
X39177Y69850D1*
X39404Y69812D1*
X39680Y69774D1*
X39908Y70534D2*
Y70496D1*
Y70458D1*
Y70420D1*
Y70382D1*
Y70344D1*
Y70306D1*
Y70268D1*
Y70230D1*
Y70192D1*
Y70154D1*
X39907Y70116D1*
X39902Y70078D1*
X39891Y70040D1*
X39875Y70002D1*
X39851Y69964D1*
X39820Y69926D1*
X39745Y69888D1*
X39609Y69850D1*
X39386Y69812D1*
X39110Y69774D1*
X38730Y69356D2*
Y69318D1*
Y69280D1*
Y69242D1*
Y69204D1*
Y69166D1*
Y69128D1*
Y69090D1*
Y69052D1*
Y69014D1*
Y68976D1*
Y68938D1*
Y68900D1*
Y68862D1*
X38731Y68824D1*
X38736Y68786D1*
X38745Y68748D1*
X38755Y68710D1*
X38763Y68672D1*
X38773Y68634D1*
X38789Y68596D1*
X38811Y68558D1*
X38841Y68520D1*
X38882Y68482D1*
X38936Y68444D1*
X38996Y68406D1*
X40022Y69356D2*
Y69318D1*
Y69280D1*
Y69242D1*
Y69204D1*
Y69166D1*
Y69128D1*
Y69090D1*
Y69052D1*
Y69014D1*
Y68976D1*
Y68938D1*
Y68900D1*
Y68862D1*
Y68824D1*
Y68786D1*
X40021Y68748D1*
X40016Y68710D1*
X40005Y68672D1*
X39989Y68634D1*
X39965Y68596D1*
X39931Y68558D1*
X39885Y68520D1*
X39832Y68482D1*
X38844Y69242D2*
Y69204D1*
Y69166D1*
Y69128D1*
Y69090D1*
Y69052D1*
Y69014D1*
Y68976D1*
Y68938D1*
X38845Y68900D1*
X38850Y68862D1*
X38859Y68824D1*
X38869Y68786D1*
X38877Y68748D1*
X38888Y68710D1*
X38905Y68672D1*
X38973Y68634D1*
X39084Y68596D1*
X39224Y68558D1*
X39338Y69242D2*
Y69204D1*
Y69166D1*
Y69128D1*
Y69090D1*
Y69052D1*
Y69014D1*
Y68976D1*
Y68938D1*
Y68900D1*
Y68862D1*
Y68824D1*
X39337Y68786D1*
X39331Y68748D1*
X39322Y68710D1*
X39298Y68672D1*
X39218Y68634D1*
X39085Y68596D1*
X38920Y68558D1*
X39452Y69242D2*
Y69204D1*
Y69166D1*
Y69128D1*
Y69090D1*
Y69052D1*
Y69014D1*
Y68976D1*
X39453Y68938D1*
X39458Y68900D1*
X39467Y68862D1*
X39477Y68824D1*
X39485Y68786D1*
X39496Y68748D1*
X39512Y68710D1*
X39573Y68672D1*
X39672Y68634D1*
X39794Y68596D1*
X39908Y69242D2*
Y69204D1*
Y69166D1*
Y69128D1*
Y69090D1*
Y69052D1*
Y69014D1*
Y68976D1*
Y68938D1*
Y68900D1*
Y68862D1*
X39907Y68824D1*
X39901Y68786D1*
X39892Y68748D1*
X39868Y68710D1*
X39795Y68672D1*
X39676Y68634D1*
X39528Y68596D1*
X39376Y68634D2*
X39369Y68596D1*
X39353Y68558D1*
X39326Y68520D1*
X39288Y68482D1*
X39240Y68444D1*
X39186Y68406D1*
X39414Y68634D2*
X39452Y68596D1*
X39490Y68558D1*
X39528Y68520D1*
X39566Y68482D1*
X39224Y68178D2*
X39097Y68140D1*
X38995Y68102D1*
X38918Y68064D1*
X38861Y68026D1*
X38820Y67988D1*
X38792Y67950D1*
X38773Y67912D1*
X38757Y67874D1*
X38745Y67836D1*
X38737Y67798D1*
X38734Y67760D1*
X38737Y67722D1*
X38746Y67684D1*
X38757Y67646D1*
X38770Y67608D1*
X38789Y67570D1*
X38816Y67532D1*
X38850Y67494D1*
X38895Y67456D1*
X38959Y67418D1*
X39047Y67380D1*
X39148Y67342D1*
X39566Y68178D2*
X39693Y68140D1*
X39795Y68102D1*
X39871Y68064D1*
X39924Y68026D1*
X39961Y67988D1*
X39987Y67950D1*
X40004Y67912D1*
X40014Y67874D1*
X40019Y67836D1*
X40021Y67798D1*
X40022Y67760D1*
Y67722D1*
X40020Y67684D1*
X40016Y67646D1*
X40005Y67608D1*
X39989Y67570D1*
X39965Y67532D1*
X39930Y67494D1*
X39880Y67456D1*
X39813Y67418D1*
X39731Y67380D1*
X39642Y67342D1*
X39186Y68026D2*
X39087Y67988D1*
X39006Y67950D1*
X38949Y67912D1*
X38907Y67874D1*
X38888Y67836D1*
X38873Y67798D1*
X38862Y67760D1*
X38867Y67722D1*
X38880Y67684D1*
X38902Y67646D1*
X38933Y67608D1*
X39018Y67570D1*
X39167Y67532D1*
X39400Y67494D1*
X39680Y67456D1*
X39642Y68026D2*
X39715Y67988D1*
X39780Y67950D1*
X39830Y67912D1*
X39864Y67874D1*
X39890Y67836D1*
X39899Y67798D1*
X39903Y67760D1*
X39900Y67722D1*
X39890Y67684D1*
X39872Y67646D1*
X39848Y67608D1*
X39760Y67570D1*
X39598Y67532D1*
X39342Y67494D1*
X39034Y67456D1*
X39224Y67152D2*
X39097Y67114D1*
X38995Y67076D1*
X38918Y67038D1*
X38861Y67000D1*
X38820Y66962D1*
X38792Y66924D1*
X38773Y66886D1*
X38757Y66848D1*
X38745Y66810D1*
X38737Y66772D1*
X38734Y66734D1*
X38737Y66696D1*
X38746Y66658D1*
X38757Y66620D1*
X38770Y66582D1*
X38789Y66544D1*
X38816Y66506D1*
X38850Y66468D1*
X38895Y66430D1*
X38959Y66392D1*
X39047Y66354D1*
X39148Y66316D1*
X39566Y67152D2*
X39693Y67114D1*
X39795Y67076D1*
X39871Y67038D1*
X39924Y67000D1*
X39961Y66962D1*
X39987Y66924D1*
X40004Y66886D1*
X40014Y66848D1*
X40019Y66810D1*
X40021Y66772D1*
X40022Y66734D1*
Y66696D1*
X40020Y66658D1*
X40016Y66620D1*
X40005Y66582D1*
X39989Y66544D1*
X39965Y66506D1*
X39930Y66468D1*
X39880Y66430D1*
X39813Y66392D1*
X39731Y66354D1*
X39642Y66316D1*
X39186Y67000D2*
X39087Y66962D1*
X39006Y66924D1*
X38949Y66886D1*
X38907Y66848D1*
X38888Y66810D1*
X38873Y66772D1*
X38862Y66734D1*
X38867Y66696D1*
X38880Y66658D1*
X38902Y66620D1*
X38933Y66582D1*
X39018Y66544D1*
X39167Y66506D1*
X39400Y66468D1*
X39680Y66430D1*
X39642Y67000D2*
X39715Y66962D1*
X39780Y66924D1*
X39830Y66886D1*
X39864Y66848D1*
X39890Y66810D1*
X39899Y66772D1*
X39903Y66734D1*
X39900Y66696D1*
X39890Y66658D1*
X39872Y66620D1*
X39848Y66582D1*
X39760Y66544D1*
X39598Y66506D1*
X39342Y66468D1*
X39034Y66430D1*
Y66126D2*
X38966Y66088D1*
X38907Y66050D1*
X38861Y66012D1*
X38827Y65974D1*
X38803Y65936D1*
X38784Y65898D1*
X38770Y65860D1*
X38756Y65822D1*
X38744Y65784D1*
X38737Y65746D1*
X38734Y65708D1*
X38737Y65670D1*
X38746Y65632D1*
X38757Y65594D1*
X38768Y65556D1*
X38782Y65518D1*
X38800Y65480D1*
X38824Y65442D1*
X38860Y65404D1*
X38908Y65366D1*
X38969Y65328D1*
X39034Y65290D1*
X39072Y66126D2*
X39089Y66088D1*
X39101Y66050D1*
X39093Y66012D1*
X39056Y65974D1*
X39011Y65936D1*
X38967Y65898D1*
X38930Y65860D1*
X38901Y65822D1*
X38878Y65784D1*
X38859Y65746D1*
X38858Y65708D1*
X38864Y65670D1*
X38877Y65632D1*
X38895Y65594D1*
X38921Y65556D1*
X38963Y65518D1*
X39029Y65480D1*
X39120Y65442D1*
X39224Y65404D1*
X39718Y66088D2*
X39711Y66050D1*
X39698Y66012D1*
X39680Y65974D1*
X39748Y65936D1*
X39807Y65898D1*
X39852Y65860D1*
X39885Y65822D1*
X39897Y65784D1*
X39903Y65746D1*
X39905Y65708D1*
X39901Y65670D1*
X39889Y65632D1*
X39870Y65594D1*
X39809Y65556D1*
X39716Y65518D1*
X39604Y65480D1*
X39832Y66088D2*
X39870Y66050D1*
X39908Y66012D1*
X39944Y65974D1*
X39976Y65936D1*
X39999Y65898D1*
X40011Y65860D1*
X40018Y65822D1*
X40020Y65784D1*
X40021Y65746D1*
X40022Y65708D1*
Y65670D1*
X40020Y65632D1*
X40014Y65594D1*
X40000Y65556D1*
X39980Y65518D1*
X39955Y65480D1*
X39924Y65442D1*
X39881Y65404D1*
X39832Y65366D1*
X39376Y65784D2*
X39393Y65746D1*
X39403Y65708D1*
X39407Y65670D1*
X39396Y65632D1*
X39380Y65594D1*
X39355Y65556D1*
X39320Y65518D1*
X39238Y65480D1*
X39125Y65442D1*
X38996Y65404D1*
X39490Y65784D2*
X39496Y65746D1*
X39507Y65708D1*
X39522Y65670D1*
X39541Y65632D1*
X39564Y65594D1*
X39626Y65556D1*
X39719Y65518D1*
X39832Y65480D1*
X39414D2*
X39406Y65442D1*
X39394Y65404D1*
X39359Y65366D1*
X39314Y65328D1*
X39262Y65290D1*
X39490Y65480D2*
X39535Y65442D1*
X39586Y65404D1*
X39642Y65366D1*
X39148Y65100D2*
Y65062D1*
Y65024D1*
Y64986D1*
Y64948D1*
Y64910D1*
Y64872D1*
Y64834D1*
Y64796D1*
Y64758D1*
Y64720D1*
Y64682D1*
Y64644D1*
X39262Y65100D2*
Y65062D1*
Y65024D1*
Y64986D1*
Y64948D1*
Y64910D1*
Y64872D1*
Y64834D1*
Y64796D1*
Y64758D1*
Y64720D1*
Y64682D1*
Y64644D1*
X39224Y64492D2*
X39097Y64454D1*
X38995Y64416D1*
X38918Y64378D1*
X38861Y64340D1*
X38820Y64302D1*
X38792Y64264D1*
X38773Y64226D1*
X38757Y64188D1*
X38745Y64150D1*
X38737Y64112D1*
X38734Y64074D1*
X38737Y64036D1*
X38746Y63998D1*
X38757Y63960D1*
X38770Y63922D1*
X38789Y63884D1*
X38816Y63846D1*
X38850Y63808D1*
X38895Y63770D1*
X38959Y63732D1*
X39047Y63694D1*
X39148Y63656D1*
X39566Y64492D2*
X39693Y64454D1*
X39795Y64416D1*
X39871Y64378D1*
X39924Y64340D1*
X39961Y64302D1*
X39987Y64264D1*
X40004Y64226D1*
X40014Y64188D1*
X40019Y64150D1*
X40021Y64112D1*
X40022Y64074D1*
Y64036D1*
X40020Y63998D1*
X40016Y63960D1*
X40005Y63922D1*
X39989Y63884D1*
X39965Y63846D1*
X39930Y63808D1*
X39880Y63770D1*
X39813Y63732D1*
X39731Y63694D1*
X39642Y63656D1*
X39186Y64340D2*
X39087Y64302D1*
X39006Y64264D1*
X38949Y64226D1*
X38907Y64188D1*
X38888Y64150D1*
X38873Y64112D1*
X38862Y64074D1*
X38867Y64036D1*
X38880Y63998D1*
X38902Y63960D1*
X38933Y63922D1*
X39018Y63884D1*
X39167Y63846D1*
X39400Y63808D1*
X39680Y63770D1*
X39642Y64340D2*
X39715Y64302D1*
X39780Y64264D1*
X39830Y64226D1*
X39864Y64188D1*
X39890Y64150D1*
X39899Y64112D1*
X39903Y64074D1*
X39900Y64036D1*
X39890Y63998D1*
X39872Y63960D1*
X39848Y63922D1*
X39760Y63884D1*
X39598Y63846D1*
X39342Y63808D1*
X39034Y63770D1*
X38730Y63504D2*
Y63466D1*
Y63428D1*
Y63390D1*
Y63352D1*
Y63314D1*
Y63276D1*
Y63238D1*
Y63200D1*
Y63162D1*
Y63124D1*
Y63086D1*
Y63048D1*
Y63010D1*
Y62972D1*
Y62934D1*
Y62896D1*
Y62858D1*
Y62820D1*
Y62782D1*
Y62744D1*
Y62706D1*
Y62668D1*
X38768Y63504D2*
X38847Y63466D1*
X38916Y63428D1*
X38975Y63390D1*
X39025Y63352D1*
X39068Y63314D1*
X39107Y63276D1*
X39141Y63238D1*
X39170Y63200D1*
X39199Y63162D1*
X39230Y63124D1*
X39265Y63086D1*
X39301Y63048D1*
X39338Y63010D1*
X39376Y62972D1*
X39416Y62934D1*
X39468Y62896D1*
X39551Y62858D1*
X39678Y62820D1*
X39832Y62782D1*
X39680Y63466D2*
X39673Y63428D1*
X39660Y63390D1*
X39642Y63352D1*
X39715Y63314D1*
X39780Y63276D1*
X39830Y63238D1*
X39864Y63200D1*
X39890Y63162D1*
X39899Y63124D1*
X39904Y63086D1*
X39906Y63048D1*
Y63010D1*
X39900Y62972D1*
X39888Y62934D1*
X39853Y62896D1*
X39791Y62858D1*
X39690Y62820D1*
X39566Y62782D1*
X39756Y63466D2*
X39829Y63428D1*
X39887Y63390D1*
X39931Y63352D1*
X39964Y63314D1*
X39988Y63276D1*
X40004Y63238D1*
X40014Y63200D1*
X40019Y63162D1*
X40021Y63124D1*
X40022Y63086D1*
Y63048D1*
Y63010D1*
Y62972D1*
X40020Y62934D1*
X40014Y62896D1*
X40000Y62858D1*
X39978Y62820D1*
X39951Y62782D1*
X39916Y62744D1*
X39875Y62706D1*
X39832Y62668D1*
X38844Y63276D2*
Y63238D1*
Y63200D1*
Y63162D1*
Y63124D1*
Y63086D1*
Y63048D1*
Y63010D1*
Y62972D1*
Y62934D1*
Y62896D1*
Y62858D1*
Y62820D1*
Y62782D1*
Y62744D1*
Y62706D1*
Y62668D1*
X38920Y63276D2*
X38958Y63238D1*
X38996Y63200D1*
X39033Y63162D1*
X39066Y63124D1*
X39095Y63086D1*
X39123Y63048D1*
X39154Y63010D1*
X39189Y62972D1*
X39225Y62934D1*
X39262Y62896D1*
X39300Y62858D1*
X39338Y62820D1*
X39378Y62782D1*
X39421Y62744D1*
X39472Y62706D1*
X39528Y62668D1*
M02*
