G04 DipTrace 2.4.0.2*
%INTopDimension.gbr*%
%MOMM*%
%ADD12C,0.076*%
%ADD13C,0.035*%
%ADD52O,0.159X0.159*%
%FSLAX53Y53*%
G04*
G71*
G90*
G75*
G01*
%LNTopDimension*%
%LPD*%
X82500Y10000D2*
D13*
X100020D1*
X83975Y74095D2*
X100020D1*
X99520Y42048D2*
Y11000D1*
G36*
Y10000D2*
X99320Y11000D1*
X99720D1*
X99520Y10000D1*
G37*
Y42048D2*
D13*
Y73095D1*
G36*
Y74095D2*
X99720Y73095D1*
X99320D1*
X99520Y74095D1*
G37*
X13500Y77000D2*
D13*
X-5620D1*
X13500Y10000D2*
X-5620D1*
X-5120Y43500D2*
Y76000D1*
G36*
Y77000D2*
X-4920Y76000D1*
X-5320D1*
X-5120Y77000D1*
G37*
Y43500D2*
D13*
Y11000D1*
G36*
Y10000D2*
X-5320Y11000D1*
X-4920D1*
X-5120Y10000D1*
G37*
X10000Y73500D2*
D13*
Y80290D1*
X86000Y73500D2*
Y80290D1*
X48000Y79790D2*
X11000D1*
G36*
X10000D2*
X11000Y79990D1*
Y79590D1*
X10000Y79790D1*
G37*
X48000D2*
D13*
X85000D1*
G36*
X86000D2*
X85000Y79590D1*
Y79990D1*
X86000Y79790D1*
G37*
X54225Y35271D2*
D13*
Y33194D1*
X52471Y37020D2*
Y33194D1*
Y33527D2*
X54225D1*
X51471D2*
X51804D1*
G36*
X52471D2*
X51804Y33394D1*
Y33661D1*
X52471Y33527D1*
G37*
X55225D2*
D13*
X54891D1*
G36*
X54225D2*
X54891Y33661D1*
Y33394D1*
X54225Y33527D1*
G37*
X80100Y77000D2*
D13*
X93250D1*
X84500Y74160D2*
X93250D1*
X92750Y75580D2*
Y76000D1*
G36*
Y77000D2*
X92950Y76000D1*
X92550D1*
X92750Y77000D1*
G37*
Y75580D2*
D13*
Y75160D1*
G36*
Y74160D2*
X92550Y75160D1*
X92950D1*
X92750Y74160D1*
G37*
Y70032D2*
D13*
Y77000D1*
X84500Y12840D2*
X93790D1*
X82500Y10000D2*
X93790D1*
X93290Y11420D2*
Y11840D1*
G36*
Y12840D2*
X93490Y11840D1*
X93090D1*
X93290Y12840D1*
G37*
Y11420D2*
D13*
Y11000D1*
G36*
Y10000D2*
X93090Y11000D1*
X93490D1*
X93290Y10000D1*
G37*
Y5872D2*
D13*
Y12840D1*
X100705Y42708D2*
D52*
X100802Y42756D1*
X100850Y42902D1*
Y42999D1*
X100802Y43145D1*
X100656Y43242D1*
X100413Y43291D1*
X100170D1*
X99976Y43242D1*
X99878Y43145D1*
X99830Y42999D1*
Y42950D1*
X99878Y42805D1*
X99976Y42708D1*
X100122Y42659D1*
X100170D1*
X100316Y42708D1*
X100413Y42805D1*
X100461Y42950D1*
Y42999D1*
X100413Y43145D1*
X100316Y43242D1*
X100170Y43291D1*
X99830Y41859D2*
X100850D1*
X100170Y42346D1*
Y41617D1*
X99928Y41255D2*
X99878Y41303D1*
X99830Y41255D1*
X99878Y41205D1*
X99928Y41255D1*
X100656Y40892D2*
X100705Y40794D1*
X100850Y40648D1*
X99830D1*
X-6305Y43349D2*
X-6402Y43300D1*
X-6450Y43154D1*
Y43058D1*
X-6402Y42912D1*
X-6256Y42814D1*
X-6013Y42766D1*
X-5770D1*
X-5576Y42814D1*
X-5478Y42912D1*
X-5430Y43058D1*
Y43106D1*
X-5478Y43251D1*
X-5576Y43349D1*
X-5722Y43397D1*
X-5770D1*
X-5916Y43349D1*
X-6013Y43251D1*
X-6061Y43106D1*
Y43058D1*
X-6013Y42912D1*
X-5916Y42814D1*
X-5770Y42766D1*
X-5430Y43905D2*
X-6450Y44391D1*
Y43711D1*
X47460Y80100D2*
X47946Y81120D1*
X47266D1*
X48843Y80975D2*
X48795Y81072D1*
X48649Y81120D1*
X48552D1*
X48406Y81072D1*
X48308Y80926D1*
X48260Y80683D1*
Y80440D1*
X48308Y80246D1*
X48406Y80148D1*
X48552Y80100D1*
X48600D1*
X48745Y80148D1*
X48843Y80246D1*
X48891Y80392D1*
Y80440D1*
X48843Y80586D1*
X48745Y80683D1*
X48600Y80731D1*
X48552D1*
X48406Y80683D1*
X48308Y80586D1*
X48260Y80440D1*
X52726Y34095D2*
D12*
X52775Y34120D1*
X52848Y34192D1*
Y33682D1*
X53029Y33731D2*
X53005Y33706D1*
X53029Y33682D1*
X53054Y33706D1*
X53029Y33731D1*
X53308Y33682D2*
X53551Y34192D1*
X53210D1*
X53999D2*
X53756D1*
X53732Y33974D1*
X53756Y33998D1*
X53829Y34023D1*
X53902D1*
X53975Y33998D1*
X54024Y33950D1*
X54048Y33877D1*
Y33828D1*
X54024Y33755D1*
X53975Y33706D1*
X53902Y33682D1*
X53829D1*
X53756Y33706D1*
X53732Y33731D1*
X53708Y33779D1*
X93837Y72875D2*
D52*
X93886D1*
X93983Y72827D1*
X94032Y72779D1*
X94080Y72681D1*
Y72487D1*
X94032Y72390D1*
X93983Y72342D1*
X93886Y72292D1*
X93789D1*
X93691Y72342D1*
X93546Y72438D1*
X93060Y72925D1*
Y72244D1*
X93158Y71882D2*
X93108Y71930D1*
X93060Y71882D1*
X93108Y71833D1*
X93158Y71882D1*
X94080Y71276D2*
X94032Y71421D1*
X93935Y71471D1*
X93837D1*
X93741Y71421D1*
X93691Y71325D1*
X93643Y71130D1*
X93595Y70984D1*
X93497Y70888D1*
X93400Y70840D1*
X93254D1*
X93158Y70888D1*
X93108Y70936D1*
X93060Y71082D1*
Y71276D1*
X93108Y71421D1*
X93158Y71471D1*
X93254Y71519D1*
X93400D1*
X93497Y71471D1*
X93595Y71373D1*
X93643Y71228D1*
X93691Y71034D1*
X93741Y70936D1*
X93837Y70888D1*
X93935D1*
X94032Y70936D1*
X94080Y71082D1*
Y71276D1*
X93060Y70039D2*
X94080D1*
X93400Y70526D1*
Y69797D1*
X94377Y8715D2*
X94426D1*
X94523Y8667D1*
X94572Y8619D1*
X94620Y8521D1*
Y8327D1*
X94572Y8230D1*
X94523Y8182D1*
X94426Y8132D1*
X94329D1*
X94231Y8182D1*
X94086Y8278D1*
X93600Y8765D1*
Y8084D1*
X93698Y7722D2*
X93648Y7770D1*
X93600Y7722D1*
X93648Y7673D1*
X93698Y7722D1*
X94620Y7116D2*
X94572Y7261D1*
X94475Y7311D1*
X94377D1*
X94281Y7261D1*
X94231Y7165D1*
X94183Y6970D1*
X94135Y6824D1*
X94037Y6728D1*
X93940Y6680D1*
X93794D1*
X93698Y6728D1*
X93648Y6776D1*
X93600Y6922D1*
Y7116D1*
X93648Y7261D1*
X93698Y7311D1*
X93794Y7359D1*
X93940D1*
X94037Y7311D1*
X94135Y7213D1*
X94183Y7068D1*
X94231Y6874D1*
X94281Y6776D1*
X94377Y6728D1*
X94475D1*
X94572Y6776D1*
X94620Y6922D1*
Y7116D1*
X93600Y5879D2*
X94620D1*
X93940Y6366D1*
Y5637D1*
M02*
