G04 DipTrace 2.4.0.2*
%INTopMask.gbr*%
%MOMM*%
%ADD59C,3.0*%
%ADD60C,0.9*%
%ADD61C,1.5*%
%ADD83C,1.724*%
%ADD85R,1.7X1.6*%
%ADD86R,1.3X1.2*%
%ADD105C,1.9*%
%ADD108R,1.9X1.9*%
%ADD120R,1.2X1.3*%
%ADD123R,1.5X1.75*%
%FSLAX53Y53*%
G04*
G71*
G90*
G75*
G01*
%LNTopMask*%
%LPD*%
D123*
X24189Y38139D3*
Y30189D3*
X19689Y38139D3*
Y30189D3*
X24189Y25658D3*
Y17708D3*
X19689Y25658D3*
Y17708D3*
D86*
X22080Y50985D3*
X20380D3*
X22080Y54240D3*
X20380D3*
X22077Y47679D3*
X20377D3*
D108*
X15129Y67653D3*
D105*
X12589D3*
X15129Y65113D3*
X12589D3*
X15129Y62573D3*
X12589D3*
X15129Y60033D3*
X12589D3*
X15129Y57493D3*
X12589D3*
X15129Y54953D3*
X12589D3*
X15129Y52413D3*
X12589D3*
X15129Y49873D3*
X12589D3*
X15129Y47333D3*
X12589D3*
X15129Y44793D3*
X12589D3*
X15129Y42253D3*
X12589D3*
X15129Y39713D3*
X12589D3*
X15129Y37173D3*
X12589D3*
X15129Y34633D3*
X12589D3*
X15129Y32093D3*
X12589D3*
X15129Y29553D3*
X12589D3*
X15129Y27013D3*
X12589D3*
X15129Y24473D3*
X12589D3*
X15129Y21933D3*
X12589D3*
X15129Y19393D3*
X12589D3*
D59*
X13859Y72523D3*
Y14523D3*
X36859D3*
Y72523D3*
D108*
X72120Y11520D3*
D105*
X69580D3*
X67040D3*
D60*
X48280Y15160D3*
X43880D3*
D108*
X23445Y75440D3*
D105*
X25985D3*
X28525D3*
X31065D3*
D61*
X57783Y12297D3*
Y19297D3*
D108*
X31280Y14830D3*
D105*
Y12290D3*
X28740Y14830D3*
Y12290D3*
X26200Y14830D3*
Y12290D3*
X23660Y14830D3*
Y12290D3*
X21120Y14830D3*
Y12290D3*
D86*
X26080Y47600D3*
X24380D3*
X26080Y54240D3*
X24380D3*
D120*
X39600Y57520D3*
Y59220D3*
Y50000D3*
Y51700D3*
X39410Y23710D3*
Y25410D3*
Y38510D3*
Y40210D3*
D86*
X26080Y50960D3*
X24380D3*
D85*
X37463Y48080D3*
X29298D3*
X37463Y54880D3*
X29298D3*
D83*
X18720Y73310D3*
G36*
X28488Y64229D2*
X29407Y63310D1*
X27852Y61754D1*
X26933Y62674D1*
X28488Y64229D1*
G37*
G36*
X33428Y69169D2*
X34347Y68249D1*
X32791Y66694D1*
X31872Y67613D1*
X33428Y69169D1*
G37*
G36*
X31989Y70608D2*
X32908Y69689D1*
X31352Y68133D1*
X30433Y69052D1*
X31989Y70608D1*
G37*
G36*
X30550Y72047D2*
X31469Y71128D1*
X29914Y69572D1*
X28994Y70491D1*
X30550Y72047D1*
G37*
G36*
X27050Y65669D2*
X27969Y64749D1*
X26413Y63194D1*
X25494Y64113D1*
X27050Y65669D1*
G37*
G36*
X25611Y67107D2*
X26531Y66188D1*
X24975Y64632D1*
X24056Y65551D1*
X25611Y67107D1*
G37*
G36*
X30615Y64215D2*
X31888Y65488D1*
X33585Y63791D1*
X32312Y62518D1*
X30615Y64215D1*
G37*
G36*
X24665Y70164D2*
X25938Y71437D1*
X27635Y69740D1*
X26362Y68467D1*
X24665Y70164D1*
G37*
D123*
X35600Y42240D3*
Y34290D3*
X31100Y42240D3*
Y34290D3*
X35603Y29709D3*
Y21759D3*
X31103Y29709D3*
Y21759D3*
D59*
X83000Y12840D3*
Y74160D3*
M02*
