G04 DipTrace 2.4.0.2*
%INTopPaste.gbr*%
%MOMM*%
%ADD86R,1.3X1.2*%
%ADD121R,0.8X0.9*%
%ADD122R,0.9X0.8*%
%ADD124R,1.1X1.35*%
%FSLAX53Y53*%
G04*
G71*
G90*
G75*
G01*
%LNTopPaste*%
%LPD*%
D124*
X24189Y38139D3*
Y30189D3*
X19689Y38139D3*
Y30189D3*
X24189Y25658D3*
Y17708D3*
X19689Y25658D3*
Y17708D3*
D122*
X22080Y50985D3*
X20380D3*
X22080Y54240D3*
X20380D3*
X22077Y47679D3*
X20377D3*
X26080Y47600D3*
X24380D3*
X26080Y54240D3*
X24380D3*
D121*
X39600Y57520D3*
Y59220D3*
Y50000D3*
Y51700D3*
X39410Y23710D3*
Y25410D3*
Y38510D3*
Y40210D3*
D122*
X26080Y50960D3*
X24380D3*
D86*
X37463Y48080D3*
X29298D3*
X37463Y54880D3*
X29298D3*
G36*
X28488Y63946D2*
X29125Y63310D1*
X27852Y62037D1*
X27215Y62674D1*
X28488Y63946D1*
G37*
G36*
X33428Y68886D2*
X34064Y68249D1*
X32791Y66977D1*
X32155Y67613D1*
X33428Y68886D1*
G37*
G36*
X31989Y70325D2*
X32625Y69689D1*
X31353Y68416D1*
X30716Y69052D1*
X31989Y70325D1*
G37*
G36*
X30550Y71764D2*
X31186Y71128D1*
X29914Y69855D1*
X29277Y70491D1*
X30550Y71764D1*
G37*
G36*
X27050Y65386D2*
X27686Y64749D1*
X26413Y63477D1*
X25777Y64113D1*
X27050Y65386D1*
G37*
G36*
X25611Y66824D2*
X26248Y66188D1*
X24975Y64915D1*
X24339Y65551D1*
X25611Y66824D1*
G37*
G36*
X30898Y64215D2*
X31888Y65205D1*
X33302Y63791D1*
X32312Y62801D1*
X30898Y64215D1*
G37*
G36*
X24948Y70165D2*
X25938Y71154D1*
X27352Y69740D1*
X26362Y68750D1*
X24948Y70165D1*
G37*
D124*
X35600Y42240D3*
Y34290D3*
X31100Y42240D3*
Y34290D3*
X35603Y29709D3*
Y21759D3*
X31103Y29709D3*
Y21759D3*
M02*
