G04 DipTrace 2.4.0.2*
%INTopSilk.gbr*%
%MOMM*%
%ADD10C,0.25*%
%ADD13C,0.035*%
%ADD15C,0.4*%
%ADD17C,0.1*%
%ADD34O,0.499X0.5*%
%ADD125C,0.196*%
%FSLAX53Y53*%
G04*
G71*
G90*
G75*
G01*
%LNTopSilk*%
%LPD*%
D15*
X25339Y38365D3*
X20288Y34164D2*
D10*
G02X20288Y34164I1650J0D01*
G01*
X22639Y35364D2*
D17*
Y32964D1*
X21239Y35364D2*
Y32964D1*
X22639Y34164D2*
X22488D1*
X21239D2*
X21389D1*
X22289D2*
G02X22289Y34164I100J0D01*
G01*
X21439D2*
G02X21439Y34164I100J0D01*
G01*
X22289D2*
X21488Y34514D1*
X25239Y37164D2*
D10*
X18639D1*
Y31164D1*
X25239D1*
Y37164D1*
D15*
X25339Y25884D3*
X20288Y21683D2*
D10*
G02X20288Y21683I1650J0D01*
G01*
X22639Y22883D2*
D17*
Y20483D1*
X21239Y22883D2*
Y20483D1*
X22639Y21683D2*
X22488D1*
X21239D2*
X21389D1*
X22289D2*
G02X22289Y21683I100J0D01*
G01*
X21439D2*
G02X21439Y21683I100J0D01*
G01*
X22289D2*
X21488Y22033D1*
X25239Y24683D2*
D10*
X18639D1*
Y18683D1*
X25239D1*
Y24683D1*
X22930Y50585D2*
Y51385D1*
Y53840D2*
Y54640D1*
X22927Y47279D2*
Y48079D1*
X11319Y18123D2*
X16399D1*
Y68923D1*
X11319D1*
Y18123D1*
G36*
X19256Y69242D2*
X16874Y67742D1*
X19256Y66242D1*
Y67654D1*
Y69242D1*
G37*
X73390Y10250D2*
D10*
X65770D1*
Y12790D1*
X73390D1*
Y10250D1*
G36*
X73549Y15722D2*
X72048Y13340D1*
X70549Y15722D1*
X71961D1*
X73549D1*
G37*
X22176Y76710D2*
D10*
X32335D1*
Y74170D1*
X22176D1*
Y76710D1*
G36*
X21858Y71141D2*
X23358Y73522D1*
X24858Y71141D1*
X23445D1*
X21858D1*
G37*
X32550Y10861D2*
D10*
X19850D1*
Y16259D1*
X32550D1*
Y10861D1*
X30804Y17291D2*
G02X30804Y17291I556J0D01*
G01*
X36430Y46430D2*
X30330D1*
Y49730D1*
X36430D1*
Y46430D1*
X34650Y47445D2*
X32110D1*
Y48715D1*
X34650D1*
Y47445D1*
D34*
X37512Y46930D3*
X36430Y53230D2*
D10*
X30330D1*
Y56530D1*
X36430D1*
Y53230D1*
X34650Y54245D2*
X32110D1*
Y55515D1*
X34650D1*
Y54245D1*
D34*
X37512Y53730D3*
X29181Y61532D2*
D10*
X28507Y62206D1*
X29181Y61532D2*
X31201Y63553D1*
X32662Y65012D2*
X34569Y66920D1*
X33895Y67594D1*
X29854Y71635D2*
X29068Y72421D1*
X27161Y70513D1*
X25701Y69053D2*
X23681Y67033D1*
X24467Y66247D1*
D15*
X36750Y42465D3*
X31700Y38265D2*
D10*
G02X31700Y38265I1650J0D01*
G01*
X34050Y39465D2*
D17*
Y37065D1*
X32650Y39465D2*
Y37065D1*
X34050Y38265D2*
X33900D1*
X32650D2*
X32800D1*
X33700D2*
G02X33700Y38265I100J0D01*
G01*
X32851D2*
G02X32851Y38265I100J0D01*
G01*
X33700D2*
X32900Y38615D1*
X36650Y41265D2*
D10*
X30050D1*
Y35265D1*
X36650D1*
Y41265D1*
D15*
X36753Y29935D3*
X31703Y25734D2*
D10*
G02X31703Y25734I1650J0D01*
G01*
X34053Y26934D2*
D17*
Y24534D1*
X32653Y26934D2*
Y24534D1*
X34053Y25734D2*
X33903D1*
X32653D2*
X32804D1*
X33703D2*
G02X33703Y25734I100J0D01*
G01*
X32854D2*
G02X32854Y25734I100J0D01*
G01*
X33703D2*
X32903Y26084D1*
X36653Y28734D2*
D10*
X30053D1*
Y22734D1*
X36653D1*
Y28734D1*
X40975Y74095D2*
D13*
X83975D1*
Y13095D1*
X40975D1*
Y74095D1*
X22415Y39178D2*
D125*
X21928Y40454D1*
X21442Y39178D1*
X21625Y39603D2*
X22233D1*
X21663Y27733D2*
Y26457D1*
X22211D1*
X22393Y26519D1*
X22454Y26579D1*
X22514Y26700D1*
Y26882D1*
X22454Y27004D1*
X22393Y27065D1*
X22211Y27125D1*
X22393Y27187D1*
X22454Y27247D1*
X22514Y27368D1*
Y27490D1*
X22454Y27611D1*
X22393Y27673D1*
X22211Y27733D1*
X21663D1*
Y27125D2*
X22211D1*
X20606Y53345D2*
Y52068D1*
X21032D1*
X21214Y52130D1*
X21336Y52251D1*
X21397Y52373D1*
X21457Y52554D1*
Y52859D1*
X21397Y53041D1*
X21336Y53162D1*
X21214Y53284D1*
X21032Y53345D1*
X20606D1*
X21849Y53100D2*
X21971Y53162D1*
X22154Y53343D1*
Y52068D1*
X20333Y56600D2*
Y55324D1*
X20759D1*
X20941Y55386D1*
X21063Y55506D1*
X21124Y55628D1*
X21184Y55810D1*
Y56114D1*
X21124Y56297D1*
X21063Y56417D1*
X20941Y56540D1*
X20759Y56600D1*
X20333D1*
X21638Y56295D2*
Y56356D1*
X21698Y56478D1*
X21759Y56538D1*
X21881Y56598D1*
X22124D1*
X22244Y56538D1*
X22305Y56478D1*
X22366Y56356D1*
Y56235D1*
X22305Y56113D1*
X22184Y55932D1*
X21576Y55324D1*
X22427D1*
X20330Y50039D2*
Y48763D1*
X20756D1*
X20938Y48825D1*
X21060Y48945D1*
X21121Y49068D1*
X21181Y49249D1*
Y49553D1*
X21121Y49736D1*
X21060Y49856D1*
X20938Y49979D1*
X20756Y50039D1*
X20330D1*
X22302Y50038D2*
X21695D1*
X21635Y49491D1*
X21695Y49552D1*
X21878Y49614D1*
X22059D1*
X22242Y49552D1*
X22364Y49431D1*
X22424Y49249D1*
Y49128D1*
X22364Y48945D1*
X22242Y48823D1*
X22059Y48763D1*
X21878D1*
X21695Y48823D1*
X21635Y48885D1*
X21573Y49006D1*
X17650Y65913D2*
Y64942D1*
X17589Y64759D1*
X17528Y64699D1*
X17407Y64637D1*
X17285D1*
X17164Y64699D1*
X17104Y64759D1*
X17042Y64942D1*
Y65062D1*
X18042Y65669D2*
X18164Y65731D1*
X18347Y65912D1*
Y64637D1*
X64062Y12381D2*
Y11410D1*
X64002Y11227D1*
X63940Y11167D1*
X63820Y11105D1*
X63697D1*
X63577Y11167D1*
X63516Y11227D1*
X63455Y11410D1*
Y11531D1*
X64577Y12380D2*
X65244D1*
X64880Y11894D1*
X65063D1*
X65183Y11834D1*
X65244Y11774D1*
X65305Y11591D1*
Y11470D1*
X65244Y11288D1*
X65123Y11166D1*
X64940Y11105D1*
X64758D1*
X64577Y11166D1*
X64516Y11227D1*
X64455Y11348D1*
X33637Y76125D2*
Y75153D1*
X33577Y74971D1*
X33515Y74911D1*
X33395Y74849D1*
X33272D1*
X33152Y74911D1*
X33091Y74971D1*
X33030Y75153D1*
Y75274D1*
X34758Y76123D2*
X34152D1*
X34091Y75577D1*
X34152Y75638D1*
X34334Y75700D1*
X34515D1*
X34698Y75638D1*
X34820Y75517D1*
X34880Y75335D1*
Y75214D1*
X34820Y75031D1*
X34698Y74909D1*
X34515Y74849D1*
X34334D1*
X34152Y74909D1*
X34091Y74971D1*
X34030Y75092D1*
X16843Y14346D2*
Y13375D1*
X16783Y13192D1*
X16721Y13132D1*
X16600Y13070D1*
X16478D1*
X16357Y13132D1*
X16297Y13192D1*
X16235Y13375D1*
Y13495D1*
X17539Y14345D2*
X17357Y14284D1*
X17296Y14164D1*
Y14041D1*
X17357Y13921D1*
X17478Y13859D1*
X17721Y13799D1*
X17904Y13738D1*
X18024Y13616D1*
X18085Y13495D1*
Y13313D1*
X18024Y13192D1*
X17964Y13130D1*
X17781Y13070D1*
X17539D1*
X17357Y13130D1*
X17296Y13192D1*
X17235Y13313D1*
Y13495D1*
X17296Y13616D1*
X17418Y13738D1*
X17599Y13799D1*
X17842Y13859D1*
X17964Y13921D1*
X18024Y14041D1*
Y14164D1*
X17964Y14284D1*
X17781Y14345D1*
X17539D1*
X23562Y49352D2*
X24108D1*
X24290Y49414D1*
X24352Y49474D1*
X24412Y49595D1*
Y49717D1*
X24352Y49838D1*
X24290Y49900D1*
X24108Y49960D1*
X23562D1*
Y48684D1*
X23987Y49352D2*
X24412Y48684D1*
X24866Y49655D2*
Y49716D1*
X24927Y49838D1*
X24987Y49898D1*
X25109Y49958D1*
X25352D1*
X25473Y49898D1*
X25533Y49838D1*
X25595Y49716D1*
Y49595D1*
X25533Y49473D1*
X25413Y49292D1*
X24805Y48684D1*
X25655D1*
X26170Y49958D2*
X26836D1*
X26473Y49473D1*
X26655D1*
X26776Y49412D1*
X26836Y49352D1*
X26898Y49170D1*
Y49049D1*
X26836Y48866D1*
X26716Y48744D1*
X26533Y48684D1*
X26351D1*
X26170Y48744D1*
X26109Y48806D1*
X26048Y48927D1*
X23562Y55992D2*
X24108D1*
X24290Y56054D1*
X24352Y56114D1*
X24412Y56235D1*
Y56357D1*
X24352Y56478D1*
X24290Y56540D1*
X24108Y56600D1*
X23562D1*
Y55324D1*
X23987Y55992D2*
X24412Y55324D1*
X24866Y56295D2*
Y56356D1*
X24927Y56478D1*
X24987Y56538D1*
X25109Y56598D1*
X25352D1*
X25473Y56538D1*
X25533Y56478D1*
X25595Y56356D1*
Y56235D1*
X25533Y56113D1*
X25413Y55932D1*
X24805Y55324D1*
X25655D1*
X26776Y56598D2*
X26170D1*
X26109Y56052D1*
X26170Y56113D1*
X26352Y56175D1*
X26533D1*
X26716Y56113D1*
X26838Y55992D1*
X26898Y55810D1*
Y55689D1*
X26838Y55506D1*
X26716Y55384D1*
X26533Y55324D1*
X26352D1*
X26170Y55384D1*
X26109Y55446D1*
X26048Y55567D1*
X37848Y56732D2*
Y57278D1*
X37786Y57461D1*
X37726Y57522D1*
X37605Y57583D1*
X37483D1*
X37362Y57522D1*
X37301Y57461D1*
X37240Y57278D1*
Y56732D1*
X38516D1*
X37848Y57157D2*
X38516Y57583D1*
X37242Y58097D2*
Y58764D1*
X37727Y58400D1*
Y58583D1*
X37788Y58703D1*
X37848Y58764D1*
X38031Y58826D1*
X38151D1*
X38334Y58764D1*
X38456Y58643D1*
X38516Y58461D1*
Y58278D1*
X38456Y58097D1*
X38394Y58037D1*
X38273Y57975D1*
X37666Y60008D2*
X37848Y59946D1*
X37970Y59826D1*
X38031Y59643D1*
Y59583D1*
X37970Y59400D1*
X37848Y59279D1*
X37666Y59218D1*
X37605D1*
X37423Y59279D1*
X37302Y59400D1*
X37242Y59583D1*
Y59643D1*
X37302Y59826D1*
X37423Y59946D1*
X37666Y60008D1*
X37970D1*
X38273Y59946D1*
X38456Y59826D1*
X38516Y59643D1*
Y59522D1*
X38456Y59340D1*
X38334Y59279D1*
X37848Y49152D2*
Y49698D1*
X37786Y49880D1*
X37726Y49942D1*
X37605Y50002D1*
X37483D1*
X37362Y49942D1*
X37301Y49880D1*
X37240Y49698D1*
Y49152D1*
X38516D1*
X37848Y49577D2*
X38516Y50002D1*
Y51002D2*
X37242D1*
X38091Y50394D1*
Y51306D1*
X37242Y52063D2*
X37302Y51880D1*
X37484Y51758D1*
X37788Y51698D1*
X37970D1*
X38273Y51758D1*
X38456Y51880D1*
X38516Y52063D1*
Y52183D1*
X38456Y52366D1*
X38273Y52487D1*
X37970Y52548D1*
X37788D1*
X37484Y52487D1*
X37302Y52366D1*
X37242Y52183D1*
Y52063D1*
X37484Y52487D2*
X38273Y51758D1*
X37658Y23135D2*
Y23681D1*
X37596Y23863D1*
X37536Y23925D1*
X37415Y23985D1*
X37293D1*
X37172Y23925D1*
X37111Y23863D1*
X37050Y23681D1*
Y23135D1*
X38326D1*
X37658Y23560D2*
X38326Y23985D1*
Y24985D2*
X37052D1*
X37901Y24378D1*
Y25289D1*
X37294Y25681D2*
X37233Y25803D1*
X37052Y25985D1*
X38326D1*
X37658Y37662D2*
Y38208D1*
X37596Y38390D1*
X37536Y38452D1*
X37415Y38512D1*
X37293D1*
X37172Y38452D1*
X37111Y38390D1*
X37050Y38208D1*
Y37662D1*
X38326D1*
X37658Y38087D2*
X38326Y38512D1*
Y39512D2*
X37052D1*
X37901Y38904D1*
Y39816D1*
X37355Y40269D2*
X37294D1*
X37172Y40330D1*
X37112Y40390D1*
X37052Y40512D1*
Y40755D1*
X37112Y40876D1*
X37172Y40936D1*
X37294Y40998D1*
X37415D1*
X37537Y40936D1*
X37718Y40816D1*
X38326Y40208D1*
Y41058D1*
X23532Y52712D2*
X24078D1*
X24260Y52774D1*
X24322Y52834D1*
X24382Y52955D1*
Y53077D1*
X24322Y53198D1*
X24260Y53260D1*
X24078Y53320D1*
X23532D1*
Y52044D1*
X23957Y52712D2*
X24382Y52044D1*
X25382D2*
Y53318D1*
X24774Y52469D1*
X25686D1*
X26200Y53318D2*
X26867D1*
X26503Y52833D1*
X26686D1*
X26806Y52772D1*
X26867Y52712D1*
X26928Y52530D1*
Y52409D1*
X26867Y52226D1*
X26746Y52104D1*
X26563Y52044D1*
X26381D1*
X26200Y52104D1*
X26139Y52166D1*
X26078Y52287D1*
X30791Y51407D2*
X30670Y51530D1*
X30488Y51590D1*
X30245D1*
X30062Y51530D1*
X29940Y51407D1*
Y51287D1*
X30002Y51165D1*
X30062Y51104D1*
X30183Y51044D1*
X30548Y50922D1*
X30670Y50861D1*
X30730Y50800D1*
X30791Y50679D1*
Y50496D1*
X30670Y50376D1*
X30488Y50314D1*
X30245D1*
X30062Y50376D1*
X29940Y50496D1*
X31972Y51590D2*
X31183D1*
Y50314D1*
X31972D1*
X31183Y50982D2*
X31669D1*
X32364Y51590D2*
Y50314D1*
X33093D1*
X34274Y51590D2*
X33485D1*
Y50314D1*
X34274D1*
X33485Y50982D2*
X33971D1*
X35577Y51287D2*
X35517Y51407D1*
X35395Y51530D1*
X35274Y51590D1*
X35031D1*
X34909Y51530D1*
X34788Y51407D1*
X34726Y51287D1*
X34666Y51104D1*
Y50800D1*
X34726Y50618D1*
X34788Y50496D1*
X34909Y50376D1*
X35031Y50314D1*
X35274D1*
X35395Y50376D1*
X35517Y50496D1*
X35577Y50618D1*
X36395Y51590D2*
Y50314D1*
X35969Y51590D2*
X36820D1*
X31259Y58207D2*
X31138Y58330D1*
X30955Y58390D1*
X30712D1*
X30530Y58330D1*
X30408Y58207D1*
Y58087D1*
X30470Y57965D1*
X30530Y57904D1*
X30651Y57844D1*
X31016Y57722D1*
X31138Y57661D1*
X31198Y57600D1*
X31259Y57479D1*
Y57296D1*
X31138Y57176D1*
X30955Y57114D1*
X30712D1*
X30530Y57176D1*
X30408Y57296D1*
X32076Y58390D2*
Y57114D1*
X31651Y58390D2*
X32501D1*
X33866Y57114D2*
X33379Y58390D1*
X32894Y57114D1*
X33076Y57539D2*
X33684D1*
X34259Y57782D2*
X34805D1*
X34987Y57844D1*
X35049Y57904D1*
X35109Y58025D1*
Y58147D1*
X35049Y58268D1*
X34987Y58330D1*
X34805Y58390D1*
X34259D1*
Y57114D1*
X34684Y57782D2*
X35109Y57114D1*
X35927Y58390D2*
Y57114D1*
X35501Y58390D2*
X36352D1*
X23918Y63001D2*
Y62090D1*
X23978Y61907D1*
X24101Y61786D1*
X24283Y61725D1*
X24404D1*
X24586Y61786D1*
X24708Y61907D1*
X24769Y62090D1*
Y63001D1*
X25404Y61725D2*
X26012Y62999D1*
X25161D1*
X32995Y44555D2*
X33845Y43279D1*
Y44555D2*
X32995Y43279D1*
X32938Y31784D2*
X33423Y31176D1*
Y30508D1*
X33909Y31784D2*
X33423Y31176D1*
M02*
